<svg width="48" height="48" viewBox="0 0 48 48" fill="none" xmlns="http://www.w3.org/2000/svg">
<circle cx="24" cy="24" r="24" fill="white"/>
<path d="M28.5 12H19.5C15.3585 12 12 15.3585 12 19.5V28.5C12 32.6415 15.3585 36 19.5 36H28.5C32.6415 36 36 32.6415 36 28.5V19.5C36 15.3585 32.6415 12 28.5 12ZM33.75 28.5C33.75 31.395 31.395 33.75 28.5 33.75H19.5C16.605 33.75 14.25 31.395 14.25 28.5V19.5C14.25 16.605 16.605 14.25 19.5 14.25H28.5C31.395 14.25 33.75 16.605 33.75 19.5V28.5Z" fill="#2B2B2B"/>
<path d="M24 18C20.6865 18 18 20.6865 18 24C18 27.3135 20.6865 30 24 30C27.3135 30 30 27.3135 30 24C30 20.6865 27.3135 18 24 18ZM24 27.75C21.933 27.75 20.25 26.067 20.25 24C20.25 21.9315 21.933 20.25 24 20.25C26.067 20.25 27.75 21.9315 27.75 24C27.75 26.067 26.067 27.75 24 27.75Z" fill="#2B2B2B"/>
<path d="M30.4518 18.3497C30.8934 18.3497 31.2513 17.9918 31.2513 17.5502C31.2513 17.1087 30.8934 16.7507 30.4518 16.7507C30.0103 16.7507 29.6523 17.1087 29.6523 17.5502C29.6523 17.9918 30.0103 18.3497 30.4518 18.3497Z" fill="#2B2B2B"/>
</svg>
