<svg width="48" height="48" viewBox="0 0 48 48" fill="none" xmlns="http://www.w3.org/2000/svg">
<circle cx="24" cy="24" r="24" fill="white"/>
<g clip-path="url(#clip0)">
<path d="M30.915 26.028C30.527 25.538 30.638 25.32 30.915 24.882C30.92 24.877 34.123 20.451 34.453 18.95L34.455 18.949C34.619 18.402 34.455 18 33.662 18H31.038C30.37 18 30.062 18.345 29.897 18.731C29.897 18.731 28.561 21.929 26.671 24.002C26.061 24.601 25.779 24.793 25.446 24.793C25.282 24.793 25.027 24.601 25.027 24.054V18.949C25.027 18.293 24.84 18 24.287 18H20.161C19.742 18 19.493 18.306 19.493 18.591C19.493 19.213 20.438 19.356 20.536 21.106V24.903C20.536 25.735 20.385 25.888 20.05 25.888C19.158 25.888 16.993 22.677 15.71 19.002C15.451 18.289 15.198 18.001 14.525 18.001H11.9C11.151 18.001 11 18.346 11 18.732C11 19.414 11.892 22.805 15.148 27.285C17.318 30.343 20.374 32 23.154 32C24.825 32 25.029 31.632 25.029 30.999C25.029 28.077 24.878 27.801 25.715 27.801C26.103 27.801 26.771 27.993 28.331 29.468C30.114 31.217 30.407 32 31.405 32H34.029C34.777 32 35.156 31.632 34.938 30.906C34.439 29.379 31.067 26.238 30.915 26.028Z" fill="#2B2B2B"/>
</g>
<defs>
<clipPath id="clip0">
<rect width="24" height="24" fill="white" transform="translate(11 13)"/>
</clipPath>
</defs>
</svg>
