<svg xmlns="http://www.w3.org/2000/svg" width="11" height="19" viewBox="0 0 11 19">
  <path fill="#3D3D38" d="M32.6141732,36 C32.75853,36 32.8740157,35.9570136 32.9606299,35.8710407 L32.9606299,35.8710407 L33.8267717,35.0113122 C33.9422574,34.9253394 34,34.8107087 34,34.6674208 C34,34.5241329 33.9422574,34.3951737 33.8267717,34.280543 L33.8267717,34.280543 L25.988189,26.5 L33.8267717,18.719457 C33.9422574,18.6048263 34,18.4758671 34,18.3325792 C34,18.1892913 33.9422574,18.0746606 33.8267717,17.9886878 L33.8267717,17.9886878 L32.9606299,17.1289593 C32.8740157,17.0429864 32.75853,17 32.6141732,17 C32.4698165,17 32.3398952,17.0429864 32.2244094,17.1289593 L32.2244094,17.1289593 L23.1732283,26.1561086 C23.0577426,26.2420814 23,26.3567121 23,26.5 C23,26.6432879 23.0577426,26.7579186 23.1732283,26.8438914 L23.1732283,26.8438914 L32.2244094,35.8710407 C32.3398952,35.9570136 32.4698165,36 32.6141732,36 Z" transform="matrix(-1 0 0 1 34 -17)"/>
</svg>
