<?xml version="1.0" encoding="utf-8"?>
<!-- Generator: Adobe Illustrator 24.0.3, SVG Export Plug-In . SVG Version: 6.00 Build 0)  -->
<svg version="1.1" id="Layer_1" xmlns="http://www.w3.org/2000/svg" xmlns:xlink="http://www.w3.org/1999/xlink" x="0px" y="0px"
	 viewBox="0 0 255.1 185.5" style="enable-background:new 0 0 255.1 185.5;" xml:space="preserve">
<style type="text/css">
	.st0{fill:#59A4AF;}
</style>
<g>
	<path class="st0" d="M6.8,92.4c-0.9-3.5-0.2-5.1,3.7-5.1c2.3,0,4.1-2.9,6.9-3.4c6.9-1.2,12.6,1.3,15.8,7.4
		c7.7,14.9,15.5,29.7,23.2,44.6c0.7,1.3,1.5,2.6,2.5,4.4c4.8-8.5,9.1-16.6,13.8-24.4c14.6-24.3,30.5-47.3,52.7-65.6
		c17.4-14.3,35.6-27.2,55.8-37.1C193.9,6.9,207.2,2.8,221,0.3c3.5-0.6,3.5-0.6,6.3,2.6c0.7,0.8,1.5,0.2,2.3,0.2c3.1,0,6.3,0,9.6,0.8
		c-2.4,1-4.8,2-8,3.3c8.4,1.4,15.9-3.7,24-0.6c-3.5,3.2-7.5,2.8-11.1,3.7c-20.9,5.1-40.2,13.4-58,25.5
		c-21.5,14.6-38.5,33.9-55.2,53.4C112.1,111,98.4,136,84.4,160.9c-2.5,4.5-4.9,9-7.2,13.6c-5.1,9.9-15.9,12-26.8,10.7
		c-3.1-0.4-6.1-1.5-8.9-3c-1.8-0.9-2.8-2-3.1-4.1c-2.6-15.1-10.1-28.4-16.8-41.9C14.9,122.8,7.9,109.6,2,95.9c-1-2.2-1.3-4.7-2-7.6
		C3.1,88.7,4,91.7,6.8,92.4z" fill="#59A4AF"/>
</g>
</svg>
