<svg xmlns="http://www.w3.org/2000/svg" width="15" height="16" viewBox="0 0 15 16">
  <path fill="#E3D8D1" d="M8.13474623,24.0624975 L8.13474623,18.1855584 L6.10936043,18.1855584 L6.10936043,15.9277512 L8.13474623,15.9277512 L8.13474623,14.2675989 C8.13474623,13.3379137 8.39483659,12.6129807 8.91501781,12.0927994 C9.43519903,11.5726182 10.1379965,11.3125279 11.0234112,11.3125279 C11.7096077,11.3125279 12.285127,11.3457309 12.7499696,11.412137 L12.7499696,13.4043198 L11.55466,13.4043198 C11.1340879,13.4043198 10.8352605,13.5039289 10.6581777,13.7031472 C10.5253655,13.8802299 10.4589594,14.1458543 10.4589594,14.5000203 L10.4589594,15.9277512 L12.7499696,15.9277512 L12.4511422,18.1855584 L10.4589594,18.1855584 L10.4589594,24.0624975 L13.2812183,24.0624975 C13.7239254,24.0624975 14.100227,23.9075498 14.4101219,23.5976548 C14.7200168,23.2877599 14.8749645,22.9114584 14.8749645,22.4687513 L14.8749645,10.7812791 C14.8749645,10.338572 14.7200168,9.9622705 14.4101219,9.65237557 C14.100227,9.34248065 13.7239254,9.18753293 13.2812183,9.18753293 L1.5937462,9.18753293 C1.15103909,9.18753293 0.774737567,9.34248065 0.464842642,9.65237557 C0.154947716,9.9622705 0,10.338572 0,10.7812791 L0,22.4687513 C0,22.9114584 0.154947716,23.2877599 0.464842642,23.5976548 C0.774737567,23.9075498 1.15103909,24.0624975 1.5937462,24.0624975 L8.13474623,24.0624975 Z" transform="translate(0 -9)"/>
</svg>
