<svg xmlns="http://www.w3.org/2000/svg" width="15" height="16" viewBox="0 0 15 16">
  <path fill="#E3D8D1" d="M7.76234162,69.0622028 C9.03309477,69.0598452 9.95963671,69.0433419 10.5419671,69.0126929 C11.1728249,68.9794899 11.7206752,68.8854147 12.1855178,68.730467 C12.7389021,68.5312487 13.2203463,68.2268873 13.6298503,67.8173832 C14.0393544,67.4078792 14.3437158,66.926435 14.5429341,66.3730508 C14.6978818,65.9082081 14.7919569,65.3603579 14.82516,64.7295 C14.858363,64.0986421 14.8749645,63.0638137 14.8749645,61.6250152 L14.8741787,60.9900316 C14.8712972,59.8792031 14.8604916,59.0615699 14.8417615,58.5371319 C14.7974909,57.8952066 14.6978818,57.3418223 14.5429341,56.8769796 C14.3437158,56.3235954 14.0393544,55.8421512 13.6298503,55.4326472 C13.2203463,55.0231431 12.7389021,54.7187817 12.1855178,54.5195634 C11.7206752,54.3646157 11.1728249,54.2705405 10.5419671,54.2373375 C9.91110918,54.2041345 8.87628075,54.1875329 7.43748227,54.1875329 L7.11262291,54.1878276 C5.84186977,54.1901852 4.91532782,54.2066885 4.33299748,54.2373375 C3.70213961,54.2705405 3.15428935,54.3646157 2.68944671,54.5195634 C2.13606245,54.7187817 1.65461828,55.0231431 1.24511422,55.4326472 C0.835610156,55.8421512 0.531248733,56.3235954 0.332030458,56.8769796 C0.177082742,57.3418223 0.0830076146,57.8896725 0.0498045688,58.5205304 C0.0166015229,59.1513883 0,60.1862167 0,61.6250152 L0.00029470159,61.9498746 C0.00265231431,63.2206277 0.0191556034,64.1471696 0.0498045688,64.7295 C0.0830076146,65.3603579 0.177082742,65.9082081 0.332030458,66.3730508 C0.531248733,66.926435 0.835610156,67.4078792 1.24511422,67.8173832 C1.65461828,68.2268873 2.13606245,68.5201812 2.68944671,68.697264 C3.15428935,68.8743467 3.70213961,68.9794899 4.33299748,69.0126929 C4.96385535,69.0458959 5.99868378,69.0624975 7.43748227,69.0624975 L7.76234162,69.0622028 Z M7.968731,67.7343756 L6.90623353,67.7343756 C6.02081881,67.7343756 5.33462287,67.7233081 4.84764469,67.7011726 C4.02863606,67.656902 3.43098123,67.5683604 3.05468022,67.4355482 C2.3906193,67.1699239 1.91470915,66.6940137 1.62694925,66.0078172 C1.49413706,65.6315162 1.40559544,65.0338614 1.36132488,64.2148528 C1.33918935,63.7278746 1.32812183,63.0416787 1.32812183,62.1562639 L1.32853174,60.8060067 C1.33071792,60.0583232 1.34164885,59.4680471 1.36132488,59.0351776 C1.40559544,58.194034 1.49413706,57.5963791 1.62694925,57.2422131 C1.89257361,56.5560167 2.36848377,56.0801065 3.05468022,55.8144822 C3.43098123,55.68167 4.02863606,55.5931284 4.84764469,55.5488578 C5.33462287,55.5267223 6.02081881,55.5156548 6.90623353,55.5156548 L6.90623353,55.5156548 L7.968731,55.5156548 C8.85414573,55.5156548 9.54034167,55.5267223 10.0273198,55.5488578 C10.8684635,55.5931284 11.4661183,55.68167 11.8202843,55.8144822 C12.5064808,56.0801065 12.9823909,56.5560167 13.2480153,57.2422131 C13.3808275,57.5963791 13.4693691,58.194034 13.5136397,59.0351776 C13.5357752,59.5000203 13.5468427,60.1862167 13.5468427,61.0937665 L13.5464328,62.4440237 C13.5442466,63.1917072 13.5333157,63.7819833 13.5136397,64.2148528 C13.4693691,65.0338614 13.3808275,65.6315162 13.2480153,66.0078172 C12.9823909,66.6718782 12.5064808,67.1477883 11.8202843,67.4355482 C11.4661183,67.5683604 10.8684635,67.656902 10.0273198,67.7011726 C9.5624772,67.7233081 8.87628075,67.7343756 7.968731,67.7343756 L7.968731,67.7343756 Z M11.4218478,58.5371319 C11.6653366,58.5371319 11.8700889,58.4485903 12.0361041,58.2715076 C12.2021193,58.0944248 12.2961945,57.8841385 12.31833,57.6406497 C12.31833,57.3971609 12.2297884,57.1868746 12.0527056,57.0097918 C11.8756229,56.8327091 11.6653366,56.7441675 11.4218478,56.7441675 C11.1783589,56.7441675 10.9680726,56.8327091 10.7909899,57.0097918 C10.6139072,57.1868746 10.5253655,57.3971609 10.5253655,57.6406497 C10.5253655,57.8841385 10.6139072,58.0944248 10.7909899,58.2715076 C10.9680726,58.4485903 11.1783589,58.5371319 11.4218478,58.5371319 Z M7.43748227,65.4433655 C8.12367872,65.4433655 8.76007009,65.2718162 9.3466574,64.9287183 C9.93324472,64.5856203 10.3980874,64.1207776 10.7411853,63.5341903 C11.0842833,62.947603 11.2558325,62.3112116 11.2558325,61.6250152 C11.2558325,60.9388187 11.0842833,60.3024274 10.7411853,59.7158401 C10.3980874,59.1292528 9.93324472,58.6644101 9.3466574,58.3213121 C8.76007009,57.9782142 8.12367872,57.8066649 7.43748227,57.8066649 C6.75128582,57.8066649 6.11489444,57.9782142 5.52830713,58.3213121 C4.94171982,58.6644101 4.47687718,59.1292528 4.13377921,59.7158401 C3.79068124,60.3024274 3.619132,60.9388187 3.619132,61.6250152 C3.619132,62.3112116 3.79068124,62.947603 4.13377921,63.5341903 C4.47687718,64.1207776 4.94171982,64.5856203 5.52830713,64.9287183 C6.11489444,65.2718162 6.75128582,65.4433655 7.43748227,65.4433655 Z M7.43748227,64.1152436 C6.75128582,64.1152436 6.16469901,63.8717548 5.67772084,63.3847766 C5.19074266,62.8977985 4.94725383,62.3112116 4.94725383,61.6250152 C4.94725383,60.9388187 5.19074266,60.3522319 5.67772084,59.8652538 C6.16469901,59.3782756 6.75128582,59.1347868 7.43748227,59.1347868 C8.12367872,59.1347868 8.71026552,59.3782756 9.1972437,59.8652538 C9.68422187,60.3522319 9.92771071,60.9388187 9.92771071,61.6250152 C9.92771071,62.3112116 9.68422187,62.8977985 9.1972437,63.3847766 C8.71026552,63.8717548 8.12367872,64.1152436 7.43748227,64.1152436 Z" transform="translate(0 -54)"/>
</svg>
