<svg xmlns="http://www.w3.org/2000/svg" version="1.1" xmlns:xlink="http://www.w3.org/1999/xlink" xmlns:svgjs="http://svgjs.com/svgjs" viewBox="0 0 200 200" width="200" height="200"><g transform="matrix(8.333333333333334,0,0,8.333333333333334,0,0)"><path d="M17,1.5a5,5,0,0,0-5,5A5,5,0,0,0,17,1.5Z" fill="none" stroke="#59a4af" stroke-linecap="round" stroke-linejoin="round"></path><path d="M7.05.5A4.95,4.95,0,0,1,12,5.45,4.95,4.95,0,0,1,7.05.5Z" fill="none" stroke="#59a4af" stroke-linecap="round" stroke-linejoin="round"></path><path d="M12 17.5L12 5.45" fill="none" stroke="#59a4af" stroke-linecap="round" stroke-linejoin="round"></path><path d="M9,9v2.5L3.336,20.391A2,2,0,0,0,5,23.5H19a2,2,0,0,0,1.664-3.109L15,11.5V9" fill="none" stroke="#59a4af" stroke-linecap="round" stroke-linejoin="round"></path><path d="M17.75,20.5a.25.25,0,0,1,.25.25" fill="none" stroke="#59a4af" stroke-linecap="round" stroke-linejoin="round"></path><path d="M17.5,20.75a.25.25,0,0,1,.25-.25" fill="none" stroke="#59a4af" stroke-linecap="round" stroke-linejoin="round"></path><path d="M17.75,21a.25.25,0,0,1-.25-.25" fill="none" stroke="#59a4af" stroke-linecap="round" stroke-linejoin="round"></path><path d="M18,20.75a.25.25,0,0,1-.25.25" fill="none" stroke="#59a4af" stroke-linecap="round" stroke-linejoin="round"></path><path d="M12.25,20a.25.25,0,0,1,.25.25" fill="none" stroke="#59a4af" stroke-linecap="round" stroke-linejoin="round"></path><path d="M12,20.25a.25.25,0,0,1,.25-.25" fill="none" stroke="#59a4af" stroke-linecap="round" stroke-linejoin="round"></path><path d="M12.25,20.5a.25.25,0,0,1-.25-.25" fill="none" stroke="#59a4af" stroke-linecap="round" stroke-linejoin="round"></path><path d="M12.5,20.25a.25.25,0,0,1-.25.25" fill="none" stroke="#59a4af" stroke-linecap="round" stroke-linejoin="round"></path><path d="M15.25,18a.25.25,0,0,1,.25.25" fill="none" stroke="#59a4af" stroke-linecap="round" stroke-linejoin="round"></path><path d="M15,18.25a.25.25,0,0,1,.25-.25" fill="none" stroke="#59a4af" stroke-linecap="round" stroke-linejoin="round"></path><path d="M15.25,18.5a.25.25,0,0,1-.25-.25" fill="none" stroke="#59a4af" stroke-linecap="round" stroke-linejoin="round"></path><path d="M15.5,18.25a.25.25,0,0,1-.25.25" fill="none" stroke="#59a4af" stroke-linecap="round" stroke-linejoin="round"></path><path d="M6.75,20.5a.25.25,0,0,1,.25.25" fill="none" stroke="#59a4af" stroke-linecap="round" stroke-linejoin="round"></path><path d="M6.5,20.75a.25.25,0,0,1,.25-.25" fill="none" stroke="#59a4af" stroke-linecap="round" stroke-linejoin="round"></path><path d="M6.75,21a.25.25,0,0,1-.25-.25" fill="none" stroke="#59a4af" stroke-linecap="round" stroke-linejoin="round"></path><path d="M7,20.75a.25.25,0,0,1-.25.25" fill="none" stroke="#59a4af" stroke-linecap="round" stroke-linejoin="round"></path><path d="M8.25,18a.25.25,0,0,1,.25.25" fill="none" stroke="#59a4af" stroke-linecap="round" stroke-linejoin="round"></path><path d="M8,18.25A.25.25,0,0,1,8.25,18" fill="none" stroke="#59a4af" stroke-linecap="round" stroke-linejoin="round"></path><path d="M8.25,18.5A.25.25,0,0,1,8,18.25" fill="none" stroke="#59a4af" stroke-linecap="round" stroke-linejoin="round"></path><path d="M8.5,18.25a.25.25,0,0,1-.25.25" fill="none" stroke="#59a4af" stroke-linecap="round" stroke-linejoin="round"></path><path d="M16.911 14.5L7.089 14.5" fill="none" stroke="#59a4af" stroke-linecap="round" stroke-linejoin="round"></path></g></svg>