<?xml version="1.0" encoding="utf-8"?>
<!-- Generator: Adobe Illustrator 24.0.3, SVG Export Plug-In . SVG Version: 6.00 Build 0)  -->
<svg version="1.1" id="Layer_1" xmlns="http://www.w3.org/2000/svg" xmlns:xlink="http://www.w3.org/1999/xlink" x="0px" y="0px"
	 viewBox="0 0 77.9 81.6" style="enable-background:new 0 0 77.9 81.6;" xml:space="preserve">
<style type="text/css">
	.st0{fill:#59A4AF;}
</style>
<g>
	<path class="st0" d="M77.7,3.1c-1.3,2.9-2.1,6.1-3.9,8.7c-2.6,3.8-5.9,7.2-9,10.6c-4.1,4.3-8.5,8.3-12.4,12.8
		c-0.4,0.4-1.5,1.7-1.4,2.1c0.1,0.5,1.1,2.2,1.6,2.8c5.1,8,10.5,15.7,15.7,23.6c1.8,2.7,4.3,5.6,1.2,8.9c-2,2.1-9.3,0.4-11.7-2.6
		c-4.6-5.7-9-11.5-13.4-17.3c-1.3-1.7-2.5-3.5-4.4-6.2C33,54.9,27.1,61.8,21.5,68.9c-2.4,3-4.1,6.4-6.3,9.5c-2.1,2.9-4,4.9-7.6,1.2
		c-0.4-0.4-2.8,0.5-3.4,0.2c-5.2-2-5.2-4.9-2-9.5c7.2-10.5,14.7-20.8,22.7-30.7c3.8-4.7,4.5-4.7,0.1-9.1
		c-6.1-6.1-12.5-11.9-18.5-18.2c-1.5-1.5-2-5.5-1.2-6.4s3-1.1,5.2-1.6c0.9-0.2,2,0.3,2.8,0c4.1-1.6,7.1,0.2,9.8,2.9
		c4.4,4.3,9.1,8.4,12.8,13.2c2.1,2.7,3.6,4.4,4.1,4.5c0.5,0,2.4-1.7,5.2-4c9-7.5,18.9-14,28.4-20.9C75.7,0.2,78.6-0.9,77.7,3.1z"/>
</g>
</svg>
