<svg xmlns="http://www.w3.org/2000/svg" version="1.1" xmlns:xlink="http://www.w3.org/1999/xlink" xmlns:svgjs="http://svgjs.com/svgjs" viewBox="0 0 200 200" width="200" height="200"><g transform="matrix(8.333333333333334,0,0,8.333333333333334,0,0)"><path d="M9.5,23.5h-8a1,1,0,0,1-1-1V3.5a1,1,0,0,1,1-1h2" fill="none" stroke="#59a4af" stroke-linecap="round" stroke-linejoin="round"></path><path d="M15.5,2.5h2a1,1,0,0,1,1,1v7" fill="none" stroke="#59a4af" stroke-linecap="round" stroke-linejoin="round"></path><path d="M11.5,2.5a2,2,0,0,0-4,0h-2v3h8v-3Z" fill="none" stroke="#59a4af" stroke-linecap="round" stroke-linejoin="round"></path><path d="M16.5,10.5V5a.5.5,0,0,0-.5-.5H13.5" fill="none" stroke="#59a4af" stroke-linecap="round" stroke-linejoin="round"></path><path d="M5.5,4.5H3a.5.5,0,0,0-.5.5V21a.5.5,0,0,0,.5.5H9.5" fill="none" stroke="#59a4af" stroke-linecap="round" stroke-linejoin="round"></path><path d="M5.5 8.499L13.5 8.499" fill="none" stroke="#59a4af" stroke-linecap="round" stroke-linejoin="round"></path><path d="M5.5 11.499L13.5 11.499" fill="none" stroke="#59a4af" stroke-linecap="round" stroke-linejoin="round"></path><path d="M5.5 14.499L9.5 14.499" fill="none" stroke="#59a4af" stroke-linecap="round" stroke-linejoin="round"></path><path d="M15.7,22.3l-4.2,1.2,1.2-4.2,7.179-7.179a2.121,2.121,0,0,1,3,3Z" fill="none" stroke="#59a4af" stroke-linecap="round" stroke-linejoin="round"></path><path d="M18.979 13.02L21.979 16.02" fill="none" stroke="#59a4af" stroke-linecap="round" stroke-linejoin="round"></path><path d="M12.7 19.299L15.7 22.299" fill="none" stroke="#59a4af" stroke-linecap="round" stroke-linejoin="round"></path></g></svg>