<svg xmlns="http://www.w3.org/2000/svg" width="304" height="76" viewBox="0 0 304 76">
  <g fill="#FFF" fill-rule="evenodd">
    <path d="M21.663,66.221 L21.663,66.5 L6.59028387e-13,66.5 L6.59028387e-13,66.221 L21.663,66.221 Z M251.657,66.221 L251.657,66.5 L229.994,66.5 L229.994,66.221 L251.657,66.221 Z M91.4841,3.6861 L111.0171,48.3681 L104.7301,48.3681 L88.0971,9.9741 L78.9871,31.4841 L90.5721,31.4841 L90.5721,32.7721 L78.4421,32.7721 L71.8361,48.3691 L70.5471,48.3691 L70.5481,48.3681 L70.5471,48.3681 L89.4701,3.6861 L91.4841,3.6861 Z M230.6965,3.6861 L250.2295,48.3681 L243.9425,48.3681 L227.3075,9.9691 L218.1955,31.4841 L229.7795,31.4841 L229.7795,31.5361 L229.7835,31.5361 L229.7835,32.3271 L229.7795,32.3271 L229.7795,32.7721 L217.6495,32.7721 L211.0435,48.3691 L209.7555,48.3691 L227.8855,5.5621 L227.8875,5.5621 L228.6825,3.6861 L230.6965,3.6861 Z M3.3573,3.8086 L35.8923,41.4006 L35.8923,48.3676 L34.8543,48.3676 L1.2893,10.0076 L1.2893,48.3686 L0.4303,48.3686 L0.4303,48.3676 L0.0003,48.3676 L0.0003,3.8086 L3.3573,3.8086 Z M146.171,3.6861 L162.804,42.0811 L179.065,3.6861 L180.353,3.6861 L161.43,48.3681 L159.417,48.3681 L139.884,3.6861 L146.171,3.6861 Z M270.1559,3.7265 L275.1599,13.9165 L280.0229,3.7265 L283.4129,3.7265 L283.4129,18.4575 L279.8819,18.4575 L279.8819,4.6745 L273.7469,17.5285 L273.2229,17.5285 L266.9069,4.9575 L266.9069,18.4575 L266.6449,18.4575 L266.6449,3.7265 L270.1559,3.7265 Z M293.8655,3.6863 C295.7825,3.6863 297.4775,3.9483 298.9705,4.4733 C300.4645,4.9973 301.6745,5.8253 302.5825,6.9553 C303.4905,8.0853 303.9545,9.4573 303.9545,11.0713 C303.9545,12.6863 303.4905,14.0583 302.5825,15.1883 C301.6745,16.3183 300.4645,17.1453 298.9705,17.6703 C297.4775,18.1943 295.7825,18.4573 293.8655,18.4573 L293.8655,18.4573 L289.6485,18.4573 L289.6285,3.6863 Z M293.9665,3.9693 L293.1595,3.9693 L293.1595,18.0933 L294.0275,18.0933 C296.0645,18.0933 297.6185,17.4483 298.6885,16.1563 C299.7575,14.8653 300.3025,13.1503 300.3025,11.0313 L300.3025,11.0313 L300.3025,11.0113 C300.3025,8.8523 299.7775,7.1363 298.7285,5.8653 C297.6795,4.5943 296.0855,3.9693 293.9665,3.9693 L293.9665,3.9693 Z M35.8919,7.10542736e-15 C37.9959,7.10542736e-15 39.7009,1.705 39.7009,3.809 C39.7009,5.912 37.9959,7.617 35.8919,7.617 C33.7879,7.617 32.0829,5.912 32.0829,3.809 C32.0829,1.705 33.7879,7.10542736e-15 35.8919,7.10542736e-15 Z"/>
    <path fill-rule="nonzero" d="M31.29,72 C31.4475,72 31.5175,71.9125 31.5175,71.755 L31.5175,67.2925 L33.95,67.2925 C36.5575,67.2925 37.94,65.7175 37.94,63.53 C37.94,61.325 36.5575,59.75 33.95,59.75 L30.6775,59.75 C30.52,59.75 30.4325,59.8375 30.4325,59.995 L30.4325,71.755 C30.4325,71.9125 30.52,72 30.6775,72 L31.29,72 Z M33.845,66.3125 L31.5175,66.3125 L31.5175,60.73 L33.845,60.73 C35.5425,60.73 36.855,61.5 36.855,63.53 C36.855,65.56 35.5425,66.3125 33.845,66.3125 Z M42.53,72 C42.6875,72 42.7575,71.9125 42.7575,71.755 L42.7575,66.575 C42.7575,65.665 43.1425,64.195 44.7525,64.195 C44.91,64.195 45.12,64.195 45.365,64.2825 C45.54,64.335 45.6625,64.3 45.6625,64.1075 L45.6625,63.67 C45.6625,63.5125 45.6275,63.4425 45.5225,63.3725 C45.365,63.2675 45.085,63.215 44.735,63.215 C43.6675,63.215 43.0725,63.845 42.74,64.615 L42.705,63.6875 C42.705,63.495 42.6525,63.425 42.46,63.425 L41.9175,63.425 C41.76,63.425 41.7075,63.5125 41.7075,63.67 L41.7075,71.755 C41.7075,71.9125 41.76,72 41.9175,72 L42.53,72 Z M52.755,72.21 C53.945,72.21 55.0475,71.8425 55.8175,71.1075 C55.94,70.985 56.01,70.8975 55.8875,70.74 L55.6425,70.425 C55.59,70.355 55.4675,70.355 55.3975,70.425 C54.7325,70.9325 53.9625,71.3 52.8425,71.3 C50.62,71.3 49.395,69.865 49.2725,68.08 L55.94,68.08 C56.4125,68.08 56.5175,67.87 56.5175,67.2575 C56.5175,65.175 55.065,63.215 52.5275,63.215 C49.99,63.215 48.24,65.1575 48.24,67.6775 C48.24,70.1625 49.955,72.21 52.755,72.21 Z M55.5725,67.2225 L49.2725,67.2225 C49.43,65.385 50.69,64.16 52.51,64.16 C54.365,64.16 55.5375,65.455 55.5725,67.2225 Z M62.49,72.21 C64.0125,72.21 65.36,71.3525 65.36,69.7775 C65.36,68.4475 64.45,67.8175 63.33,67.3625 L62.5425,67.03 C61.5975,66.645 60.9675,66.3125 60.9675,65.42 C60.9675,64.5275 61.7375,64.125 62.5425,64.125 C63.2075,64.125 63.785,64.3875 64.3275,64.9825 C64.485,65.14 64.59,65.1575 64.7475,64.9825 L64.94,64.755 C65.045,64.6325 65.0625,64.4925 64.9575,64.37 C64.3625,63.6175 63.47,63.215 62.5075,63.215 C61.125,63.215 59.9525,64.0725 59.9525,65.455 C59.9525,66.6975 60.8625,67.2925 61.895,67.73 L62.8925,68.15 C63.715,68.5 64.3275,68.92 64.3275,69.795 C64.3275,70.775 63.5575,71.2825 62.4725,71.2825 C61.4925,71.2825 60.845,70.8275 60.3375,70.2675 C60.1975,70.11 60.04,70.1275 59.9525,70.25 L59.7425,70.5125 C59.655,70.67 59.655,70.7925 59.7775,70.95 C60.2325,71.51 61.1075,72.21 62.49,72.21 Z M73.065,72.21 C74.4475,72.21 75.55,71.685 76.285,70.7925 C76.39,70.6525 76.425,70.565 76.32,70.46 L75.9875,70.1275 C75.83,69.97 75.69,70.0575 75.5675,70.18 C75.0425,70.7575 74.325,71.2125 73.135,71.2125 C71.14,71.2125 69.6525,69.795 69.6525,67.7125 C69.6525,65.63 71.14,64.195 73.1175,64.195 C74.3075,64.195 75.025,64.6675 75.585,65.2625 C75.6725,65.3675 75.8125,65.455 75.97,65.28 L76.3025,64.965 C76.4075,64.86 76.3725,64.7725 76.2675,64.615 C75.5325,63.74 74.43,63.215 73.0825,63.215 C70.545,63.215 68.62,65.14 68.62,67.7125 C68.62,70.285 70.545,72.21 73.065,72.21 Z M80.8925,72 C81.05,72 81.12,71.9125 81.12,71.755 L81.12,66.575 C81.12,65.665 81.505,64.195 83.115,64.195 C83.2725,64.195 83.4825,64.195 83.7275,64.2825 C83.9025,64.335 84.025,64.3 84.025,64.1075 L84.025,63.67 C84.025,63.5125 83.99,63.4425 83.885,63.3725 C83.7275,63.2675 83.4475,63.215 83.0975,63.215 C82.03,63.215 81.435,63.845 81.1025,64.615 L81.0675,63.6875 C81.0675,63.495 81.015,63.425 80.8225,63.425 L80.28,63.425 C80.1225,63.425 80.07,63.5125 80.07,63.67 L80.07,71.755 C80.07,71.9125 80.1225,72 80.28,72 L80.8925,72 Z M88.055,61.08 C88.44,61.08 88.7375,60.765 88.7375,60.38 C88.7375,59.995 88.44,59.68 88.055,59.68 C87.67,59.68 87.355,59.995 87.355,60.38 C87.355,60.765 87.67,61.08 88.055,61.08 Z M88.3525,72 C88.51,72 88.5625,71.9125 88.5625,71.755 L88.5625,63.67 C88.5625,63.5125 88.51,63.425 88.3525,63.425 L87.74,63.425 C87.5825,63.425 87.53,63.5125 87.53,63.67 L87.53,71.755 C87.53,71.9125 87.5825,72 87.74,72 L88.3525,72 Z M93.52,75.325 C93.6775,75.325 93.7475,75.2375 93.7475,75.08 L93.7475,70.32 C94.395,71.475 95.5675,72.21 97.125,72.21 C99.645,72.21 101.3775,70.285 101.3775,67.7125 C101.3775,65.1575 99.645,63.215 97.125,63.215 C95.55,63.215 94.3775,63.985 93.73,65.21 L93.695,63.67 C93.695,63.5125 93.6425,63.425 93.485,63.425 L92.9075,63.425 C92.75,63.425 92.6975,63.5125 92.6975,63.67 L92.6975,75.08 C92.6975,75.2375 92.75,75.325 92.9075,75.325 L93.52,75.325 Z M97.0025,71.2125 C95.0775,71.2125 93.73,69.83 93.73,67.7475 C93.73,65.6475 95.0775,64.2125 97.0025,64.2125 C98.945,64.2125 100.345,65.63 100.345,67.7125 C100.345,69.8125 98.945,71.2125 97.0025,71.2125 Z M107.4025,72.21 C107.84,72.21 108.4525,72.1225 108.4525,71.86 L108.4525,71.4575 C108.4525,71.2825 108.3825,71.195 108.1025,71.2475 C107.9625,71.265 107.7,71.2825 107.56,71.2825 C107.0175,71.2825 106.7725,71.0375 106.7725,70.3375 L106.7725,64.3175 L108.2425,64.3175 C108.4,64.3175 108.4875,64.23 108.4875,64.0725 L108.4875,63.67 C108.4875,63.5125 108.4,63.425 108.2425,63.425 L106.7725,63.425 L106.7725,61.395 C106.7725,61.2375 106.7025,61.15 106.545,61.15 L105.95,61.15 C105.7925,61.15 105.7225,61.2375 105.7225,61.395 L105.7225,63.425 L104.6025,63.425 C104.445,63.425 104.3575,63.5125 104.3575,63.67 L104.3575,64.0725 C104.3575,64.23 104.445,64.3175 104.6025,64.3175 L105.7225,64.3175 L105.7225,70.46 C105.7225,71.615 106.265,72.21 107.4025,72.21 Z M112.6225,61.08 C113.0075,61.08 113.305,60.765 113.305,60.38 C113.305,59.995 113.0075,59.68 112.6225,59.68 C112.2375,59.68 111.9225,59.995 111.9225,60.38 C111.9225,60.765 112.2375,61.08 112.6225,61.08 Z M112.92,72 C113.0775,72 113.13,71.9125 113.13,71.755 L113.13,63.67 C113.13,63.5125 113.0775,63.425 112.92,63.425 L112.3075,63.425 C112.15,63.425 112.0975,63.5125 112.0975,63.67 L112.0975,71.755 C112.0975,71.9125 112.15,72 112.3075,72 L112.92,72 Z M121.2025,72.21 C123.6875,72.21 125.56,70.2675 125.56,67.7125 C125.56,65.1575 123.6875,63.215 121.2025,63.215 C118.7175,63.215 116.8275,65.1575 116.8275,67.7125 C116.8275,70.2675 118.7175,72.21 121.2025,72.21 Z M121.2025,71.2125 C119.2775,71.2125 117.86,69.76 117.86,67.7125 C117.86,65.665 119.2775,64.195 121.2025,64.195 C123.11,64.195 124.545,65.665 124.545,67.7125 C124.545,69.76 123.11,71.2125 121.2025,71.2125 Z M130.08,72 C130.2375,72 130.3075,71.9125 130.3075,71.755 L130.3075,66.75 C130.3075,65.175 131.445,64.195 132.9325,64.195 C134.42,64.195 135.2775,65.175 135.2775,66.75 L135.2775,71.755 C135.2775,71.9125 135.33,72 135.4875,72 L136.1,72 C136.2575,72 136.3275,71.9125 136.3275,71.755 L136.3275,66.6975 C136.3275,64.4225 135.0325,63.215 133.16,63.215 C131.69,63.215 130.7975,63.9325 130.3075,64.8075 L130.255,63.6875 C130.255,63.495 130.2025,63.425 130.01,63.425 L129.4675,63.425 C129.31,63.425 129.2575,63.5125 129.2575,63.67 L129.2575,71.755 C129.2575,71.9125 129.31,72 129.4675,72 L130.08,72 Z M148.605,72.21 C150.8275,72.21 152.3325,70.915 152.3325,68.9025 C152.3325,66.9775 150.95,66.12 149.4975,65.4025 L148.0275,64.685 C146.9075,64.1425 146.3825,63.5125 146.3825,62.5675 C146.3825,61.2725 147.3975,60.625 148.675,60.625 C149.7425,60.625 150.4775,61.0625 151.1425,61.85 C151.2825,62.0075 151.405,62.0425 151.5625,61.8675 L151.79,61.605 C151.9475,61.43 152,61.3425 151.8425,61.15 C151.09,60.205 150.04,59.61 148.64,59.61 C146.785,59.61 145.315,60.765 145.315,62.6025 C145.315,63.985 146.12,64.9125 147.415,65.525 L148.9025,66.26 C150.215,66.89 151.265,67.5025 151.265,68.92 C151.265,70.285 150.3025,71.195 148.6225,71.195 C147.24,71.195 146.3825,70.5825 145.77,69.725 C145.665,69.6025 145.525,69.5325 145.35,69.7075 L145.0525,70.04 C144.9125,70.1625 144.9475,70.2675 145.035,70.4075 C145.7,71.405 146.855,72.21 148.605,72.21 Z M156.9225,72 C157.08,72 157.15,71.9125 157.15,71.755 L157.15,69.445 L158.7075,67.8 L161.9275,71.8425 C162.015,71.965 162.1025,72 162.2425,72 L162.89,72 C163.1,72 163.1525,71.86 163.0475,71.72 L159.355,67.1 L162.575,63.67 C162.68,63.565 162.68,63.425 162.4875,63.425 L161.6825,63.425 C161.56,63.425 161.4725,63.46 161.385,63.565 L157.15,68.1325 L157.15,59.7325 C157.15,59.575 157.08,59.4875 156.9225,59.4875 L156.31,59.4875 C156.1525,59.4875 156.1,59.575 156.1,59.7325 L156.1,71.755 C156.1,71.9125 156.1525,72 156.31,72 L156.9225,72 Z M167.1475,61.08 C167.5325,61.08 167.83,60.765 167.83,60.38 C167.83,59.995 167.5325,59.68 167.1475,59.68 C166.7625,59.68 166.4475,59.995 166.4475,60.38 C166.4475,60.765 166.7625,61.08 167.1475,61.08 Z M167.445,72 C167.6025,72 167.655,71.9125 167.655,71.755 L167.655,63.67 C167.655,63.5125 167.6025,63.425 167.445,63.425 L166.8325,63.425 C166.675,63.425 166.6225,63.5125 166.6225,63.67 L166.6225,71.755 C166.6225,71.9125 166.675,72 166.8325,72 L167.445,72 Z M172.6125,72 C172.77,72 172.84,71.9125 172.84,71.755 L172.84,66.75 C172.84,65.175 173.9775,64.195 175.465,64.195 C176.9525,64.195 177.81,65.175 177.81,66.75 L177.81,71.755 C177.81,71.9125 177.8625,72 178.02,72 L178.6325,72 C178.79,72 178.86,71.9125 178.86,71.755 L178.86,66.6975 C178.86,64.4225 177.565,63.215 175.6925,63.215 C174.2225,63.215 173.33,63.9325 172.84,64.8075 L172.7875,63.6875 C172.7875,63.495 172.735,63.425 172.5425,63.425 L172,63.425 C171.8425,63.425 171.79,63.5125 171.79,63.67 L171.79,71.755 C171.79,71.9125 171.8425,72 172,72 L172.6125,72 Z M186.985,72.21 C188.3675,72.21 189.47,71.685 190.205,70.7925 C190.31,70.6525 190.345,70.565 190.24,70.46 L189.9075,70.1275 C189.75,69.97 189.61,70.0575 189.4875,70.18 C188.9625,70.7575 188.245,71.2125 187.055,71.2125 C185.06,71.2125 183.5725,69.795 183.5725,67.7125 C183.5725,65.63 185.06,64.195 187.0375,64.195 C188.2275,64.195 188.945,64.6675 189.505,65.2625 C189.5925,65.3675 189.7325,65.455 189.89,65.28 L190.2225,64.965 C190.3275,64.86 190.2925,64.7725 190.1875,64.615 C189.4525,63.74 188.35,63.215 187.0025,63.215 C184.465,63.215 182.54,65.14 182.54,67.7125 C182.54,70.285 184.465,72.21 186.985,72.21 Z M197.455,72.21 C199.03,72.21 200.2025,71.4575 200.85,70.25 L200.8675,71.755 C200.8675,71.9125 200.9375,72 201.095,72 L201.655,72 C201.8125,72 201.8825,71.9125 201.8825,71.755 L201.8825,63.67 C201.8825,63.5125 201.8125,63.425 201.655,63.425 L201.095,63.425 C200.9375,63.425 200.8675,63.5125 200.8675,63.67 L200.85,65.21 C200.2025,63.985 199.03,63.215 197.455,63.215 C194.935,63.215 193.2025,65.1575 193.2025,67.7125 C193.2025,70.285 194.935,72.21 197.455,72.21 Z M197.5775,71.2125 C195.6175,71.2125 194.2175,69.8125 194.2175,67.7125 C194.2175,65.63 195.6175,64.2125 197.5775,64.2125 C199.5025,64.2125 200.85,65.6475 200.85,67.7475 C200.85,69.83 199.5025,71.2125 197.5775,71.2125 Z M206.8225,72 C206.98,72 207.05,71.9125 207.05,71.755 L207.05,66.575 C207.05,65.665 207.435,64.195 209.045,64.195 C209.2025,64.195 209.4125,64.195 209.6575,64.2825 C209.8325,64.335 209.955,64.3 209.955,64.1075 L209.955,63.67 C209.955,63.5125 209.92,63.4425 209.815,63.3725 C209.6575,63.2675 209.3775,63.215 209.0275,63.215 C207.96,63.215 207.365,63.845 207.0325,64.615 L206.9975,63.6875 C206.9975,63.495 206.945,63.425 206.7525,63.425 L206.21,63.425 C206.0525,63.425 206,63.5125 206,63.67 L206,71.755 C206,71.9125 206.0525,72 206.21,72 L206.8225,72 Z M217.0475,72.21 C218.2375,72.21 219.34,71.8425 220.11,71.1075 C220.2325,70.985 220.3025,70.8975 220.18,70.74 L219.935,70.425 C219.8825,70.355 219.76,70.355 219.69,70.425 C219.025,70.9325 218.255,71.3 217.135,71.3 C214.9125,71.3 213.6875,69.865 213.565,68.08 L220.2325,68.08 C220.705,68.08 220.81,67.87 220.81,67.2575 C220.81,65.175 219.3575,63.215 216.82,63.215 C214.2825,63.215 212.5325,65.1575 212.5325,67.6775 C212.5325,70.1625 214.2475,72.21 217.0475,72.21 Z M219.865,67.2225 L213.565,67.2225 C213.7225,65.385 214.9825,64.16 216.8025,64.16 C218.6575,64.16 219.83,65.455 219.865,67.2225 Z"/>
  </g>
</svg>
