<svg xmlns="http://www.w3.org/2000/svg" width="45" height="32" viewBox="0 0 45 32">
  <path fill="#211F1F" d="M1065.5462,31.9997785 C1070.876,31.9997785 1075.0718,27.8039785 1075.0718,22.7009785 C1075.0718,17.4845785 1070.876,13.2887785 1065.773,13.2887785 C1061.9174,13.2887785 1066.6802,3.53637853 1074.845,3.64977853 L1074.845,0.0209785284 C1066.5668,-0.432621472 1055,6.48477853 1055,19.2989785 C1055,28.0307785 1060.3298,31.9997785 1065.5462,31.9997785 Z M1089.7004,31.9997785 C1095.0302,31.9997785 1099.226,27.8039785 1099.226,22.7009785 C1099.226,17.4845785 1094.9168,13.2887785 1089.9272,13.2887785 C1086.0716,13.2887785 1090.8344,3.53637853 1098.9992,3.64977853 L1098.9992,0.0209785284 C1090.721,-0.432621472 1079.1542,6.48477853 1079.1542,19.2989785 C1079.1542,28.0307785 1084.3706,31.9997785 1089.7004,31.9997785 Z" transform="translate(-1055)"/>
</svg>
