<svg xmlns="http://www.w3.org/2000/svg" xmlns:xlink="http://www.w3.org/1999/xlink" width="132" height="24" viewBox="0 0 132 24">
  <defs>
    <path id="icon-5-star-a" d="M12.5,0 L15.4508436,9.16714688 L25,9.16714688 L17.2747706,14.8328531 L20.2259991,24 L12.5,18.3342938 L4.77477061,24 L7.72522939,14.8328531 L0,9.16714688 L9.54915635,9.16714688 L12.5,0 Z M39.5,0 L42.4508436,9.16714688 L52,9.16714688 L44.2747706,14.8328531 L47.2259991,24 L39.5,18.3342938 L31.7747706,24 L34.7252294,14.8328531 L27,9.16714688 L36.5491564,9.16714688 L39.5,0 Z M65.5,0 L68.4508436,9.16714688 L78,9.16714688 L70.2747706,14.8328531 L73.2259991,24 L65.5,18.3342938 L57.7747706,24 L60.7252294,14.8328531 L53,9.16714688 L62.5491564,9.16714688 L65.5,0 Z M92.5,0 L95.4508436,9.16714688 L105,9.16714688 L97.2747706,14.8328531 L100.225999,24 L92.5,18.3342938 L84.7747706,24 L87.7252294,14.8328531 L80,9.16714688 L89.5491564,9.16714688 L92.5,0 Z M119.5,0 L122.450844,9.16714688 L132,9.16714688 L124.274771,14.8328531 L127.225999,24 L119.5,18.3342938 L111.774771,24 L114.725229,14.8328531 L107,9.16714688 L116.549156,9.16714688 L119.5,0 Z"/>
  </defs>
  <g fill="none" fill-rule="evenodd">
    <use fill="#61B0BC" xlink:href="#icon-5-star-a"/>
    <use fill="#244B5A" fill-opacity=".12" xlink:href="#icon-5-star-a"/>
  </g>
</svg>
