<svg width="1440" height="417" viewBox="0 0 1440 417" fill="none" xmlns="http://www.w3.org/2000/svg">
<rect width="1440" height="417" transform="matrix(-1 0 0 1 1440 0)" fill="#080A1D"/>
<mask id="mask0" mask-type="alpha" maskUnits="userSpaceOnUse" x="0" y="0" width="1440" height="417">
<rect width="1440" height="417" transform="matrix(-1 0 0 1 1440 0)" fill="#080A1D"/>
</mask>
<g mask="url(#mask0)">
<path d="M1289.39 168.372C1294.15 165.624 1297.92 162.361 1300.5 158.77C1303.08 155.18 1304.4 151.331 1304.4 147.445C1304.4 143.558 1303.08 139.71 1300.5 136.119C1297.92 132.529 1294.15 129.266 1289.39 126.518L1253.14 147.445L1289.39 168.372Z" fill="url(#paint0_linear)" fill-opacity="0.2" stroke="url(#paint1_linear)" stroke-width="2"/>
<path d="M1216.89 168.372C1221.65 171.12 1227.3 173.3 1233.52 174.787C1239.74 176.275 1246.41 177.04 1253.14 177.04C1259.87 177.04 1266.54 176.275 1272.76 174.787C1278.98 173.3 1284.63 171.12 1289.39 168.372L1253.14 147.445L1216.89 168.372Z" fill="url(#paint2_linear)" fill-opacity="0.2" stroke="url(#paint3_linear)" stroke-width="2"/>
<path d="M1289.39 126.518C1284.63 123.77 1278.98 121.59 1272.76 120.103C1266.54 118.615 1259.87 117.85 1253.14 117.85C1246.41 117.85 1239.74 118.615 1233.52 120.103C1227.3 121.59 1221.65 123.77 1216.89 126.518L1253.14 147.445L1289.39 126.518Z" fill="url(#paint4_linear)" fill-opacity="0.2" stroke="url(#paint5_linear)" stroke-width="2"/>
<path d="M1216.89 126.519C1212.13 129.267 1208.35 132.529 1205.77 136.12C1203.2 139.711 1201.87 143.559 1201.87 147.446C1201.87 151.332 1203.2 155.181 1205.77 158.771C1208.35 162.362 1212.13 165.624 1216.89 168.373L1253.14 147.446L1216.89 126.519Z" fill="url(#paint6_linear)" fill-opacity="0.2" stroke="url(#paint7_linear)" stroke-width="2"/>
<path d="M1374.05 229.488C1384.43 235.48 1396.76 240.234 1410.32 243.476C1423.88 246.719 1438.42 248.388 1453.1 248.387C1467.78 248.387 1482.32 246.717 1495.88 243.473C1509.45 240.229 1521.77 235.475 1532.15 229.482L1453.1 183.85L1374.05 229.488Z" fill="url(#paint8_linear)" fill-opacity="0.2" stroke="url(#paint9_linear)" stroke-width="2"/>
<path d="M1532.15 138.213C1521.77 132.22 1509.44 127.467 1495.88 124.224C1482.32 120.981 1467.78 119.312 1453.1 119.313C1438.42 119.313 1423.88 120.983 1410.32 124.227C1396.75 127.471 1384.43 132.225 1374.05 138.218L1453.1 183.85L1532.15 138.213Z" fill="url(#paint10_linear)" fill-opacity="0.2" stroke="url(#paint11_linear)" stroke-width="2"/>
<path d="M1374.05 138.22C1363.67 144.213 1355.43 151.328 1349.81 159.158C1344.2 166.988 1341.31 175.381 1341.31 183.856C1341.31 192.331 1344.2 200.723 1349.82 208.553C1355.44 216.383 1363.67 223.497 1374.05 229.489L1453.1 183.852L1374.05 138.22Z" fill="url(#paint12_linear)" fill-opacity="0.2" stroke="url(#paint13_linear)" stroke-width="2"/>
<path d="M1288.07 400.471C1305.99 390.128 1320.2 377.849 1329.89 364.335C1339.59 350.821 1344.58 336.337 1344.58 321.71C1344.58 307.082 1339.59 292.598 1329.89 279.084C1320.2 265.57 1305.99 253.291 1288.07 242.948L1151.64 321.71L1288.07 400.471Z" fill="url(#paint14_linear)" fill-opacity="0.2" stroke="url(#paint15_linear)" stroke-width="2"/>
<path d="M1015.21 400.471C1033.12 410.814 1054.39 419.019 1077.8 424.617C1101.21 430.214 1126.3 433.095 1151.64 433.095C1176.98 433.095 1202.07 430.214 1225.47 424.617C1248.88 419.019 1270.15 410.814 1288.07 400.471L1151.64 321.71L1015.21 400.471Z" fill="url(#paint16_linear)" fill-opacity="0.2" stroke="url(#paint17_linear)" stroke-width="2"/>
<path d="M1288.07 242.948C1270.15 232.605 1248.88 224.4 1225.47 218.803C1202.07 213.205 1176.98 210.324 1151.64 210.324C1126.3 210.324 1101.21 213.205 1077.8 218.803C1054.39 224.4 1033.12 232.605 1015.21 242.948L1151.64 321.71L1288.07 242.948Z" fill="url(#paint18_linear)" fill-opacity="0.2" stroke="url(#paint19_linear)" stroke-width="2"/>
<path d="M1015.21 242.948C997.291 253.292 983.079 265.571 973.382 279.085C963.686 292.599 958.696 307.083 958.696 321.71C958.696 336.337 963.686 350.822 973.382 364.336C983.079 377.849 997.291 390.129 1015.21 400.472L1151.64 321.71L1015.21 242.948Z" fill="url(#paint20_linear)" fill-opacity="0.2" stroke="url(#paint21_linear)" stroke-width="2"/>
<path d="M1126.01 150.735C1148.53 137.733 1166.39 122.297 1178.58 105.309C1190.77 88.3214 1197.04 70.1139 1197.04 51.7263C1197.04 33.3388 1190.77 15.1312 1178.58 -1.85664C1166.39 -18.8445 1148.53 -34.2801 1126.01 -47.2821L954.503 51.7263L1126.01 150.735Z" fill="url(#paint22_linear)" fill-opacity="0.2" stroke="url(#paint23_linear)" stroke-width="2"/>
<path d="M783.001 150.735C805.523 163.737 832.26 174.05 861.687 181.087C891.113 188.124 922.652 191.745 954.503 191.745C986.354 191.745 1017.89 188.124 1047.32 181.087C1076.75 174.05 1103.48 163.737 1126.01 150.735L954.503 51.7263L783.001 150.735Z" fill="url(#paint24_linear)" fill-opacity="0.2" stroke="url(#paint25_linear)" stroke-width="2"/>
<path d="M1126.01 -47.282C1103.48 -60.284 1076.75 -70.5977 1047.32 -77.6343C1017.89 -84.671 986.354 -88.2927 954.503 -88.2927C922.652 -88.2927 891.113 -84.671 861.687 -77.6343C832.26 -70.5977 805.523 -60.284 783.001 -47.282L954.503 51.7264L1126.01 -47.282Z" fill="url(#paint26_linear)" fill-opacity="0.2" stroke="url(#paint27_linear)" stroke-width="2"/>
<path d="M783 -47.2815C760.478 -34.2795 742.612 -18.8439 730.423 -1.85604C718.234 15.1318 711.961 33.3393 711.961 51.7269C711.961 70.1145 718.234 88.322 730.423 105.31C742.612 122.298 760.478 137.733 783 150.735L954.502 51.7269L783 -47.2815Z" fill="url(#paint28_linear)" fill-opacity="0.2" stroke="url(#paint29_linear)" stroke-width="2"/>
</g>
<defs>
<linearGradient id="paint0_linear" x1="1216.89" y1="168.372" x2="1253.13" y2="105.588" gradientUnits="userSpaceOnUse">
<stop stop-color="#012FEA"/>
<stop offset="1" stop-color="#012FEA" stop-opacity="0"/>
</linearGradient>
<linearGradient id="paint1_linear" x1="1292.02" y1="156.957" x2="1294.44" y2="119.736" gradientUnits="userSpaceOnUse">
<stop stop-color="#012FEA"/>
<stop offset="1" stop-color="#012FEA" stop-opacity="0"/>
</linearGradient>
<linearGradient id="paint2_linear" x1="1216.89" y1="126.518" x2="1253.13" y2="189.302" gradientUnits="userSpaceOnUse">
<stop stop-color="#012FEA"/>
<stop offset="1" stop-color="#012FEA" stop-opacity="0"/>
</linearGradient>
<linearGradient id="paint3_linear" x1="1236.66" y1="169.894" x2="1299.04" y2="182.043" gradientUnits="userSpaceOnUse">
<stop stop-color="#012FEA"/>
<stop offset="1" stop-color="#012FEA" stop-opacity="0"/>
</linearGradient>
<linearGradient id="paint4_linear" x1="1289.39" y1="168.372" x2="1253.14" y2="105.588" gradientUnits="userSpaceOnUse">
<stop stop-color="#012FEA"/>
<stop offset="1" stop-color="#012FEA" stop-opacity="0"/>
</linearGradient>
<linearGradient id="paint5_linear" x1="1269.62" y1="124.996" x2="1207.23" y2="112.847" gradientUnits="userSpaceOnUse">
<stop stop-color="#012FEA"/>
<stop offset="1" stop-color="#012FEA" stop-opacity="0"/>
</linearGradient>
<linearGradient id="paint6_linear" x1="1289.39" y1="126.519" x2="1253.14" y2="189.302" gradientUnits="userSpaceOnUse">
<stop stop-color="#012FEA"/>
<stop offset="1" stop-color="#012FEA" stop-opacity="0"/>
</linearGradient>
<linearGradient id="paint7_linear" x1="1214.25" y1="137.933" x2="1211.83" y2="175.155" gradientUnits="userSpaceOnUse">
<stop stop-color="#012FEA"/>
<stop offset="1" stop-color="#012FEA" stop-opacity="0"/>
</linearGradient>
<linearGradient id="paint8_linear" x1="1374.05" y1="138.218" x2="1453.09" y2="275.126" gradientUnits="userSpaceOnUse">
<stop stop-color="#012FEA"/>
<stop offset="1" stop-color="#012FEA" stop-opacity="0"/>
</linearGradient>
<linearGradient id="paint9_linear" x1="1417.17" y1="232.805" x2="1553.2" y2="259.294" gradientUnits="userSpaceOnUse">
<stop stop-color="#012FEA"/>
<stop offset="1" stop-color="#012FEA" stop-opacity="0"/>
</linearGradient>
<linearGradient id="paint10_linear" x1="1532.15" y1="229.482" x2="1453.11" y2="92.5747" gradientUnits="userSpaceOnUse">
<stop stop-color="#012FEA"/>
<stop offset="1" stop-color="#012FEA" stop-opacity="0"/>
</linearGradient>
<linearGradient id="paint11_linear" x1="1489.03" y1="134.895" x2="1353" y2="108.407" gradientUnits="userSpaceOnUse">
<stop stop-color="#012FEA"/>
<stop offset="1" stop-color="#012FEA" stop-opacity="0"/>
</linearGradient>
<linearGradient id="paint12_linear" x1="1532.14" y1="138.214" x2="1453.11" y2="275.127" gradientUnits="userSpaceOnUse">
<stop stop-color="#012FEA"/>
<stop offset="1" stop-color="#012FEA" stop-opacity="0"/>
</linearGradient>
<linearGradient id="paint13_linear" x1="1368.3" y1="163.112" x2="1363.03" y2="244.279" gradientUnits="userSpaceOnUse">
<stop stop-color="#012FEA"/>
<stop offset="1" stop-color="#012FEA" stop-opacity="0"/>
</linearGradient>
<linearGradient id="paint14_linear" x1="1015.21" y1="400.471" x2="1151.62" y2="164.176" gradientUnits="userSpaceOnUse">
<stop stop-color="#012FEA"/>
<stop offset="1" stop-color="#012FEA" stop-opacity="0"/>
</linearGradient>
<linearGradient id="paint15_linear" x1="1297.99" y1="357.511" x2="1307.08" y2="217.423" gradientUnits="userSpaceOnUse">
<stop stop-color="#012FEA"/>
<stop offset="1" stop-color="#012FEA" stop-opacity="0"/>
</linearGradient>
<linearGradient id="paint16_linear" x1="1015.21" y1="242.948" x2="1151.62" y2="479.243" gradientUnits="userSpaceOnUse">
<stop stop-color="#012FEA"/>
<stop offset="1" stop-color="#012FEA" stop-opacity="0"/>
</linearGradient>
<linearGradient id="paint17_linear" x1="1089.62" y1="406.199" x2="1324.4" y2="451.925" gradientUnits="userSpaceOnUse">
<stop stop-color="#012FEA"/>
<stop offset="1" stop-color="#012FEA" stop-opacity="0"/>
</linearGradient>
<linearGradient id="paint18_linear" x1="1288.07" y1="400.471" x2="1151.66" y2="164.176" gradientUnits="userSpaceOnUse">
<stop stop-color="#012FEA"/>
<stop offset="1" stop-color="#012FEA" stop-opacity="0"/>
</linearGradient>
<linearGradient id="paint19_linear" x1="1213.65" y1="237.22" x2="978.875" y2="191.495" gradientUnits="userSpaceOnUse">
<stop stop-color="#012FEA"/>
<stop offset="1" stop-color="#012FEA" stop-opacity="0"/>
</linearGradient>
<linearGradient id="paint20_linear" x1="1288.07" y1="242.948" x2="1151.66" y2="479.244" gradientUnits="userSpaceOnUse">
<stop stop-color="#012FEA"/>
<stop offset="1" stop-color="#012FEA" stop-opacity="0"/>
</linearGradient>
<linearGradient id="paint21_linear" x1="1005.28" y1="285.909" x2="996.192" y2="425.997" gradientUnits="userSpaceOnUse">
<stop stop-color="#012FEA"/>
<stop offset="1" stop-color="#012FEA" stop-opacity="0"/>
</linearGradient>
<linearGradient id="paint22_linear" x1="783.001" y1="150.735" x2="954.481" y2="-146.303" gradientUnits="userSpaceOnUse">
<stop stop-color="#012FEA"/>
<stop offset="1" stop-color="#012FEA" stop-opacity="0"/>
</linearGradient>
<linearGradient id="paint23_linear" x1="1138.48" y1="96.7301" x2="1149.91" y2="-79.3692" gradientUnits="userSpaceOnUse">
<stop stop-color="#012FEA"/>
<stop offset="1" stop-color="#012FEA" stop-opacity="0"/>
</linearGradient>
<linearGradient id="paint24_linear" x1="783.001" y1="-47.2821" x2="954.481" y2="249.756" gradientUnits="userSpaceOnUse">
<stop stop-color="#012FEA"/>
<stop offset="1" stop-color="#012FEA" stop-opacity="0"/>
</linearGradient>
<linearGradient id="paint25_linear" x1="876.548" y1="157.935" x2="1171.68" y2="215.415" gradientUnits="userSpaceOnUse">
<stop stop-color="#012FEA"/>
<stop offset="1" stop-color="#012FEA" stop-opacity="0"/>
</linearGradient>
<linearGradient id="paint26_linear" x1="1126.01" y1="150.735" x2="954.526" y2="-146.303" gradientUnits="userSpaceOnUse">
<stop stop-color="#012FEA"/>
<stop offset="1" stop-color="#012FEA" stop-opacity="0"/>
</linearGradient>
<linearGradient id="paint27_linear" x1="1032.46" y1="-54.4826" x2="737.329" y2="-111.962" gradientUnits="userSpaceOnUse">
<stop stop-color="#012FEA"/>
<stop offset="1" stop-color="#012FEA" stop-opacity="0"/>
</linearGradient>
<linearGradient id="paint28_linear" x1="1126" y1="-47.2815" x2="954.524" y2="249.757" gradientUnits="userSpaceOnUse">
<stop stop-color="#012FEA"/>
<stop offset="1" stop-color="#012FEA" stop-opacity="0"/>
</linearGradient>
<linearGradient id="paint29_linear" x1="770.527" y1="6.72311" x2="759.096" y2="182.822" gradientUnits="userSpaceOnUse">
<stop stop-color="#012FEA"/>
<stop offset="1" stop-color="#012FEA" stop-opacity="0"/>
</linearGradient>
</defs>
</svg>
