<svg width="375" height="743" viewBox="0 0 375 743" fill="none" xmlns="http://www.w3.org/2000/svg">
<path d="M0 0H375V743H0V0Z" fill="#080A1D"/>
<mask id="mask0" mask-type="alpha" maskUnits="userSpaceOnUse" x="0" y="0" width="375" height="743">
<path d="M0 0H375V743H0V0Z" fill="#080A1D"/>
</mask>
<g mask="url(#mask0)">
<path d="M373.447 247.082C373.447 243.793 368.939 241.112 363.456 241.112C357.973 241.112 353.465 243.793 353.465 247.082C353.465 250.372 357.973 253.053 363.456 253.053C368.939 253.175 373.447 250.494 373.447 247.082ZM354.927 247.082C354.927 244.524 358.704 242.33 363.456 242.33C368.208 242.33 371.985 244.402 371.985 247.082C371.985 249.641 368.208 251.834 363.456 251.834C358.704 251.834 354.927 249.763 354.927 247.082Z" fill="#012FEA"/>
<path d="M378.078 1003.12L380.149 988.865C380.636 985.819 380.758 982.651 380.88 979.605L381.124 951.216L381.489 907.718L381.489 907.474L382.342 807.319L418.895 807.319L422.429 829.616C422.672 830.834 423.16 831.809 424.134 832.418C424.866 832.906 425.718 833.149 426.449 833.028C429.617 832.54 432.664 830.834 435.222 828.154C435.588 827.788 435.953 827.301 436.319 826.935L436.441 826.814C436.562 826.692 436.684 826.57 436.806 826.448C437.172 825.961 437.537 825.473 437.903 824.986C438.025 824.742 438.146 824.62 438.268 824.377C438.512 824.011 438.756 823.646 438.999 823.158C439.243 822.671 439.487 822.305 439.73 821.818L439.852 821.574C439.974 821.331 440.096 821.209 440.096 821.087C440.34 820.478 440.705 819.869 440.949 819.259C441.071 819.016 441.193 818.65 441.314 818.406C441.436 818.163 441.558 817.797 441.68 817.432C441.924 816.822 442.167 816.091 442.289 815.482C442.289 815.36 442.411 815.117 442.411 814.995C442.411 814.873 442.533 814.751 442.533 814.629C442.533 814.507 442.533 814.507 442.655 814.386L442.655 814.264C442.655 814.02 442.777 813.898 442.777 813.654C443.02 813.045 443.142 812.314 443.264 811.583C443.508 810.487 443.751 809.39 443.873 808.415C443.873 808.172 443.995 807.928 443.995 807.562L476.649 807.562L476.649 826.326C476.649 827.179 477.38 827.788 478.111 827.788L480.914 827.788C481.766 827.788 482.376 827.057 482.376 826.326L482.376 798.911L483.716 798.911C484.447 798.911 484.934 798.302 484.934 797.571L484.934 782.463L484.934 781.853L484.934 773.446C484.934 772.715 484.325 772.106 483.716 772.106L482.376 772.106L482.376 759.556C482.376 758.703 481.645 757.972 480.792 757.972L478.233 757.972L438.756 757.972L406.102 563.022C407.076 561.682 407.929 560.464 408.782 559.245C412.559 558.88 416.702 552.3 418.895 548.279C419.017 548.158 419.017 548.036 419.017 547.914C421.21 543.893 423.16 539.263 424.622 534.511C424.744 534.389 424.744 534.146 424.744 534.024C425.231 532.683 425.475 531.587 425.84 530.368C426.328 528.663 426.693 526.957 427.059 525.373C427.546 523.18 427.546 520.987 427.302 519.037C427.302 518.184 427.302 517.331 427.302 516.478C427.546 515.625 427.79 514.651 428.034 513.676C429.739 507.218 431.323 500.151 432.785 492.597L432.785 492.475L432.176 492.353L432.785 492.353C433.395 489.429 433.882 486.261 434.369 482.606C434.491 481.509 434.735 480.413 434.857 479.316C434.979 478.098 435.222 476.879 435.344 475.661C435.344 475.539 435.344 475.417 435.344 475.295C435.466 474.808 435.466 474.199 435.588 473.711L435.71 472.371L435.953 470.178C436.197 468.35 436.319 466.522 436.562 464.695C436.806 462.136 437.05 459.456 437.294 456.775L437.294 456.288C437.537 453.851 437.781 451.414 437.903 448.855C438.146 445.931 438.39 442.885 438.512 439.839L438.512 439.717C438.634 438.377 438.634 437.158 438.756 435.818C438.756 435.696 438.756 435.574 438.756 435.452L438.878 433.747C438.878 433.625 438.878 433.503 438.878 433.381L438.999 431.066L439.365 425.218C439.487 423.39 439.609 421.562 439.609 419.735C439.852 414.983 440.096 410.109 440.218 405.235C440.34 403.408 440.34 401.58 440.462 399.752L440.462 398.168C440.462 397.194 440.583 396.341 440.583 395.366L445.213 396.097L445.213 408.647C445.213 411.327 447.407 413.521 450.087 413.521C452.768 413.521 454.961 411.327 454.961 408.647L454.961 397.681L456.301 397.925L456.301 402.555C456.301 403.286 456.789 403.773 457.52 403.895L457.52 437.524C457.52 440.204 459.713 442.397 462.393 442.397C465.074 442.397 467.389 440.204 467.389 437.524L467.389 403.895L467.511 403.895C468.242 403.895 468.851 403.286 468.851 402.555L468.851 399.63L666.725 431.31L666.603 432.285C666.603 432.406 666.603 432.406 666.603 432.528C666.603 433.259 667.09 433.868 667.821 433.99L727.281 443.25C728.012 443.372 728.743 442.885 728.987 442.032L729.109 441.423L818.664 455.8C820.857 456.166 822.806 454.947 823.172 452.998C823.659 449.83 823.05 446.54 821.222 443.129C821.222 443.129 821.222 443.129 821.222 443.007C821.101 442.763 820.979 442.519 820.857 442.276C820.735 442.032 820.613 441.91 820.491 441.667C820.248 441.301 819.882 440.814 819.638 440.448C819.638 440.326 819.517 440.326 819.517 440.204C819.273 439.961 819.029 439.595 818.786 439.352L818.176 438.62C817.933 438.377 817.811 438.133 817.567 437.889L817.202 437.524C816.958 437.28 816.714 436.915 816.47 436.671C816.227 436.427 815.861 436.062 815.618 435.818C815.374 435.574 815.008 435.209 814.765 434.965C814.155 434.478 813.546 433.869 812.815 433.381C812.571 433.259 812.328 433.016 812.206 432.894C812.084 432.772 811.962 432.772 811.84 432.65C811.109 432.163 810.378 431.675 809.647 431.188C809.525 431.188 809.525 431.066 809.404 431.066C809.038 430.822 808.794 430.701 808.429 430.457C805.017 428.386 801.118 426.558 797.097 425.096C796.854 424.974 796.732 424.974 796.488 424.852C795.27 424.365 793.929 423.999 792.589 423.634C792.102 423.512 791.614 423.39 791.127 423.268C791.005 423.268 791.005 423.268 790.883 423.268L790.64 423.268L789.543 423.024L788.69 422.781C788.203 422.659 787.837 422.537 787.35 422.537L786.497 422.415L786.375 422.415L786.253 422.415C785.888 422.293 785.522 422.293 785.157 422.293C785.035 422.293 785.035 422.293 784.913 422.293L468.729 375.018L468.729 373.434C468.729 372.703 468.12 372.094 467.389 372.094L467.267 372.094L467.267 210.773L467.389 210.773C468.12 210.773 468.729 210.164 468.729 209.433L468.729 190.791L515.273 99.7736L516.126 100.261C516.492 100.383 516.857 100.505 517.223 100.383C517.588 100.261 517.832 100.017 518.076 99.6518L545.247 45.9188C545.612 45.1878 545.369 44.3349 544.638 43.9693L544.028 43.7256L585.333 -37.0566C585.821 -38.1532 585.943 -39.2497 585.699 -40.3463C585.455 -41.1992 584.846 -41.8085 584.115 -42.174C581.191 -43.6361 577.901 -44.0016 574.246 -43.3924L574.124 -43.3924C573.88 -43.3924 573.515 -43.2706 573.271 -43.2706C573.149 -43.2706 573.149 -43.2706 572.905 -43.1487C572.296 -43.0269 571.687 -42.7832 571.078 -42.6614C570.712 -42.5395 570.468 -42.4177 570.103 -42.2958C569.981 -42.2958 569.981 -42.174 569.737 -42.174C569.494 -42.0521 569.25 -41.9303 569.006 -41.9303C569.006 -41.9303 568.885 -41.9303 568.885 -41.8085C568.519 -41.6866 568.153 -41.5648 567.788 -41.3211C567.544 -41.1992 567.301 -41.0774 566.935 -40.9556L566.691 -40.8337C566.326 -40.59 565.96 -40.4682 565.595 -40.2245C564.498 -39.6153 563.402 -39.0061 562.427 -38.275C561.452 -37.5439 560.477 -36.9347 559.624 -36.2037L558.893 -35.5944C558.528 -35.3508 558.162 -34.9852 557.919 -34.7415C557.675 -34.4979 557.431 -34.2542 557.188 -34.1323C556.822 -33.8886 556.578 -33.5231 556.213 -33.2794C555.847 -32.9139 555.482 -32.6702 555.238 -32.3047C554.872 -31.9391 554.629 -31.6955 554.263 -31.3299C553.898 -30.9644 553.654 -30.5989 553.289 -30.2333C551.948 -28.7712 550.73 -27.3091 549.633 -25.847C549.39 -25.4814 549.024 -25.1159 548.78 -24.6285C548.171 -23.7756 547.684 -23.0446 547.075 -22.1917C546.831 -21.8261 546.465 -21.3388 546.222 -20.9732C545.978 -20.4859 545.734 -20.1203 545.491 -19.633C545.491 -19.5111 545.369 -19.5111 545.369 -19.3893C545.125 -19.0237 545.003 -18.6582 544.76 -18.2927C544.272 -17.5616 543.907 -16.7087 543.297 -15.6121L464.343 142.784C463.734 142.541 463.124 142.419 462.515 142.419C459.835 142.419 457.641 144.612 457.641 147.293L457.641 156.187L452.037 167.519C451.427 167.275 450.94 167.153 450.331 167.153C447.65 167.153 445.457 169.346 445.457 172.027L445.457 180.8L440.949 189.816L439.487 189.816L439.487 189.45C439.487 189.207 439.487 188.841 439.487 188.597L439.487 188.354C439.487 188.11 439.487 187.866 439.487 187.623L439.365 184.82C439.365 184.211 439.365 183.602 439.243 183.236L439.243 183.115L439.243 182.993C439.243 182.871 439.243 182.871 439.243 182.749C439.243 182.262 439.243 181.896 439.243 181.896C439.243 181.896 439.243 181.409 439.243 180.678L439.243 180.434C439.243 180.312 439.243 180.19 439.243 180.068C439.243 179.703 439.243 179.216 439.243 178.606L439.243 178.484C439.243 178.363 439.243 178.241 439.243 178.119C439.121 173.123 438.634 162.889 437.294 149.973C437.172 148.633 437.05 147.293 436.806 145.952L436.684 144.856L436.562 143.881C436.562 143.515 436.441 143.15 436.441 142.784L436.441 142.541C436.319 141.81 436.197 140.957 436.075 140.226C435.466 135.474 434.735 130.844 434.004 126.457C434.004 126.457 434.004 126.457 434.004 126.335C433.76 124.995 433.516 123.655 433.273 122.315C432.176 116.466 430.958 111.105 429.617 106.231C429.617 106.231 429.617 106.231 429.617 106.109L429.008 104.16C429.008 104.038 429.008 104.038 428.886 103.916C428.764 103.429 428.643 103.063 428.521 102.576L428.399 102.21L428.399 102.089L428.034 100.87L427.912 100.627L427.912 100.505C427.912 100.383 427.79 100.139 427.79 100.017L427.181 98.1897C426.693 96.8494 426.328 95.6309 425.84 94.4125C423.403 87.5893 420.601 81.6189 417.433 76.7452C404.64 56.5192 387.46 50.5488 375.275 49.0867C367.965 48.2338 358.095 48.2338 350.785 49.0867C338.6 50.5488 321.542 56.5191 308.627 76.7452C305.581 81.6189 302.657 87.5892 300.22 94.4125L298.879 98.1896L298.636 98.7988L298.27 100.017L298.026 100.748C297.905 101.114 297.783 101.358 297.783 101.723L297.783 101.967C297.539 102.576 297.417 103.307 297.174 103.916L296.564 105.866C296.443 106.475 296.199 107.084 296.077 107.693L296.077 107.815L295.468 110.13C295.468 110.13 295.468 110.13 295.468 110.252L295.468 110.374C295.224 111.471 294.98 112.445 294.737 113.542L294.615 113.907C294.493 114.517 294.371 115.248 294.128 115.857C294.006 116.466 293.884 116.954 293.762 117.563C293.153 120.121 292.665 122.802 292.056 126.214C291.325 130.478 290.594 134.986 289.985 139.982C289.863 140.713 289.741 141.566 289.619 142.297L289.619 142.541L289.619 142.662C289.619 143.15 289.497 143.637 289.497 144.125C289.376 144.612 289.376 144.977 289.376 145.465L289.376 145.83C289.376 145.952 289.376 146.196 289.376 146.318C289.376 146.44 289.376 146.561 289.376 146.683C289.254 147.293 289.254 147.78 289.254 148.267C289.254 148.389 289.254 148.633 289.254 148.633C287.67 162.645 287.304 173.733 287.182 177.875C287.182 177.997 287.182 178.119 287.182 178.119L287.182 178.241C287.182 178.85 287.182 179.337 287.182 179.703C287.182 179.825 287.182 179.947 287.182 180.068L287.182 180.312C287.182 181.165 287.182 181.531 287.182 181.531L287.182 182.505C287.182 182.505 287.182 182.627 287.182 182.749L287.182 182.871C287.182 182.871 287.182 182.871 287.182 182.993L287.182 184.698L287.182 184.942L287.182 186.648C287.182 186.892 287.182 187.135 287.182 187.379L287.182 188.11L287.182 188.354L287.182 189.45L287.182 189.572L281.212 189.572L281.212 171.783C281.212 169.103 279.019 166.909 276.216 166.909C273.536 166.909 271.343 169.102 271.343 171.783L271.343 188.354L270.124 188.354L270.124 180.068C270.124 179.337 269.637 178.85 268.906 178.728L268.906 147.414C268.906 144.734 266.713 142.541 264.032 142.541C261.352 142.541 259.158 144.734 259.158 147.414L259.158 179.216L259.037 179.216C258.306 179.216 257.696 179.825 257.696 180.556L257.696 209.555C257.696 210.286 258.306 210.895 259.037 210.895L259.158 210.895L259.158 246.717L154.129 141.322L154.86 140.591C155.47 139.982 155.348 139.129 154.86 138.52L112.093 96.1182C111.85 95.8745 111.484 95.6308 111.119 95.6308C110.753 95.6308 110.387 95.7527 110.144 96.1182L109.656 96.6056L45.6885 32.3941C44.1046 30.8101 41.7896 30.6883 40.4493 32.0285C38.1343 34.3436 36.794 37.3897 36.1848 41.1668C36.1848 41.4105 36.063 41.6542 36.063 42.0197C35.9411 42.8726 35.9411 43.6037 35.9411 44.4566C35.9411 46.4061 36.1848 48.4774 36.5503 50.6706L36.5503 50.7924C36.794 52.2545 37.2814 53.7167 37.7687 55.1788C38.0124 55.788 38.1343 56.2754 38.3779 56.8846C41.3022 64.8044 46.5414 72.8461 52.9991 79.182L259.158 281.686L259.158 372.216L259.037 372.216C258.306 372.216 257.696 372.825 257.696 373.556L257.696 402.555C257.696 403.286 258.306 403.895 259.037 403.895L259.158 403.895L259.158 408.647L81.6324 498.689L81.1451 497.836C80.7795 497.105 79.9266 496.861 79.1955 497.227L25.7063 524.764C25.3408 524.885 25.097 525.251 24.9752 525.616C24.9752 525.738 24.8533 525.86 24.8533 526.104C24.8533 526.348 24.8533 526.591 24.9752 526.713L25.2189 527.322L-55.6852 568.383C-56.7817 568.871 -57.5129 569.846 -57.8784 570.82C-58.0002 571.186 -58.0002 571.551 -58.0002 571.795C-58.0002 572.282 -57.8784 572.77 -57.6347 573.135C-56.1726 576.06 -53.7357 578.375 -50.3241 579.959C-49.8367 580.202 -49.2275 580.446 -48.7401 580.69C-48.3746 580.811 -47.8872 581.055 -47.3998 581.177C-46.7906 581.421 -46.0596 581.543 -45.4504 581.786C-44.963 581.908 -44.5974 582.03 -44.1101 582.03C-43.9882 582.03 -43.9882 582.03 -43.8664 582.03L-43.7445 582.03C-43.2571 582.152 -42.8917 582.152 -42.4042 582.274L-41.9169 582.395C-41.3076 582.517 -40.6985 582.517 -40.2111 582.639C-39.7237 582.639 -39.3582 582.761 -38.8708 582.761L-38.1398 582.761C-28.7578 583.127 -18.1574 580.568 -8.7754 575.694L258.793 435.94L258.793 437.158C258.793 439.839 260.986 442.032 263.667 442.032C266.347 442.032 268.54 439.839 268.54 437.158L268.54 430.7L286.573 421.318L286.573 421.562C286.695 424.608 286.939 427.776 287.061 430.7L287.182 433.015L287.67 439.595C287.792 441.057 287.914 442.519 287.914 443.981L288.035 445.931C288.157 446.784 288.157 447.759 288.279 448.611C288.523 451.17 288.645 453.607 288.888 456.044L288.888 456.531C289.376 461.405 289.741 465.791 290.228 470.056C290.594 472.858 290.96 475.661 291.325 478.707L291.569 480.778C291.691 481.509 291.812 482.24 291.934 482.849C292.056 483.946 292.3 485.043 292.422 486.017C292.422 486.139 292.422 486.383 292.544 486.505L292.544 486.87C292.544 487.236 292.665 487.601 292.665 487.967L293.396 492.353L293.396 492.475L293.396 492.597C294.859 500.029 296.443 507.096 298.148 513.676L298.148 513.798C298.392 514.651 298.636 515.625 298.879 516.478C298.879 517.088 298.758 517.697 298.758 518.306C298.758 518.55 298.758 518.793 298.758 518.915C298.636 519.646 298.636 520.499 298.636 521.352C298.636 522.692 298.758 524.033 299.001 525.251C299.367 526.835 299.732 528.541 300.22 530.247C300.585 531.343 300.829 532.562 301.316 533.902L301.438 534.389C302.9 539.141 304.85 543.771 307.043 547.792C307.043 547.914 307.165 548.036 307.165 548.036C309.358 552.057 313.379 558.636 317.278 559.002C317.278 559.123 317.4 559.123 317.4 559.245L317.521 559.367C321.299 564.972 324.954 569.358 328.487 573.501C331.655 577.278 334.58 580.812 337.26 584.711C339.819 588.61 340.062 595.189 340.062 600.916C340.062 601.525 340.306 602.134 340.672 602.5C341.037 602.865 341.403 602.987 341.89 603.109L343.352 757.606L251.239 757.606L248.68 757.606C247.827 757.606 247.096 758.337 247.096 759.19L247.096 771.74L245.756 771.74C245.025 771.74 244.415 772.35 244.415 773.081L244.415 781.488L244.415 782.097L244.415 797.206C244.415 797.937 245.025 798.546 245.756 798.546L247.096 798.546L247.096 825.961C247.096 826.814 247.827 827.423 248.558 827.423L251.36 827.423C252.213 827.423 252.823 826.692 252.823 825.961L252.823 807.197L343.84 807.197L344.693 907.474L345.058 950.85L345.911 979.605C345.911 982.651 346.155 985.819 346.642 988.865L348.713 1003.12C349.079 1005.8 351.394 1007.87 354.196 1007.87L372.717 1007.87C375.397 1007.87 377.712 1005.8 378.078 1003.12ZM466.78 403.651L466.78 437.28C466.78 439.351 465.074 440.935 463.003 440.935C460.931 440.935 459.347 439.23 459.347 437.28L459.347 403.651L466.78 403.651ZM260.011 179.216L260.011 147.414C260.011 145.343 261.717 143.759 263.667 143.759C265.738 143.759 267.322 145.465 267.322 147.414L267.322 179.216L260.011 179.216ZM380.271 907.596L379.905 951.216C379.905 954.14 379.296 956.942 378.199 959.623L374.422 968.639C373.813 970.102 372.473 970.954 370.889 970.954L368.696 970.954C368.939 967.908 369.061 964.984 369.183 961.816L368.574 961.694L368.33 961.694L368.574 961.694L369.183 961.694L369.305 959.989C369.549 955.237 369.792 949.875 370.28 943.296C370.523 940.128 370.523 937.204 370.523 934.401L371.254 879.694L375.153 883.714C376.859 885.542 377.956 887.857 378.321 890.294L380.149 904.55C380.149 905.646 380.271 906.621 380.271 907.596ZM359.679 919.658C358.704 920.999 357.973 922.826 357.486 925.141L356.024 816.213L370.889 816.213L369.427 925.141C368.818 922.826 368.086 920.999 367.234 919.658C366.381 918.44 365.04 917.709 363.456 917.709C361.872 917.587 360.532 918.318 359.679 919.658ZM360.654 920.268C361.263 919.293 362.36 918.805 363.456 918.805C364.553 918.805 365.528 919.293 366.259 920.268C368.086 922.948 369.183 927.456 369.305 933.792C369.305 934.645 369.305 935.376 369.305 936.229C369.305 938.422 369.183 940.737 369.061 943.052C368.574 949.632 368.33 954.993 368.086 959.745L368.086 959.989C367.477 958.039 365.65 956.577 363.456 956.577C361.263 956.577 359.436 958.039 358.826 959.989L358.826 959.745C358.583 954.993 358.339 949.632 357.852 943.052C357.608 939.641 357.608 936.473 357.608 933.67C357.73 927.578 358.826 922.948 360.654 920.268ZM363.335 957.917C365.406 957.917 366.99 959.623 366.99 961.573C366.99 963.644 365.284 965.228 363.335 965.228C361.263 965.228 359.679 963.522 359.679 961.573C359.679 959.623 361.385 957.917 363.335 957.917ZM363.335 966.568C365.284 966.568 366.99 965.35 367.843 963.644C367.721 966.324 367.599 968.883 367.355 971.442C366.868 978.509 366.381 985.088 365.528 992.886C365.284 994.958 364.309 995.81 363.335 995.81C362.36 995.81 361.385 994.836 361.141 992.886C360.167 983.382 359.679 976.681 359.314 971.442C359.192 968.883 358.948 966.324 358.826 963.644C359.679 965.35 361.385 966.568 363.335 966.568ZM380.393 897.239L379.54 890.294C379.174 887.614 377.956 884.933 376.006 882.983L371.254 877.988L372.107 815.482L381.124 815.482L380.393 897.239ZM381.124 814.02L369.792 814.02L369.792 807.44L381.124 807.44L381.124 814.02ZM432.42 829.129C430.47 830.591 428.399 831.566 426.206 831.931C425.718 832.053 425.231 831.931 424.744 831.566C424.134 831.078 423.647 830.347 423.525 829.494L409.513 739.939L412.194 739.452C412.559 739.33 412.925 739.208 413.169 738.843C413.412 738.477 413.534 738.112 413.412 737.746L403.787 678.286C403.665 677.921 403.543 677.555 403.177 677.312C402.812 677.068 402.446 676.946 402.081 677.068L399.644 677.433L359.679 421.684L358.217 412.668C363.335 413.277 368.33 412.911 373.448 411.693L374.422 411.449L377.59 430.091L437.05 785.387C439.243 798.79 437.05 813.045 431.323 821.818C431.323 821.818 430.714 822.671 430.47 823.036C429.496 824.742 429.374 826.448 430.227 827.788C430.836 828.519 431.567 829.007 432.42 829.129ZM382.83 759.069L411.341 759.069L418.773 806.222L382.464 806.222L382.83 759.069ZM381.246 806.222L369.914 806.222L369.914 759.069L381.733 759.069L381.246 806.222ZM407.564 739.086C407.442 739.086 407.442 739.086 407.442 739.086L407.32 738.964L397.694 679.505C397.694 679.383 397.816 679.261 397.816 679.261L399.4 679.017L402.446 678.53C402.568 678.53 402.568 678.53 402.568 678.53L402.69 678.652L412.316 738.112C412.316 738.233 412.316 738.233 412.316 738.233L412.194 738.355L407.564 739.086ZM364.066 602.134L364.066 493.084L369.792 493.084L385.388 592.752C385.023 595.555 385.023 598.601 385.023 601.159C385.023 601.403 384.901 601.647 384.657 601.891C384.413 602.134 384.17 602.134 383.926 602.134L364.066 602.134ZM360.045 444.347C359.801 444.225 359.436 444.103 359.192 443.981C359.07 443.981 358.948 443.86 358.948 443.86C358.705 443.738 358.583 443.616 358.339 443.494C358.217 443.372 357.973 443.25 357.852 443.129C357.73 443.007 357.608 443.007 357.486 442.885C357.242 442.763 356.999 442.519 356.877 442.276L356.755 442.154C356.268 441.666 355.78 441.057 355.415 440.448C353.831 437.889 352.125 434.843 350.175 431.553C345.789 423.634 341.037 414.13 337.138 404.139C338.113 404.87 338.966 405.479 339.941 406.088C340.062 406.088 340.062 406.21 340.184 406.21C341.037 406.819 341.89 407.307 342.865 407.794C343.109 407.916 343.23 408.038 343.474 408.159C345.424 409.134 347.373 409.987 349.323 410.718C349.444 410.718 349.566 410.84 349.688 410.84C350.785 411.206 351.759 411.449 352.856 411.815C354.806 416.932 356.999 422.293 359.314 427.654C359.314 427.776 359.436 427.776 359.436 427.898L362.116 444.834C361.385 444.712 360.776 444.591 360.045 444.347ZM294.249 390.37L286.817 394.147L286.695 392.076C286.573 389.639 286.573 387.324 286.451 384.887L286.451 383.425C286.451 382.207 286.329 380.988 286.329 379.77C287.548 379.648 288.766 379.404 289.741 378.795C291.934 377.577 293.518 375.018 293.64 372.216L295.346 339.927C295.59 334.931 291.812 330.423 286.817 329.936L285.72 329.814L285.72 329.327L285.72 328.839L285.72 328.23C285.72 327.621 285.72 327.133 285.72 326.524C289.254 323.6 292.056 320.067 294.006 316.168L302.169 324.209C299.245 342.486 296.808 362.468 294.859 383.425C294.615 385.74 294.493 388.055 294.249 390.37ZM274.511 392.807L279.75 392.807L279.75 397.803L272.317 401.58L272.317 394.147C272.927 394.026 273.78 393.782 274.511 392.807ZM272.317 392.807C272.196 392.807 272.074 392.807 271.952 392.685C271.708 392.563 271.343 392.32 271.099 391.832C271.221 391.954 271.221 391.954 271.343 392.076C271.83 392.442 272.318 392.563 272.805 392.563C272.683 392.807 272.561 392.807 272.317 392.807ZM280.968 392.807L285.477 392.807L285.598 394.878L280.968 397.193L280.968 392.807ZM285.477 391.589L274.145 391.589C273.049 391.589 272.439 391.467 272.074 391.223C271.708 390.858 271.221 390.248 271.221 387.933C271.221 385.497 271.708 384.887 272.074 384.644C272.439 384.4 273.049 384.278 274.267 384.278L285.355 384.278L285.355 385.131C285.355 387.202 285.477 389.396 285.477 391.589ZM286.451 322.016L285.72 322.747C285.72 317.873 285.72 313 285.72 308.248L291.691 314.096C290.472 316.899 288.766 319.579 286.451 322.016ZM292.665 314.949L293.031 315.315C291.325 318.97 288.888 322.138 285.72 325.062L285.72 324.453L287.304 322.869C289.619 320.432 291.325 317.873 292.665 314.949ZM284.502 324.209L284.502 326.402L284.502 328.961L284.502 330.423L284.502 330.545L284.502 331.154L284.502 332.373C284.502 332.982 284.502 333.591 284.502 334.2C284.502 335.175 284.502 336.15 284.502 337.246C284.502 337.734 284.502 338.343 284.502 338.83L284.502 339.318C284.502 339.927 284.502 340.414 284.502 341.024L284.502 342.851L284.502 343.217C284.502 343.461 284.502 343.826 284.502 344.07L284.502 347.969L284.502 348.578L284.502 348.7L284.502 351.38C284.502 351.746 284.502 351.99 284.502 352.355C284.502 353.086 284.502 353.939 284.502 354.67L284.502 355.401L284.624 361.006L284.624 361.128L284.624 361.372L284.624 362.346L284.624 363.321C284.624 363.565 284.624 363.93 284.624 364.296C284.624 366.367 284.624 368.317 284.746 370.388L284.746 372.581C284.746 372.947 284.746 373.19 284.746 373.556L284.867 376.846C284.867 377.211 284.867 377.699 284.867 378.064L285.477 378.064L284.867 378.064C284.867 378.43 284.867 378.795 284.867 379.161C284.867 379.283 284.867 379.404 284.867 379.404C284.867 380.623 284.867 381.841 284.989 383.06L280.725 383.06L280.725 303.374L284.38 306.907C284.624 312.634 284.502 318.361 284.502 324.209ZM286.086 363.808C286.086 363.321 286.086 362.834 286.086 362.346L285.964 350.527C285.964 349.796 285.964 349.065 285.964 348.334L285.964 347.603L285.964 343.339C285.964 343.095 285.964 342.729 285.964 342.486L285.964 338.465C285.964 337.978 285.964 337.368 285.964 336.881C285.964 335.906 285.964 334.931 285.964 333.835C285.964 333.469 285.964 333.104 285.964 332.738L286.939 332.86C290.107 333.348 292.544 336.272 292.544 339.44C292.544 339.562 292.544 339.562 292.544 339.683L290.838 371.972C290.716 373.8 289.863 375.383 288.401 376.236C288.157 376.358 287.792 376.602 287.304 376.724L286.329 376.967C286.329 376.846 286.329 376.602 286.329 376.48L286.208 373.19C286.208 372.825 286.208 372.459 286.208 372.216L286.208 370.144C286.208 368.195 286.086 366.123 286.086 364.052L286.086 363.808ZM291.934 372.216L293.64 339.927C293.64 339.805 293.64 339.683 293.64 339.562C293.64 335.784 290.716 332.373 286.939 331.764L285.842 331.642C285.842 331.398 285.842 331.276 285.842 331.033L286.817 331.154C291.081 331.642 294.493 335.541 294.249 339.805L292.544 372.094C292.422 374.531 291.203 376.602 289.254 377.699C288.401 378.186 287.426 378.43 286.451 378.551C286.451 378.43 286.451 378.308 286.451 378.186L287.67 377.82C288.157 377.699 288.645 377.455 289.01 377.211C290.716 376.358 291.812 374.409 291.934 372.216ZM279.75 382.938L274.511 382.938C273.901 382.085 273.17 381.598 272.317 381.598L272.317 294.845L279.75 302.156L279.75 382.938ZM272.805 382.938C272.318 383.06 271.708 383.181 271.343 383.425C271.221 383.425 271.221 383.547 271.099 383.547C271.343 383.181 271.586 382.938 271.952 382.816C272.074 382.816 272.196 382.694 272.317 382.694C272.561 382.816 272.683 382.938 272.805 382.938ZM296.077 383.547C297.905 362.834 300.341 343.217 303.266 325.184L318.74 340.293L319.593 341.145L326.172 347.603C322.151 354.305 320.08 361.859 320.08 369.657C320.08 372.094 320.324 374.531 320.689 376.967L319.593 377.577L319.593 341.267L318.74 340.414L318.374 340.049L318.374 378.308L295.711 389.761C295.711 387.69 295.955 385.618 296.077 383.547ZM321.908 377.211C320.08 367.098 322.03 356.62 327.391 347.847C327.513 347.603 327.634 347.36 327.878 347.116C328.609 345.897 329.462 344.801 330.315 343.704C331.412 342.242 332.63 341.024 333.727 339.805C333.727 339.805 333.727 339.805 333.848 339.683C336.163 337.368 338.722 335.419 341.525 333.713C342.134 333.348 342.743 332.982 343.474 332.616C352.612 327.743 363.091 326.281 373.082 328.717C374.666 329.083 376.372 329.57 377.956 330.18C380.514 331.154 382.951 332.373 385.388 333.713C385.632 333.835 385.754 333.957 385.997 334.079C388.313 335.541 390.506 337.247 392.577 339.196C392.699 339.318 392.943 339.562 393.186 339.683C400.253 346.75 404.64 356.132 405.492 366.123C405.614 367.829 405.736 369.413 405.614 371.241C405.371 377.089 404.03 382.694 401.472 387.933C400.741 389.396 400.009 390.858 399.035 392.198C396.72 395.853 393.917 399.021 390.628 401.824C389.044 403.164 387.338 404.382 385.51 405.479C385.266 405.601 385.023 405.723 384.779 405.844C384.17 406.21 383.561 406.575 382.83 406.941C382.342 407.185 381.855 407.428 381.367 407.672C380.88 407.916 380.393 408.159 379.783 408.403L379.662 408.403C378.078 409.012 376.494 409.622 374.788 410.109L373.204 410.474C368.087 411.693 362.969 411.937 357.852 411.327L357.486 411.327C356.755 411.206 356.024 411.084 355.293 410.962C355.171 410.962 355.049 410.962 354.927 410.84C354.44 410.718 353.831 410.596 353.343 410.474C352.369 410.231 351.394 409.987 350.419 409.622C350.176 409.5 350.054 409.5 349.81 409.378C348.835 409.012 347.982 408.769 347.008 408.281L346.886 408.281C345.911 407.916 345.058 407.428 344.083 406.941C343.84 406.819 343.596 406.697 343.474 406.575C342.621 406.088 341.768 405.601 340.915 405.113C340.915 405.113 340.915 405.113 340.794 405.113C339.21 404.139 337.626 402.92 336.163 401.702L336.042 401.58C334.458 400.24 332.874 398.656 331.412 397.072C330.315 395.853 329.218 394.391 328.244 393.051C325.198 388.421 322.883 382.938 321.908 377.211ZM345.302 280.102C345.424 279.98 345.424 279.736 345.424 279.615C340.915 260.851 342.256 215.647 342.256 215.159C342.256 186.282 355.171 172.636 360.776 168.128C361.507 167.519 362.482 167.153 363.335 167.153C364.309 167.153 365.162 167.519 365.893 168.128C371.498 172.636 384.413 186.282 384.413 215.159C384.413 215.647 385.754 260.851 381.246 279.615C381.246 279.736 381.246 279.98 381.367 280.102C381.489 280.224 381.611 280.346 381.855 280.346L396.232 280.346L380.027 312.756C374.91 307.517 369.183 304.714 363.335 304.714C353.587 304.714 344.327 312.39 337.747 325.793L308.505 296.429C309.358 292.286 310.333 288.265 311.186 284.61C311.795 281.93 314.232 280.102 316.912 280.102L344.693 280.102C344.936 280.346 345.18 280.224 345.302 280.102ZM363.335 305.933C368.939 305.933 374.544 308.735 379.54 313.853L377.103 318.848C374.666 316.655 372.107 314.949 369.183 313.853C365.528 312.39 361.385 312.39 357.73 313.853C352.856 315.802 346.277 320.188 341.89 329.936L338.722 326.768C345.058 313.487 354.074 305.933 363.335 305.933ZM358.095 315.071C361.507 313.731 365.284 313.731 368.696 315.071C371.498 316.168 374.179 317.873 376.494 320.067L372.838 327.499C362.847 325.306 352.369 326.646 343.23 331.398L342.743 330.911C347.008 321.163 353.465 316.899 358.095 315.071ZM445.823 371.485L441.802 370.875C441.802 370.753 441.802 370.754 441.802 370.632L441.924 363.93C441.924 361.859 441.924 359.909 442.045 357.838C442.045 357.351 442.045 356.863 442.045 356.254L442.045 351.99C442.045 351.502 442.045 351.015 442.045 350.528L442.045 348.944L442.045 343.704C442.045 341.389 442.045 339.196 442.045 336.881L442.045 332.738C442.045 332.129 442.045 331.52 442.045 330.789L442.045 330.301L442.045 328.108C442.045 327.986 442.045 327.865 442.045 327.865C442.045 325.915 442.045 323.844 442.045 321.894C442.045 312.634 442.045 303.009 441.924 291.312C441.924 290.946 441.924 290.702 441.924 290.337C441.924 284.245 441.802 278.152 441.68 272.426L441.68 272.06C441.68 271.938 441.68 271.695 441.68 271.573L441.68 271.451L441.558 266.699L441.436 262.8C441.436 261.825 441.436 260.851 441.436 259.998L441.314 255.246L441.314 255.124L441.314 253.906L441.314 252.809C441.314 251.956 441.314 250.981 441.314 250.128L441.314 248.91C441.314 248.788 441.314 248.544 441.314 248.423L441.314 247.448L441.314 246.229C441.314 245.986 441.314 245.742 441.314 245.62L445.701 236.969L445.701 371.485L445.823 371.485ZM447.041 234.411L454.474 219.911L454.474 372.703L447.041 371.606L447.041 234.411ZM434.369 339.805L434.369 339.44C434.369 336.272 436.806 333.348 439.974 332.86L441.071 332.738C441.071 333.957 441.071 335.053 441.071 336.272L441.071 337.368C441.071 337.49 441.071 337.612 441.071 337.734L441.071 340.049C441.071 341.146 441.071 342.364 441.071 343.461L441.071 343.582C441.071 345.288 441.071 346.994 441.071 348.7L441.071 349.187C441.071 349.553 441.071 350.04 441.071 350.406C441.071 350.893 441.071 351.38 441.071 351.868L441.071 354.914C441.071 355.401 441.071 355.767 441.071 356.254C441.071 356.742 441.071 357.229 441.071 357.838C441.071 361.615 440.949 365.271 440.949 368.926C440.949 369.17 440.949 369.413 440.949 369.657L440.949 370.632L436.319 369.901L434.369 339.805ZM434.613 369.779L434.126 369.657L432.542 339.805C432.298 335.419 435.588 331.52 439.974 331.154L440.949 331.033C440.949 331.276 440.949 331.398 440.949 331.642L439.73 331.764C435.953 332.373 433.029 335.784 433.029 339.562L434.613 369.779ZM440.218 248.423C440.218 248.544 440.218 248.666 440.218 248.91L440.218 250.128C440.218 250.981 440.218 251.956 440.218 252.809L440.583 271.573L440.583 272.548C440.705 277.787 440.705 283.026 440.705 288.509L440.705 290.58C440.705 290.946 440.705 291.19 440.705 291.555L440.705 292.408C440.827 302.521 440.827 312.756 440.827 322.747L440.218 322.016C433.029 314.462 432.176 305.567 432.176 299.597L432.176 263.409L440.096 247.813L440.218 248.423ZM430.958 299.597C430.958 305.811 431.811 314.949 439.365 322.869L440.949 324.453L440.949 325.062C431.567 316.777 430.47 306.542 430.47 299.597L430.47 266.821L430.958 265.846L430.958 299.597ZM429.252 299.597C429.252 307.029 430.47 317.873 440.949 326.646C440.949 327.134 440.949 327.499 440.949 327.986C440.949 328.352 440.949 328.839 440.949 329.205L440.949 329.814L439.852 329.936C435.1 330.423 431.323 334.688 431.323 339.44C431.323 339.562 431.323 339.805 431.323 339.927L432.907 369.535L430.47 369.17C426.571 331.764 421.576 305.933 418.164 290.702L429.252 269.014L429.252 299.597ZM426.693 368.195L426.693 356.254C426.693 354.183 426.206 352.111 425.231 350.406C425.109 350.162 424.866 350.04 424.5 350.162C424.256 350.284 424.013 350.527 424.013 350.771L424.013 368.317L424.013 349.187C424.013 349.065 423.891 348.822 423.891 348.822C423.403 348.334 422.794 347.847 422.063 347.603C421.819 347.481 421.698 347.481 421.454 347.603C421.332 347.725 421.21 347.969 421.21 348.091L421.21 367.951L421.21 347.603C421.21 347.36 420.967 347.116 420.723 346.994L420.601 346.994C420.357 346.994 420.114 346.872 419.748 346.872C419.504 346.872 419.261 346.872 419.017 346.994L418.895 346.994C418.652 346.994 418.408 347.238 418.408 347.603L418.408 367.464L418.408 347.969C418.408 347.725 418.286 347.603 418.164 347.481C418.042 347.36 417.799 347.36 417.555 347.481C416.824 347.847 416.215 348.212 415.727 348.7C415.605 348.822 415.605 348.944 415.605 349.065L415.605 366.976L415.605 350.771C415.605 350.527 415.362 350.284 415.118 350.162C414.874 350.04 414.631 350.162 414.387 350.406C413.412 352.111 412.925 354.061 412.925 356.254L412.925 366.611L408.539 366.002L408.539 319.457C408.539 318.483 409.391 317.63 410.366 317.63L422.307 317.63C424.622 331.398 427.181 348.456 429.374 369.17L426.815 368.804C426.693 368.438 426.693 368.317 426.693 368.195ZM425.475 368.438L425.231 368.438L425.231 354.061C425.353 354.792 425.475 355.523 425.475 356.254L425.475 368.195C425.475 368.317 425.475 368.317 425.475 368.438ZM422.916 368.073L422.551 368.073L422.551 349.065C422.672 349.187 422.794 349.309 422.916 349.431L422.916 368.073ZM419.992 367.586L419.626 367.464L419.626 347.969C419.748 347.969 419.748 347.969 419.87 347.969C419.992 347.969 419.992 347.969 420.114 347.969L420.114 367.586L419.992 367.586ZM417.189 367.22L416.824 367.22L416.824 349.431C416.946 349.309 417.068 349.187 417.189 349.065L417.189 367.22ZM414.265 366.733L414.021 366.733L414.021 356.254C414.021 355.523 414.143 354.792 414.265 354.061L414.265 366.733ZM422.063 316.168L410.366 316.168C408.66 316.168 407.198 317.63 407.198 319.336L407.198 365.758L406.467 365.636C405.492 355.645 401.106 346.263 393.917 339.074C393.795 338.83 393.795 338.587 393.674 338.343L417.311 292.408C418.773 298.622 420.357 306.542 422.063 316.168ZM410.244 390.248C410.122 390.248 409.879 390.248 409.757 390.127L410.244 390.248ZM407.564 389.761C407.686 389.883 407.686 390.127 407.807 390.248L401.593 390.248C401.837 389.761 402.081 389.396 402.324 388.908L407.564 389.761ZM381.124 409.256C384.17 407.916 386.972 406.21 389.531 404.26C387.581 409.256 385.388 414.373 382.83 419.613L381.246 409.378L381.124 409.256ZM358.705 423.024C357.121 419.369 355.658 415.714 354.196 412.058C355.049 412.302 355.902 412.424 356.755 412.546L358.461 422.05L358.705 423.024ZM481.401 798.79L481.401 826.204C481.401 826.326 481.279 826.448 481.157 826.448L478.355 826.448C478.233 826.448 478.111 826.326 478.111 826.204L478.111 786.605L481.523 786.605L481.523 798.18L481.523 798.79L481.401 798.79ZM484.081 782.95L484.081 797.449L482.741 797.449L482.741 782.95L484.081 782.95ZM484.081 773.324L484.081 781.732L482.619 781.732L482.619 773.202L484.081 773.324ZM481.035 759.069C481.279 759.069 481.401 759.19 481.401 759.434L481.401 771.984L481.401 772.593L481.401 781.732L481.401 782.341L481.401 785.265L477.989 785.265L477.989 759.434C477.989 759.19 478.111 759.069 478.355 759.069L481.035 759.069ZM476.893 759.069C476.893 759.191 476.771 759.312 476.771 759.434L476.771 785.265L476.771 785.874L476.771 806.1L444.239 806.1C444.239 805.735 444.36 805.247 444.36 804.882C444.36 804.516 444.482 804.151 444.482 803.785C444.482 803.542 444.604 803.176 444.604 802.932C444.726 801.958 444.726 800.861 444.726 799.764C444.848 795.622 444.604 791.479 443.873 787.458L439.121 759.069L476.893 759.069ZM405.98 559.489C406.345 559.611 406.711 559.733 407.076 559.855C406.711 560.342 406.345 560.829 405.98 561.317L405.614 559.367C405.858 559.367 405.858 559.367 405.98 559.489ZM442.655 787.702C443.386 791.723 443.629 795.744 443.508 799.764C443.508 800.861 443.386 801.958 443.386 802.932C443.386 803.176 443.386 803.42 443.264 803.785C443.264 804.151 443.264 804.516 443.142 804.882C443.02 805.613 443.02 806.344 442.898 807.075C442.898 807.441 442.777 807.684 442.777 808.05C442.655 809.024 442.411 810.121 442.167 811.218C442.045 811.827 441.802 812.558 441.68 813.167C441.68 813.411 441.558 813.654 441.436 813.898L441.071 815.117C440.827 815.726 440.705 816.457 440.462 817.066C440.34 817.31 440.34 817.554 440.218 817.797C440.218 817.919 440.218 817.919 440.096 818.041C439.974 818.285 439.852 818.65 439.73 818.894C439.487 819.503 439.243 820.112 438.878 820.721C438.756 820.965 438.634 821.209 438.512 821.453C438.268 821.94 438.025 822.305 437.781 822.793C437.537 823.158 437.294 823.524 437.05 824.011C436.928 824.255 436.806 824.377 436.684 824.62C436.319 825.108 436.075 825.595 435.71 826.083C435.588 826.326 435.466 826.448 435.222 826.692C434.857 827.057 434.491 827.545 434.126 827.91C433.76 828.276 433.151 828.519 432.542 828.519C431.932 828.398 431.445 828.154 431.201 827.667C430.592 826.692 430.592 825.473 431.323 824.133C431.567 823.768 432.176 822.915 432.176 822.915C438.025 814.02 440.462 799.399 438.146 785.631L401.959 568.262L375.641 411.327C376.859 410.962 378.199 410.474 379.418 409.987L403.908 556.687L404.152 558.149L442.655 787.702ZM426.084 517.331C426.084 517.331 426.084 517.453 426.084 517.331C426.206 517.94 426.328 518.428 426.449 519.037C426.693 520.865 426.693 522.936 426.206 525.007C425.84 526.713 425.475 528.297 424.987 530.003C424.744 531.1 424.378 532.318 423.891 533.536C423.891 533.658 423.769 533.902 423.769 534.024C422.185 538.776 420.357 543.284 418.164 547.305C418.164 547.427 418.042 547.427 418.042 547.548C414.509 554.006 411.097 557.905 408.66 557.905C408.417 557.905 408.173 557.905 407.929 557.783C407.807 557.783 407.807 557.661 407.686 557.661C403.665 555.224 403.787 538.41 408.051 523.058C408.539 521.108 409.148 519.159 409.879 517.453C411.463 513.31 414.387 510.386 417.189 510.264C418.286 510.142 419.504 510.386 420.601 510.873C422.307 511.483 423.647 512.701 424.744 514.285C425.231 515.138 425.718 516.235 426.084 517.331ZM426.084 514.407C425.962 514.163 425.84 513.92 425.597 513.676C424.378 511.848 422.794 510.63 420.845 509.777C419.626 509.29 418.286 509.046 416.946 509.168C413.656 509.411 410.366 512.579 408.66 517.209C408.051 519.037 407.32 520.987 406.833 522.936C404.761 530.49 403.421 539.141 403.421 546.086L403.421 546.208L402.081 538.41C402.324 532.927 403.177 527.201 404.518 522.083C406.955 512.945 410.488 506.731 414.753 504.781C416.58 503.928 418.408 503.928 420.114 504.659C423.282 505.878 425.353 509.29 426.084 514.407ZM414.265 503.441C413.9 503.563 413.534 503.807 413.29 504.05C415.727 502.344 418.286 501.857 420.723 502.954C423.282 504.05 425.109 506.487 426.206 509.777C425.109 506.609 423.16 504.416 420.723 503.319C418.652 502.466 416.458 502.466 414.265 503.441ZM421.21 501.857C415.727 499.42 410.001 503.197 405.98 511.97C404.761 514.529 403.787 517.575 402.934 520.865C402.081 524.033 401.472 527.444 400.984 530.978L394.648 493.084L431.689 493.084C430.47 499.298 429.13 505.147 427.79 510.752C426.571 506.365 424.378 503.319 421.21 501.857ZM438.39 430.822L438.268 433.016C438.268 433.137 438.268 433.381 438.268 433.503L438.146 435.209C438.146 435.331 438.146 435.574 438.146 435.696C438.146 435.94 438.146 436.062 438.146 436.305C438.025 437.28 438.025 438.255 437.903 439.23L437.903 439.717C437.659 442.763 437.537 445.809 437.294 448.733C437.05 451.292 436.928 453.729 436.684 456.166L436.684 456.653C436.441 459.334 436.197 462.014 435.953 464.573C435.71 466.401 435.588 468.228 435.344 470.056L434.979 472.858C434.857 473.833 434.735 474.686 434.613 475.661C434.491 476.879 434.247 478.098 434.126 479.316C434.004 480.413 433.882 481.509 433.638 482.484C433.151 486.017 432.542 489.064 432.054 491.866L394.527 491.866L385.876 439.839L385.632 438.255L383.073 422.659L383.439 421.928C383.804 421.075 384.292 420.222 384.657 419.369C385.023 418.638 385.388 417.907 385.632 417.298C386.119 416.201 386.607 415.226 387.094 414.13C387.338 413.521 387.703 412.911 387.947 412.302C388.556 410.962 389.044 409.743 389.531 408.403C389.653 408.038 389.775 407.794 389.896 407.428C390.506 405.844 391.115 404.382 391.724 402.798L391.724 402.676C392.333 402.189 392.821 401.702 393.308 401.214C394.039 400.483 394.77 399.752 395.501 399.021C397.207 397.194 398.791 395.122 400.131 392.929C400.375 392.442 400.741 391.954 400.984 391.467L418.652 391.467L431.689 393.538C432.054 397.925 432.42 402.798 432.785 408.891C432.785 409.134 432.785 409.378 432.907 409.622C433.151 412.18 433.638 414.983 434.369 417.907C435.222 422.415 436.806 426.802 438.39 430.822ZM439.609 404.87C439.365 409.743 439.243 414.617 438.999 419.369L438.512 427.776C437.294 424.486 436.197 421.075 435.344 417.663C434.613 414.13 434.126 411.449 433.882 409.5C433.882 409.256 433.882 409.012 433.882 408.769C433.516 402.798 433.151 398.046 432.785 393.66L439.974 394.757L439.609 404.87ZM454.474 408.403C454.474 410.474 452.768 412.058 450.818 412.058C448.747 412.058 447.163 410.353 447.163 408.403L447.163 396.097L454.595 397.315L454.595 408.403L454.474 408.403ZM468.12 402.311C468.12 402.311 468.12 402.433 468.12 402.311L458.251 402.433C458.251 402.433 458.129 402.433 458.129 402.311L458.129 397.925L468.12 399.509L468.12 402.311ZM728.256 441.788C728.256 441.91 728.134 442.032 728.012 442.032L668.552 432.772C668.431 432.772 668.309 432.65 668.309 432.528L668.552 430.944L669.04 427.898C669.04 427.776 669.162 427.654 669.284 427.654L728.743 436.915C728.865 436.915 728.987 437.036 728.987 437.158L728.256 441.788ZM822.441 452.754C822.197 453.973 820.857 454.704 819.395 454.46L729.84 440.083L730.205 437.402C730.327 436.671 729.718 435.94 728.987 435.818L669.527 426.558C669.162 426.436 668.796 426.558 668.431 426.802C668.065 427.045 667.943 427.411 667.821 427.776L667.456 430.213L468.851 398.412L440.705 393.904L440.583 393.904L402.69 387.812C405.005 382.816 406.345 377.577 406.589 372.094L434.491 376.236L781.501 428.02C794.904 429.97 807.82 436.549 814.277 444.713C814.277 444.713 814.887 445.444 815.13 445.809C816.105 446.784 817.567 448.002 819.638 447.515C820.491 447.271 821.222 446.784 821.588 446.053C822.563 448.368 822.806 450.561 822.441 452.754ZM468.729 376.115L785.522 423.39C786.01 423.512 786.375 423.512 786.862 423.634L787.715 423.755L787.837 423.755C788.325 423.877 788.69 423.877 789.056 423.999L791.371 424.487C791.858 424.608 792.345 424.73 792.711 424.852C793.929 425.218 795.27 425.583 796.488 426.071C796.732 426.071 796.854 426.192 797.097 426.314C801.118 427.776 804.895 429.482 808.185 431.553C808.551 431.797 808.916 432.041 809.282 432.285C810.013 432.772 810.744 433.259 811.475 433.747C811.84 433.99 812.084 434.234 812.45 434.478C813.059 434.965 813.79 435.452 814.399 436.062C814.643 436.305 815.008 436.549 815.252 436.915C815.496 437.158 815.861 437.402 816.105 437.767C816.349 438.011 816.592 438.255 816.836 438.499L817.202 438.864C817.445 439.108 817.567 439.351 817.811 439.473L818.42 440.204C818.664 440.448 818.907 440.814 819.029 441.057C819.395 441.545 819.638 441.91 820.004 442.398C820.126 442.641 820.248 442.763 820.369 443.007C820.491 443.25 820.613 443.494 820.735 443.738C820.979 444.225 820.979 444.834 820.735 445.322C820.491 445.809 820.004 446.175 819.517 446.297C818.054 446.662 816.836 445.809 816.227 445.078C815.983 444.713 815.374 443.982 815.374 443.982C808.672 435.574 795.513 428.873 781.745 426.802L406.711 370.753C406.711 369.413 406.711 368.073 406.589 366.733L454.961 373.921L468.729 376.115ZM467.389 373.312L468.242 373.434L468.242 374.896L458.372 373.434L467.389 373.434L467.389 373.312ZM458.129 372.094C457.52 372.094 457.154 372.581 457.032 373.19L455.692 372.947L455.692 217.596L458.129 212.844L458.129 372.094ZM466.78 210.773L466.78 372.094L459.347 372.094L459.347 210.773L466.78 210.773ZM468.12 209.555L459.835 209.555L468.242 193.228L468.12 209.555ZM544.76 44.9441C544.881 44.9441 544.881 45.0659 544.881 45.1878L544.881 45.3096L517.71 99.0426C517.71 99.1644 517.588 99.1644 517.588 99.1644L517.467 99.1644L513.324 97.0931C513.202 97.0931 513.202 96.8494 513.202 96.8494L540.373 43.1164C540.373 42.9946 540.617 42.9946 540.739 42.9946L544.76 44.9441ZM577.535 -42.5395C579.972 -42.6614 582.165 -42.174 584.237 -41.1992C584.724 -40.9556 584.968 -40.59 585.212 -39.9808C585.455 -39.2498 585.333 -38.3968 584.968 -37.6658L543.663 43.1164L541.226 41.898C540.495 41.5324 539.642 41.7761 539.277 42.5072L512.105 96.2402C511.984 96.4838 511.984 96.6057 511.984 96.8494C511.984 96.9712 511.984 97.2149 512.105 97.3368C512.227 97.7023 512.471 97.946 512.837 98.1897L515.03 99.2862L458.372 209.92C458.372 209.92 458.372 210.042 458.251 210.042L440.34 245.133L392.821 337.856C390.993 336.15 388.922 334.566 386.729 333.104C386.485 332.982 386.241 332.86 385.997 332.738C383.804 331.398 381.489 330.18 379.052 329.327L440.34 206.387C440.34 206.387 440.34 206.265 440.462 206.265L548.171 -9.88548C554.263 -22.0698 564.498 -32.3047 574.246 -35.96C574.246 -35.96 575.22 -36.3255 575.586 -36.4474C577.414 -37.1784 578.388 -38.5187 578.51 -40.2245C578.51 -41.0774 578.145 -41.9303 577.535 -42.5395ZM459.347 147.414C459.347 145.343 461.053 143.759 463.003 143.759C463.368 143.759 463.855 143.881 464.221 144.003L459.347 153.872L459.347 147.414ZM447.041 172.149C447.041 170.077 448.747 168.493 450.696 168.493C451.062 168.493 451.549 168.615 451.915 168.737L447.041 178.606L447.041 172.149ZM446.919 181.409C446.919 181.409 446.919 181.287 446.919 181.409L453.255 168.615C453.255 168.615 453.255 168.615 453.255 168.493L459.225 156.553C459.225 156.553 459.225 156.553 459.225 156.431L544.76 -15.2466C545.247 -16.2213 545.734 -17.0742 546.1 -17.9271C546.343 -18.4145 546.587 -18.7801 546.831 -19.2674C547.075 -19.633 547.318 -20.1203 547.562 -20.4859C547.806 -20.8514 548.049 -21.3388 548.415 -21.7043C548.902 -22.5572 549.511 -23.2883 550.121 -24.1412C550.364 -24.3849 550.486 -24.6285 550.73 -24.9941C550.852 -25.1159 550.852 -25.2378 550.974 -25.3596C552.07 -26.8217 553.289 -28.2838 554.629 -29.746C554.872 -30.1115 555.238 -30.477 555.604 -30.7207C555.969 -31.0862 556.213 -31.3299 556.578 -31.6955C556.944 -32.061 557.188 -32.3047 557.553 -32.6702C557.797 -32.9139 558.162 -33.2794 558.406 -33.5231C558.65 -33.7668 558.893 -34.0105 559.137 -34.1323C559.503 -34.376 559.746 -34.7415 560.112 -34.9852L560.843 -35.5944C561.696 -36.2037 562.549 -36.9347 563.523 -37.5439C564.498 -38.275 565.473 -38.7624 566.326 -39.2497C566.448 -39.2497 566.448 -39.3716 566.569 -39.3716C566.935 -39.6153 567.301 -39.7371 567.544 -39.859C567.91 -39.9808 568.153 -40.2245 568.519 -40.3463C568.885 -40.4682 569.128 -40.7119 569.494 -40.8337C569.737 -40.9556 570.103 -41.0774 570.347 -41.1993L570.468 -41.1993C570.59 -41.1993 570.59 -41.1992 570.712 -41.3211C571.565 -41.6866 572.54 -41.9303 573.515 -42.174C573.515 -42.174 573.636 -42.174 573.758 -42.174C574.124 -42.2958 574.367 -42.2958 574.733 -42.4177C575.342 -42.4177 575.83 -42.2958 576.195 -41.9303C576.561 -41.5648 576.804 -40.9556 576.804 -40.4682C576.682 -39.0061 575.464 -38.1532 574.611 -37.7876C574.246 -37.6658 573.271 -37.3003 573.271 -37.3003C563.28 -33.5231 552.801 -23.0446 546.587 -10.6165L438.878 205.534C438.878 205.534 438.878 205.534 438.878 205.656L377.468 328.839C376.25 328.352 374.91 327.986 373.691 327.743L430.592 213.575L431.811 211.017C431.811 211.017 431.811 210.895 431.932 210.895L439.609 195.421L439.609 195.299L441.68 191.034C441.68 191.034 441.68 190.913 441.802 190.913L446.919 181.409ZM439.974 192.74C439.974 192.497 439.974 192.375 439.974 192.131C439.974 191.887 439.974 191.644 439.974 191.278L440.705 191.278L439.974 192.74ZM435.831 146.318C435.953 147.658 436.075 148.998 436.319 150.217C437.659 163.132 438.146 173.245 438.268 178.241L438.268 178.363C438.268 178.484 438.268 178.485 438.268 178.606L438.268 178.728C438.268 179.337 438.268 179.825 438.268 180.312C438.268 180.434 438.268 180.556 438.268 180.556L438.268 180.8C438.268 181.652 438.268 182.018 438.268 182.018C438.268 182.018 438.268 182.262 438.268 182.871C438.268 182.871 438.268 182.993 438.268 183.115L438.268 183.48C438.268 183.967 438.268 184.455 438.39 185.186L438.512 187.988C438.512 188.232 438.512 188.476 438.512 188.719C438.512 188.841 438.512 188.963 438.512 188.963C438.512 189.207 438.512 189.572 438.512 189.938L438.512 190.669C438.512 190.791 438.512 190.913 438.512 190.791C438.512 190.913 438.512 191.034 438.512 191.156C438.512 191.522 438.512 191.887 438.512 192.253C438.512 192.496 438.512 192.618 438.512 192.862L438.634 194.933L438.634 195.177L432.054 208.336L432.054 169.224C432.054 157.771 433.76 150.46 435.1 146.44C435.1 146.44 435.222 145.952 435.588 145.221L435.831 146.318ZM435.466 143.028C434.613 144.246 434.126 145.83 434.126 145.952C432.664 150.095 430.958 157.527 430.958 169.103L430.958 208.702C430.958 209.311 430.958 209.92 431.08 210.407L430.714 211.26C430.592 210.407 430.592 209.555 430.592 208.702L430.592 169.103C430.592 156.553 432.542 148.877 434.126 144.49C434.491 143.637 434.857 142.906 435.344 142.053C435.344 142.419 435.466 142.663 435.466 143.028ZM424.987 95.3872C425.475 96.6057 425.84 97.946 426.328 99.1644L427.059 101.358L427.059 101.479L427.546 103.063C427.668 103.673 427.912 104.282 428.034 104.769L428.521 106.719C429.861 111.592 431.08 116.954 432.176 122.558L432.176 122.68C432.42 124.02 432.664 125.361 432.907 126.701C432.907 127.554 432.785 134.255 429.861 139.738C426.815 145.465 425.718 152.41 425.718 156.675L425.718 209.189C425.718 211.991 423.403 214.306 420.601 214.306L395.258 214.306C392.577 214.306 390.384 212.235 390.14 209.676C389.409 200.416 386.607 183.236 376.859 171.174C375.641 169.59 372.717 166.056 370.767 163.741C369.427 162.157 368.818 160.208 368.818 158.137L368.818 90.5135C368.818 88.1985 369.792 86.1271 371.498 84.665C374.666 81.9844 378.931 77.3544 381.246 70.5312C385.023 59.6871 387.46 59.6871 391.48 59.6871C396.476 59.8089 412.803 70.0438 424.987 95.3872ZM351.272 50.7925C358.461 49.9396 368.208 49.9396 375.519 50.7925C376.494 50.9144 377.468 51.0362 378.443 51.158C378.687 52.9857 378.809 55.3007 378.809 58.225C378.809 68.5817 371.62 81.6189 363.456 81.6189C355.293 81.6189 348.104 68.5817 348.104 58.225C348.104 55.3007 348.226 52.9857 348.47 51.158C349.444 51.0362 350.297 50.9143 351.272 50.7925ZM295.346 118.294C295.468 117.563 295.711 116.71 295.833 115.979C295.955 115.613 295.955 115.126 296.077 114.76L296.199 114.395C296.443 113.298 296.686 112.202 297.052 111.105L297.661 108.668C297.783 108.059 298.026 107.45 298.148 106.962L299.245 103.063L299.367 102.82C299.489 102.454 299.489 102.21 299.61 101.845L301.682 95.509C313.866 70.1656 330.193 59.9308 334.945 59.9308C338.966 59.9308 341.525 59.9308 345.18 70.7748C347.495 77.5981 351.759 82.2281 354.927 84.9087C356.633 86.3708 357.608 88.4422 357.608 90.7572L357.608 158.38C357.608 160.452 356.877 162.401 355.658 163.985C353.709 166.422 350.785 169.955 349.566 171.418C339.819 183.48 337.138 200.66 336.285 209.92C336.042 212.601 333.848 214.55 331.168 214.55L305.824 214.55C303.022 214.55 300.707 212.235 300.707 209.433L300.707 156.918C300.707 152.654 299.61 145.709 296.564 139.982C293.396 134.133 293.518 126.945 293.518 126.945C294.371 123.655 294.859 120.853 295.346 118.294ZM291.691 140.347C292.056 137.301 292.544 134.499 292.909 131.697C293.275 134.255 294.127 137.545 295.711 140.469C298.636 146.074 299.732 152.775 299.732 156.796L299.732 209.311C299.732 212.844 302.535 215.647 306.068 215.647L331.412 215.647C334.701 215.647 337.382 213.21 337.747 209.798C338.478 200.782 341.281 183.724 350.785 171.905C352.003 170.321 354.927 166.909 356.877 164.472C358.339 162.645 359.192 160.452 359.192 158.137L359.192 90.5135C359.192 87.9548 358.095 85.3961 356.024 83.6902C352.978 81.1315 348.835 76.6233 346.642 70.1656C342.987 59.5652 340.428 58.4686 335.189 58.4686C330.315 58.4686 317.643 66.3885 306.434 84.4213C307.652 81.9844 308.87 79.7913 310.089 77.7199C321.299 60.1745 335.676 53.5949 347.129 51.2799C347.008 53.1075 346.764 55.3007 346.764 58.1031C346.764 69.1909 354.44 82.8373 363.335 82.8373C372.229 82.8373 379.905 69.3127 379.905 58.1031C379.905 55.4226 379.783 53.1076 379.54 51.2799C390.993 53.4731 405.371 60.0526 416.58 77.7199C417.92 79.7913 419.139 81.9845 420.357 84.4213C409.148 66.3885 396.476 58.4687 391.602 58.4687C386.363 58.4687 383.804 59.5653 380.149 70.1656C377.834 76.7452 373.813 81.1315 370.767 83.6902C368.818 85.3961 367.599 87.8329 367.599 90.5135L367.599 158.137C367.599 160.452 368.452 162.645 369.914 164.472C371.864 166.909 374.788 170.443 376.006 171.905C385.51 183.724 388.191 200.66 388.922 209.798C389.165 213.088 391.968 215.647 395.258 215.647L420.601 215.647C424.134 215.647 426.937 212.844 426.937 209.311L426.937 156.796C426.937 153.507 427.79 146.44 430.958 140.469C432.542 137.545 433.273 134.255 433.76 131.697C434.247 134.499 434.613 137.423 434.979 140.347C434.004 141.566 433.273 142.784 432.785 144.125C431.08 148.511 429.13 156.431 429.13 169.103L429.13 208.702C429.13 210.407 429.252 211.87 429.617 213.21L396.842 279.127L382.708 279.127C386.972 259.876 385.754 215.647 385.754 215.159C385.754 185.795 372.473 171.783 366.746 167.153C365.771 166.422 364.553 165.935 363.335 165.935C362.116 165.935 360.898 166.3 359.923 167.153C354.196 171.783 340.915 185.795 340.915 215.159C340.915 215.647 339.575 259.876 343.961 279.127L316.912 279.127C313.622 279.127 310.82 281.32 309.967 284.488C309.114 287.9 308.261 291.555 307.408 295.576L297.417 285.463L297.417 242.696C297.417 240.259 296.686 228.44 286.939 227.831C286.939 225.76 287.061 223.81 287.061 221.861C288.279 221.861 291.203 221.495 293.64 219.302C296.077 217.109 297.417 213.575 297.417 208.823L297.417 169.224C297.417 156.553 295.468 148.633 293.762 144.246C293.275 142.784 292.544 141.566 291.691 140.347ZM274.511 199.929L279.75 199.929L279.75 267.674L272.317 260.241L272.317 201.269C272.927 201.147 273.78 200.904 274.511 199.929ZM272.317 199.929C272.196 199.929 272.074 199.929 271.952 199.807C271.708 199.685 271.343 199.442 271.099 198.954C271.221 199.076 271.221 199.076 271.343 199.198C271.83 199.563 272.318 199.685 272.805 199.807C272.683 199.929 272.561 199.929 272.317 199.929ZM280.968 199.929L286.573 199.929C286.573 200.051 286.573 200.294 286.573 200.416C286.573 200.538 286.573 200.66 286.573 200.782L286.573 201.147C286.573 201.269 286.573 201.269 286.573 201.391L286.573 202.366L286.573 202.731C286.573 202.853 286.573 202.975 286.573 203.097C286.573 203.95 286.573 204.803 286.451 205.777L286.329 209.433C286.329 209.798 286.329 210.164 286.329 210.529L286.208 216.5C286.208 216.865 286.208 217.231 286.208 217.474L286.208 219.668L286.208 221.13C286.208 223.445 286.086 225.882 286.086 228.318C286.086 228.318 286.086 228.318 286.086 228.44C285.964 233.192 285.842 238.188 285.72 243.549C285.72 244.036 285.72 244.524 285.72 244.889C285.72 246.351 285.72 247.692 285.598 249.154C285.598 249.885 285.598 250.494 285.598 251.225C285.598 251.347 285.598 251.469 285.598 251.712C285.477 254.515 285.477 257.317 285.477 260.12L285.355 268.892C285.355 269.014 285.355 269.258 285.355 269.38L285.355 273.035L281.456 269.014L281.456 199.929L280.968 199.929ZM286.086 272.669L286.086 269.623C286.086 269.38 286.086 269.014 286.086 268.77L286.208 260.12L286.208 259.998C286.208 257.561 286.329 255.246 286.329 252.809C286.329 252.322 286.329 251.834 286.329 251.347C286.329 251.347 286.329 251.347 286.329 251.225C286.329 249.397 286.451 247.57 286.451 245.742L286.451 245.498C286.451 245.377 286.451 245.133 286.451 245.011C286.451 244.889 286.451 244.767 286.451 244.767L286.451 242.94C286.573 238.797 286.695 234.776 286.695 230.999L287.67 231.243C293.64 232.461 294.249 240.625 294.249 243.062L294.249 282.782L285.842 274.375C286.086 273.522 286.086 273.035 286.086 272.669ZM295.711 242.696C295.711 240.015 294.98 231.121 288.157 229.781L286.939 229.537C286.939 229.415 286.939 229.293 286.939 229.171C295.346 229.659 296.199 239.65 296.199 242.818L296.199 284.366L295.711 283.879L295.711 242.696ZM291.325 143.028C291.325 142.662 291.447 142.419 291.447 142.175C291.934 142.906 292.422 143.759 292.665 144.612C294.249 148.876 296.199 156.674 296.199 169.224L296.199 208.823C296.199 213.21 295.102 216.378 292.909 218.449C290.838 220.399 288.279 220.642 287.182 220.642L287.182 220.277C287.792 220.155 288.401 220.033 288.401 220.033C290.107 219.789 291.447 219.058 292.544 218.084C294.615 216.134 295.711 213.088 295.711 208.945L295.711 169.346C295.711 157.771 294.006 150.339 292.544 146.196C292.665 145.83 292.056 144.246 291.325 143.028ZM288.157 188.963C288.157 188.841 288.157 188.719 288.157 188.719L288.279 185.551L288.279 184.089L288.279 183.602C288.279 183.48 288.279 183.358 288.279 183.358L288.279 183.236L288.279 182.14C288.279 182.14 288.279 181.652 288.279 180.921L288.279 180.678C288.279 180.556 288.279 180.556 288.279 180.312C288.279 179.947 288.279 179.459 288.279 178.85L288.279 178.728C288.279 178.606 288.279 178.606 288.279 178.484C288.279 178.484 288.279 178.484 288.279 178.363C288.401 174.22 288.766 163.132 290.35 149.242C290.35 149.242 290.35 149.12 290.35 148.998C290.35 148.511 290.472 147.902 290.472 147.293C290.472 147.171 290.472 147.049 290.472 146.927C290.472 146.805 290.472 146.683 290.472 146.561L290.472 146.196C290.472 145.83 290.594 145.587 290.594 145.221C290.838 145.83 291.081 146.44 291.081 146.44C292.422 150.46 294.128 157.771 294.128 169.224L294.128 208.823C294.128 212.722 293.153 215.403 291.447 217.109C290.472 217.962 289.376 218.571 287.792 218.815C287.792 218.815 287.304 218.936 286.817 219.058L286.817 217.596C286.817 217.231 286.817 216.987 286.817 216.621L286.939 210.651C286.939 210.286 286.939 209.92 286.939 209.555L287.061 205.899C287.061 205.046 287.061 204.072 287.182 203.219C287.182 203.097 287.182 202.975 287.182 202.731C287.182 202.609 287.182 202.488 287.182 202.366L287.182 200.66C287.182 200.538 287.182 200.538 287.182 200.416C287.182 200.173 287.182 199.929 287.182 199.685C287.182 199.563 287.182 199.442 287.182 199.32C287.182 198.223 287.182 197.248 287.304 196.274L287.304 196.03L287.304 195.664C287.304 195.543 287.304 195.421 287.304 195.421L287.304 195.299L287.304 194.933C287.304 194.69 287.304 194.324 287.304 194.08C287.304 193.593 287.304 193.228 287.304 192.74C287.304 192.618 287.304 192.496 287.304 192.253L288.157 188.963ZM286.573 198.71L274.023 198.71C273.049 198.71 272.318 198.589 271.952 198.345C271.586 198.101 271.099 197.37 271.099 195.055C271.099 192.618 271.586 192.009 271.952 191.765C272.318 191.522 272.927 191.4 274.145 191.4L286.817 191.4L286.817 192.253C286.817 192.375 286.817 192.496 286.817 192.74C286.817 193.228 286.817 193.593 286.817 194.08L286.817 194.933L286.817 195.055L286.817 195.177L286.817 196.152L286.817 196.274C286.695 197.005 286.573 197.858 286.573 198.71ZM272.805 190.181C272.318 190.303 271.708 190.425 271.343 190.669C271.221 190.669 271.221 190.791 271.099 190.912C271.343 190.547 271.708 190.181 271.952 190.06C272.074 190.06 272.196 189.938 272.317 189.938C272.561 189.938 272.683 190.06 272.805 190.181ZM272.317 172.149C272.317 170.077 274.023 168.493 275.973 168.493C278.044 168.493 279.75 170.199 279.75 172.149L279.75 190.06L274.511 190.06C273.901 189.207 273.17 188.719 272.317 188.719L272.317 172.149ZM258.671 209.555C258.671 209.555 258.549 209.433 258.671 209.555L258.549 180.556C258.549 180.556 258.549 180.434 258.671 180.434L268.54 180.434C268.54 180.434 268.662 180.434 268.662 180.556L268.662 189.45C268.662 189.816 268.906 190.06 269.271 190.06L270.368 190.06C269.515 191.156 268.906 192.984 268.906 195.055C268.906 197.126 269.393 198.954 270.246 200.051L269.15 200.051C268.784 200.051 268.54 200.294 268.54 200.66L268.54 209.555C268.54 209.555 268.54 209.676 268.419 209.676L258.671 209.676L258.671 209.555ZM268.662 210.773C269.271 210.651 269.881 210.164 269.881 209.555L269.881 201.269L271.099 201.269L271.099 259.023L268.662 256.586L268.662 210.773ZM260.011 210.773L267.444 210.773L267.444 255.246L260.011 247.813L260.011 210.773ZM110.875 96.8493L153.642 139.251L153.764 139.373L153.764 139.495L152.667 140.591L150.474 142.784C150.474 142.784 150.352 142.784 150.352 142.906L150.23 142.906L107.463 100.505L107.463 100.383C107.463 100.383 107.463 100.261 107.585 100.261L110.875 96.9711L110.997 96.9711C110.753 96.8493 110.753 96.8493 110.875 96.8493ZM40.8148 32.6378C41.6677 31.7849 43.2517 31.9067 44.3483 33.0033L108.316 97.2148L106.367 99.1643C106.123 99.408 106.001 99.7735 106.001 100.139C106.001 100.505 106.123 100.87 106.367 101.114L149.134 143.515C149.377 143.759 149.743 143.881 150.108 143.881C150.474 143.881 150.839 143.759 151.083 143.393L152.789 141.688L337.382 327.012L342.012 331.642C341.525 331.885 341.159 332.129 340.672 332.373C337.747 334.2 335.067 336.272 332.63 338.587C332.63 338.587 332.63 338.587 332.63 338.709C331.533 339.683 330.559 340.902 329.584 342.12L271.952 285.585L59.335 76.7451C49.5876 67.2413 43.008 54.3259 42.6425 43.9692C42.6425 43.9692 42.6425 42.9944 42.6425 42.5071C42.3988 40.5576 41.546 39.2173 39.962 38.4862C39.1091 38.1207 38.2562 38.2425 37.5251 38.6081C38.1343 36.293 39.2308 34.2217 40.8148 32.6378ZM259.768 280.955L53.4866 78.2072C47.0289 71.8713 41.9114 64.0734 39.1091 56.2754C38.8654 55.6662 38.7435 55.1788 38.4998 54.5696C38.0125 53.1075 37.6469 51.6453 37.4032 50.3051C36.794 47.5027 36.6722 44.8221 36.794 42.3852C36.794 42.2634 36.794 42.0197 36.794 41.8978C36.794 41.6542 36.9159 41.4105 36.9159 41.1668C37.0377 40.5576 37.4033 40.0702 37.8906 39.8265C38.378 39.5828 38.9872 39.461 39.4745 39.7047C40.8148 40.3139 41.3022 41.6542 41.424 42.6289C41.424 42.9944 41.424 44.091 41.424 44.091C41.9114 54.8133 48.6128 67.9724 58.4821 77.7198L258.915 274.741L328.853 343.582C328.122 344.557 327.391 345.654 326.66 346.75C326.66 346.75 326.66 346.872 326.538 346.872L259.768 280.955ZM260.011 372.094L260.011 282.782L267.444 290.093L267.444 372.094L260.011 372.094ZM268.662 372.094L268.662 291.312L271.099 293.748L271.099 381.719L269.881 381.719L269.881 373.434C269.759 372.703 269.271 372.216 268.662 372.094ZM258.671 402.433C258.671 402.433 258.549 402.311 258.671 402.433L258.549 373.434C258.549 373.434 258.549 373.312 258.671 373.312L268.54 373.312C268.54 373.312 268.662 373.312 268.662 373.434L268.662 382.329C268.662 382.694 268.906 382.938 269.271 382.938L270.368 382.938C269.515 384.034 269.028 385.862 269.028 387.933C269.028 390.005 269.515 391.832 270.368 392.929L269.271 392.929C268.906 392.929 268.662 393.173 268.662 393.538L268.662 402.433C268.662 402.433 268.662 402.555 268.54 402.555L258.671 402.555L258.671 402.433ZM269.759 402.311L269.759 394.026L270.977 394.026L270.977 402.067L269.515 402.798C269.759 402.676 269.759 402.555 269.759 402.311ZM260.011 403.651L267.444 403.651L267.444 404.017L260.011 407.794L260.011 403.651ZM25.7063 525.86L25.7063 525.738C25.7063 525.738 25.7062 525.616 25.8281 525.616L79.3174 498.08C79.4393 498.08 79.5611 498.08 79.6829 498.202L80.4139 499.542L81.7543 502.223L81.7543 502.344C81.7543 502.344 81.7543 502.344 81.7543 502.466C81.7543 502.466 81.7542 502.588 81.6324 502.588L28.1431 530.125C28.0213 530.125 28.0212 530.125 28.0212 530.125C28.0212 530.125 27.8994 530.125 27.8994 530.003L25.7063 525.86ZM-56.9036 572.282C-57.1473 571.673 -57.1473 571.186 -57.0255 570.82C-56.7818 570.089 -56.1726 569.48 -55.4415 569.115L25.4626 528.053L26.681 530.49C26.8029 530.856 27.1684 531.099 27.5339 531.221C27.8995 531.343 28.2649 531.343 28.6305 531.099L82.1198 503.563C82.4853 503.441 82.729 503.075 82.8508 502.71C82.9727 502.344 82.9727 501.979 82.729 501.613L81.6324 499.42L320.689 378.186C321.786 383.547 323.857 388.664 326.782 393.173L-9.38465 568.262C-21.4471 574.598 -35.7029 576.791 -45.8159 573.988C-45.8159 573.988 -46.7906 573.745 -47.1561 573.623C-49.1056 573.257 -50.6896 573.623 -51.7863 574.963C-52.2736 575.572 -52.5173 576.181 -52.5173 576.913C-52.5173 577.034 -52.5173 577.156 -52.5173 577.278C-54.3449 575.938 -55.807 574.354 -56.9036 572.282ZM267.444 437.158C267.444 439.229 265.738 440.813 263.788 440.813C261.717 440.813 260.133 439.108 260.133 437.158L260.133 435.209L267.566 431.31L267.566 437.158L267.444 437.158ZM267.809 429.848L-9.62836 574.232C-18.7666 578.984 -29.2452 581.543 -38.3834 581.177L-39.1145 581.177C-39.6019 581.177 -39.9674 581.177 -40.4547 581.055C-41.064 581.055 -41.5513 580.933 -42.1606 580.812L-42.648 580.69C-43.0135 580.69 -43.5009 580.568 -43.8664 580.446L-43.9882 580.446C-44.4756 580.324 -44.963 580.202 -45.4504 580.08C-46.0596 579.959 -46.7906 579.715 -47.3998 579.471C-47.7653 579.349 -48.1309 579.228 -48.6182 578.984C-49.1057 578.74 -49.7148 578.618 -50.2022 578.375C-50.6896 578.131 -51.0552 577.644 -51.177 577.034C-51.2988 576.425 -51.1769 575.938 -50.8114 575.572C-49.8367 574.476 -48.3746 574.476 -47.3998 574.597C-47.0343 574.719 -46.0596 574.963 -46.0596 574.963C-35.7029 577.765 -21.0816 575.572 -8.77539 569.115L327.634 394.269C328.366 395.366 329.218 396.462 330.071 397.437L291.812 417.42C291.812 417.42 291.812 417.42 291.691 417.42L286.939 419.856C286.939 419.856 286.939 419.856 286.817 419.856L267.809 429.848ZM287.914 421.562L287.914 420.831L291.081 419.125C290.229 422.05 289.254 425.096 288.279 427.776C288.157 425.705 288.035 423.634 287.914 421.562ZM294.127 487.723C294.127 487.358 294.006 486.992 294.006 486.627L294.006 486.261C294.006 486.139 294.006 486.017 293.884 485.774C293.762 484.799 293.518 483.702 293.396 482.606C293.275 481.875 293.153 481.266 293.031 480.534L292.787 478.585C292.422 475.539 292.056 472.736 291.691 470.056C291.203 465.548 290.716 461.039 290.35 456.653L290.35 456.166C290.107 453.729 289.985 451.292 289.741 448.733C289.619 447.88 289.619 446.906 289.497 446.053L288.645 433.137C288.645 432.772 288.645 432.406 288.523 431.919L288.401 430.822C289.863 427.045 291.447 422.659 292.544 418.394L330.924 398.412C331.046 398.656 331.29 398.777 331.533 399.021C332.264 399.752 332.996 400.483 333.727 401.214C334.214 401.702 334.823 402.189 335.311 402.676C335.676 403.651 336.042 404.504 336.407 405.479L336.407 405.601C336.773 406.454 337.138 407.307 337.504 408.159C337.626 408.525 337.869 408.89 337.991 409.256C338.235 409.743 338.479 410.353 338.6 410.84C338.844 411.327 338.966 411.815 339.21 412.302C339.453 412.789 339.575 413.155 339.819 413.642C339.941 414.008 340.184 414.373 340.306 414.861C340.55 415.348 340.794 415.836 341.037 416.323C341.159 416.445 341.159 416.688 341.281 416.81C343.352 421.319 345.545 425.583 347.739 429.604C350.054 433.99 352.369 437.889 354.44 441.179C354.684 441.545 354.927 441.91 355.171 442.276C355.293 442.397 355.415 442.519 355.537 442.763C355.658 442.885 355.78 443.128 355.902 443.25C356.146 443.494 356.389 443.738 356.633 443.86L356.755 443.981C358.339 445.2 360.288 445.931 362.482 446.175L369.67 491.866L294.98 491.866L294.127 487.723ZM306.556 504.538C308.383 503.685 310.211 503.807 311.917 504.659C316.059 506.609 319.715 512.823 322.151 521.961C325.685 535.486 325.441 550.351 322.03 555.712C322.152 555.224 322.395 554.737 322.517 554.25C323.614 549.985 323.614 543.162 322.517 535.364C322.517 534.999 322.395 534.633 322.395 534.267L322.395 534.146C322.273 532.927 322.03 531.831 321.786 530.612C321.542 529.515 321.299 528.419 321.055 527.322L320.689 525.86L320.689 525.738C320.446 524.764 320.202 523.911 319.958 522.936C319.349 520.865 318.74 518.915 318.131 517.209C316.425 512.579 313.135 509.411 309.845 509.168C308.505 509.046 307.165 509.29 305.946 509.777C304.119 510.508 302.413 511.848 301.194 513.676C301.073 513.92 300.951 514.163 300.707 514.407C301.438 509.29 303.388 505.878 306.556 504.538ZM306.068 503.319C303.631 504.416 301.804 506.487 300.707 509.411C301.804 506.243 303.631 503.928 306.068 502.954C308.505 501.857 311.064 502.223 313.501 504.05C313.135 503.807 312.891 503.685 312.526 503.441C310.333 502.466 308.139 502.466 306.068 503.319ZM308.749 547.548C308.749 547.427 308.627 547.426 308.627 547.305C306.556 543.406 304.606 538.776 303.022 534.146L302.9 533.658C302.535 532.318 302.169 531.221 301.804 530.125C301.316 528.419 300.951 526.713 300.585 525.129C300.22 523.058 300.098 520.986 300.341 519.159C300.341 518.915 300.463 518.55 300.463 518.306C300.463 518.062 300.585 517.819 300.585 517.575C300.585 517.453 300.707 517.209 300.707 517.088C300.707 516.966 300.829 516.844 300.829 516.6C300.951 516.356 300.951 516.235 301.073 516.113C301.316 515.503 301.682 515.016 301.925 514.529C303.022 512.945 304.484 511.726 306.068 511.117C307.165 510.63 308.261 510.508 309.48 510.508C312.282 510.752 315.206 513.554 316.79 517.697C317.4 519.403 318.009 521.352 318.618 523.302C318.862 524.276 319.105 525.129 319.349 526.104L319.715 527.688C319.958 528.784 320.202 529.881 320.324 530.978C320.568 532.196 320.689 533.293 320.933 534.511L320.933 534.633C320.933 534.998 321.055 535.364 321.055 535.73C322.151 543.284 322.03 549.985 321.055 554.128C320.567 556.077 319.836 557.418 318.862 558.027C318.74 558.027 318.74 558.149 318.618 558.149C318.374 558.271 318.131 558.271 317.887 558.271C315.816 558.027 312.282 554.128 308.749 547.548ZM342.134 602.012C341.89 601.769 341.89 601.525 341.89 601.281C341.89 594.945 341.646 588.488 338.844 584.345C336.163 580.324 333.239 576.791 330.071 573.014C326.782 569.115 323.248 564.972 319.715 559.855C320.08 559.733 320.446 559.733 320.811 559.489C327.756 556.443 328 536.704 323.979 520.986C323.126 517.697 322.03 514.651 320.933 512.092C316.912 503.319 311.186 499.542 305.703 501.979C302.535 503.441 300.341 506.487 299.123 510.873C297.661 505.269 296.443 499.42 295.224 493.206L362.847 493.206L362.847 602.256L342.987 602.378C342.621 602.256 342.378 602.134 342.134 602.012ZM386.119 601.281C386.119 600.307 386.119 599.332 386.119 598.357L398.547 677.921L397.573 678.043C396.842 678.165 396.354 678.774 396.354 679.505C396.354 679.627 396.354 679.627 396.354 679.749L405.98 739.208C405.98 739.574 406.223 739.939 406.589 740.183C406.955 740.427 407.32 740.548 407.686 740.427L408.295 740.305L411.097 757.972L382.83 757.972L384.413 603.474C385.388 603.109 386.119 602.256 386.119 601.281ZM381.611 757.85L369.792 757.85L369.792 603.353L383.195 603.474L381.611 757.85ZM345.18 757.85L343.718 603.474L356.877 603.353L356.877 757.85L345.18 757.85ZM246.121 781.731L246.243 773.202L247.583 773.202L247.583 781.731L246.121 781.731ZM248.802 781.731L248.802 772.593L248.802 771.984L248.802 759.434C248.802 759.19 248.924 759.069 249.167 759.069L251.726 759.069C251.97 759.069 252.091 759.19 252.091 759.434L252.091 785.265L248.68 785.265L248.68 782.341L248.68 781.731L248.802 781.731ZM344.327 806.222L253.31 806.222L253.31 785.996L253.31 785.387L253.31 759.556C253.31 759.434 253.31 759.312 253.188 759.19L343.84 759.19L344.327 806.222ZM345.18 759.069L356.877 759.069L356.877 806.222L345.545 806.222L345.18 759.069ZM246.121 797.449L246.121 782.95L247.583 782.95L247.583 797.449L246.121 797.449ZM252.091 826.204C252.091 826.326 251.97 826.448 251.848 826.448L249.045 826.448C248.924 826.448 248.802 826.326 248.802 826.204L248.802 798.79L248.802 798.18L248.802 786.605L252.091 786.605L252.091 826.204ZM358.095 603.474L368.574 603.474L368.574 814.02L358.095 814.02L358.095 603.474ZM345.545 807.44L356.877 807.44L356.877 814.02L345.545 814.02L345.545 807.44ZM345.667 815.604L354.684 815.604L355.537 878.11L350.785 883.105C348.835 885.055 347.617 887.613 347.251 890.416L346.398 897.361L345.667 815.604ZM346.886 951.216L346.52 907.718C346.52 906.621 346.52 905.646 346.642 904.55L348.47 890.294C348.835 887.857 349.932 885.542 351.638 883.714L355.537 879.694L356.268 933.792L356.268 934.158C356.268 934.889 356.268 935.498 356.268 936.229C356.268 938.422 356.39 940.737 356.511 943.174C356.999 949.754 357.242 955.115 357.486 959.867L357.608 962.304C357.73 965.228 357.973 967.908 358.095 970.711L355.902 970.711C354.318 970.711 352.978 969.858 352.369 968.396L348.592 959.379C347.495 956.942 346.886 954.14 346.886 951.216ZM354.074 1006.65C351.881 1006.65 350.054 1005.07 349.81 1003L347.739 988.744C347.251 985.698 347.129 982.651 347.008 979.727L346.764 958.648C346.886 959.136 347.129 959.623 347.373 960.11L351.15 969.127C351.881 970.954 353.709 972.173 355.78 972.173L358.095 972.173C358.461 977.29 358.948 983.87 359.923 993.13C360.288 995.932 361.872 997.151 363.335 997.151C364.797 997.151 366.381 995.932 366.746 993.13C367.599 985.454 368.086 978.996 368.574 972.173L370.889 972.173C372.96 972.173 374.666 970.954 375.519 969.127L379.296 960.11C379.54 959.623 379.662 959.136 379.783 958.648L379.54 979.727C379.54 982.773 379.296 985.819 378.809 988.744L376.737 1003C376.494 1005.07 374.666 1006.65 372.473 1006.65L354.074 1006.65Z" fill="#012FEA"/>
<path d="M301.438 209.432C301.438 211.991 303.509 214.062 306.068 214.062L331.412 214.062C333.848 214.062 335.798 212.235 336.042 209.798C336.773 200.538 339.575 183.114 349.444 171.052C350.663 169.468 353.587 165.934 355.537 163.619C356.755 162.157 357.364 160.329 357.364 158.38L357.364 90.7568C357.364 88.6854 356.389 86.6141 354.805 85.2738C351.638 82.5933 347.251 77.8414 344.814 70.8963C341.281 60.7833 339.331 60.2959 334.945 60.2959C331.412 60.2959 315.085 68.7031 302.047 95.6305C298.879 104.403 296.199 114.882 294.006 126.822L294.006 126.944C294.006 127.675 294.127 134.255 296.93 139.616C300.098 145.464 301.194 152.531 301.194 156.796L301.194 209.432L301.438 209.432ZM298.27 139.129C295.59 134.133 295.468 127.919 295.468 127.066C297.661 115.125 300.22 104.769 303.388 96.1179C316.059 69.7997 331.777 61.6362 335.067 61.6362C338.722 61.6362 340.306 61.6362 343.718 71.3837C346.155 78.5724 350.663 83.4462 354.074 86.2486C355.415 87.3452 356.146 89.051 356.146 90.7568L356.146 158.38C356.146 159.964 355.537 161.548 354.562 162.888C352.49 165.325 349.688 168.858 348.348 170.442C338.357 182.87 335.554 200.416 334.701 209.92C334.579 211.747 333.117 212.966 331.29 212.966L305.946 212.966C304.119 212.966 302.535 211.504 302.535 209.554L302.535 157.04C302.657 152.41 301.56 145.099 298.27 139.129Z" fill="#012FEA"/>
<path d="M391.602 60.2959C387.338 60.2959 385.266 60.7833 381.733 70.8963C379.296 77.7195 375.031 82.4714 371.742 85.2738C370.158 86.6141 369.183 88.5636 369.183 90.7568L369.183 158.38C369.183 160.329 369.792 162.157 371.011 163.619C372.96 166.056 375.884 169.589 377.103 171.052C386.85 183.114 389.653 200.538 390.506 209.798C390.749 212.235 392.699 214.062 395.136 214.062L420.479 214.062C423.038 214.062 425.109 211.991 425.109 209.432L425.109 156.918C425.109 152.653 426.206 145.586 429.374 139.738C432.054 134.742 432.298 128.772 432.298 126.944C430.227 115.004 427.546 104.525 424.256 95.6305C411.584 68.7031 395.136 60.2959 391.602 60.2959ZM423.403 95.996C426.571 104.769 429.252 115.247 431.323 126.944C431.323 128.65 431.079 134.377 428.521 139.129C425.353 145.099 424.134 152.41 424.134 156.918L424.134 209.432C424.134 211.26 422.672 212.844 420.723 212.844L395.379 212.844C393.552 212.844 392.211 211.504 391.968 209.798C391.115 200.416 388.312 182.749 378.321 170.321C377.103 168.737 374.179 165.203 372.107 162.766C371.132 161.548 370.523 159.964 370.523 158.258L370.523 90.6349C370.523 88.9291 371.254 87.2233 372.595 86.1267C375.884 83.3243 380.393 78.4506 382.951 71.2618C386.363 61.5143 387.947 61.5143 391.602 61.5143C395.014 61.5143 410.732 69.7997 423.403 95.996Z" fill="#012FEA"/>
<path d="M365.284 228.319C365.284 228.319 365.284 228.197 365.284 228.319C365.284 228.197 365.284 228.197 365.284 228.197L365.284 213.941C365.284 213.576 365.406 213.332 365.527 213.21C367.355 212.601 368.452 211.26 368.452 209.92C368.452 209.798 368.452 209.798 368.452 209.677C368.208 207.727 366.015 206.265 363.456 206.265C360.776 206.265 358.704 207.727 358.46 209.677C358.46 209.798 358.46 209.798 358.46 209.92L358.46 210.042C358.46 211.504 359.557 212.723 361.263 213.332C361.385 213.332 361.628 213.697 361.628 214.063L361.628 228.319C361.628 228.319 361.628 228.319 361.628 228.44C361.628 228.44 361.628 228.44 361.628 228.562C361.628 229.659 362.481 230.512 363.578 230.512C364.431 230.146 365.284 229.293 365.284 228.319ZM362.725 228.319C362.725 228.197 362.725 228.075 362.725 227.953L362.725 213.819C362.725 212.966 362.238 212.235 361.628 211.992C360.41 211.504 359.557 210.651 359.557 209.92L359.557 209.798C359.679 208.458 361.385 207.362 363.456 207.362C365.527 207.362 367.233 208.458 367.233 209.798L367.233 209.92C367.233 210.773 366.38 211.626 365.162 212.113C364.553 212.357 364.065 213.088 364.065 213.941L364.065 228.075C364.065 228.197 364.065 228.319 364.065 228.44C364.065 228.806 363.7 229.05 363.334 229.05C362.969 228.928 362.725 228.684 362.725 228.319Z" fill="#012FEA"/>
<path d="M305.459 376.48L305.459 347.847C305.459 347.603 305.337 347.482 305.215 347.36C305.093 347.238 304.85 347.238 304.606 347.36C303.875 347.725 303.388 348.091 302.778 348.578C302.657 348.7 302.657 348.822 302.657 349.065L302.657 375.384C302.657 375.506 302.778 375.749 302.778 375.871C303.266 376.358 303.875 376.846 304.606 377.089C304.85 377.211 304.972 377.211 305.215 377.089C305.337 376.968 305.459 376.724 305.459 376.48ZM303.875 375.14L303.875 349.309C303.997 349.187 304.119 349.065 304.241 348.944L304.241 375.384C304.119 375.384 303.997 375.262 303.875 375.14Z" fill="#012FEA"/>
<path d="M307.896 377.577C308.14 377.577 308.383 377.211 308.383 376.968L308.383 347.603C308.383 347.36 308.14 347.116 307.896 346.994L307.774 346.994C307.53 346.994 307.287 346.872 306.921 346.872C306.677 346.872 306.434 346.872 306.19 346.994L306.068 346.994C305.825 346.994 305.581 347.238 305.581 347.603L305.581 376.968C305.581 377.211 305.825 377.455 306.068 377.577L306.312 377.577C306.556 377.577 306.799 377.699 307.043 377.699C307.287 377.699 307.53 377.699 307.774 377.577L307.896 377.577ZM306.799 376.48L306.799 348.091C306.921 348.091 306.921 348.091 307.043 348.091C307.165 348.091 307.165 348.091 307.287 348.091L307.287 376.48C307.165 376.48 307.165 376.48 307.043 376.48C306.921 376.48 306.799 376.48 306.799 376.48Z" fill="#012FEA"/>
<path d="M308.383 347.847L308.383 376.48C308.383 376.724 308.505 376.846 308.627 376.967C308.749 377.089 308.992 377.089 309.236 376.967C309.967 376.602 310.576 376.236 311.064 375.749C311.186 375.627 311.186 375.505 311.186 375.383L311.186 349.065C311.186 348.943 311.064 348.7 311.064 348.7C310.576 348.212 309.967 347.725 309.236 347.481C308.992 347.359 308.871 347.359 308.627 347.481C308.505 347.481 308.383 347.725 308.383 347.847ZM309.967 349.309L309.967 375.14C309.845 375.262 309.723 375.383 309.602 375.505L309.602 349.065C309.723 349.065 309.845 349.187 309.967 349.309Z" fill="#012FEA"/>
<path d="M302.656 373.678L302.656 350.649C302.656 350.406 302.413 350.162 302.169 350.04C301.925 349.918 301.682 350.04 301.438 350.284C300.463 351.989 299.976 354.061 299.976 356.132L299.976 368.073C299.976 370.144 300.463 372.216 301.438 373.921C301.56 374.165 301.803 374.287 302.169 374.165C302.413 374.287 302.656 374.043 302.656 373.678ZM301.194 368.195L301.194 356.254C301.194 355.523 301.316 354.792 301.438 354.061L301.438 370.388C301.316 369.657 301.194 368.926 301.194 368.195Z" fill="#012FEA"/>
<path d="M311.186 350.649L311.186 373.678C311.186 373.921 311.429 374.165 311.673 374.287C311.917 374.409 312.16 374.287 312.404 374.043C313.379 372.337 313.866 370.266 313.866 368.195L313.866 356.254C313.866 354.183 313.379 352.111 312.404 350.406C312.282 350.162 312.039 350.04 311.673 350.162C311.429 350.162 311.186 350.405 311.186 350.649ZM312.648 356.254L312.648 368.195C312.648 368.926 312.526 369.657 312.404 370.388L312.404 354.061C312.648 354.792 312.648 355.523 312.648 356.254Z" fill="#012FEA"/>
<path d="M319.592 341.267L318.739 340.414L319.592 341.267Z" fill="#012FEA"/>
</g>
</svg>
