<svg width="1440" height="718" viewBox="0 0 1440 718" fill="none" xmlns="http://www.w3.org/2000/svg">
<rect width="1440" height="718" fill="#080A1D"/>
<mask id="mask0" mask-type="alpha" maskUnits="userSpaceOnUse" x="0" y="0" width="1440" height="718">
<rect width="1440" height="718" fill="#080A1D"/>
</mask>
<g mask="url(#mask0)">
<path d="M1321 271.284C1321 267.479 1315.79 264.378 1309.45 264.378C1303.11 264.378 1297.89 267.479 1297.89 271.284C1297.89 275.088 1303.11 278.189 1309.45 278.189C1315.79 278.33 1321 275.229 1321 271.284ZM1299.58 271.284C1299.58 268.324 1303.95 265.788 1309.45 265.788C1314.94 265.788 1319.31 268.183 1319.31 271.284C1319.31 274.243 1314.94 276.78 1309.45 276.78C1303.95 276.78 1299.58 274.384 1299.58 271.284Z" fill="#012FEA"/>
<path d="M1326.36 1145.7L1328.75 1129.21C1329.32 1125.69 1329.46 1122.03 1329.6 1118.5L1329.88 1085.67L1330.3 1035.36L1330.3 1035.08L1331.29 919.242L1373.57 919.242L1377.65 945.03C1377.94 946.439 1378.5 947.567 1379.63 948.271C1380.47 948.835 1381.46 949.117 1382.3 948.976C1385.97 948.412 1389.49 946.439 1392.45 943.339C1392.87 942.916 1393.3 942.353 1393.72 941.93L1393.86 941.789C1394 941.648 1394.14 941.507 1394.28 941.366C1394.71 940.803 1395.13 940.239 1395.55 939.675C1395.69 939.393 1395.83 939.252 1395.97 938.971C1396.26 938.548 1396.54 938.125 1396.82 937.561C1397.1 936.998 1397.38 936.575 1397.67 936.011L1397.81 935.729C1397.95 935.448 1398.09 935.307 1398.09 935.166C1398.37 934.461 1398.79 933.757 1399.07 933.052C1399.22 932.77 1399.36 932.347 1399.5 932.065C1399.64 931.784 1399.78 931.361 1399.92 930.938C1400.2 930.234 1400.48 929.388 1400.62 928.683C1400.62 928.542 1400.77 928.261 1400.77 928.12C1400.77 927.979 1400.91 927.838 1400.91 927.697C1400.91 927.556 1400.91 927.556 1401.05 927.415L1401.05 927.274C1401.05 926.992 1401.19 926.851 1401.19 926.569C1401.47 925.865 1401.61 925.019 1401.75 924.174C1402.03 922.905 1402.32 921.637 1402.46 920.51C1402.46 920.228 1402.6 919.946 1402.6 919.523L1440.36 919.523L1440.36 941.225C1440.36 942.212 1441.21 942.916 1442.06 942.916L1445.3 942.916C1446.28 942.916 1446.99 942.071 1446.99 941.225L1446.99 909.518L1448.54 909.518C1449.38 909.518 1449.95 908.813 1449.95 907.968L1449.95 890.494L1449.95 889.789L1449.95 880.065C1449.95 879.22 1449.24 878.515 1448.54 878.515L1446.99 878.515L1446.99 864C1446.99 863.014 1446.14 862.168 1445.16 862.168L1442.2 862.168L1396.54 862.168L1358.77 636.693C1359.9 635.143 1360.88 633.734 1361.87 632.325C1366.24 631.902 1371.03 624.292 1373.57 619.642C1373.71 619.501 1373.71 619.36 1373.71 619.219C1376.25 614.569 1378.5 609.214 1380.19 603.718C1380.33 603.577 1380.33 603.295 1380.33 603.154C1380.9 601.604 1381.18 600.336 1381.6 598.926C1382.16 596.954 1382.59 594.981 1383.01 593.149C1383.57 590.612 1383.57 588.076 1383.29 585.821C1383.29 584.834 1383.29 583.848 1383.29 582.861C1383.57 581.875 1383.85 580.748 1384.14 579.62C1386.11 572.151 1387.94 563.978 1389.63 555.241L1389.63 555.1L1388.93 554.959L1389.63 554.959C1390.34 551.577 1390.9 547.913 1391.46 543.685C1391.61 542.417 1391.89 541.149 1392.03 539.88C1392.17 538.471 1392.45 537.062 1392.59 535.653C1392.59 535.512 1392.59 535.371 1392.59 535.23C1392.73 534.666 1392.73 533.962 1392.87 533.398L1393.01 531.848L1393.3 529.311C1393.58 527.197 1393.72 525.084 1394 522.97C1394.28 520.01 1394.56 516.91 1394.85 513.81L1394.85 513.246C1395.13 510.428 1395.41 507.609 1395.55 504.65C1395.83 501.268 1396.12 497.745 1396.26 494.222L1396.26 494.081C1396.4 492.531 1396.4 491.121 1396.54 489.571C1396.54 489.43 1396.54 489.289 1396.54 489.148L1396.68 487.176C1396.68 487.035 1396.68 486.894 1396.68 486.753L1396.82 484.075L1397.24 477.311C1397.38 475.197 1397.52 473.083 1397.52 470.97C1397.81 465.474 1398.09 459.837 1398.23 454.2C1398.37 452.086 1398.37 449.972 1398.51 447.858L1398.51 446.026C1398.51 444.899 1398.65 443.913 1398.65 442.785L1404.01 443.631L1404.01 458.146C1404.01 461.246 1406.54 463.783 1409.64 463.783C1412.74 463.783 1415.28 461.246 1415.28 458.146L1415.28 445.463L1416.83 445.745L1416.83 451.1C1416.83 451.945 1417.39 452.509 1418.24 452.65L1418.24 491.544C1418.24 494.644 1420.78 497.181 1423.88 497.181C1426.98 497.181 1429.65 494.644 1429.65 491.544L1429.65 452.65L1429.8 452.65C1430.64 452.65 1431.35 451.945 1431.35 451.1L1431.35 447.718L1660.2 484.357L1660.06 485.484C1660.06 485.625 1660.06 485.625 1660.06 485.766C1660.06 486.612 1660.63 487.317 1661.47 487.457L1730.24 498.167C1731.09 498.308 1731.93 497.745 1732.21 496.758L1732.35 496.054L1835.93 512.682C1838.47 513.105 1840.72 511.696 1841.15 509.441C1841.71 505.777 1841 501.972 1838.89 498.027C1838.89 498.027 1838.89 498.027 1838.89 497.886C1838.75 497.604 1838.61 497.322 1838.47 497.04C1838.33 496.758 1838.19 496.617 1838.05 496.336C1837.76 495.913 1837.34 495.349 1837.06 494.926C1837.06 494.785 1836.92 494.785 1836.92 494.644C1836.64 494.363 1836.35 493.94 1836.07 493.658L1835.37 492.812C1835.09 492.531 1834.95 492.249 1834.66 491.967L1834.24 491.544C1833.96 491.262 1833.68 490.84 1833.4 490.558C1833.11 490.276 1832.69 489.853 1832.41 489.571C1832.13 489.289 1831.7 488.867 1831.42 488.585C1830.72 488.021 1830.01 487.317 1829.17 486.753C1828.89 486.612 1828.6 486.33 1828.46 486.189C1828.32 486.048 1828.18 486.048 1828.04 485.907C1827.19 485.344 1826.35 484.78 1825.5 484.216C1825.36 484.216 1825.36 484.075 1825.22 484.075C1824.8 483.793 1824.52 483.653 1824.09 483.371C1820.15 480.975 1815.64 478.861 1810.99 477.17C1810.71 477.029 1810.57 477.029 1810.28 476.888C1808.87 476.325 1807.32 475.902 1805.77 475.479C1805.21 475.338 1804.65 475.197 1804.08 475.056C1803.94 475.056 1803.94 475.056 1803.8 475.056L1803.52 475.056L1802.25 474.774L1801.27 474.493C1800.7 474.352 1800.28 474.211 1799.71 474.211L1798.73 474.07L1798.59 474.07L1798.45 474.07C1798.02 473.929 1797.6 473.929 1797.18 473.929C1797.04 473.929 1797.04 473.929 1796.9 473.929L1431.2 419.251L1431.2 417.419C1431.2 416.574 1430.5 415.869 1429.65 415.869L1429.51 415.869L1429.51 229.289L1429.65 229.289C1430.5 229.289 1431.2 228.584 1431.2 227.739L1431.2 206.178L1485.04 100.909L1486.02 101.473C1486.45 101.614 1486.87 101.755 1487.29 101.614C1487.71 101.473 1488 101.191 1488.28 100.768L1519.7 38.6217C1520.13 37.7762 1519.84 36.7897 1519 36.367L1518.29 36.0851L1566.07 -57.346C1566.63 -58.6143 1566.77 -59.8826 1566.49 -61.1509C1566.21 -62.1373 1565.5 -62.8419 1564.66 -63.2647C1561.28 -64.9557 1557.47 -65.3785 1553.24 -64.6739L1553.1 -64.6739C1552.82 -64.6739 1552.4 -64.533 1552.12 -64.533C1551.97 -64.533 1551.97 -64.533 1551.69 -64.3921C1550.99 -64.2511 1550.28 -63.9693 1549.58 -63.8284C1549.16 -63.6875 1548.87 -63.5465 1548.45 -63.4056C1548.31 -63.4056 1548.31 -63.2647 1548.03 -63.2647C1547.75 -63.1238 1547.47 -62.9829 1547.18 -62.9829C1547.18 -62.9829 1547.04 -62.9829 1547.04 -62.8419C1546.62 -62.701 1546.2 -62.5601 1545.77 -62.2782C1545.49 -62.1373 1545.21 -61.9964 1544.79 -61.8555L1544.51 -61.7146C1544.08 -61.4327 1543.66 -61.2918 1543.24 -61.0099C1541.97 -60.3053 1540.7 -59.6007 1539.57 -58.7552C1538.45 -57.9097 1537.32 -57.2051 1536.33 -56.3595L1535.49 -55.6549C1535.06 -55.3731 1534.64 -54.9503 1534.36 -54.6685C1534.08 -54.3866 1533.8 -54.1048 1533.51 -53.9639C1533.09 -53.682 1532.81 -53.2593 1532.39 -52.9774C1531.96 -52.5546 1531.54 -52.2728 1531.26 -51.85C1530.84 -51.4273 1530.55 -51.1454 1530.13 -50.7227C1529.71 -50.2999 1529.43 -49.8771 1529 -49.4544C1527.45 -47.7633 1526.04 -46.0722 1524.78 -44.3812C1524.49 -43.9584 1524.07 -43.5356 1523.79 -42.972C1523.09 -41.9855 1522.52 -41.14 1521.82 -40.1535C1521.54 -39.7308 1521.11 -39.1671 1520.83 -38.7443C1520.55 -38.1806 1520.27 -37.7579 1519.99 -37.1942C1519.99 -37.0533 1519.84 -37.0533 1519.84 -36.9123C1519.56 -36.4896 1519.42 -36.0668 1519.14 -35.644C1518.58 -34.7985 1518.15 -33.8121 1517.45 -32.5438L1426.13 150.654C1425.43 150.373 1424.72 150.232 1424.02 150.232C1420.92 150.232 1418.38 152.768 1418.38 155.869L1418.38 166.156L1411.9 179.262C1411.19 178.98 1410.63 178.839 1409.93 178.839C1406.83 178.839 1404.29 181.375 1404.29 184.476L1404.29 194.622L1399.07 205.05L1397.38 205.05L1397.38 204.627C1397.38 204.346 1397.38 203.923 1397.38 203.641L1397.38 203.359C1397.38 203.077 1397.38 202.796 1397.38 202.514L1397.24 199.273C1397.24 198.568 1397.24 197.863 1397.1 197.44L1397.1 197.3L1397.1 197.159C1397.1 197.018 1397.1 197.018 1397.1 196.877C1397.1 196.313 1397.1 195.89 1397.1 195.89C1397.1 195.89 1397.1 195.327 1397.1 194.481L1397.1 194.199C1397.1 194.058 1397.1 193.917 1397.1 193.777C1397.1 193.354 1397.1 192.79 1397.1 192.085L1397.1 191.945C1397.1 191.804 1397.1 191.663 1397.1 191.522C1396.96 185.744 1396.4 173.907 1394.85 158.969C1394.71 157.419 1394.56 155.869 1394.28 154.318L1394.14 153.05L1394 151.923C1394 151.5 1393.86 151.077 1393.86 150.654L1393.86 150.373C1393.72 149.527 1393.58 148.541 1393.44 147.695C1392.73 142.199 1391.89 136.844 1391.04 131.771C1391.04 131.771 1391.04 131.771 1391.04 131.63C1390.76 130.08 1390.48 128.53 1390.2 126.98C1388.93 120.215 1387.52 114.015 1385.97 108.378C1385.97 108.378 1385.97 108.378 1385.97 108.237L1385.26 105.982C1385.26 105.841 1385.26 105.841 1385.12 105.7C1384.98 105.137 1384.84 104.714 1384.7 104.15L1384.56 103.728L1384.56 103.587L1384.14 102.177L1384 101.896L1384 101.755C1384 101.614 1383.85 101.332 1383.85 101.191L1383.15 99.0771C1382.59 97.527 1382.16 96.1178 1381.6 94.7086C1378.78 86.8169 1375.54 79.9118 1371.88 74.2749C1357.08 50.8819 1337.21 43.9767 1323.12 42.2857C1314.66 41.2992 1303.25 41.2992 1294.79 42.2857C1280.7 43.9767 1260.97 50.8819 1246.03 74.2749C1242.51 79.9118 1239.13 86.8169 1236.31 94.7085L1234.76 99.0771L1234.48 99.7817L1234.06 101.191L1233.77 102.036C1233.63 102.459 1233.49 102.741 1233.49 103.164L1233.49 103.446C1233.21 104.15 1233.07 104.996 1232.79 105.7L1232.08 107.955C1231.94 108.66 1231.66 109.364 1231.52 110.069L1231.52 110.21L1230.81 112.887C1230.81 112.887 1230.81 112.887 1230.81 113.028L1230.81 113.169C1230.53 114.438 1230.25 115.565 1229.97 116.833L1229.83 117.256C1229.69 117.961 1229.55 118.806 1229.26 119.511C1229.12 120.215 1228.98 120.779 1228.84 121.484C1228.14 124.443 1227.57 127.543 1226.87 131.489C1226.02 136.421 1225.18 141.635 1224.47 147.413C1224.33 148.259 1224.19 149.245 1224.05 150.091L1224.05 150.373L1224.05 150.514C1224.05 151.077 1223.91 151.641 1223.91 152.205C1223.77 152.768 1223.77 153.191 1223.77 153.755L1223.77 154.178C1223.77 154.318 1223.77 154.6 1223.77 154.741C1223.77 154.882 1223.77 155.023 1223.77 155.164C1223.63 155.869 1223.63 156.432 1223.63 156.996C1223.63 157.137 1223.63 157.419 1223.63 157.419C1221.79 173.625 1221.37 186.449 1221.23 191.24C1221.23 191.381 1221.23 191.522 1221.23 191.522L1221.23 191.663C1221.23 192.367 1221.23 192.931 1221.23 193.354C1221.23 193.495 1221.23 193.636 1221.23 193.776L1221.23 194.058C1221.23 195.045 1221.23 195.468 1221.23 195.468L1221.23 196.595C1221.23 196.595 1221.23 196.736 1221.23 196.877L1221.23 197.018C1221.23 197.018 1221.23 197.018 1221.23 197.159L1221.23 199.132L1221.23 199.413L1221.23 201.386C1221.23 201.668 1221.23 201.95 1221.23 202.232L1221.23 203.077L1221.23 203.359L1221.23 204.627L1221.23 204.768L1214.33 204.768L1214.33 184.194C1214.33 181.094 1211.79 178.557 1208.55 178.557C1205.45 178.557 1202.91 181.094 1202.91 184.194L1202.91 203.359L1201.5 203.359L1201.5 193.776C1201.5 192.931 1200.94 192.367 1200.09 192.226L1200.09 156.009C1200.09 152.909 1197.56 150.373 1194.46 150.373C1191.36 150.373 1188.82 152.909 1188.82 156.009L1188.82 192.79L1188.68 192.79C1187.83 192.79 1187.13 193.495 1187.13 194.34L1187.13 227.88C1187.13 228.725 1187.83 229.43 1188.68 229.43L1188.82 229.43L1188.82 270.861L1067.34 148.963L1068.19 148.118C1068.89 147.413 1068.75 146.427 1068.19 145.722L1018.73 96.6814C1018.44 96.3996 1018.02 96.1177 1017.6 96.1177C1017.18 96.1177 1016.75 96.2587 1016.47 96.6814L1015.91 97.2451L941.924 22.9794C940.092 21.1474 937.415 21.0065 935.865 22.5566C933.187 25.2341 931.637 28.7572 930.932 33.1257C930.932 33.4076 930.792 33.6894 930.792 34.1122C930.651 35.0986 930.651 35.9442 930.651 36.9306C930.651 39.1854 930.932 41.5811 931.355 44.1176L931.355 44.2586C931.637 45.9496 932.201 47.6407 932.764 49.3317C933.046 50.0363 933.187 50.6 933.469 51.3046C936.851 60.4645 942.911 69.7654 950.38 77.0933L1188.82 311.305L1188.82 416.01L1188.68 416.01C1187.83 416.01 1187.13 416.715 1187.13 417.56L1187.13 451.1C1187.13 451.945 1187.83 452.65 1188.68 452.65L1188.82 452.65L1188.82 458.146L983.496 562.287L982.933 561.3C982.51 560.455 981.523 560.173 980.678 560.596L918.813 592.444C918.39 592.585 918.108 593.008 917.968 593.431C917.968 593.571 917.827 593.712 917.827 593.994C917.827 594.276 917.827 594.558 917.968 594.699L918.249 595.403L824.677 642.894C823.409 643.458 822.564 644.585 822.141 645.712C822 646.135 822 646.558 822 646.84C822 647.404 822.141 647.967 822.423 648.39C824.114 651.772 826.932 654.45 830.878 656.282C831.442 656.563 832.146 656.845 832.71 657.127C833.133 657.268 833.696 657.55 834.26 657.691C834.965 657.973 835.81 658.114 836.515 658.395C837.079 658.536 837.501 658.677 838.065 658.677C838.206 658.677 838.206 658.677 838.347 658.677L838.488 658.677C839.051 658.818 839.474 658.818 840.038 658.959L840.602 659.1C841.306 659.241 842.011 659.241 842.574 659.382C843.138 659.382 843.561 659.523 844.125 659.523L844.97 659.523C855.821 659.946 868.081 656.986 878.932 651.349L1188.4 489.712L1188.4 491.121C1188.4 494.222 1190.93 496.758 1194.03 496.758C1197.13 496.758 1199.67 494.222 1199.67 491.121L1199.67 483.652L1220.53 472.802L1220.53 473.083C1220.67 476.606 1220.95 480.27 1221.09 483.652L1221.23 486.33L1221.79 493.94C1221.94 495.631 1222.08 497.322 1222.08 499.013L1222.22 501.268C1222.36 502.254 1222.36 503.382 1222.5 504.368C1222.78 507.327 1222.92 510.146 1223.2 512.964L1223.2 513.528C1223.77 519.165 1224.19 524.238 1224.75 529.17C1225.18 532.411 1225.6 535.653 1226.02 539.176L1226.3 541.571C1226.45 542.417 1226.59 543.262 1226.73 543.967C1226.87 545.235 1227.15 546.504 1227.29 547.631C1227.29 547.772 1227.29 548.054 1227.43 548.195L1227.43 548.617C1227.43 549.04 1227.57 549.463 1227.57 549.886L1228.42 554.959L1228.42 555.1L1228.42 555.241C1230.11 563.837 1231.94 572.01 1233.91 579.62L1233.91 579.761C1234.2 580.748 1234.48 581.875 1234.76 582.861C1234.76 583.566 1234.62 584.271 1234.62 584.975C1234.62 585.257 1234.62 585.539 1234.62 585.68C1234.48 586.525 1234.48 587.512 1234.48 588.498C1234.48 590.048 1234.62 591.599 1234.9 593.008C1235.32 594.84 1235.75 596.813 1236.31 598.786C1236.73 600.054 1237.01 601.463 1237.58 603.013L1237.72 603.577C1239.41 609.073 1241.66 614.428 1244.2 619.078C1244.2 619.219 1244.34 619.36 1244.34 619.36C1246.88 624.011 1251.53 631.62 1256.04 632.043C1256.04 632.184 1256.18 632.184 1256.18 632.325L1256.32 632.466C1260.69 638.948 1264.92 644.021 1269 648.813C1272.67 653.181 1276.05 657.268 1279.15 661.778C1282.11 666.287 1282.39 673.897 1282.39 680.52C1282.39 681.225 1282.67 681.929 1283.1 682.352C1283.52 682.775 1283.94 682.916 1284.51 683.057L1286.2 861.746L1179.66 861.746L1176.7 861.746C1175.71 861.746 1174.87 862.591 1174.87 863.577L1174.87 878.092L1173.32 878.092C1172.47 878.092 1171.77 878.797 1171.77 879.643L1171.77 889.366L1171.77 890.071L1171.77 907.545C1171.77 908.391 1172.47 909.095 1173.32 909.095L1174.87 909.095L1174.87 940.803C1174.87 941.789 1175.71 942.494 1176.56 942.494L1179.8 942.494C1180.79 942.494 1181.49 941.648 1181.49 940.803L1181.49 919.101L1286.76 919.101L1287.75 1035.08L1288.17 1085.25L1289.16 1118.5C1289.16 1122.03 1289.44 1125.69 1290 1129.21L1292.4 1145.7C1292.82 1148.8 1295.5 1151.2 1298.74 1151.2L1320.16 1151.2C1323.26 1151.2 1325.94 1148.8 1326.36 1145.7ZM1428.95 452.368L1428.95 491.262C1428.95 493.658 1426.98 495.49 1424.58 495.49C1422.19 495.49 1420.35 493.517 1420.35 491.262L1420.35 452.368L1428.95 452.368ZM1189.81 192.79L1189.81 156.009C1189.81 153.614 1191.78 151.782 1194.03 151.782C1196.43 151.782 1198.26 153.755 1198.26 156.009L1198.26 192.79L1189.81 192.79ZM1328.9 1035.22L1328.47 1085.67C1328.47 1089.05 1327.77 1092.29 1326.5 1095.39L1322.13 1105.82C1321.43 1107.51 1319.88 1108.5 1318.04 1108.5L1315.51 1108.5C1315.79 1104.98 1315.93 1101.59 1316.07 1097.93L1315.37 1097.79L1315.09 1097.79L1315.37 1097.79L1316.07 1097.79L1316.21 1095.82C1316.49 1090.32 1316.78 1084.12 1317.34 1076.51C1317.62 1072.85 1317.62 1069.46 1317.62 1066.22L1318.47 1002.95L1322.98 1007.6C1324.95 1009.71 1326.22 1012.39 1326.64 1015.21L1328.75 1031.7C1328.75 1032.97 1328.9 1034.09 1328.9 1035.22ZM1305.08 1049.17C1303.95 1050.72 1303.11 1052.84 1302.54 1055.51L1300.85 929.529L1318.04 929.529L1316.35 1055.51C1315.65 1052.84 1314.8 1050.72 1313.82 1049.17C1312.83 1047.76 1311.28 1046.92 1309.45 1046.92C1307.62 1046.78 1306.07 1047.62 1305.08 1049.17ZM1306.21 1049.88C1306.91 1048.75 1308.18 1048.18 1309.45 1048.18C1310.72 1048.18 1311.84 1048.75 1312.69 1049.88C1314.8 1052.98 1316.07 1058.19 1316.21 1065.52C1316.21 1066.5 1316.21 1067.35 1316.21 1068.34C1316.21 1070.87 1316.07 1073.55 1315.93 1076.23C1315.37 1083.84 1315.09 1090.04 1314.8 1095.53L1314.8 1095.82C1314.1 1093.56 1311.98 1091.87 1309.45 1091.87C1306.91 1091.87 1304.8 1093.56 1304.09 1095.82L1304.09 1095.53C1303.81 1090.04 1303.53 1083.84 1302.97 1076.23C1302.68 1072.28 1302.68 1068.62 1302.68 1065.38C1302.82 1058.33 1304.09 1052.98 1306.21 1049.88ZM1309.31 1093.42C1311.7 1093.42 1313.53 1095.39 1313.53 1097.65C1313.53 1100.04 1311.56 1101.88 1309.31 1101.88C1306.91 1101.88 1305.08 1099.9 1305.08 1097.65C1305.08 1095.39 1307.05 1093.42 1309.31 1093.42ZM1309.31 1103.43C1311.56 1103.43 1313.53 1102.02 1314.52 1100.04C1314.38 1103.14 1314.24 1106.1 1313.96 1109.06C1313.39 1117.24 1312.83 1124.85 1311.84 1133.87C1311.56 1136.26 1310.43 1137.25 1309.31 1137.25C1308.18 1137.25 1307.05 1136.12 1306.77 1133.87C1305.64 1122.87 1305.08 1115.12 1304.66 1109.06C1304.52 1106.1 1304.23 1103.14 1304.09 1100.04C1305.08 1102.02 1307.05 1103.43 1309.31 1103.43ZM1329.04 1023.24L1328.05 1015.21C1327.63 1012.11 1326.22 1009.01 1323.96 1006.75L1318.47 1000.98L1319.45 928.683L1329.88 928.683L1329.04 1023.24ZM1329.88 926.992L1316.78 926.992L1316.78 919.382L1329.88 919.382L1329.88 926.992ZM1389.21 944.467C1386.96 946.158 1384.56 947.285 1382.02 947.708C1381.46 947.849 1380.9 947.708 1380.33 947.285C1379.63 946.721 1379.06 945.876 1378.92 944.889L1362.72 841.312L1365.82 840.748C1366.24 840.607 1366.66 840.466 1366.94 840.044C1367.23 839.621 1367.37 839.198 1367.23 838.775L1356.09 770.005C1355.95 769.583 1355.81 769.16 1355.39 768.878C1354.97 768.596 1354.54 768.455 1354.12 768.596L1351.3 769.019L1305.08 473.224L1303.39 462.796C1309.31 463.501 1315.09 463.078 1321 461.669L1322.13 461.387L1325.8 482.948L1394.56 893.876C1397.1 909.377 1394.56 925.865 1387.94 936.011C1387.94 936.011 1387.24 936.998 1386.96 937.42C1385.83 939.393 1385.69 941.366 1386.67 942.916C1387.38 943.762 1388.22 944.326 1389.21 944.467ZM1331.85 863.437L1364.83 863.437L1373.43 917.973L1331.43 917.973L1331.85 863.437ZM1330.02 917.973L1316.92 917.973L1316.92 863.437L1330.59 863.437L1330.02 917.973ZM1360.46 840.325C1360.32 840.325 1360.32 840.325 1360.32 840.325L1360.18 840.184L1349.05 771.415C1349.05 771.274 1349.19 771.133 1349.19 771.133L1351.02 770.851L1354.54 770.287C1354.68 770.287 1354.68 770.287 1354.68 770.287L1354.82 770.428L1365.96 839.198C1365.96 839.339 1365.96 839.339 1365.96 839.339L1365.82 839.48L1360.46 840.325ZM1310.15 681.929L1310.15 555.804L1316.78 555.804L1334.81 671.078C1334.39 674.32 1334.39 677.843 1334.39 680.802C1334.39 681.084 1334.25 681.366 1333.97 681.648C1333.69 681.929 1333.4 681.929 1333.12 681.929L1310.15 681.929ZM1305.5 499.436C1305.22 499.295 1304.8 499.154 1304.52 499.013C1304.38 499.013 1304.23 498.872 1304.23 498.872C1303.95 498.731 1303.81 498.59 1303.53 498.449C1303.39 498.308 1303.11 498.167 1302.97 498.027C1302.82 497.886 1302.68 497.886 1302.54 497.745C1302.26 497.604 1301.98 497.322 1301.84 497.04L1301.7 496.899C1301.13 496.335 1300.57 495.631 1300.15 494.926C1298.32 491.967 1296.34 488.444 1294.09 484.639C1289.01 475.479 1283.52 464.487 1279.01 452.932C1280.14 453.777 1281.12 454.482 1282.25 455.186C1282.39 455.186 1282.39 455.327 1282.53 455.327C1283.52 456.032 1284.51 456.596 1285.63 457.159C1285.91 457.3 1286.06 457.441 1286.34 457.582C1288.59 458.709 1290.85 459.696 1293.1 460.541C1293.24 460.541 1293.38 460.682 1293.52 460.682C1294.79 461.105 1295.92 461.387 1297.19 461.81C1299.44 467.728 1301.98 473.929 1304.66 480.129C1304.66 480.27 1304.8 480.27 1304.8 480.411L1307.9 499.999C1307.05 499.859 1306.35 499.718 1305.5 499.436ZM1229.4 437.007L1220.81 441.376L1220.67 438.98C1220.53 436.162 1220.53 433.484 1220.39 430.666L1220.39 428.975C1220.39 427.566 1220.24 426.156 1220.24 424.747C1221.65 424.606 1223.06 424.324 1224.19 423.62C1226.73 422.211 1228.56 419.251 1228.7 416.01L1230.67 378.666C1230.95 372.888 1226.59 367.674 1220.81 367.11L1219.54 366.969L1219.54 366.406L1219.54 365.842L1219.54 365.137C1219.54 364.433 1219.54 363.869 1219.54 363.164C1223.63 359.782 1226.87 355.696 1229.12 351.186L1238.56 360.487C1235.18 381.625 1232.36 404.736 1230.11 428.975C1229.83 431.652 1229.69 434.33 1229.4 437.007ZM1206.58 439.826L1212.64 439.826L1212.64 445.604L1204.04 449.972L1204.04 441.376C1204.74 441.235 1205.73 440.953 1206.58 439.826ZM1204.04 439.826C1203.9 439.826 1203.76 439.826 1203.62 439.685C1203.33 439.544 1202.91 439.262 1202.63 438.698C1202.77 438.839 1202.77 438.839 1202.91 438.98C1203.48 439.403 1204.04 439.544 1204.6 439.544C1204.46 439.826 1204.32 439.826 1204.04 439.826ZM1214.04 439.826L1219.26 439.826L1219.4 442.222L1214.04 444.899L1214.04 439.826ZM1219.26 438.417L1206.15 438.417C1204.88 438.417 1204.18 438.276 1203.76 437.994C1203.33 437.571 1202.77 436.866 1202.77 434.189C1202.77 431.371 1203.33 430.666 1203.76 430.384C1204.18 430.102 1204.88 429.961 1206.29 429.961L1219.12 429.961L1219.12 430.948C1219.12 433.343 1219.26 435.88 1219.26 438.417ZM1220.39 357.95L1219.54 358.796C1219.54 353.159 1219.54 347.522 1219.54 342.026L1226.45 348.79C1225.04 352.032 1223.06 355.132 1220.39 357.95ZM1227.57 349.777L1228 350.2C1226.02 354.427 1223.2 358.091 1219.54 361.473L1219.54 360.769L1221.37 358.937C1224.05 356.118 1226.02 353.159 1227.57 349.777ZM1218.13 360.487L1218.13 363.024L1218.13 365.983L1218.13 367.674L1218.13 367.815L1218.13 368.519L1218.13 369.929C1218.13 370.633 1218.13 371.338 1218.13 372.043C1218.13 373.17 1218.13 374.297 1218.13 375.566C1218.13 376.129 1218.13 376.834 1218.13 377.398L1218.13 377.961C1218.13 378.666 1218.13 379.23 1218.13 379.934L1218.13 382.048L1218.13 382.471C1218.13 382.753 1218.13 383.175 1218.13 383.457L1218.13 387.967L1218.13 388.671L1218.13 388.812L1218.13 391.912C1218.13 392.335 1218.13 392.617 1218.13 393.04C1218.13 393.885 1218.13 394.872 1218.13 395.717L1218.13 396.563L1218.27 403.045L1218.27 403.186L1218.27 403.468L1218.27 404.595L1218.27 405.723C1218.27 406.005 1218.27 406.427 1218.27 406.85C1218.27 409.246 1218.27 411.501 1218.41 413.896L1218.41 416.433C1218.41 416.856 1218.41 417.137 1218.41 417.56L1218.55 421.365C1218.55 421.788 1218.55 422.352 1218.55 422.774L1219.26 422.774L1218.55 422.774C1218.55 423.197 1218.55 423.62 1218.55 424.043C1218.55 424.184 1218.55 424.324 1218.55 424.324C1218.55 425.734 1218.55 427.143 1218.69 428.552L1213.76 428.552L1213.76 336.389L1217.99 340.476C1218.27 347.099 1218.13 353.723 1218.13 360.487ZM1219.96 406.287C1219.96 405.723 1219.96 405.159 1219.96 404.595L1219.82 390.926C1219.82 390.081 1219.82 389.235 1219.82 388.389L1219.82 387.544L1219.82 382.612C1219.82 382.33 1219.82 381.907 1219.82 381.625L1219.82 376.975C1219.82 376.411 1219.82 375.706 1219.82 375.143C1219.82 374.015 1219.82 372.888 1219.82 371.62C1219.82 371.197 1219.82 370.774 1219.82 370.351L1220.95 370.492C1224.61 371.056 1227.43 374.438 1227.43 378.102C1227.43 378.243 1227.43 378.243 1227.43 378.384L1225.46 415.728C1225.32 417.842 1224.33 419.674 1222.64 420.66C1222.36 420.801 1221.94 421.083 1221.37 421.224L1220.24 421.506C1220.24 421.365 1220.24 421.083 1220.24 420.942L1220.1 417.137C1220.1 416.715 1220.1 416.292 1220.1 416.01L1220.1 413.614C1220.1 411.36 1219.96 408.964 1219.96 406.568L1219.96 406.287ZM1226.73 416.01L1228.7 378.666C1228.7 378.525 1228.7 378.384 1228.7 378.243C1228.7 373.875 1225.32 369.929 1220.95 369.224L1219.68 369.083C1219.68 368.801 1219.68 368.66 1219.68 368.379L1220.81 368.519C1225.74 369.083 1229.69 373.593 1229.4 378.525L1227.43 415.869C1227.29 418.688 1225.88 421.083 1223.63 422.352C1222.64 422.915 1221.51 423.197 1220.39 423.338C1220.39 423.197 1220.39 423.056 1220.39 422.915L1221.79 422.492C1222.36 422.352 1222.92 422.07 1223.35 421.788C1225.32 420.801 1226.59 418.547 1226.73 416.01ZM1212.64 428.411L1206.58 428.411C1205.87 427.425 1205.03 426.861 1204.04 426.861L1204.04 326.525L1212.64 334.98L1212.64 428.411ZM1204.6 428.411C1204.04 428.552 1203.33 428.693 1202.91 428.975C1202.77 428.975 1202.77 429.116 1202.63 429.116C1202.91 428.693 1203.19 428.411 1203.62 428.27C1203.76 428.27 1203.9 428.129 1204.04 428.129C1204.32 428.27 1204.46 428.411 1204.6 428.411ZM1231.52 429.116C1233.63 405.159 1236.45 382.471 1239.83 361.614L1257.73 379.089L1258.72 380.075L1266.33 387.544C1261.68 395.295 1259.28 404.032 1259.28 413.051C1259.28 415.869 1259.56 418.688 1259.98 421.506L1258.72 422.211L1258.72 380.216L1257.73 379.23L1257.31 378.807L1257.31 423.056L1231.1 436.303C1231.1 433.907 1231.38 431.511 1231.52 429.116ZM1261.39 421.788C1259.28 410.091 1261.53 397.972 1267.74 387.826C1267.88 387.544 1268.02 387.262 1268.3 386.98C1269.14 385.571 1270.13 384.303 1271.12 383.034C1272.39 381.343 1273.8 379.934 1275.06 378.525C1275.06 378.525 1275.06 378.525 1275.2 378.384C1277.88 375.706 1280.84 373.452 1284.08 371.479C1284.79 371.056 1285.49 370.633 1286.34 370.211C1296.91 364.574 1309.03 362.883 1320.58 365.701C1322.41 366.124 1324.39 366.688 1326.22 367.392C1329.18 368.519 1332 369.929 1334.81 371.479C1335.1 371.62 1335.24 371.761 1335.52 371.902C1338.2 373.593 1340.73 375.566 1343.13 377.82C1343.27 377.961 1343.55 378.243 1343.83 378.384C1352.01 386.557 1357.08 397.408 1358.07 408.964C1358.21 410.937 1358.35 412.769 1358.21 414.883C1357.93 421.647 1356.38 428.129 1353.42 434.189C1352.57 435.88 1351.72 437.571 1350.6 439.121C1347.92 443.349 1344.68 447.013 1340.87 450.254C1339.04 451.804 1337.07 453.213 1334.96 454.482C1334.67 454.623 1334.39 454.764 1334.11 454.905C1333.4 455.327 1332.7 455.75 1331.85 456.173C1331.29 456.455 1330.73 456.736 1330.16 457.018C1329.6 457.3 1329.04 457.582 1328.33 457.864L1328.19 457.864C1326.36 458.568 1324.53 459.273 1322.55 459.837L1320.72 460.259C1314.8 461.669 1308.88 461.951 1302.97 461.246L1302.54 461.246C1301.7 461.105 1300.85 460.964 1300.01 460.823C1299.87 460.823 1299.72 460.823 1299.58 460.682C1299.02 460.541 1298.32 460.4 1297.75 460.259C1296.62 459.978 1295.5 459.696 1294.37 459.273C1294.09 459.132 1293.95 459.132 1293.67 458.991C1292.54 458.568 1291.55 458.287 1290.42 457.723L1290.28 457.723C1289.16 457.3 1288.17 456.736 1287.04 456.173C1286.76 456.032 1286.48 455.891 1286.34 455.75C1285.35 455.186 1284.36 454.623 1283.38 454.059C1283.38 454.059 1283.38 454.059 1283.24 454.059C1281.4 452.932 1279.57 451.522 1277.88 450.113L1277.74 449.972C1275.91 448.422 1274.08 446.59 1272.39 444.758C1271.12 443.349 1269.85 441.658 1268.72 440.108C1265.2 434.753 1262.52 428.411 1261.39 421.788ZM1288.45 309.473C1288.59 309.332 1288.59 309.051 1288.59 308.91C1283.38 287.208 1284.93 234.926 1284.93 234.362C1284.93 200.964 1299.87 185.18 1306.35 179.966C1307.19 179.262 1308.32 178.839 1309.31 178.839C1310.43 178.839 1311.42 179.262 1312.27 179.966C1318.75 185.18 1333.69 200.964 1333.69 234.362C1333.69 234.926 1335.24 287.208 1330.02 308.91C1330.02 309.051 1330.02 309.332 1330.16 309.473C1330.3 309.614 1330.45 309.755 1330.73 309.755L1347.36 309.755L1328.61 347.24C1322.69 341.181 1316.07 337.939 1309.31 337.939C1298.03 337.939 1287.32 346.818 1279.71 362.319L1245.89 328.357C1246.88 323.565 1248.01 318.915 1248.99 314.687C1249.7 311.587 1252.52 309.473 1255.62 309.473L1287.75 309.473C1288.03 309.755 1288.31 309.614 1288.45 309.473ZM1309.31 339.349C1315.79 339.349 1322.27 342.59 1328.05 348.509L1325.23 354.286C1322.41 351.75 1319.45 349.777 1316.07 348.509C1311.84 346.818 1307.05 346.818 1302.82 348.509C1297.19 350.763 1289.58 355.836 1284.51 367.11L1280.84 363.446C1288.17 348.086 1298.6 339.349 1309.31 339.349ZM1303.25 349.918C1307.19 348.368 1311.56 348.368 1315.51 349.918C1318.75 351.186 1321.85 353.159 1324.53 355.696L1320.3 364.292C1308.74 361.755 1296.62 363.305 1286.06 368.801L1285.49 368.238C1290.42 356.964 1297.89 352.032 1303.25 349.918ZM1404.71 415.165L1400.06 414.46C1400.06 414.319 1400.06 414.319 1400.06 414.178L1400.2 406.427C1400.2 404.032 1400.2 401.777 1400.34 399.381C1400.34 398.818 1400.34 398.254 1400.34 397.549L1400.34 392.617C1400.34 392.053 1400.34 391.49 1400.34 390.926L1400.34 389.094L1400.34 383.034C1400.34 380.357 1400.34 377.82 1400.34 375.143L1400.34 370.351C1400.34 369.647 1400.34 368.942 1400.34 368.097L1400.34 367.533L1400.34 364.996C1400.34 364.856 1400.34 364.715 1400.34 364.715C1400.34 362.46 1400.34 360.064 1400.34 357.809C1400.34 347.099 1400.34 335.967 1400.2 322.438C1400.2 322.015 1400.2 321.733 1400.2 321.311C1400.2 314.265 1400.06 307.219 1399.92 300.595L1399.92 300.172C1399.92 300.032 1399.92 299.75 1399.92 299.609L1399.92 299.468L1399.78 293.972L1399.64 289.462C1399.64 288.335 1399.64 287.208 1399.64 286.221L1399.5 280.725L1399.5 280.584L1399.5 279.175L1399.5 277.907C1399.5 276.92 1399.5 275.793 1399.5 274.806L1399.5 273.397C1399.5 273.256 1399.5 272.975 1399.5 272.834L1399.5 271.706L1399.5 270.297C1399.5 270.015 1399.5 269.733 1399.5 269.592L1404.57 259.587L1404.57 415.165L1404.71 415.165ZM1406.12 256.628L1414.72 239.858L1414.72 416.574L1406.12 415.305L1406.12 256.628ZM1391.46 378.525L1391.46 378.102C1391.46 374.438 1394.28 371.056 1397.95 370.492L1399.22 370.351C1399.22 371.761 1399.22 373.029 1399.22 374.438L1399.22 375.706C1399.22 375.847 1399.22 375.988 1399.22 376.129L1399.22 378.807C1399.22 380.075 1399.22 381.484 1399.22 382.753L1399.22 382.894C1399.22 384.866 1399.22 386.839 1399.22 388.812L1399.22 389.376C1399.22 389.799 1399.22 390.362 1399.22 390.785C1399.22 391.349 1399.22 391.912 1399.22 392.476L1399.22 395.999C1399.22 396.563 1399.22 396.986 1399.22 397.549C1399.22 398.113 1399.22 398.677 1399.22 399.381C1399.22 403.75 1399.07 407.978 1399.07 412.205C1399.07 412.487 1399.07 412.769 1399.07 413.051L1399.07 414.178L1393.72 413.333L1391.46 378.525ZM1391.75 413.192L1391.18 413.051L1389.35 378.525C1389.07 373.452 1392.87 368.942 1397.95 368.519L1399.07 368.379C1399.07 368.66 1399.07 368.801 1399.07 369.083L1397.67 369.224C1393.3 369.929 1389.91 373.875 1389.91 378.243L1391.75 413.192ZM1398.23 272.834C1398.23 272.975 1398.23 273.115 1398.23 273.397L1398.23 274.806C1398.23 275.793 1398.23 276.92 1398.23 277.907L1398.65 299.609L1398.65 300.736C1398.79 306.796 1398.79 312.855 1398.79 319.197L1398.79 321.593C1398.79 322.015 1398.79 322.297 1398.79 322.72L1398.79 323.706C1398.93 335.403 1398.93 347.24 1398.93 358.796L1398.23 357.95C1389.91 349.213 1388.93 338.926 1388.93 332.021L1388.93 290.167L1398.09 272.129L1398.23 272.834ZM1387.52 332.021C1387.52 339.208 1388.51 349.777 1397.24 358.937L1399.07 360.769L1399.07 361.473C1388.22 351.891 1386.96 340.053 1386.96 332.021L1386.96 294.113L1387.52 292.985L1387.52 332.021ZM1385.55 332.021C1385.55 340.617 1386.96 353.159 1399.07 363.305C1399.07 363.869 1399.07 364.292 1399.07 364.856C1399.07 365.278 1399.07 365.842 1399.07 366.265L1399.07 366.969L1397.81 367.11C1392.31 367.674 1387.94 372.606 1387.94 378.102C1387.94 378.243 1387.94 378.525 1387.94 378.666L1389.77 412.91L1386.96 412.487C1382.45 369.224 1376.67 339.349 1372.72 321.733L1385.55 296.649L1385.55 332.021ZM1382.59 411.36L1382.59 397.549C1382.59 395.154 1382.02 392.758 1380.9 390.785C1380.75 390.503 1380.47 390.362 1380.05 390.503C1379.77 390.644 1379.49 390.926 1379.49 391.208L1379.49 411.501L1379.49 389.376C1379.49 389.235 1379.35 388.953 1379.35 388.953C1378.78 388.389 1378.08 387.826 1377.23 387.544C1376.95 387.403 1376.81 387.403 1376.53 387.544C1376.39 387.685 1376.25 387.967 1376.25 388.108L1376.25 411.078L1376.25 387.544C1376.25 387.262 1375.96 386.98 1375.68 386.839L1375.54 386.839C1375.26 386.839 1374.98 386.698 1374.55 386.698C1374.27 386.698 1373.99 386.698 1373.71 386.839L1373.57 386.839C1373.29 386.839 1373 387.121 1373 387.544L1373 410.514L1373 387.967C1373 387.685 1372.86 387.544 1372.72 387.403C1372.58 387.262 1372.3 387.262 1372.02 387.403C1371.17 387.826 1370.47 388.249 1369.9 388.812C1369.76 388.953 1369.76 389.094 1369.76 389.235L1369.76 409.95L1369.76 391.208C1369.76 390.926 1369.48 390.644 1369.2 390.503C1368.92 390.362 1368.64 390.503 1368.35 390.785C1367.23 392.758 1366.66 395.013 1366.66 397.549L1366.66 409.528L1361.59 408.823L1361.59 354.991C1361.59 353.864 1362.58 352.877 1363.7 352.877L1377.51 352.877C1380.19 368.801 1383.15 388.53 1385.69 412.487L1382.73 412.064C1382.59 411.642 1382.59 411.501 1382.59 411.36ZM1381.18 411.642L1380.9 411.642L1380.9 395.013C1381.04 395.858 1381.18 396.704 1381.18 397.549L1381.18 411.36C1381.18 411.501 1381.18 411.501 1381.18 411.642ZM1378.22 411.219L1377.8 411.219L1377.8 389.235C1377.94 389.376 1378.08 389.517 1378.22 389.658L1378.22 411.219ZM1374.84 410.655L1374.41 410.514L1374.41 387.967C1374.55 387.967 1374.55 387.967 1374.7 387.967C1374.84 387.967 1374.84 387.967 1374.98 387.967L1374.98 410.655L1374.84 410.655ZM1371.59 410.232L1371.17 410.232L1371.17 389.658C1371.31 389.517 1371.45 389.376 1371.59 389.235L1371.59 410.232ZM1368.21 409.669L1367.93 409.669L1367.93 397.549C1367.93 396.704 1368.07 395.858 1368.21 395.013L1368.21 409.669ZM1377.23 351.186L1363.7 351.186C1361.73 351.186 1360.04 352.877 1360.04 354.85L1360.04 408.541L1359.19 408.4C1358.07 396.845 1352.99 385.994 1344.68 377.679C1344.54 377.398 1344.54 377.116 1344.4 376.834L1371.74 323.706C1373.43 330.893 1375.26 340.053 1377.23 351.186ZM1363.56 436.866C1363.42 436.866 1363.14 436.867 1363 436.726L1363.56 436.866ZM1360.46 436.303C1360.6 436.444 1360.6 436.726 1360.74 436.866L1353.56 436.866C1353.84 436.303 1354.12 435.88 1354.4 435.316L1360.46 436.303ZM1329.88 458.85C1333.4 457.3 1336.65 455.327 1339.61 453.072C1337.35 458.85 1334.81 464.769 1331.85 470.829L1330.02 458.991L1329.88 458.85ZM1303.95 474.774C1302.12 470.547 1300.43 466.319 1298.74 462.092C1299.72 462.373 1300.71 462.514 1301.7 462.655L1303.67 473.647L1303.95 474.774ZM1445.86 909.377L1445.86 941.084C1445.86 941.225 1445.72 941.366 1445.58 941.366L1442.34 941.366C1442.2 941.366 1442.06 941.225 1442.06 941.084L1442.06 895.285L1446 895.285L1446 908.672L1446 909.377L1445.86 909.377ZM1448.96 891.057L1448.96 907.827L1447.41 907.827L1447.41 891.057L1448.96 891.057ZM1448.96 879.924L1448.96 889.648L1447.27 889.648L1447.27 879.783L1448.96 879.924ZM1445.44 863.437C1445.72 863.437 1445.86 863.577 1445.86 863.859L1445.86 878.374L1445.86 879.079L1445.86 889.648L1445.86 890.353L1445.86 893.735L1441.91 893.735L1441.91 863.859C1441.91 863.577 1442.06 863.437 1442.34 863.437L1445.44 863.437ZM1440.65 863.437C1440.65 863.577 1440.51 863.718 1440.51 863.859L1440.51 893.735L1440.51 894.439L1440.51 917.832L1402.88 917.832C1402.88 917.41 1403.02 916.846 1403.02 916.423C1403.02 916 1403.16 915.578 1403.16 915.155C1403.16 914.873 1403.3 914.45 1403.3 914.168C1403.44 913.041 1403.44 911.773 1403.44 910.504C1403.58 905.713 1403.3 900.922 1402.46 896.271L1396.96 863.437L1440.65 863.437ZM1358.63 632.607C1359.05 632.748 1359.48 632.889 1359.9 633.03C1359.48 633.593 1359.05 634.157 1358.63 634.721L1358.21 632.466C1358.49 632.466 1358.49 632.466 1358.63 632.607ZM1401.05 896.553C1401.89 901.204 1402.17 905.854 1402.03 910.504C1402.03 911.773 1401.89 913.041 1401.89 914.168C1401.89 914.45 1401.89 914.732 1401.75 915.155C1401.75 915.578 1401.75 916 1401.61 916.423C1401.47 917.269 1401.47 918.114 1401.33 918.96C1401.33 919.383 1401.19 919.664 1401.19 920.087C1401.05 921.215 1400.77 922.483 1400.48 923.751C1400.34 924.456 1400.06 925.301 1399.92 926.006C1399.92 926.288 1399.78 926.569 1399.64 926.851L1399.22 928.261C1398.93 928.965 1398.79 929.811 1398.51 930.515C1398.37 930.797 1398.37 931.079 1398.23 931.361C1398.23 931.502 1398.23 931.502 1398.09 931.643C1397.95 931.925 1397.81 932.347 1397.67 932.629C1397.38 933.334 1397.1 934.038 1396.68 934.743C1396.54 935.025 1396.4 935.307 1396.26 935.589C1395.97 936.152 1395.69 936.575 1395.41 937.139C1395.13 937.561 1394.85 937.984 1394.56 938.548C1394.42 938.83 1394.28 938.971 1394.14 939.252C1393.72 939.816 1393.44 940.38 1393.01 940.944C1392.87 941.225 1392.73 941.366 1392.45 941.648C1392.03 942.071 1391.61 942.635 1391.18 943.057C1390.76 943.48 1390.06 943.762 1389.35 943.762C1388.65 943.621 1388.08 943.339 1387.8 942.775C1387.1 941.648 1387.1 940.239 1387.94 938.689C1388.22 938.266 1388.93 937.28 1388.93 937.28C1395.69 926.992 1398.51 910.082 1395.83 894.158L1353.98 642.753L1323.54 461.246C1324.95 460.823 1326.5 460.259 1327.91 459.696L1356.23 629.366L1356.52 631.057L1401.05 896.553ZM1381.88 583.848C1381.88 583.848 1381.88 583.989 1381.88 583.848C1382.02 584.552 1382.16 585.116 1382.3 585.821C1382.59 587.935 1382.59 590.33 1382.02 592.726C1381.6 594.699 1381.18 596.531 1380.61 598.504C1380.33 599.772 1379.91 601.181 1379.35 602.59C1379.35 602.731 1379.2 603.013 1379.2 603.154C1377.37 608.65 1375.26 613.864 1372.72 618.515C1372.72 618.656 1372.58 618.656 1372.58 618.796C1368.49 626.265 1364.55 630.775 1361.73 630.775C1361.45 630.775 1361.17 630.775 1360.88 630.634C1360.74 630.634 1360.74 630.493 1360.6 630.493C1355.95 627.675 1356.09 608.227 1361.03 590.471C1361.59 588.216 1362.29 585.962 1363.14 583.989C1364.97 579.197 1368.35 575.815 1371.59 575.674C1372.86 575.533 1374.27 575.815 1375.54 576.379C1377.51 577.084 1379.06 578.493 1380.33 580.325C1380.9 581.311 1381.46 582.58 1381.88 583.848ZM1381.88 580.466C1381.74 580.184 1381.6 579.902 1381.32 579.62C1379.91 577.506 1378.08 576.097 1375.82 575.111C1374.41 574.547 1372.86 574.265 1371.31 574.406C1367.51 574.688 1363.7 578.352 1361.73 583.707C1361.03 585.821 1360.18 588.076 1359.62 590.33C1357.22 599.067 1355.67 609.073 1355.67 617.105L1355.67 617.246L1354.12 608.227C1354.4 601.886 1355.39 595.263 1356.94 589.344C1359.76 578.775 1363.84 571.588 1368.78 569.333C1370.89 568.346 1373 568.346 1374.98 569.192C1378.64 570.601 1381.04 574.547 1381.88 580.466ZM1368.21 567.783C1367.79 567.924 1367.37 568.206 1367.09 568.487C1369.9 566.515 1372.86 565.951 1375.68 567.219C1378.64 568.487 1380.75 571.306 1382.02 575.111C1380.75 571.447 1378.5 568.91 1375.68 567.642C1373.29 566.655 1370.75 566.655 1368.21 567.783ZM1376.25 565.951C1369.9 563.132 1363.28 567.501 1358.63 577.647C1357.22 580.607 1356.09 584.13 1355.11 587.935C1354.12 591.599 1353.42 595.544 1352.85 599.631L1345.52 555.804L1388.36 555.804C1386.96 562.991 1385.41 569.756 1383.85 576.238C1382.45 571.165 1379.91 567.642 1376.25 565.951ZM1396.12 483.793L1395.97 486.33C1395.97 486.471 1395.97 486.753 1395.97 486.894L1395.83 488.867C1395.83 489.008 1395.83 489.289 1395.83 489.43C1395.83 489.712 1395.83 489.853 1395.83 490.135C1395.69 491.262 1395.69 492.39 1395.55 493.517L1395.55 494.081C1395.27 497.604 1395.13 501.127 1394.85 504.509C1394.56 507.468 1394.42 510.287 1394.14 513.105L1394.14 513.669C1393.86 516.769 1393.58 519.869 1393.3 522.829C1393.01 524.943 1392.87 527.056 1392.59 529.17L1392.17 532.411C1392.03 533.539 1391.89 534.525 1391.75 535.653C1391.61 537.062 1391.32 538.471 1391.18 539.88C1391.04 541.149 1390.9 542.417 1390.62 543.544C1390.06 547.631 1389.35 551.154 1388.79 554.395L1345.38 554.395L1335.38 494.222L1335.1 492.39L1332.14 474.352L1332.56 473.506C1332.98 472.52 1333.55 471.533 1333.97 470.547C1334.39 469.701 1334.81 468.856 1335.1 468.151C1335.66 466.883 1336.22 465.755 1336.79 464.487C1337.07 463.783 1337.49 463.078 1337.77 462.373C1338.48 460.823 1339.04 459.414 1339.61 457.864C1339.75 457.441 1339.89 457.159 1340.03 456.736C1340.73 454.904 1341.44 453.213 1342.14 451.381L1342.14 451.241C1342.85 450.677 1343.41 450.113 1343.97 449.549C1344.82 448.704 1345.67 447.858 1346.51 447.013C1348.48 444.899 1350.32 442.503 1351.87 439.967C1352.15 439.403 1352.57 438.839 1352.85 438.276L1373.29 438.276L1388.36 440.671C1388.79 445.745 1389.21 451.381 1389.63 458.428C1389.63 458.709 1389.63 458.991 1389.77 459.273C1390.06 462.232 1390.62 465.474 1391.46 468.856C1392.45 474.07 1394.28 479.143 1396.12 483.793ZM1397.52 453.777C1397.24 459.414 1397.1 465.051 1396.82 470.547L1396.26 480.27C1394.85 476.466 1393.58 472.52 1392.59 468.574C1391.75 464.487 1391.18 461.387 1390.9 459.132C1390.9 458.85 1390.9 458.568 1390.9 458.287C1390.48 451.381 1390.06 445.886 1389.63 440.812L1397.95 442.081L1397.52 453.777ZM1414.72 457.864C1414.72 460.26 1412.74 462.092 1410.49 462.092C1408.09 462.092 1406.26 460.119 1406.26 457.864L1406.26 443.631L1414.86 445.04L1414.86 457.864L1414.72 457.864ZM1430.5 450.818C1430.5 450.818 1430.5 450.959 1430.5 450.818L1419.09 450.959C1419.09 450.959 1418.94 450.959 1418.94 450.818L1418.94 445.745L1430.5 447.577L1430.5 450.818ZM1731.37 496.476C1731.37 496.617 1731.23 496.758 1731.09 496.758L1662.32 486.048C1662.18 486.048 1662.03 485.907 1662.03 485.766L1662.32 483.934L1662.88 480.411C1662.88 480.27 1663.02 480.13 1663.16 480.13L1731.93 490.84C1732.07 490.84 1732.21 490.98 1732.21 491.121L1731.37 496.476ZM1840.3 509.159C1840.02 510.569 1838.47 511.414 1836.78 511.132L1733.2 494.504L1733.62 491.403C1733.76 490.558 1733.06 489.712 1732.21 489.571L1663.44 478.861C1663.02 478.72 1662.6 478.861 1662.18 479.143C1661.75 479.425 1661.61 479.848 1661.47 480.27L1661.05 483.089L1431.35 446.308L1398.79 441.094L1398.65 441.094L1354.82 434.048C1357.5 428.27 1359.05 422.211 1359.33 415.869L1391.61 420.661L1792.95 480.552C1808.45 482.807 1823.39 490.417 1830.86 499.859C1830.86 499.859 1831.56 500.704 1831.85 501.127C1832.97 502.254 1834.66 503.663 1837.06 503.1C1838.05 502.818 1838.89 502.254 1839.31 501.409C1840.44 504.086 1840.72 506.623 1840.3 509.159ZM1431.2 420.52L1797.6 475.197C1798.16 475.338 1798.59 475.338 1799.15 475.479L1800.14 475.62L1800.28 475.62C1800.84 475.761 1801.27 475.761 1801.69 475.902L1804.37 476.466C1804.93 476.606 1805.49 476.747 1805.92 476.888C1807.32 477.311 1808.87 477.734 1810.28 478.298C1810.57 478.298 1810.71 478.438 1810.99 478.579C1815.64 480.27 1820.01 482.243 1823.81 484.639C1824.24 484.921 1824.66 485.203 1825.08 485.484C1825.93 486.048 1826.77 486.612 1827.62 487.176C1828.04 487.457 1828.32 487.739 1828.74 488.021C1829.45 488.585 1830.29 489.148 1831 489.853C1831.28 490.135 1831.7 490.417 1831.99 490.84C1832.27 491.121 1832.69 491.403 1832.97 491.826C1833.25 492.108 1833.54 492.39 1833.82 492.672L1834.24 493.094C1834.52 493.376 1834.66 493.658 1834.95 493.799L1835.65 494.644C1835.93 494.926 1836.21 495.349 1836.35 495.631C1836.78 496.195 1837.06 496.617 1837.48 497.181C1837.62 497.463 1837.76 497.604 1837.9 497.886C1838.05 498.167 1838.19 498.449 1838.33 498.731C1838.61 499.295 1838.61 499.999 1838.33 500.563C1838.05 501.127 1837.48 501.55 1836.92 501.69C1835.23 502.113 1833.82 501.127 1833.11 500.281C1832.83 499.859 1832.13 499.013 1832.13 499.013C1824.38 489.289 1809.16 481.539 1793.23 479.143L1359.48 414.319C1359.48 412.769 1359.48 411.219 1359.33 409.669L1415.28 417.983L1431.2 420.52ZM1429.65 417.278L1430.64 417.419L1430.64 419.11L1419.23 417.419L1429.65 417.419L1429.65 417.278ZM1418.94 415.869C1418.24 415.869 1417.82 416.433 1417.68 417.137L1416.13 416.856L1416.13 237.18L1418.94 231.684L1418.94 415.869ZM1428.95 229.289L1428.95 415.869L1420.35 415.869L1420.35 229.289L1428.95 229.289ZM1430.5 227.88L1420.92 227.88L1430.64 208.996L1430.5 227.88ZM1519.14 37.4943C1519.28 37.4943 1519.28 37.6353 1519.28 37.7762L1519.28 37.9171L1487.86 100.064C1487.86 100.205 1487.71 100.204 1487.71 100.204L1487.57 100.204L1482.78 97.8088C1482.64 97.8088 1482.64 97.527 1482.64 97.527L1514.07 35.3805C1514.07 35.2396 1514.35 35.2396 1514.49 35.2396L1519.14 37.4943ZM1557.05 -63.6875C1559.87 -63.8284 1562.4 -63.2647 1564.8 -62.1373C1565.36 -61.8555 1565.64 -61.4327 1565.93 -60.7281C1566.21 -59.8826 1566.07 -58.8961 1565.64 -58.0506L1517.87 35.3805L1515.05 33.9713C1514.21 33.5485 1513.22 33.8304 1512.8 34.6759L1481.37 96.8224C1481.23 97.1042 1481.23 97.2451 1481.23 97.527C1481.23 97.6679 1481.23 97.9498 1481.37 98.0907C1481.51 98.5134 1481.8 98.7953 1482.22 99.0771L1484.75 100.345L1419.23 228.302C1419.23 228.302 1419.23 228.443 1419.09 228.443L1398.37 269.029L1343.41 376.27C1341.3 374.297 1338.9 372.465 1336.36 370.774C1336.08 370.633 1335.8 370.492 1335.52 370.351C1332.98 368.801 1330.3 367.392 1327.49 366.406L1398.37 224.216C1398.37 224.216 1398.37 224.075 1398.51 224.075L1523.09 -25.9204C1530.13 -40.0126 1541.97 -51.85 1553.24 -56.0777C1553.24 -56.0777 1554.37 -56.5005 1554.79 -56.6414C1556.91 -57.4869 1558.03 -59.037 1558.18 -61.0099C1558.18 -61.9964 1557.75 -62.9829 1557.05 -63.6875ZM1420.35 156.01C1420.35 153.614 1422.33 151.782 1424.58 151.782C1425 151.782 1425.57 151.923 1425.99 152.064L1420.35 163.478L1420.35 156.01ZM1406.12 184.617C1406.12 182.221 1408.09 180.389 1410.35 180.389C1410.77 180.389 1411.33 180.53 1411.76 180.671L1406.12 192.085L1406.12 184.617ZM1405.98 195.327C1405.98 195.327 1405.98 195.186 1405.98 195.327L1413.31 180.53C1413.31 180.53 1413.31 180.53 1413.31 180.389L1420.21 166.579C1420.21 166.579 1420.21 166.579 1420.21 166.438L1519.14 -32.121C1519.7 -33.2484 1520.27 -34.2348 1520.69 -35.2213C1520.97 -35.785 1521.25 -36.2077 1521.54 -36.7714C1521.82 -37.1942 1522.1 -37.7579 1522.38 -38.1806C1522.66 -38.6034 1522.94 -39.1671 1523.37 -39.5898C1523.93 -40.5763 1524.64 -41.4218 1525.34 -42.4083C1525.62 -42.6901 1525.76 -42.972 1526.04 -43.3947C1526.19 -43.5357 1526.19 -43.6766 1526.33 -43.8175C1527.6 -45.5086 1529 -47.1996 1530.55 -48.8907C1530.84 -49.3134 1531.26 -49.7362 1531.68 -50.018C1532.1 -50.4408 1532.39 -50.7227 1532.81 -51.1454C1533.23 -51.5682 1533.51 -51.85 1533.94 -52.2728C1534.22 -52.5546 1534.64 -52.9774 1534.92 -53.2593C1535.2 -53.5411 1535.49 -53.8229 1535.77 -53.9639C1536.19 -54.2457 1536.47 -54.6685 1536.9 -54.9503L1537.74 -55.6549C1538.73 -56.3595 1539.71 -57.2051 1540.84 -57.9097C1541.97 -58.7552 1543.1 -59.3189 1544.08 -59.8826C1544.22 -59.8826 1544.22 -60.0235 1544.36 -60.0235C1544.79 -60.3053 1545.21 -60.4463 1545.49 -60.5872C1545.91 -60.7281 1546.2 -61.0099 1546.62 -61.1509C1547.04 -61.2918 1547.32 -61.5736 1547.75 -61.7146C1548.03 -61.8555 1548.45 -61.9964 1548.73 -62.1373L1548.87 -62.1373C1549.02 -62.1373 1549.02 -62.1373 1549.16 -62.2782C1550.14 -62.701 1551.27 -62.9828 1552.4 -63.2647C1552.4 -63.2647 1552.54 -63.2647 1552.68 -63.2647C1553.1 -63.4056 1553.38 -63.4056 1553.81 -63.5465C1554.51 -63.5465 1555.07 -63.4056 1555.5 -62.9829C1555.92 -62.5601 1556.2 -61.8555 1556.2 -61.2918C1556.06 -59.6007 1554.65 -58.6143 1553.67 -58.1915C1553.24 -58.0506 1552.12 -57.6278 1552.12 -57.6278C1540.56 -53.2592 1528.44 -41.14 1521.25 -26.766L1396.68 223.229C1396.68 223.229 1396.68 223.229 1396.68 223.37L1325.65 365.842C1324.25 365.278 1322.69 364.856 1321.29 364.574L1387.1 232.53L1388.51 229.571C1388.51 229.571 1388.51 229.43 1388.65 229.43L1397.52 211.533L1397.52 211.392L1399.92 206.459C1399.92 206.459 1399.92 206.319 1400.06 206.319L1405.98 195.327ZM1397.95 208.432C1397.95 208.151 1397.95 208.01 1397.95 207.728C1397.95 207.446 1397.95 207.164 1397.95 206.741L1398.79 206.741L1397.95 208.432ZM1393.16 154.741C1393.3 156.291 1393.44 157.841 1393.72 159.251C1395.27 174.188 1395.83 185.885 1395.97 191.663L1395.97 191.804C1395.97 191.945 1395.97 191.945 1395.97 192.085L1395.97 192.226C1395.97 192.931 1395.97 193.495 1395.97 194.058C1395.97 194.199 1395.97 194.34 1395.97 194.34L1395.97 194.622C1395.97 195.609 1395.97 196.031 1395.97 196.031C1395.97 196.031 1395.97 196.313 1395.97 197.018C1395.97 197.018 1395.97 197.159 1395.97 197.3L1395.97 197.722C1395.97 198.286 1395.97 198.85 1396.12 199.695L1396.26 202.936C1396.26 203.218 1396.26 203.5 1396.26 203.782C1396.26 203.923 1396.26 204.064 1396.26 204.064C1396.26 204.346 1396.26 204.768 1396.26 205.191L1396.26 206.037C1396.26 206.178 1396.26 206.319 1396.26 206.178C1396.26 206.319 1396.26 206.459 1396.26 206.6C1396.26 207.023 1396.26 207.446 1396.26 207.869C1396.26 208.151 1396.26 208.291 1396.26 208.573L1396.4 210.969L1396.4 211.251L1388.79 226.47L1388.79 181.234C1388.79 167.988 1390.76 159.533 1392.31 154.882C1392.31 154.882 1392.45 154.318 1392.87 153.473L1393.16 154.741ZM1392.73 150.936C1391.75 152.346 1391.18 154.178 1391.18 154.318C1389.49 159.11 1387.52 167.706 1387.52 181.094L1387.52 226.893C1387.52 227.598 1387.52 228.302 1387.66 228.866L1387.24 229.852C1387.1 228.866 1387.1 227.88 1387.1 226.893L1387.1 181.094C1387.1 166.579 1389.35 157.701 1391.18 152.627C1391.61 151.641 1392.03 150.795 1392.59 149.809C1392.59 150.232 1392.73 150.514 1392.73 150.936ZM1380.61 95.8359C1381.18 97.2451 1381.6 98.7953 1382.16 100.204L1383.01 102.741L1383.01 102.882L1383.57 104.714C1383.71 105.419 1384 106.123 1384.14 106.687L1384.7 108.942C1386.25 114.579 1387.66 120.779 1388.93 127.261L1388.93 127.402C1389.21 128.953 1389.49 130.503 1389.77 132.053C1389.77 133.039 1389.63 140.79 1386.25 147.131C1382.73 153.755 1381.46 161.787 1381.46 166.72L1381.46 227.457C1381.46 230.698 1378.78 233.376 1375.54 233.376L1346.23 233.376C1343.13 233.376 1340.59 230.98 1340.31 228.021C1339.46 217.31 1336.22 197.44 1324.95 183.489C1323.54 181.657 1320.16 177.571 1317.9 174.893C1316.35 173.061 1315.65 170.806 1315.65 168.411L1315.65 90.1991C1315.65 87.5215 1316.78 85.1259 1318.75 83.4348C1322.41 80.3345 1327.35 74.9795 1330.02 67.0879C1334.39 54.5458 1337.21 54.5459 1341.86 54.5459C1347.64 54.6868 1366.52 66.5242 1380.61 95.8359ZM1295.36 44.2586C1303.67 43.2721 1314.94 43.2721 1323.4 44.2586C1324.53 44.3995 1325.65 44.5404 1326.78 44.6813C1327.06 46.7952 1327.2 49.4727 1327.2 52.8548C1327.2 64.8332 1318.89 79.9118 1309.45 79.9118C1300.01 79.9118 1291.69 64.8332 1291.69 52.8548C1291.69 49.4727 1291.83 46.7952 1292.11 44.6813C1293.24 44.5404 1294.23 44.3995 1295.36 44.2586ZM1230.67 122.329C1230.81 121.484 1231.1 120.497 1231.24 119.652C1231.38 119.229 1231.38 118.665 1231.52 118.242L1231.66 117.82C1231.94 116.551 1232.22 115.283 1232.65 114.015L1233.35 111.196C1233.49 110.492 1233.77 109.787 1233.91 109.223L1235.18 104.714L1235.32 104.432C1235.46 104.009 1235.46 103.728 1235.61 103.305L1238 95.9768C1252.09 66.6651 1270.98 54.8277 1276.47 54.8277C1281.12 54.8277 1284.08 54.8277 1288.31 67.3697C1290.99 75.2614 1295.92 80.6164 1299.58 83.7167C1301.56 85.4077 1302.68 87.8034 1302.68 90.4809L1302.68 168.692C1302.68 171.088 1301.84 173.343 1300.43 175.175C1298.17 177.993 1294.79 182.08 1293.38 183.771C1282.11 197.722 1279.01 217.592 1278.02 228.302C1277.74 231.403 1275.2 233.657 1272.1 233.657L1242.79 233.657C1239.55 233.657 1236.87 230.98 1236.87 227.739L1236.87 167.001C1236.87 162.069 1235.61 154.037 1232.08 147.413C1228.42 140.649 1228.56 132.335 1228.56 132.335C1229.55 128.53 1230.11 125.289 1230.67 122.329ZM1226.45 147.836C1226.87 144.313 1227.43 141.072 1227.85 137.831C1228.28 140.79 1229.26 144.595 1231.1 147.977C1234.48 154.459 1235.75 162.21 1235.75 166.86L1235.75 227.598C1235.75 231.684 1238.99 234.926 1243.07 234.926L1272.39 234.926C1276.19 234.926 1279.29 232.107 1279.71 228.161C1280.56 217.733 1283.8 198.004 1294.79 184.335C1296.2 182.503 1299.58 178.557 1301.84 175.739C1303.53 173.625 1304.52 171.088 1304.52 168.411L1304.52 90.1991C1304.52 87.2397 1303.25 84.2803 1300.85 82.3074C1297.33 79.3481 1292.54 74.134 1290 66.6651C1285.77 54.4049 1282.81 53.1366 1276.75 53.1366C1271.12 53.1366 1256.46 62.2966 1243.5 83.153C1244.91 80.3345 1246.32 77.7979 1247.72 75.4023C1260.69 55.1095 1277.32 47.4998 1290.56 44.8223C1290.42 46.9361 1290.14 49.4727 1290.14 52.7139C1290.14 65.5377 1299.02 81.321 1309.31 81.321C1319.59 81.321 1328.47 65.6787 1328.47 52.7139C1328.47 49.6136 1328.33 46.9361 1328.05 44.8223C1341.3 47.3589 1357.93 54.9686 1370.89 75.4023C1372.44 77.798 1373.85 80.3345 1375.26 83.153C1362.29 62.2966 1347.64 53.1366 1342 53.1366C1335.94 53.1366 1332.98 54.4049 1328.75 66.6651C1326.08 74.2749 1321.43 79.3481 1317.9 82.3074C1315.65 84.2803 1314.24 87.0988 1314.24 90.1991L1314.24 168.411C1314.24 171.088 1315.23 173.625 1316.92 175.739C1319.17 178.557 1322.55 182.644 1323.96 184.335C1334.96 198.004 1338.06 217.592 1338.9 228.161C1339.18 231.966 1342.42 234.926 1346.23 234.926L1375.54 234.926C1379.63 234.926 1382.87 231.684 1382.87 227.598L1382.87 166.86C1382.87 163.056 1383.85 154.882 1387.52 147.977C1389.35 144.595 1390.2 140.79 1390.76 137.831C1391.32 141.072 1391.75 144.454 1392.17 147.836C1391.04 149.245 1390.2 150.654 1389.63 152.205C1387.66 157.278 1385.41 166.438 1385.41 181.094L1385.41 226.893C1385.41 228.866 1385.55 230.557 1385.97 232.107L1348.06 308.346L1331.71 308.346C1336.65 286.08 1335.24 234.926 1335.24 234.362C1335.24 200.4 1319.88 184.194 1313.25 178.839C1312.13 177.993 1310.72 177.43 1309.31 177.43C1307.9 177.43 1306.49 177.852 1305.36 178.839C1298.74 184.194 1283.38 200.4 1283.38 234.362C1283.38 234.926 1281.83 286.08 1286.9 308.346L1255.62 308.346C1251.81 308.346 1248.57 310.882 1247.58 314.546C1246.6 318.492 1245.61 322.72 1244.62 327.37L1233.07 315.674L1233.07 266.21C1233.07 263.392 1232.22 249.722 1220.95 249.018C1220.95 246.622 1221.09 244.367 1221.09 242.113C1222.5 242.113 1225.88 241.69 1228.7 239.153C1231.52 236.617 1233.07 232.53 1233.07 227.034L1233.07 181.234C1233.07 166.579 1230.81 157.419 1228.84 152.346C1228.28 150.654 1227.43 149.245 1226.45 147.836ZM1206.58 216.747L1212.64 216.747L1212.64 295.099L1204.04 286.503L1204.04 218.297C1204.74 218.156 1205.73 217.874 1206.58 216.747ZM1204.04 216.747C1203.9 216.747 1203.76 216.747 1203.62 216.606C1203.33 216.465 1202.91 216.183 1202.63 215.619C1202.77 215.76 1202.77 215.76 1202.91 215.901C1203.48 216.324 1204.04 216.465 1204.6 216.606C1204.46 216.747 1204.32 216.747 1204.04 216.747ZM1214.04 216.747L1220.53 216.747C1220.53 216.888 1220.53 217.17 1220.53 217.31C1220.53 217.451 1220.53 217.592 1220.53 217.733L1220.53 218.156C1220.53 218.297 1220.53 218.297 1220.53 218.438L1220.53 219.565L1220.53 219.988C1220.53 220.129 1220.53 220.27 1220.53 220.411C1220.53 221.397 1220.53 222.384 1220.39 223.511L1220.24 227.739C1220.24 228.161 1220.24 228.584 1220.24 229.007L1220.1 235.912C1220.1 236.335 1220.1 236.758 1220.1 237.039L1220.1 239.576L1220.1 241.267C1220.1 243.945 1219.96 246.763 1219.96 249.582C1219.96 249.582 1219.96 249.582 1219.96 249.722C1219.82 255.218 1219.68 260.996 1219.54 267.197C1219.54 267.76 1219.54 268.324 1219.54 268.747C1219.54 270.438 1219.54 271.988 1219.4 273.679C1219.4 274.525 1219.4 275.229 1219.4 276.075C1219.4 276.216 1219.4 276.357 1219.4 276.638C1219.26 279.88 1219.26 283.121 1219.26 286.362L1219.12 296.508C1219.12 296.649 1219.12 296.931 1219.12 297.072L1219.12 301.3L1214.61 296.649L1214.61 216.747L1214.04 216.747ZM1219.96 300.877L1219.96 297.354C1219.96 297.072 1219.96 296.649 1219.96 296.368L1220.1 286.362L1220.1 286.221C1220.1 283.403 1220.24 280.725 1220.24 277.907C1220.24 277.343 1220.24 276.779 1220.24 276.216C1220.24 276.216 1220.24 276.216 1220.24 276.075C1220.24 273.961 1220.39 271.847 1220.39 269.733L1220.39 269.451C1220.39 269.311 1220.39 269.029 1220.39 268.888C1220.39 268.747 1220.39 268.606 1220.39 268.606L1220.39 266.492C1220.53 261.701 1220.67 257.05 1220.67 252.682L1221.79 252.964C1228.7 254.373 1229.4 263.815 1229.4 266.633L1229.4 312.574L1219.68 302.85C1219.96 301.864 1219.96 301.3 1219.96 300.877ZM1231.1 266.21C1231.1 263.11 1230.25 252.823 1222.36 251.273L1220.95 250.991C1220.95 250.85 1220.95 250.709 1220.95 250.568C1230.67 251.132 1231.66 262.687 1231.66 266.351L1231.66 314.406L1231.1 313.842L1231.1 266.21ZM1226.02 150.936C1226.02 150.514 1226.16 150.232 1226.16 149.95C1226.73 150.795 1227.29 151.782 1227.57 152.768C1229.4 157.701 1231.66 166.72 1231.66 181.234L1231.66 227.034C1231.66 232.107 1230.39 235.771 1227.85 238.167C1225.46 240.422 1222.5 240.703 1221.23 240.703L1221.23 240.281C1221.94 240.14 1222.64 239.999 1222.64 239.999C1224.61 239.717 1226.16 238.871 1227.43 237.744C1229.83 235.489 1231.1 231.966 1231.1 227.175L1231.1 181.375C1231.1 167.988 1229.12 159.392 1227.43 154.6C1227.57 154.178 1226.87 152.346 1226.02 150.936ZM1222.36 204.064C1222.36 203.923 1222.36 203.782 1222.36 203.782L1222.5 200.118L1222.5 198.427L1222.5 197.863C1222.5 197.722 1222.5 197.581 1222.5 197.581L1222.5 197.44L1222.5 196.172C1222.5 196.172 1222.5 195.608 1222.5 194.763L1222.5 194.481C1222.5 194.34 1222.5 194.34 1222.5 194.058C1222.5 193.636 1222.5 193.072 1222.5 192.367L1222.5 192.226C1222.5 192.085 1222.5 192.085 1222.5 191.945C1222.5 191.945 1222.5 191.945 1222.5 191.804C1222.64 187.012 1223.06 174.188 1224.9 158.123C1224.9 158.123 1224.9 157.982 1224.9 157.841C1224.9 157.278 1225.04 156.573 1225.04 155.869C1225.04 155.728 1225.04 155.587 1225.04 155.446C1225.04 155.305 1225.04 155.164 1225.04 155.023L1225.04 154.6C1225.04 154.178 1225.18 153.896 1225.18 153.473C1225.46 154.178 1225.74 154.882 1225.74 154.882C1227.29 159.533 1229.26 167.988 1229.26 181.234L1229.26 227.034C1229.26 231.544 1228.14 234.644 1226.16 236.617C1225.04 237.603 1223.77 238.308 1221.94 238.59C1221.94 238.59 1221.37 238.731 1220.81 238.871L1220.81 237.18C1220.81 236.758 1220.81 236.476 1220.81 236.053L1220.95 229.148C1220.95 228.725 1220.95 228.302 1220.95 227.88L1221.09 223.652C1221.09 222.665 1221.09 221.538 1221.23 220.552C1221.23 220.411 1221.23 220.27 1221.23 219.988C1221.23 219.847 1221.23 219.706 1221.23 219.565L1221.23 217.592C1221.23 217.451 1221.23 217.451 1221.23 217.31C1221.23 217.029 1221.23 216.747 1221.23 216.465C1221.23 216.324 1221.23 216.183 1221.23 216.042C1221.23 214.774 1221.23 213.646 1221.37 212.519L1221.37 212.237L1221.37 211.815C1221.37 211.674 1221.37 211.533 1221.37 211.533L1221.37 211.392L1221.37 210.969C1221.37 210.687 1221.37 210.264 1221.37 209.982C1221.37 209.419 1221.37 208.996 1221.37 208.432C1221.37 208.291 1221.37 208.151 1221.37 207.869L1222.36 204.064ZM1220.53 215.338L1206.01 215.338C1204.88 215.338 1204.04 215.197 1203.62 214.915C1203.19 214.633 1202.63 213.787 1202.63 211.11C1202.63 208.291 1203.19 207.587 1203.62 207.305C1204.04 207.023 1204.74 206.882 1206.15 206.882L1220.81 206.882L1220.81 207.869C1220.81 208.01 1220.81 208.151 1220.81 208.432C1220.81 208.996 1220.81 209.419 1220.81 209.982L1220.81 210.969L1220.81 211.11L1220.81 211.251L1220.81 212.378L1220.81 212.519C1220.67 213.365 1220.53 214.351 1220.53 215.338ZM1204.6 205.473C1204.04 205.614 1203.33 205.755 1202.91 206.037C1202.77 206.037 1202.77 206.178 1202.63 206.319C1202.91 205.896 1203.33 205.473 1203.62 205.332C1203.76 205.332 1203.9 205.191 1204.04 205.191C1204.32 205.191 1204.46 205.332 1204.6 205.473ZM1204.04 184.617C1204.04 182.221 1206.01 180.389 1208.27 180.389C1210.66 180.389 1212.64 182.362 1212.64 184.617L1212.64 205.332L1206.58 205.332C1205.87 204.346 1205.03 203.782 1204.04 203.782L1204.04 184.617ZM1188.26 227.88C1188.26 227.88 1188.11 227.739 1188.26 227.88L1188.11 194.34C1188.11 194.34 1188.11 194.199 1188.26 194.199L1199.67 194.199C1199.67 194.199 1199.81 194.199 1199.81 194.34L1199.81 204.627C1199.81 205.05 1200.09 205.332 1200.52 205.332L1201.78 205.332C1200.8 206.6 1200.09 208.714 1200.09 211.11C1200.09 213.506 1200.66 215.619 1201.64 216.888L1200.37 216.888C1199.95 216.888 1199.67 217.17 1199.67 217.592L1199.67 227.88C1199.67 227.88 1199.67 228.021 1199.53 228.021L1188.26 228.021L1188.26 227.88ZM1199.81 229.289C1200.52 229.148 1201.22 228.584 1201.22 227.88L1201.22 218.297L1202.63 218.297L1202.63 285.094L1199.81 282.275L1199.81 229.289ZM1189.81 229.289L1198.4 229.289L1198.4 280.725L1189.81 272.129L1189.81 229.289ZM1017.32 97.527L1066.78 146.568L1066.92 146.709L1066.92 146.85L1065.65 148.118L1063.12 150.654C1063.12 150.654 1062.98 150.654 1062.98 150.795L1062.84 150.795L1013.37 101.755L1013.37 101.614C1013.37 101.614 1013.37 101.473 1013.51 101.473L1017.32 97.6679L1017.46 97.6679C1017.18 97.527 1017.18 97.527 1017.32 97.527ZM936.287 23.2612C937.274 22.2748 939.106 22.4157 940.374 23.684L1014.36 97.9497L1012.1 100.204C1011.82 100.486 1011.68 100.909 1011.68 101.332C1011.68 101.755 1011.82 102.177 1012.1 102.459L1061.57 151.5C1061.85 151.782 1062.27 151.923 1062.69 151.923C1063.12 151.923 1063.54 151.782 1063.82 151.359L1065.79 149.386L1279.29 363.728L1284.65 369.083C1284.08 369.365 1283.66 369.647 1283.1 369.929C1279.71 372.043 1276.61 374.438 1273.8 377.116C1273.8 377.116 1273.8 377.116 1273.8 377.257C1272.53 378.384 1271.4 379.793 1270.27 381.202L1203.62 315.815L957.708 74.2749C946.434 63.283 938.824 48.3453 938.401 36.3669C938.401 36.3669 938.401 35.2396 938.401 34.6759C938.119 32.4211 937.133 30.871 935.301 30.0255C934.315 29.6027 933.328 29.7436 932.483 30.1664C933.187 27.4889 934.455 25.0932 936.287 23.2612ZM1189.52 310.46L950.943 75.9659C943.474 68.638 937.556 59.619 934.315 50.6C934.033 49.8954 933.892 49.3317 933.61 48.6271C933.046 46.9361 932.623 45.245 932.342 43.6949C931.637 40.4537 931.496 37.3534 931.637 34.535C931.637 34.394 931.637 34.1122 931.637 33.9713C931.637 33.6894 931.778 33.4076 931.778 33.1257C931.919 32.4211 932.342 31.8574 932.905 31.5756C933.469 31.2938 934.174 31.1528 934.737 31.4347C936.287 32.1393 936.851 33.6894 936.992 34.8168C936.992 35.2396 936.992 36.5079 936.992 36.5079C937.556 48.909 945.306 64.1285 956.721 75.4023L1188.54 303.273L1269.43 382.893C1268.58 384.021 1267.74 385.289 1266.89 386.557C1266.89 386.557 1266.89 386.698 1266.75 386.698L1189.52 310.46ZM1189.81 415.869L1189.81 312.574L1198.4 321.029L1198.4 415.869L1189.81 415.869ZM1199.81 415.869L1199.81 322.438L1202.63 325.257L1202.63 427.002L1201.22 427.002L1201.22 417.419C1201.08 416.574 1200.52 416.01 1199.81 415.869ZM1188.26 450.959C1188.26 450.959 1188.11 450.818 1188.26 450.959L1188.11 417.419C1188.11 417.419 1188.11 417.278 1188.26 417.278L1199.67 417.278C1199.67 417.278 1199.81 417.278 1199.81 417.419L1199.81 427.707C1199.81 428.129 1200.09 428.411 1200.52 428.411L1201.78 428.411C1200.8 429.679 1200.23 431.793 1200.23 434.189C1200.23 436.585 1200.8 438.698 1201.78 439.967L1200.52 439.967C1200.09 439.967 1199.81 440.249 1199.81 440.671L1199.81 450.959C1199.81 450.959 1199.81 451.1 1199.67 451.1L1188.26 451.1L1188.26 450.959ZM1201.08 450.818L1201.08 441.235L1202.49 441.235L1202.49 450.536L1200.8 451.381C1201.08 451.241 1201.08 451.1 1201.08 450.818ZM1189.81 452.368L1198.4 452.368L1198.4 452.791L1189.81 457.159L1189.81 452.368ZM918.813 593.712L918.813 593.571C918.813 593.571 918.813 593.431 918.954 593.431L980.819 561.582C980.96 561.582 981.101 561.582 981.241 561.723L982.087 563.273L983.637 566.374L983.637 566.514C983.637 566.514 983.637 566.515 983.637 566.655C983.637 566.655 983.637 566.796 983.496 566.796L921.632 598.645C921.491 598.645 921.491 598.645 921.491 598.645C921.491 598.645 921.35 598.645 921.35 598.504L918.813 593.712ZM823.268 647.404C822.986 646.699 822.986 646.135 823.127 645.712C823.409 644.867 824.114 644.162 824.959 643.74L918.531 596.249L919.941 599.067C920.081 599.49 920.504 599.772 920.927 599.913C921.35 600.054 921.772 600.054 922.195 599.772L984.06 567.924C984.483 567.783 984.764 567.36 984.905 566.937C985.046 566.514 985.046 566.092 984.764 565.669L983.496 563.132L1259.98 422.915C1261.25 429.116 1263.65 435.035 1267.03 440.249L878.228 642.753C864.276 650.081 847.789 652.618 836.092 649.376C836.092 649.376 834.965 649.095 834.542 648.954C832.287 648.531 830.455 648.954 829.187 650.504C828.623 651.208 828.341 651.913 828.341 652.759C828.341 652.899 828.341 653.04 828.341 653.181C826.228 651.631 824.537 649.799 823.268 647.404ZM1198.4 491.121C1198.4 493.517 1196.43 495.349 1194.17 495.349C1191.78 495.349 1189.95 493.376 1189.95 491.121L1189.95 488.867L1198.54 484.357L1198.54 491.121L1198.4 491.121ZM1198.82 482.666L877.946 649.658C867.377 655.154 855.257 658.114 844.688 657.691L843.843 657.691C843.279 657.691 842.856 657.691 842.293 657.55C841.588 657.55 841.024 657.409 840.32 657.268L839.756 657.127C839.333 657.127 838.77 656.986 838.347 656.845L838.206 656.845C837.642 656.704 837.079 656.563 836.515 656.423C835.81 656.282 834.965 656 834.26 655.718C833.837 655.577 833.415 655.436 832.851 655.154C832.287 654.872 831.583 654.732 831.019 654.45C830.455 654.168 830.032 653.604 829.892 652.899C829.751 652.195 829.892 651.631 830.314 651.208C831.442 649.94 833.133 649.94 834.26 650.081C834.683 650.222 835.81 650.504 835.81 650.504C847.789 653.745 864.699 651.208 878.932 643.74L1268.02 441.517C1268.86 442.785 1269.85 444.054 1270.84 445.181L1226.59 468.292C1226.59 468.292 1226.59 468.292 1226.45 468.292L1220.95 471.111C1220.95 471.111 1220.95 471.111 1220.81 471.111L1198.82 482.666ZM1222.08 473.083L1222.08 472.238L1225.74 470.265C1224.75 473.647 1223.63 477.17 1222.5 480.27C1222.36 477.875 1222.22 475.479 1222.08 473.083ZM1229.26 549.604C1229.26 549.181 1229.12 548.758 1229.12 548.336L1229.12 547.913C1229.12 547.772 1229.12 547.631 1228.98 547.349C1228.84 546.222 1228.56 544.953 1228.42 543.685C1228.28 542.84 1228.14 542.135 1228 541.29L1227.71 539.035C1227.29 535.512 1226.87 532.27 1226.45 529.17C1225.88 523.956 1225.32 518.742 1224.9 513.669L1224.9 513.105C1224.61 510.287 1224.47 507.468 1224.19 504.509C1224.05 503.522 1224.05 502.395 1223.91 501.409L1222.92 486.471C1222.92 486.048 1222.92 485.625 1222.78 485.062L1222.64 483.793C1224.33 479.425 1226.16 474.352 1227.43 469.419L1271.82 446.308C1271.96 446.59 1272.24 446.731 1272.53 447.013C1273.37 447.858 1274.22 448.704 1275.06 449.549C1275.63 450.113 1276.33 450.677 1276.9 451.241C1277.32 452.368 1277.74 453.354 1278.16 454.482L1278.16 454.623C1278.59 455.609 1279.01 456.596 1279.43 457.582C1279.57 458.005 1279.85 458.428 1280 458.85C1280.28 459.414 1280.56 460.119 1280.7 460.682C1280.98 461.246 1281.12 461.81 1281.4 462.373C1281.69 462.937 1281.83 463.36 1282.11 463.923C1282.25 464.346 1282.53 464.769 1282.67 465.333C1282.95 465.896 1283.24 466.46 1283.52 467.024C1283.66 467.165 1283.66 467.447 1283.8 467.587C1286.2 472.802 1288.73 477.734 1291.27 482.384C1293.95 487.457 1296.62 491.967 1299.02 495.772C1299.3 496.195 1299.58 496.617 1299.87 497.04C1300.01 497.181 1300.15 497.322 1300.29 497.604C1300.43 497.745 1300.57 498.027 1300.71 498.167C1300.99 498.449 1301.27 498.731 1301.56 498.872L1301.7 499.013C1303.53 500.422 1305.78 501.268 1308.32 501.55L1316.64 554.395L1230.25 554.395L1229.26 549.604ZM1243.64 569.051C1245.75 568.065 1247.87 568.206 1249.84 569.192C1254.63 571.447 1258.86 578.634 1261.68 589.203C1265.76 604.845 1265.48 622.038 1261.53 628.238C1261.68 627.674 1261.96 627.111 1262.1 626.547C1263.37 621.615 1263.37 613.723 1262.1 604.704C1262.1 604.282 1261.96 603.859 1261.96 603.436L1261.96 603.295C1261.82 601.886 1261.53 600.618 1261.25 599.208C1260.97 597.94 1260.69 596.672 1260.41 595.403L1259.98 593.712L1259.98 593.571C1259.7 592.444 1259.42 591.458 1259.14 590.33C1258.43 587.935 1257.73 585.68 1257.03 583.707C1255.05 578.352 1251.25 574.688 1247.44 574.406C1245.89 574.265 1244.34 574.547 1242.93 575.111C1240.82 575.956 1238.85 577.506 1237.44 579.62C1237.3 579.902 1237.16 580.184 1236.87 580.466C1237.72 574.547 1239.97 570.601 1243.64 569.051ZM1243.07 567.642C1240.26 568.91 1238.14 571.306 1236.87 574.688C1238.14 571.024 1240.26 568.346 1243.07 567.219C1245.89 565.951 1248.85 566.374 1251.67 568.487C1251.25 568.206 1250.97 568.065 1250.54 567.783C1248.01 566.655 1245.47 566.655 1243.07 567.642ZM1246.17 618.796C1246.17 618.656 1246.03 618.656 1246.03 618.515C1243.64 614.005 1241.38 608.65 1239.55 603.295L1239.41 602.731C1238.99 601.181 1238.56 599.913 1238.14 598.645C1237.58 596.672 1237.16 594.699 1236.73 592.867C1236.31 590.471 1236.17 588.075 1236.45 585.962C1236.45 585.68 1236.59 585.257 1236.59 584.975C1236.59 584.693 1236.73 584.412 1236.73 584.13C1236.73 583.989 1236.87 583.707 1236.87 583.566C1236.87 583.425 1237.01 583.284 1237.01 583.002C1237.16 582.72 1237.16 582.58 1237.3 582.439C1237.58 581.734 1238 581.17 1238.28 580.607C1239.55 578.775 1241.24 577.365 1243.07 576.661C1244.34 576.097 1245.61 575.956 1247.02 575.956C1250.26 576.238 1253.64 579.479 1255.48 584.271C1256.18 586.244 1256.88 588.498 1257.59 590.753C1257.87 591.88 1258.15 592.867 1258.43 593.994L1258.86 595.826C1259.14 597.094 1259.42 598.363 1259.56 599.631C1259.84 601.04 1259.98 602.309 1260.27 603.718L1260.27 603.859C1260.27 604.282 1260.41 604.704 1260.41 605.127C1261.68 613.864 1261.53 621.615 1260.41 626.406C1259.84 628.661 1259 630.211 1257.87 630.916C1257.73 630.916 1257.73 631.057 1257.59 631.057C1257.31 631.198 1257.03 631.198 1256.74 631.198C1254.35 630.916 1250.26 626.406 1246.17 618.796ZM1284.79 681.788C1284.51 681.507 1284.51 681.225 1284.51 680.943C1284.51 673.615 1284.22 666.146 1280.98 661.355C1277.88 656.704 1274.5 652.618 1270.84 648.249C1267.03 643.74 1262.94 638.948 1258.86 633.03C1259.28 632.889 1259.7 632.889 1260.13 632.607C1268.16 629.084 1268.44 606.254 1263.79 588.075C1262.8 584.271 1261.53 580.748 1260.27 577.788C1255.62 567.642 1248.99 563.273 1242.65 566.092C1238.99 567.783 1236.45 571.306 1235.04 576.379C1233.35 569.897 1231.94 563.132 1230.53 555.945L1308.74 555.945L1308.74 682.07L1285.77 682.211C1285.35 682.07 1285.07 681.929 1284.79 681.788ZM1335.66 680.943C1335.66 679.816 1335.66 678.688 1335.66 677.561L1350.03 769.583L1348.91 769.724C1348.06 769.865 1347.5 770.569 1347.5 771.415C1347.5 771.556 1347.5 771.556 1347.5 771.697L1358.63 840.466C1358.63 840.889 1358.91 841.312 1359.33 841.594C1359.76 841.876 1360.18 842.017 1360.6 841.876L1361.31 841.735L1364.55 862.168L1331.85 862.168L1333.69 683.48C1334.81 683.057 1335.66 682.07 1335.66 680.943ZM1330.45 862.027L1316.78 862.027L1316.78 683.339L1332.28 683.48L1330.45 862.027ZM1288.31 862.027L1286.62 683.48L1301.84 683.339L1301.84 862.027L1288.31 862.027ZM1173.74 889.648L1173.88 879.783L1175.43 879.783L1175.43 889.648L1173.74 889.648ZM1176.84 889.648L1176.84 879.079L1176.84 878.374L1176.84 863.859C1176.84 863.577 1176.98 863.437 1177.26 863.437L1180.22 863.437C1180.5 863.437 1180.65 863.577 1180.65 863.859L1180.65 893.735L1176.7 893.735L1176.7 890.353L1176.7 889.648L1176.84 889.648ZM1287.32 917.973L1182.05 917.973L1182.05 894.58L1182.05 893.876L1182.05 864C1182.05 863.859 1182.06 863.718 1181.91 863.577L1286.76 863.577L1287.32 917.973ZM1288.31 863.437L1301.84 863.437L1301.84 917.973L1288.73 917.973L1288.31 863.437ZM1173.74 907.827L1173.74 891.057L1175.43 891.057L1175.43 907.827L1173.74 907.827ZM1180.65 941.084C1180.65 941.225 1180.5 941.366 1180.36 941.366L1177.12 941.366C1176.98 941.366 1176.84 941.225 1176.84 941.084L1176.84 909.377L1176.84 908.672L1176.84 895.285L1180.65 895.285L1180.65 941.084ZM1303.25 683.48L1315.37 683.48L1315.37 926.992L1303.25 926.992L1303.25 683.48ZM1288.73 919.382L1301.84 919.382L1301.84 926.992L1288.73 926.992L1288.73 919.382ZM1288.87 928.824L1299.3 928.824L1300.29 1001.12L1294.79 1006.89C1292.54 1009.15 1291.13 1012.11 1290.71 1015.35L1289.72 1023.38L1288.87 928.824ZM1290.28 1085.67L1289.86 1035.36C1289.86 1034.09 1289.86 1032.97 1290 1031.7L1292.11 1015.21C1292.54 1012.39 1293.81 1009.71 1295.78 1007.6L1300.29 1002.95L1301.13 1065.52L1301.13 1065.94C1301.13 1066.79 1301.13 1067.49 1301.13 1068.34C1301.13 1070.87 1301.27 1073.55 1301.42 1076.37C1301.98 1083.98 1302.26 1090.18 1302.54 1095.68L1302.68 1098.49C1302.82 1101.88 1303.11 1104.98 1303.25 1108.22L1300.71 1108.22C1298.88 1108.22 1297.33 1107.23 1296.62 1105.54L1292.26 1095.11C1290.99 1092.29 1290.28 1089.05 1290.28 1085.67ZM1298.6 1149.79C1296.06 1149.79 1293.95 1147.96 1293.66 1145.56L1291.27 1129.07C1290.71 1125.55 1290.56 1122.03 1290.42 1118.65L1290.14 1094.27C1290.28 1094.83 1290.56 1095.39 1290.85 1095.96L1295.22 1106.39C1296.06 1108.5 1298.17 1109.91 1300.57 1109.91L1303.25 1109.91C1303.67 1115.83 1304.23 1123.44 1305.36 1134.15C1305.78 1137.39 1307.62 1138.8 1309.31 1138.8C1311 1138.8 1312.83 1137.39 1313.25 1134.15C1314.24 1125.27 1314.8 1117.8 1315.37 1109.91L1318.04 1109.91C1320.44 1109.91 1322.41 1108.5 1323.4 1106.39L1327.77 1095.96C1328.05 1095.39 1328.19 1094.83 1328.33 1094.27L1328.05 1118.65C1328.05 1122.17 1327.77 1125.69 1327.2 1129.07L1324.81 1145.56C1324.53 1147.96 1322.41 1149.79 1319.88 1149.79L1298.6 1149.79Z" fill="#012FEA"/>
<path d="M1237.72 227.738C1237.72 230.698 1240.11 233.093 1243.07 233.093L1272.39 233.093C1275.2 233.093 1277.46 230.98 1277.74 228.161C1278.59 217.451 1281.83 197.299 1293.24 183.348C1294.65 181.516 1298.03 177.429 1300.29 174.752C1301.7 173.061 1302.4 170.947 1302.4 168.692L1302.4 90.4807C1302.4 88.085 1301.27 85.6893 1299.44 84.1392C1295.78 81.0389 1290.71 75.543 1287.89 67.5104C1283.8 55.8139 1281.55 55.2502 1276.47 55.2502C1272.39 55.2502 1253.5 64.9738 1238.42 96.1175C1234.76 106.264 1231.66 118.383 1229.12 132.194L1229.12 132.334C1229.12 133.18 1229.26 140.79 1232.5 146.99C1236.17 153.755 1237.44 161.928 1237.44 166.86L1237.44 227.738L1237.72 227.738ZM1234.06 146.427C1230.95 140.649 1230.81 133.462 1230.81 132.475C1233.35 118.665 1236.31 106.687 1239.97 96.6812C1254.63 66.2421 1272.81 56.8004 1276.61 56.8004C1280.84 56.8004 1282.67 56.8004 1286.62 68.0741C1289.44 76.3885 1294.65 82.0254 1298.6 85.2666C1300.15 86.5349 1300.99 88.5078 1300.99 90.4807L1300.99 168.692C1300.99 170.524 1300.29 172.356 1299.16 173.906C1296.77 176.725 1293.52 180.811 1291.97 182.643C1280.42 197.017 1277.18 217.31 1276.19 228.302C1276.05 230.416 1274.36 231.825 1272.24 231.825L1242.93 231.825C1240.82 231.825 1238.99 230.134 1238.99 227.879L1238.99 167.142C1239.13 161.787 1237.86 153.332 1234.06 146.427Z" fill="#012FEA"/>
<path d="M1342 55.2502C1337.07 55.2502 1334.67 55.8139 1330.59 67.5104C1327.77 75.402 1322.84 80.898 1319.03 84.1392C1317.2 85.6893 1316.07 87.9441 1316.07 90.4807L1316.07 168.692C1316.07 170.947 1316.78 173.061 1318.19 174.752C1320.44 177.57 1323.82 181.657 1325.23 183.348C1336.51 197.299 1339.75 217.451 1340.73 228.161C1341.01 230.98 1343.27 233.093 1346.09 233.093L1375.4 233.093C1378.36 233.093 1380.75 230.698 1380.75 227.738L1380.75 167.001C1380.75 162.069 1382.02 153.895 1385.69 147.131C1388.79 141.353 1389.07 134.448 1389.07 132.334C1386.67 118.524 1383.57 106.405 1379.77 96.1175C1365.11 64.9738 1346.09 55.2502 1342 55.2502ZM1378.78 96.5403C1382.45 106.687 1385.55 118.806 1387.94 132.334C1387.94 134.307 1387.66 140.931 1384.7 146.427C1381.04 153.332 1379.63 161.787 1379.63 167.001L1379.63 227.738C1379.63 229.852 1377.94 231.684 1375.68 231.684L1346.37 231.684C1344.26 231.684 1342.71 230.134 1342.42 228.161C1341.44 217.31 1338.2 196.877 1326.64 182.503C1325.23 180.671 1321.85 176.584 1319.45 173.765C1318.33 172.356 1317.62 170.524 1317.62 168.551L1317.62 90.3397C1317.62 88.3668 1318.47 86.3939 1320.02 85.1256C1323.82 81.8844 1329.04 76.2476 1332 67.9332C1335.94 56.6595 1337.77 56.6595 1342 56.6595C1345.95 56.6595 1364.13 66.2421 1378.78 96.5403Z" fill="#012FEA"/>
<path d="M1311.56 249.582C1311.56 249.582 1311.56 249.441 1311.56 249.582C1311.56 249.441 1311.56 249.441 1311.56 249.441L1311.56 232.953C1311.56 232.53 1311.7 232.248 1311.84 232.107C1313.96 231.403 1315.23 229.852 1315.23 228.302C1315.23 228.161 1315.23 228.161 1315.23 228.021C1314.94 225.766 1312.41 224.075 1309.45 224.075C1306.35 224.075 1303.95 225.766 1303.67 228.021C1303.67 228.161 1303.67 228.161 1303.67 228.302L1303.67 228.443C1303.67 230.134 1304.94 231.544 1306.91 232.248C1307.05 232.248 1307.33 232.671 1307.33 233.094L1307.33 249.582C1307.33 249.582 1307.33 249.582 1307.33 249.722C1307.33 249.722 1307.33 249.722 1307.33 249.863C1307.33 251.132 1308.32 252.118 1309.59 252.118C1310.58 251.695 1311.56 250.709 1311.56 249.582ZM1308.6 249.582C1308.6 249.441 1308.6 249.3 1308.6 249.159L1308.6 232.812C1308.6 231.825 1308.04 230.98 1307.33 230.698C1305.93 230.134 1304.94 229.148 1304.94 228.302L1304.94 228.161C1305.08 226.611 1307.05 225.343 1309.45 225.343C1311.84 225.343 1313.82 226.611 1313.82 228.161L1313.82 228.302C1313.82 229.289 1312.83 230.275 1311.42 230.839C1310.72 231.121 1310.15 231.966 1310.15 232.953L1310.15 249.3C1310.15 249.441 1310.15 249.582 1310.15 249.722C1310.15 250.145 1309.73 250.427 1309.31 250.427C1308.88 250.286 1308.6 250.004 1308.6 249.582Z" fill="#012FEA"/>
<path d="M1242.37 420.942L1242.37 387.826C1242.37 387.544 1242.23 387.403 1242.09 387.262C1241.95 387.121 1241.67 387.121 1241.38 387.262C1240.54 387.685 1239.97 388.108 1239.27 388.671C1239.13 388.812 1239.13 388.953 1239.13 389.235L1239.13 419.674C1239.13 419.815 1239.27 420.097 1239.27 420.238C1239.83 420.802 1240.54 421.365 1241.38 421.647C1241.67 421.788 1241.81 421.788 1242.09 421.647C1242.23 421.506 1242.37 421.224 1242.37 420.942ZM1240.54 419.392L1240.54 389.517C1240.68 389.376 1240.82 389.235 1240.96 389.094L1240.96 419.674C1240.82 419.674 1240.68 419.533 1240.54 419.392Z" fill="#012FEA"/>
<path d="M1245.19 422.211C1245.47 422.211 1245.75 421.788 1245.75 421.506L1245.75 387.544C1245.75 387.262 1245.47 386.98 1245.19 386.839L1245.05 386.839C1244.77 386.839 1244.48 386.698 1244.06 386.698C1243.78 386.698 1243.5 386.698 1243.21 386.839L1243.07 386.839C1242.79 386.839 1242.51 387.121 1242.51 387.544L1242.51 421.506C1242.51 421.788 1242.79 422.07 1243.07 422.211L1243.36 422.211C1243.64 422.211 1243.92 422.352 1244.2 422.352C1244.48 422.352 1244.77 422.352 1245.05 422.211L1245.19 422.211ZM1243.92 420.942L1243.92 388.108C1244.06 388.108 1244.06 388.108 1244.2 388.108C1244.34 388.108 1244.34 388.108 1244.48 388.108L1244.48 420.942C1244.34 420.942 1244.34 420.942 1244.2 420.942C1244.06 420.942 1243.92 420.942 1243.92 420.942Z" fill="#012FEA"/>
<path d="M1245.75 387.826L1245.75 420.942C1245.75 421.224 1245.89 421.365 1246.03 421.506C1246.17 421.647 1246.46 421.647 1246.74 421.506C1247.58 421.083 1248.29 420.66 1248.85 420.097C1248.99 419.956 1248.99 419.815 1248.99 419.674L1248.99 389.235C1248.99 389.094 1248.85 388.812 1248.85 388.812C1248.29 388.248 1247.58 387.685 1246.74 387.403C1246.46 387.262 1246.32 387.262 1246.03 387.403C1245.89 387.403 1245.75 387.685 1245.75 387.826ZM1247.58 389.517L1247.58 419.392C1247.44 419.533 1247.3 419.674 1247.16 419.815L1247.16 389.235C1247.3 389.235 1247.44 389.376 1247.58 389.517Z" fill="#012FEA"/>
<path d="M1239.13 417.701L1239.13 391.067C1239.13 390.785 1238.85 390.503 1238.56 390.362C1238.28 390.221 1238 390.362 1237.72 390.644C1236.59 392.617 1236.03 395.013 1236.03 397.408L1236.03 411.219C1236.03 413.614 1236.59 416.01 1237.72 417.983C1237.86 418.265 1238.14 418.406 1238.56 418.265C1238.85 418.406 1239.13 418.124 1239.13 417.701ZM1237.44 411.36L1237.44 397.549C1237.44 396.704 1237.58 395.858 1237.72 395.013L1237.72 413.896C1237.58 413.051 1237.44 412.205 1237.44 411.36Z" fill="#012FEA"/>
<path d="M1248.99 391.067L1248.99 417.701C1248.99 417.983 1249.27 418.265 1249.56 418.406C1249.84 418.547 1250.12 418.406 1250.4 418.124C1251.53 416.151 1252.09 413.755 1252.09 411.36L1252.09 397.549C1252.09 395.154 1251.53 392.758 1250.4 390.785C1250.26 390.503 1249.98 390.362 1249.56 390.503C1249.27 390.503 1248.99 390.785 1248.99 391.067ZM1250.68 397.549L1250.68 411.36C1250.68 412.205 1250.54 413.051 1250.4 413.896L1250.4 395.013C1250.68 395.858 1250.68 396.704 1250.68 397.549Z" fill="#012FEA"/>
<path d="M1335.24 494.222L1334.95 492.39L1335.24 494.222Z" fill="#012FEA"/>
<path d="M1258.72 380.216L1257.73 379.229L1258.72 380.216Z" fill="#012FEA"/>
</g>
</svg>
