<svg width="22" height="25" viewBox="0 0 22 25" fill="none" xmlns="http://www.w3.org/2000/svg">
<path d="M0 4H21.5M18.4375 4L17.35 21.6625C17.3404 22.1468 17.1437 22.6087 16.8012 22.9512C16.4587 23.2937 15.9968 23.4904 15.5125 23.5H5.9875C5.50317 23.4904 5.04135 23.2937 4.69881 22.9512C4.35627 22.6087 4.15959 22.1468 4.15 21.6625L3.0625 4M7 4V2.4625C7 2.07462 7.15408 1.70263 7.42836 1.42836C7.70263 1.15408 8.07462 1 8.4625 1H13.0375C13.2296 1 13.4197 1.03783 13.5972 1.11133C13.7746 1.18482 13.9358 1.29255 14.0716 1.42836C14.2074 1.56416 14.3152 1.72539 14.3887 1.90283C14.4622 2.08026 14.5 2.27044 14.5 2.4625V4H7Z" stroke="#012FEA" stroke-width="2" stroke-miterlimit="10"/>
</svg>
