<svg width="32" height="32" viewBox="0 0 32 32" fill="none" xmlns="http://www.w3.org/2000/svg">
<g clip-path="url(#clip0)">
<path d="M15.2727 21.0909L21.0909 15.2727C21.6696 14.6941 21.9946 13.9093 21.9946 13.0909C21.9946 12.2726 21.6696 11.4877 21.0909 10.9091C20.5122 10.3304 19.7274 10.0054 18.9091 10.0054C18.0907 10.0054 17.3059 10.3304 16.7273 10.9091L6.54545 21.0909C5.58102 22.0553 5.03922 23.3634 5.03922 24.7273C5.03922 26.0912 5.58102 27.3992 6.54545 28.3636C7.02298 28.8412 7.5899 29.22 8.21383 29.4784C8.83775 29.7369 9.50648 29.8699 10.1818 29.8699C10.8571 29.8699 11.5259 29.7369 12.1498 29.4784C12.7737 29.22 13.3406 28.8412 13.8182 28.3636L26.9091 15.2727C28.2593 13.9225 29.0178 12.0913 29.0178 10.1818C29.0178 8.27236 28.2593 6.4411 26.9091 5.09091C25.5589 3.74072 23.7276 2.98219 21.8182 2.98219C19.9087 2.98219 18.0775 3.74072 16.7273 5.09091L7.99999 13.8182" stroke="#012FEA" stroke-width="2" stroke-miterlimit="10"/>
</g>
<defs>
<clipPath id="clip0">
<rect width="32" height="32" fill="white"/>
</clipPath>
</defs>
</svg>
