<svg width="26" height="20" viewBox="0 0 26 20" fill="none" xmlns="http://www.w3.org/2000/svg">
<path d="M13 13.6667C14.8409 13.6667 16.3333 12.1743 16.3333 10.3333C16.3333 8.49238 14.8409 7 13 7C11.159 7 9.66663 8.49238 9.66663 10.3333C9.66663 12.1743 11.159 13.6667 13 13.6667Z" stroke="#fff" stroke-width="1.5" stroke-miterlimit="10" stroke-linecap="round" stroke-linejoin="round"/>
<path d="M23.8 3.66667H18.8L16.2 1H9.8L7.2 3.66667H2.2C1.88174 3.66667 1.57652 3.7931 1.35147 4.01814C1.12643 4.24318 1 4.54841 1 4.86667V17.1333C1 17.4516 1.12643 17.7568 1.35147 17.9819C1.57652 18.2069 1.88174 18.3333 2.2 18.3333H23.8C24.1183 18.3333 24.4235 18.2069 24.6485 17.9819C24.8736 17.7568 25 17.4516 25 17.1333V4.86667C25 4.54841 24.8736 4.24318 24.6485 4.01814C24.4235 3.7931 24.1183 3.66667 23.8 3.66667V3.66667Z" stroke="#fff" stroke-width="1.5" stroke-miterlimit="10" stroke-linecap="round" stroke-linejoin="round"/>
</svg>
