<svg width="265" height="80" viewBox="0 0 265 80" fill="none" xmlns="http://www.w3.org/2000/svg">
<path d="M79.9045 0H265V80H79.9045V0Z" fill="#012FEA"/>
<path d="M104.887 20.7904H99.4724L102.122 15.47L104.887 20.7904ZM107.882 26.5875H112.701L105.06 12.3998H99.2612L92.042 26.5875H96.5924L97.8788 23.994H106.538L107.882 26.5875Z" fill="#E9EBF2"/>
<path d="M121.604 26.5875L128.516 12.3998H123.87L118.935 22.8308L113.675 12.3998H108.606L116.036 26.5875H121.604Z" fill="#E9EBF2"/>
<path d="M135.566 12.3998H131.092V26.5875H135.566V12.3998Z" fill="#E9EBF2"/>
<path d="M150.657 20.7904H145.243L147.892 15.47L150.657 20.7904ZM153.652 26.5875H158.471L150.83 12.3998H145.031L137.812 26.5875H142.363L143.649 23.994H152.308L153.652 26.5875Z" fill="#E9EBF2"/>
<path d="M160.217 26.5875H164.518V16.7667L170.144 26.5875H172.544L178.169 16.7667V26.5875H182.585V12.3998H176.461L171.507 21.229L166.573 12.3998H160.217V26.5875Z" fill="#E9EBF2"/>
<path d="M190.214 12.3998H185.74V26.5875H190.214V12.3998Z" fill="#E9EBF2"/>
<path d="M202.809 26.8354C209.989 26.8354 211.18 24.4326 211.18 22.0871V21.8201C211.18 18.9978 209.01 17.7011 203.634 17.6057L201.234 17.5676C198.316 17.5104 197.932 16.9574 197.932 16.3472C197.932 15.7369 198.181 15.1267 201.637 15.1267H201.945C205.689 15.1267 205.977 16.2899 206.073 16.8239H210.719V16.6332C210.719 14.4974 209.183 12.1519 202.425 12.1519H201.1C194.591 12.1519 193.324 14.3639 193.324 16.4806V16.6523C193.324 18.8643 194.956 20.6569 200.293 20.8094L202.751 20.8666C206.053 20.962 206.495 21.4769 206.495 22.2969C206.495 23.0596 206.073 23.8033 202.309 23.8033H202.041C198.354 23.8033 197.855 22.4113 197.797 21.5531H193.132V21.7629C193.132 23.6317 193.996 26.8354 201.484 26.8354H202.809Z" fill="#E9EBF2"/>
<path d="M219.326 26.5875H223.838V15.756H230.002V12.3998H213.182V15.756H219.326V26.5875Z" fill="#E9EBF2"/>
<path d="M241.995 12.1519C232.952 12.1519 231.935 16.6332 231.935 19.1694V19.7415C231.935 22.2396 232.952 26.8354 241.995 26.8354H242.821C251.826 26.8354 252.863 22.2396 252.863 19.7415V19.1694C252.863 16.6332 251.807 12.1519 242.821 12.1519H241.995ZM248.178 19.5699C248.178 21.2099 247.199 23.3838 242.399 23.3838C237.56 23.3838 236.619 21.1527 236.619 19.5318V19.3029C236.619 17.682 237.483 15.5844 242.399 15.5844C247.237 15.5844 248.178 17.682 248.178 19.3029V19.5699Z" fill="#E9EBF2"/>
<path d="M95.188 44.7518L94.4171 42.5055L93.5977 44.7518H95.188ZM94.0575 41.7509H94.8354L96.678 46.8355H95.9244L95.4093 45.3125H93.4007L92.851 46.8355H92.1458L94.0575 41.7509Z" fill="#E9EBF2"/>
<path d="M97.5748 43.1458H98.2074V46.8355H97.5748V43.1458ZM97.5748 41.7509H98.2074V42.457H97.5748V41.7509Z" fill="#E9EBF2"/>
<path d="M99.5225 43.1285H100.114V43.7688C100.162 43.6442 100.281 43.4931 100.47 43.3154C100.659 43.1354 100.877 43.0454 101.123 43.0454C101.135 43.0454 101.154 43.0466 101.182 43.0489C101.21 43.0512 101.257 43.0558 101.324 43.0627V43.7204C101.287 43.7134 101.252 43.7088 101.22 43.7065C101.19 43.7042 101.157 43.703 101.12 43.703C100.806 43.703 100.565 43.8046 100.397 44.0076C100.229 44.2084 100.145 44.4403 100.145 44.7033V46.8355H99.5225V43.1285Z" fill="#E9EBF2"/>
<path d="M103.645 43.0212C104.062 43.0212 104.401 43.1227 104.661 43.3258C104.924 43.5288 105.082 43.8784 105.135 44.3745H104.53C104.493 44.1461 104.409 43.9569 104.277 43.8069C104.146 43.6546 103.935 43.5784 103.645 43.5784C103.248 43.5784 102.965 43.7723 102.794 44.1599C102.684 44.4114 102.628 44.7218 102.628 45.091C102.628 45.4625 102.707 45.7752 102.863 46.029C103.02 46.2828 103.267 46.4097 103.603 46.4097C103.861 46.4097 104.065 46.3313 104.215 46.1744C104.367 46.0151 104.472 45.7982 104.53 45.5237H105.135C105.066 46.0151 104.893 46.3751 104.616 46.6036C104.34 46.8297 103.986 46.9428 103.555 46.9428C103.071 46.9428 102.685 46.7662 102.397 46.4132C102.109 46.0578 101.965 45.6148 101.965 45.0841C101.965 44.4334 102.122 43.9269 102.438 43.5646C102.754 43.2023 103.156 43.0212 103.645 43.0212Z" fill="#E9EBF2"/>
<path d="M106.128 43.1285H106.72V43.7688C106.768 43.6442 106.887 43.4931 107.076 43.3154C107.265 43.1354 107.482 43.0454 107.729 43.0454C107.741 43.0454 107.76 43.0466 107.788 43.0489C107.815 43.0512 107.863 43.0558 107.93 43.0627V43.7204C107.893 43.7134 107.858 43.7088 107.826 43.7065C107.796 43.7042 107.762 43.703 107.726 43.703C107.412 43.703 107.171 43.8046 107.003 44.0076C106.835 44.2084 106.751 44.4403 106.751 44.7033V46.8355H106.128V43.1285Z" fill="#E9EBF2"/>
<path d="M109.3 45.849C109.3 46.029 109.366 46.1709 109.497 46.2747C109.628 46.3786 109.784 46.4305 109.964 46.4305C110.183 46.4305 110.395 46.3797 110.6 46.2782C110.945 46.1098 111.118 45.834 111.118 45.451V44.9491C111.042 44.9975 110.944 45.0379 110.824 45.0702C110.705 45.1025 110.587 45.1256 110.472 45.1395L110.095 45.1879C109.869 45.2179 109.7 45.2652 109.587 45.3298C109.396 45.4383 109.3 45.6113 109.3 45.849ZM110.807 44.5891C110.95 44.5707 111.046 44.5107 111.094 44.4091C111.122 44.3538 111.136 44.2741 111.136 44.1703C111.136 43.958 111.06 43.8046 110.907 43.71C110.758 43.6131 110.542 43.5646 110.261 43.5646C109.936 43.5646 109.706 43.6523 109.57 43.8276C109.494 43.9246 109.444 44.0688 109.421 44.2603H108.84C108.852 43.8034 108.999 43.4861 109.283 43.3085C109.568 43.1285 109.899 43.0385 110.275 43.0385C110.71 43.0385 111.064 43.1216 111.336 43.2877C111.606 43.4538 111.741 43.7123 111.741 44.063V46.1986C111.741 46.2632 111.753 46.3151 111.779 46.3544C111.806 46.3936 111.863 46.4132 111.948 46.4132C111.976 46.4132 112.007 46.412 112.041 46.4097C112.076 46.4051 112.113 46.3993 112.152 46.3924V46.8528C112.055 46.8805 111.981 46.8978 111.931 46.9047C111.88 46.9116 111.811 46.9151 111.723 46.9151C111.509 46.9151 111.353 46.8389 111.257 46.6866C111.206 46.6059 111.17 46.4916 111.149 46.344C111.023 46.5101 110.841 46.6543 110.603 46.7766C110.366 46.8989 110.104 46.9601 109.818 46.9601C109.475 46.9601 109.194 46.8562 108.975 46.6486C108.758 46.4386 108.65 46.1767 108.65 45.8629C108.65 45.519 108.757 45.2525 108.971 45.0633C109.186 44.8741 109.467 44.7576 109.815 44.7137L110.807 44.5891Z" fill="#E9EBF2"/>
<path d="M113.274 42.5643C113.283 42.3059 113.328 42.1166 113.408 41.9967C113.554 41.7844 113.834 41.6782 114.248 41.6782C114.288 41.6782 114.328 41.6794 114.369 41.6817C114.411 41.684 114.458 41.6875 114.511 41.6921V42.2597C114.447 42.2551 114.399 42.2528 114.369 42.2528C114.342 42.2505 114.315 42.2493 114.29 42.2493C114.101 42.2493 113.988 42.2989 113.951 42.3982C113.914 42.4951 113.896 42.7443 113.896 43.1458H114.511V43.6373H113.889V46.8355H113.274V43.6373H112.758V43.1458H113.274V42.5643Z" fill="#E9EBF2"/>
<path d="M115.567 42.0936H116.196V43.1285H116.787V43.6373H116.196V46.0567C116.196 46.1859 116.24 46.2724 116.328 46.3163C116.376 46.3417 116.457 46.3544 116.57 46.3544C116.599 46.3544 116.632 46.3544 116.666 46.3544C116.701 46.352 116.741 46.3486 116.787 46.344V46.8355C116.716 46.8562 116.641 46.8712 116.563 46.8805C116.487 46.8897 116.404 46.8943 116.314 46.8943C116.023 46.8943 115.826 46.8205 115.723 46.6728C115.619 46.5228 115.567 46.329 115.567 46.0913V43.6373H115.066V43.1285H115.567V42.0936Z" fill="#E9EBF2"/>
<path d="M94.7213 51.9922C95.3643 51.9922 95.8633 52.1618 96.2182 52.501C96.5732 52.8402 96.7702 53.2256 96.8094 53.6571H96.1387C96.0627 53.3294 95.9105 53.0698 95.6824 52.8783C95.4565 52.6868 95.1385 52.591 94.7282 52.591C94.2281 52.591 93.8236 52.7675 93.5148 53.1206C93.2082 53.4713 93.055 54.0101 93.055 54.737C93.055 55.3323 93.1933 55.8157 93.4698 56.1872C93.7487 56.5564 94.1635 56.741 94.7144 56.741C95.2214 56.741 95.6075 56.546 95.8725 56.1561C96.0131 55.9507 96.118 55.6807 96.1871 55.3461H96.8578C96.7979 55.8815 96.5997 56.3303 96.2632 56.6926C95.8598 57.1287 95.3159 57.3467 94.6314 57.3467C94.0414 57.3467 93.5459 57.1679 93.1449 56.8102C92.6171 56.3372 92.3532 55.6069 92.3532 54.6193C92.3532 53.8693 92.5514 53.2544 92.9478 52.7744C93.3765 52.253 93.9676 51.9922 94.7213 51.9922Z" fill="#E9EBF2"/>
<path d="M99.4382 56.8137C99.8507 56.8137 100.133 56.6579 100.285 56.3464C100.44 56.0326 100.517 55.6842 100.517 55.3011C100.517 54.955 100.461 54.6735 100.351 54.4566C100.176 54.1151 99.8738 53.9443 99.4451 53.9443C99.0648 53.9443 98.7882 54.0897 98.6154 54.3805C98.4425 54.6712 98.3561 55.0219 98.3561 55.4327C98.3561 55.8273 98.4425 56.1561 98.6154 56.4191C98.7882 56.6822 99.0625 56.8137 99.4382 56.8137ZM99.4624 53.4009C99.9395 53.4009 100.343 53.5601 100.672 53.8786C101.002 54.197 101.167 54.6654 101.167 55.2838C101.167 55.8815 101.022 56.3753 100.731 56.7652C100.441 57.1552 99.9902 57.3502 99.3794 57.3502C98.8701 57.3502 98.4656 57.1783 98.166 56.8345C97.8663 56.4883 97.7165 56.0245 97.7165 55.4431C97.7165 54.82 97.8744 54.3239 98.1902 53.9547C98.5059 53.5855 98.93 53.4009 99.4624 53.4009Z" fill="#E9EBF2"/>
<path d="M102.264 53.5082H102.879V54.0343C103.027 53.852 103.161 53.7194 103.28 53.6363C103.486 53.4955 103.718 53.4252 103.979 53.4252C104.274 53.4252 104.511 53.4978 104.691 53.6432C104.792 53.7263 104.884 53.8486 104.967 54.0101C105.106 53.8117 105.268 53.6651 105.455 53.5705C105.642 53.4736 105.851 53.4252 106.084 53.4252C106.582 53.4252 106.921 53.6051 107.101 53.9651C107.197 54.1589 107.246 54.4197 107.246 54.7473V57.2152H106.599V54.64C106.599 54.3931 106.537 54.2235 106.413 54.1312C106.29 54.0389 106.141 53.9928 105.963 53.9928C105.719 53.9928 105.508 54.0747 105.33 54.2385C105.155 54.4024 105.068 54.6758 105.068 55.0589V57.2152H104.435V54.7958C104.435 54.5443 104.405 54.3608 104.345 54.2455C104.251 54.0724 104.074 53.9859 103.816 53.9859C103.581 53.9859 103.367 54.077 103.173 54.2593C102.982 54.4416 102.886 54.7716 102.886 55.2492V57.2152H102.264V53.5082Z" fill="#E9EBF2"/>
<path d="M110.078 56.7964C110.369 56.7964 110.61 56.6753 110.801 56.433C110.995 56.1884 111.091 55.8238 111.091 55.3392C111.091 55.0439 111.049 54.79 110.963 54.5777C110.802 54.1693 110.507 53.9651 110.078 53.9651C109.647 53.9651 109.352 54.1809 109.193 54.6124C109.108 54.8431 109.066 55.1362 109.066 55.4915C109.066 55.7776 109.108 56.0211 109.193 56.2218C109.355 56.6049 109.65 56.7964 110.078 56.7964ZM108.467 53.5255H109.072V54.017C109.197 53.8486 109.333 53.7182 109.48 53.6259C109.69 53.4875 109.937 53.4182 110.22 53.4182C110.64 53.4182 110.996 53.5798 111.288 53.9028C111.581 54.2235 111.727 54.6827 111.727 55.2804C111.727 56.088 111.517 56.6649 111.095 57.011C110.827 57.2302 110.516 57.3398 110.161 57.3398C109.883 57.3398 109.649 57.2787 109.46 57.1564C109.349 57.0871 109.226 56.9683 109.09 56.7999V58.6932H108.467V53.5255Z" fill="#E9EBF2"/>
<path d="M114.28 56.8137C114.693 56.8137 114.975 56.6579 115.127 56.3464C115.282 56.0326 115.359 55.6842 115.359 55.3011C115.359 54.955 115.304 54.6735 115.193 54.4566C115.018 54.1151 114.716 53.9443 114.287 53.9443C113.907 53.9443 113.63 54.0897 113.457 54.3805C113.285 54.6712 113.198 55.0219 113.198 55.4327C113.198 55.8273 113.285 56.1561 113.457 56.4191C113.63 56.6822 113.905 56.8137 114.28 56.8137ZM114.304 53.4009C114.781 53.4009 115.185 53.5601 115.514 53.8786C115.844 54.197 116.009 54.6654 116.009 55.2838C116.009 55.8815 115.864 56.3753 115.573 56.7652C115.283 57.1552 114.832 57.3502 114.221 57.3502C113.712 57.3502 113.308 57.1783 113.008 56.8345C112.708 56.4883 112.559 56.0245 112.559 55.4431C112.559 54.82 112.716 54.3239 113.032 53.9547C113.348 53.5855 113.772 53.4009 114.304 53.4009Z" fill="#E9EBF2"/>
<path d="M117.106 53.5082H117.697V54.0343C117.872 53.8174 118.058 53.6617 118.254 53.5671C118.45 53.4725 118.668 53.4252 118.907 53.4252C119.433 53.4252 119.788 53.6086 119.972 53.9755C120.073 54.1762 120.124 54.4635 120.124 54.8373V57.2152H119.491V54.8789C119.491 54.6527 119.458 54.4704 119.391 54.332C119.281 54.1013 119.08 53.9859 118.79 53.9859C118.642 53.9859 118.521 54.0009 118.427 54.0309C118.256 54.0816 118.106 54.1832 117.977 54.3355C117.874 54.4578 117.806 54.5847 117.773 54.7162C117.743 54.8454 117.728 55.0312 117.728 55.2735V57.2152H117.106V53.5082Z" fill="#E9EBF2"/>
<path d="M122.943 53.4252C123.206 53.4252 123.46 53.4875 123.707 53.6121C123.954 53.7344 124.141 53.8936 124.271 54.0897C124.395 54.2766 124.478 54.4947 124.519 54.7439C124.556 54.9146 124.575 55.1869 124.575 55.5607H121.861C121.872 55.9369 121.961 56.2391 122.127 56.4676C122.293 56.6937 122.55 56.8068 122.898 56.8068C123.223 56.8068 123.482 56.6995 123.676 56.4849C123.787 56.3603 123.865 56.2161 123.911 56.0522H124.523C124.507 56.1884 124.453 56.3407 124.36 56.5091C124.271 56.6753 124.169 56.8114 124.056 56.9175C123.867 57.1021 123.633 57.2267 123.354 57.2914C123.205 57.3283 123.035 57.3467 122.846 57.3467C122.385 57.3467 121.995 57.1794 121.674 56.8449C121.354 56.508 121.194 56.0372 121.194 55.4327C121.194 54.8373 121.355 54.3539 121.678 53.9824C122 53.6109 122.422 53.4252 122.943 53.4252ZM123.935 55.0658C123.91 54.7958 123.851 54.5801 123.759 54.4185C123.588 54.1186 123.304 53.9686 122.905 53.9686C122.619 53.9686 122.38 54.0724 122.186 54.2801C121.992 54.4854 121.89 54.7473 121.878 55.0658H123.935Z" fill="#E9EBF2"/>
<path d="M125.696 53.5082H126.287V54.0343C126.463 53.8174 126.648 53.6617 126.844 53.5671C127.04 53.4725 127.258 53.4252 127.497 53.4252C128.023 53.4252 128.378 53.6086 128.562 53.9755C128.664 54.1762 128.714 54.4635 128.714 54.8373V57.2152H128.082V54.8789C128.082 54.6527 128.048 54.4704 127.981 54.332C127.871 54.1013 127.67 53.9859 127.38 53.9859C127.232 53.9859 127.111 54.0009 127.017 54.0309C126.846 54.0816 126.697 54.1832 126.567 54.3355C126.464 54.4578 126.396 54.5847 126.363 54.7162C126.334 54.8454 126.319 55.0312 126.319 55.2735V57.2152H125.696V53.5082Z" fill="#E9EBF2"/>
<path d="M130.116 52.4733H130.745V53.5082H131.336V54.017H130.745V56.4364C130.745 56.5656 130.789 56.6522 130.876 56.696C130.925 56.7214 131.005 56.7341 131.118 56.7341C131.148 56.7341 131.181 56.7341 131.215 56.7341C131.25 56.7318 131.29 56.7283 131.336 56.7237V57.2152C131.265 57.236 131.19 57.251 131.111 57.2602C131.035 57.2694 130.952 57.274 130.863 57.274C130.572 57.274 130.375 57.2002 130.271 57.0525C130.168 56.9025 130.116 56.7087 130.116 56.471V54.017H129.615V53.5082H130.116V52.4733Z" fill="#E9EBF2"/>
<path d="M132.686 56.0522C132.704 56.2599 132.756 56.4191 132.841 56.5299C132.998 56.7306 133.27 56.831 133.657 56.831C133.888 56.831 134.091 56.7814 134.266 56.6822C134.441 56.5806 134.528 56.4249 134.528 56.2149C134.528 56.0557 134.458 55.9346 134.318 55.8515C134.228 55.8007 134.05 55.7419 133.785 55.675L133.291 55.5504C132.975 55.4719 132.742 55.3842 132.593 55.2873C132.325 55.1189 132.191 54.8858 132.191 54.5881C132.191 54.2374 132.317 53.9536 132.568 53.7367C132.822 53.5198 133.162 53.4113 133.588 53.4113C134.146 53.4113 134.548 53.5751 134.795 53.9028C134.949 54.1105 135.024 54.3343 135.019 54.5743H134.432C134.42 54.4335 134.371 54.3055 134.283 54.1901C134.14 54.0263 133.892 53.9443 133.54 53.9443C133.305 53.9443 133.126 53.9893 133.004 54.0793C132.884 54.1693 132.824 54.2882 132.824 54.4358C132.824 54.5974 132.904 54.7266 133.063 54.8235C133.155 54.8812 133.291 54.9319 133.471 54.9758L133.882 55.0762C134.329 55.1846 134.629 55.2896 134.781 55.3911C135.023 55.5504 135.144 55.8007 135.144 56.1422C135.144 56.4722 135.018 56.7572 134.767 56.9972C134.518 57.2371 134.138 57.3571 133.626 57.3571C133.075 57.3571 132.685 57.2325 132.454 56.9833C132.226 56.7318 132.104 56.4214 132.088 56.0522H132.686Z" fill="#E9EBF2"/>
<path d="M140.101 54.107C140.32 53.9524 140.471 53.8267 140.554 53.7297C140.69 53.5728 140.757 53.3986 140.757 53.2071C140.757 53.0571 140.708 52.9279 140.609 52.8194C140.51 52.711 140.376 52.6568 140.208 52.6568C139.952 52.6568 139.775 52.7421 139.675 52.9129C139.625 53.0006 139.599 53.0963 139.599 53.2002C139.599 53.3409 139.637 53.4759 139.713 53.6051C139.792 53.7344 139.921 53.9017 140.101 54.107ZM139.942 56.786C140.197 56.786 140.418 56.7272 140.602 56.6095C140.786 56.4918 140.928 56.3603 141.027 56.2149L139.879 54.8131C139.554 55.03 139.342 55.1962 139.243 55.3115C139.091 55.4846 139.015 55.6957 139.015 55.9449C139.015 56.2149 139.113 56.4226 139.309 56.568C139.507 56.7133 139.718 56.786 139.942 56.786ZM139.534 54.3874C139.319 54.1405 139.175 53.9328 139.102 53.7644C139.03 53.5959 138.994 53.4332 138.994 53.2763C138.994 52.9487 139.105 52.6775 139.326 52.4629C139.548 52.246 139.844 52.1376 140.215 52.1376C140.567 52.1376 140.843 52.238 141.041 52.4387C141.239 52.6395 141.338 52.8794 141.338 53.1586C141.338 53.484 141.236 53.769 141.031 54.0136C140.911 54.1566 140.71 54.3216 140.429 54.5085L141.356 55.6161C141.418 55.4315 141.46 55.2942 141.483 55.2042C141.509 55.1119 141.534 54.9839 141.56 54.82H142.151C142.112 55.1454 142.033 55.4581 141.916 55.758C141.798 56.0557 141.739 56.1757 141.739 56.118L142.642 57.2152H141.84L141.362 56.6337C141.174 56.8391 141.001 56.9891 140.844 57.0837C140.57 57.2498 140.254 57.3329 139.897 57.3329C139.369 57.3329 138.985 57.191 138.745 56.9072C138.506 56.621 138.386 56.2991 138.386 55.9415C138.386 55.5561 138.502 55.2342 138.735 54.9758C138.878 54.8189 139.144 54.6227 139.534 54.3874Z" fill="#E9EBF2"/>
<path d="M95.188 65.5113L94.4171 63.265L93.5977 65.5113H95.188ZM94.0575 62.5104H94.8354L96.678 67.595H95.9244L95.4093 66.072H93.4007L92.851 67.595H92.1458L94.0575 62.5104Z" fill="#E9EBF2"/>
<path d="M99.0026 63.7807C99.4197 63.7807 99.7585 63.8822 100.019 64.0853C100.282 64.2883 100.44 64.6379 100.493 65.134H99.8876C99.8507 64.9056 99.7666 64.7164 99.6352 64.5664C99.5039 64.4141 99.293 64.3379 99.0026 64.3379C98.6062 64.3379 98.3227 64.5318 98.1521 64.9194C98.0415 65.1709 97.9862 65.4813 97.9862 65.8505C97.9862 66.222 98.0645 66.5347 98.2213 66.7885C98.378 67.0423 98.6246 67.1692 98.9611 67.1692C99.2192 67.1692 99.4232 67.0908 99.573 66.9339C99.7251 66.7746 99.83 66.5577 99.8876 66.2831H100.493C100.423 66.7746 100.251 67.1346 99.974 67.3631C99.6975 67.5892 99.3437 67.7023 98.9127 67.7023C98.4287 67.7023 98.0427 67.5257 97.7546 67.1727C97.4665 66.8173 97.3224 66.3743 97.3224 65.8436C97.3224 65.1929 97.4803 64.6864 97.796 64.3241C98.1118 63.9618 98.514 63.7807 99.0026 63.7807Z" fill="#E9EBF2"/>
<path d="M102.897 63.7807C103.314 63.7807 103.653 63.8822 103.913 64.0853C104.176 64.2883 104.334 64.6379 104.387 65.134H103.782C103.745 64.9056 103.661 64.7164 103.529 64.5664C103.398 64.4141 103.187 64.3379 102.897 64.3379C102.5 64.3379 102.217 64.5318 102.046 64.9194C101.936 65.1709 101.88 65.4813 101.88 65.8505C101.88 66.222 101.959 66.5347 102.115 66.7885C102.272 67.0423 102.519 67.1692 102.855 67.1692C103.113 67.1692 103.317 67.0908 103.467 66.9339C103.619 66.7746 103.724 66.5577 103.782 66.2831H104.387C104.318 66.7746 104.145 67.1346 103.868 67.3631C103.592 67.5892 103.238 67.7023 102.807 67.7023C102.323 67.7023 101.937 67.5257 101.649 67.1727C101.361 66.8173 101.217 66.3743 101.217 65.8436C101.217 65.1929 101.374 64.6864 101.69 64.3241C102.006 63.9618 102.408 63.7807 102.897 63.7807Z" fill="#E9EBF2"/>
<path d="M106.905 63.8049C107.168 63.8049 107.422 63.8672 107.669 63.9918C107.915 64.1141 108.103 64.2733 108.232 64.4695C108.357 64.6564 108.44 64.8744 108.481 65.1236C108.518 65.2944 108.537 65.5667 108.537 65.9405H105.823C105.834 66.3166 105.923 66.6189 106.089 66.8473C106.255 67.0735 106.512 67.1865 106.86 67.1865C107.185 67.1865 107.444 67.0792 107.638 66.8646C107.748 66.74 107.827 66.5958 107.873 66.432H108.485C108.469 66.5681 108.414 66.7204 108.322 66.8889C108.232 67.055 108.131 67.1911 108.018 67.2973C107.829 67.4819 107.595 67.6065 107.316 67.6711C107.166 67.708 106.997 67.7265 106.808 67.7265C106.347 67.7265 105.956 67.5592 105.636 67.2246C105.316 66.8877 105.156 66.417 105.156 65.8124C105.156 65.2171 105.317 64.7337 105.64 64.3622C105.962 63.9907 106.384 63.8049 106.905 63.8049ZM107.897 65.4455C107.872 65.1756 107.813 64.9598 107.721 64.7983C107.55 64.4983 107.266 64.3483 106.867 64.3483C106.581 64.3483 106.341 64.4522 106.148 64.6598C105.954 64.8652 105.852 65.1271 105.84 65.4455H107.897Z" fill="#E9EBF2"/>
<path d="M110.028 66.432C110.046 66.6397 110.098 66.7989 110.184 66.9096C110.34 67.1104 110.612 67.2108 110.999 67.2108C111.23 67.2108 111.433 67.1611 111.608 67.0619C111.783 66.9604 111.871 66.8046 111.871 66.5947C111.871 66.4354 111.8 66.3143 111.66 66.2312C111.57 66.1805 111.392 66.1216 111.127 66.0547L110.633 65.9301C110.317 65.8516 110.084 65.764 109.935 65.667C109.667 65.4986 109.534 65.2655 109.534 64.9679C109.534 64.6171 109.659 64.3333 109.91 64.1164C110.164 63.8995 110.504 63.7911 110.93 63.7911C111.488 63.7911 111.89 63.9549 112.137 64.2826C112.291 64.4902 112.366 64.7141 112.362 64.954H111.774C111.762 64.8133 111.713 64.6852 111.625 64.5698C111.482 64.406 111.235 64.3241 110.882 64.3241C110.647 64.3241 110.468 64.3691 110.346 64.4591C110.226 64.5491 110.166 64.6679 110.166 64.8156C110.166 64.9771 110.246 65.1063 110.405 65.2032C110.497 65.2609 110.633 65.3117 110.813 65.3555L111.224 65.4559C111.671 65.5644 111.971 65.6694 112.123 65.7709C112.365 65.9301 112.486 66.1805 112.486 66.522C112.486 66.8519 112.36 67.1369 112.109 67.3769C111.86 67.6169 111.48 67.7369 110.968 67.7369C110.417 67.7369 110.027 67.6123 109.796 67.3631C109.568 67.1115 109.446 66.8012 109.43 66.432H110.028Z" fill="#E9EBF2"/>
<path d="M113.922 66.432C113.941 66.6397 113.992 66.7989 114.078 66.9096C114.234 67.1104 114.506 67.2108 114.894 67.2108C115.124 67.2108 115.327 67.1611 115.502 67.0619C115.677 66.9604 115.765 66.8046 115.765 66.5947C115.765 66.4354 115.694 66.3143 115.554 66.2312C115.464 66.1805 115.286 66.1216 115.021 66.0547L114.527 65.9301C114.211 65.8516 113.979 65.764 113.829 65.667C113.561 65.4986 113.428 65.2655 113.428 64.9679C113.428 64.6171 113.553 64.3333 113.805 64.1164C114.058 63.8995 114.398 63.7911 114.824 63.7911C115.382 63.7911 115.784 63.9549 116.031 64.2826C116.185 64.4902 116.26 64.7141 116.256 64.954H115.668C115.656 64.8133 115.607 64.6852 115.519 64.5698C115.376 64.406 115.129 64.3241 114.776 64.3241C114.541 64.3241 114.362 64.3691 114.24 64.4591C114.12 64.5491 114.06 64.6679 114.06 64.8156C114.06 64.9771 114.14 65.1063 114.299 65.2032C114.391 65.2609 114.527 65.3117 114.707 65.3555L115.118 65.4559C115.565 65.5644 115.865 65.6694 116.017 65.7709C116.259 65.9301 116.38 66.1805 116.38 66.522C116.38 66.8519 116.254 67.1369 116.003 67.3769C115.754 67.6169 115.374 67.7369 114.862 67.7369C114.312 67.7369 113.921 67.6123 113.69 67.3631C113.462 67.1115 113.34 66.8012 113.324 66.432H113.922Z" fill="#E9EBF2"/>
<path d="M118.916 67.1935C119.328 67.1935 119.61 67.0377 119.762 66.7262C119.917 66.4124 119.994 66.0639 119.994 65.6809C119.994 65.3348 119.939 65.0533 119.828 64.8364C119.653 64.4948 119.351 64.3241 118.922 64.3241C118.542 64.3241 118.266 64.4695 118.093 64.7602C117.92 65.0509 117.833 65.4017 117.833 65.8124C117.833 66.207 117.92 66.5358 118.093 66.7989C118.266 67.0619 118.54 67.1935 118.916 67.1935ZM118.94 63.7807C119.417 63.7807 119.82 63.9399 120.15 64.2583C120.479 64.5768 120.644 65.0452 120.644 65.6636C120.644 66.2612 120.499 66.755 120.208 67.145C119.918 67.535 119.467 67.7299 118.857 67.7299C118.347 67.7299 117.943 67.558 117.643 67.2142C117.344 66.8681 117.194 66.4043 117.194 65.8228C117.194 65.1998 117.352 64.7037 117.667 64.3345C117.983 63.9653 118.407 63.7807 118.94 63.7807Z" fill="#E9EBF2"/>
<path d="M121.759 63.888H122.35V64.5283C122.398 64.4037 122.517 64.2526 122.706 64.0749C122.895 63.8949 123.113 63.8049 123.359 63.8049C123.371 63.8049 123.39 63.8061 123.418 63.8084C123.446 63.8107 123.493 63.8153 123.56 63.8222V64.4798C123.523 64.4729 123.488 64.4683 123.456 64.466C123.426 64.4637 123.393 64.4625 123.356 64.4625C123.042 64.4625 122.802 64.5641 122.633 64.7671C122.465 64.9679 122.381 65.1998 122.381 65.4628V67.595H121.759V63.888Z" fill="#E9EBF2"/>
<path d="M124.453 63.9053H125.086V67.595H124.453V63.9053ZM124.453 62.5104H125.086V63.2165H124.453V62.5104Z" fill="#E9EBF2"/>
<path d="M127.925 63.8049C128.188 63.8049 128.443 63.8672 128.689 63.9918C128.936 64.1141 129.124 64.2733 129.253 64.4695C129.377 64.6564 129.46 64.8744 129.502 65.1236C129.539 65.2944 129.557 65.5667 129.557 65.9405H126.843C126.855 66.3166 126.944 66.6189 127.11 66.8473C127.275 67.0735 127.532 67.1865 127.88 67.1865C128.205 67.1865 128.465 67.0792 128.658 66.8646C128.769 66.74 128.847 66.5958 128.893 66.432H129.505C129.489 66.5681 129.435 66.7204 129.343 66.8889C129.253 67.055 129.152 67.1911 129.039 67.2973C128.85 67.4819 128.616 67.6065 128.337 67.6711C128.187 67.708 128.018 67.7265 127.829 67.7265C127.368 67.7265 126.977 67.5592 126.657 67.2246C126.336 66.8877 126.176 66.417 126.176 65.8124C126.176 65.2171 126.337 64.7337 126.66 64.3622C126.983 63.9907 127.405 63.8049 127.925 63.8049ZM128.918 65.4455C128.892 65.1756 128.833 64.9598 128.741 64.7983C128.571 64.4983 128.286 64.3483 127.887 64.3483C127.602 64.3483 127.362 64.4522 127.168 64.6598C126.975 64.8652 126.872 65.1271 126.861 65.4455H128.918Z" fill="#E9EBF2"/>
<path d="M131.049 66.432C131.067 66.6397 131.119 66.7989 131.204 66.9096C131.361 67.1104 131.633 67.2108 132.02 67.2108C132.25 67.2108 132.453 67.1611 132.628 67.0619C132.804 66.9604 132.891 66.8046 132.891 66.5947C132.891 66.4354 132.821 66.3143 132.68 66.2312C132.59 66.1805 132.413 66.1216 132.148 66.0547L131.654 65.9301C131.338 65.8516 131.105 65.764 130.955 65.667C130.688 65.4986 130.554 65.2655 130.554 64.9679C130.554 64.6171 130.68 64.3333 130.931 64.1164C131.185 63.8995 131.524 63.7911 131.951 63.7911C132.509 63.7911 132.911 63.9549 133.157 64.2826C133.312 64.4902 133.387 64.7141 133.382 64.954H132.794C132.783 64.8133 132.733 64.6852 132.646 64.5698C132.503 64.406 132.255 64.3241 131.902 64.3241C131.667 64.3241 131.489 64.3691 131.367 64.4591C131.247 64.5491 131.187 64.6679 131.187 64.8156C131.187 64.9771 131.266 65.1063 131.425 65.2032C131.518 65.2609 131.654 65.3117 131.833 65.3555L132.245 65.4559C132.692 65.5644 132.991 65.6694 133.144 65.7709C133.386 65.9301 133.507 66.1805 133.507 66.522C133.507 66.8519 133.381 67.1369 133.13 67.3769C132.881 67.6169 132.501 67.7369 131.989 67.7369C131.438 67.7369 131.047 67.6123 130.817 67.3631C130.589 67.1115 130.467 66.8012 130.45 66.432H131.049Z" fill="#E9EBF2"/>
<path d="M249.591 62.4271C248.839 62.4271 248.197 62.6954 247.664 63.2318C247.134 63.7655 246.869 64.4101 246.869 65.1658C246.869 65.9273 247.132 66.5763 247.66 67.1128C248.19 67.6492 248.834 67.9175 249.591 67.9175C250.349 67.9175 250.993 67.6492 251.523 67.1128C252.053 66.5763 252.318 65.9273 252.318 65.1658C252.318 64.4101 252.053 63.7655 251.523 63.2318C250.99 62.6954 250.346 62.4271 249.591 62.4271ZM252.767 65.1658C252.767 66.0455 252.458 66.7969 251.838 67.4199C251.219 68.043 250.47 68.3545 249.591 68.3545C248.713 68.3545 247.965 68.043 247.348 67.4199C246.735 66.7998 246.428 66.0484 246.428 65.1658C246.428 64.2918 246.738 63.5448 247.357 62.9247C247.974 62.3074 248.718 61.9988 249.591 61.9988C250.47 61.9988 251.219 62.3074 251.838 62.9247C252.458 63.5419 252.767 64.289 252.767 65.1658ZM250.421 64.4736C250.421 64.2197 250.343 64.0496 250.188 63.963C250.035 63.8765 249.789 63.8332 249.449 63.8332H248.926V65.0966H249.479C249.738 65.0966 249.933 65.0706 250.062 65.0187C250.301 64.9235 250.421 64.7418 250.421 64.4736ZM249.531 63.4136C249.963 63.4136 250.28 63.4554 250.481 63.539C250.842 63.689 251.022 63.9832 251.022 64.4216C251.022 64.7332 250.908 64.9625 250.68 65.1096C250.559 65.1874 250.391 65.2437 250.175 65.2783C250.448 65.3216 250.649 65.4355 250.775 65.6201C250.902 65.8047 250.965 65.985 250.965 66.1609V66.4162C250.965 66.4969 250.968 66.5835 250.974 66.6758C250.98 66.7681 250.99 66.8286 251.004 66.8575L251.026 66.9008H250.451C250.448 66.8892 250.445 66.8777 250.443 66.8661C250.44 66.8546 250.437 66.8416 250.434 66.8272L250.421 66.7147V66.4378C250.421 66.034 250.311 65.7672 250.093 65.6374C249.963 65.5624 249.735 65.5249 249.41 65.5249H248.926V66.9008H248.312V63.4136H249.531Z" fill="#E9EBF2"/>
<path d="M0 0H79.9046V80H0V0Z" fill="#080A1D"/>
<mask id="mask0" mask-type="alpha" maskUnits="userSpaceOnUse" x="0" y="0" width="80" height="80">
<path d="M0 0H79.9046V80H0V0Z" fill="white"/>
</mask>
<g mask="url(#mask0)">
<path d="M12.1374 40C12.1374 43.657 12.8569 47.2783 14.2547 50.657C15.6526 54.0356 17.7014 57.1056 20.2842 59.6915C22.8671 62.2775 25.9334 64.3287 29.308 65.7282C32.6827 67.1277 36.2996 67.8481 39.9523 67.8481L39.9523 40H12.1374Z" fill="url(#paint0_linear)"/>
<path d="M39.9523 12.152C36.2996 12.152 32.6827 12.8723 29.308 14.2718C25.9334 15.6713 22.8671 17.7225 20.2842 20.3085C17.7014 22.8944 15.6526 25.9644 14.2547 29.343C12.8569 32.7217 12.1374 36.343 12.1374 40L39.9523 40L39.9523 12.152Z" fill="url(#paint1_linear)"/>
<path d="M67.7671 40C67.7671 36.343 67.0477 32.7217 65.6499 29.343C64.252 25.9644 62.2032 22.8944 59.6204 20.3085C57.0375 17.7225 53.9712 15.6713 50.5966 14.2718C47.2219 12.8723 43.605 12.1519 39.9523 12.1519L39.9523 40L67.7671 40Z" fill="url(#paint2_linear)"/>
<path d="M39.9523 67.8481C43.605 67.8481 47.2219 67.1277 50.5966 65.7282C53.9712 64.3287 57.0375 62.2775 59.6204 59.6915C62.2032 57.1056 64.252 54.0356 65.6499 50.657C67.0477 47.2783 67.7671 43.657 67.7671 40L39.9523 40L39.9523 67.8481Z" fill="url(#paint3_linear)"/>
</g>
<defs>
<linearGradient id="paint0_linear" x1="18.3461" y1="31.5461" x2="37.5039" y2="66.2125" gradientUnits="userSpaceOnUse">
<stop stop-color="#002FEA"/>
<stop offset="0.317708" stop-color="#002FEA"/>
<stop offset="1" stop-color="#080A1D"/>
</linearGradient>
<linearGradient id="paint1_linear" x1="48.3961" y1="18.368" x2="13.7324" y2="37.4786" gradientUnits="userSpaceOnUse">
<stop stop-color="#002FEA"/>
<stop offset="0.317708" stop-color="#002FEA"/>
<stop offset="1" stop-color="#080A1D"/>
</linearGradient>
<linearGradient id="paint2_linear" x1="61.5585" y1="48.4539" x2="42.4007" y2="13.7875" gradientUnits="userSpaceOnUse">
<stop stop-color="#002FEA"/>
<stop offset="0.317708" stop-color="#002FEA"/>
<stop offset="1" stop-color="#080A1D"/>
</linearGradient>
<linearGradient id="paint3_linear" x1="31.5085" y1="61.632" x2="66.1722" y2="42.5214" gradientUnits="userSpaceOnUse">
<stop stop-color="#002FEA"/>
<stop offset="0.317708" stop-color="#002FEA"/>
<stop offset="1" stop-color="#080A1D"/>
</linearGradient>
</defs>
</svg>
