<svg width="628" height="967" viewBox="0 0 628 967" fill="none" xmlns="http://www.w3.org/2000/svg">
<path d="M614.526 393.136C614.526 388.451 608.105 384.633 600.296 384.633C592.486 384.633 586.065 388.451 586.065 393.136C586.065 397.822 592.486 401.64 600.296 401.64C608.105 401.814 614.526 397.996 614.526 393.136ZM588.147 393.136C588.147 389.492 593.527 386.368 600.296 386.368C607.064 386.368 612.444 389.318 612.444 393.136C612.444 396.781 607.064 399.905 600.296 399.905C593.527 399.905 588.147 396.954 588.147 393.136Z" fill="#012FEA"/>
<path d="M621.122 1469.99L624.072 1449.69C624.767 1445.35 624.94 1440.84 625.114 1436.5L625.461 1396.06L625.981 1334.1L625.981 1333.76L627.196 1191.1L679.26 1191.1L684.293 1222.86C684.64 1224.6 685.334 1225.99 686.723 1226.85C687.764 1227.55 688.979 1227.89 690.02 1227.72C694.532 1227.03 698.871 1224.6 702.515 1220.78C703.036 1220.26 703.557 1219.56 704.077 1219.04L704.251 1218.87C704.424 1218.7 704.598 1218.52 704.771 1218.35C705.292 1217.65 705.813 1216.96 706.333 1216.27C706.507 1215.92 706.68 1215.75 706.854 1215.4C707.201 1214.88 707.548 1214.36 707.895 1213.66C708.242 1212.97 708.589 1212.45 708.937 1211.75L709.11 1211.41C709.284 1211.06 709.457 1210.89 709.457 1210.71C709.804 1209.85 710.325 1208.98 710.672 1208.11C710.846 1207.76 711.019 1207.24 711.193 1206.9C711.366 1206.55 711.54 1206.03 711.713 1205.51C712.06 1204.64 712.408 1203.6 712.581 1202.73C712.581 1202.56 712.755 1202.21 712.755 1202.04C712.755 1201.86 712.928 1201.69 712.928 1201.52C712.928 1201.34 712.928 1201.34 713.102 1201.17L713.102 1200.99C713.102 1200.65 713.275 1200.47 713.275 1200.13C713.622 1199.26 713.796 1198.22 713.969 1197.18C714.317 1195.61 714.664 1194.05 714.837 1192.66C714.837 1192.32 715.011 1191.97 715.011 1191.45L761.521 1191.45L761.521 1218.18C761.521 1219.39 762.562 1220.26 763.604 1220.26L767.595 1220.26C768.81 1220.26 769.678 1219.22 769.678 1218.18L769.678 1179.13L771.587 1179.13C772.628 1179.13 773.322 1178.26 773.322 1177.22L773.322 1155.7L773.322 1154.83L773.322 1142.86C773.322 1141.82 772.455 1140.95 771.587 1140.95L769.678 1140.95L769.678 1123.07C769.678 1121.86 768.637 1120.82 767.422 1120.82L763.777 1120.82L707.548 1120.82L661.038 843.142C662.426 841.233 663.641 839.497 664.856 837.762C670.236 837.241 676.136 827.87 679.26 822.143C679.434 821.969 679.434 821.796 679.434 821.622C682.558 815.895 685.334 809.3 687.417 802.532C687.59 802.359 687.59 802.011 687.59 801.838C688.285 799.929 688.632 798.367 689.152 796.631C689.846 794.202 690.367 791.772 690.888 789.516C691.582 786.392 691.582 783.268 691.235 780.492C691.235 779.277 691.235 778.062 691.235 776.847C691.582 775.632 691.929 774.244 692.276 772.856C694.706 763.658 696.962 753.592 699.044 742.832L699.044 742.659L698.177 742.485L699.044 742.485C699.912 738.32 700.606 733.808 701.301 728.601C701.474 727.039 701.821 725.477 701.995 723.916C702.168 722.18 702.515 720.445 702.689 718.709C702.689 718.536 702.689 718.362 702.689 718.189C702.862 717.494 702.862 716.627 703.036 715.932L703.21 714.023L703.557 710.9C703.904 708.296 704.077 705.693 704.424 703.09C704.771 699.446 705.119 695.627 705.466 691.809L705.466 691.115C705.813 687.644 706.16 684.173 706.333 680.529C706.68 676.364 707.028 672.025 707.201 667.687L707.201 667.513C707.375 665.604 707.375 663.869 707.548 661.96C707.548 661.786 707.548 661.612 707.548 661.439L707.722 659.009C707.722 658.836 707.722 658.662 707.722 658.489L707.895 655.191L708.416 646.861C708.589 644.258 708.763 641.655 708.763 639.051C709.11 632.283 709.457 625.341 709.631 618.399C709.804 615.796 709.804 613.193 709.978 610.59L709.978 608.334C709.978 606.945 710.151 605.731 710.151 604.342L716.746 605.383L716.746 623.259C716.746 627.077 719.87 630.201 723.688 630.201C727.506 630.201 730.63 627.077 730.63 623.259L730.63 607.64L732.539 607.987L732.539 614.581C732.539 615.623 733.233 616.317 734.274 616.49L734.274 664.389C734.274 668.207 737.398 671.331 741.216 671.331C745.034 671.331 748.332 668.207 748.332 664.389L748.332 616.49L748.505 616.49C749.546 616.49 750.414 615.623 750.414 614.581L750.414 610.416L1032.25 655.538L1032.08 656.927C1032.08 657.1 1032.08 657.1 1032.08 657.274C1032.08 658.315 1032.77 659.183 1033.82 659.356L1118.51 672.546C1119.55 672.72 1120.59 672.025 1120.94 670.81L1121.11 669.943L1248.67 690.421C1251.79 690.942 1254.57 689.206 1255.09 686.43C1255.78 681.917 1254.91 677.232 1252.31 672.372C1252.31 672.372 1252.31 672.372 1252.31 672.199C1252.14 671.852 1251.96 671.505 1251.79 671.158C1251.62 670.811 1251.44 670.637 1251.27 670.29C1250.92 669.769 1250.4 669.075 1250.05 668.554C1250.05 668.381 1249.88 668.381 1249.88 668.207C1249.53 667.86 1249.19 667.34 1248.84 666.992L1247.97 665.951C1247.62 665.604 1247.45 665.257 1247.1 664.91L1246.58 664.389C1246.24 664.042 1245.89 663.522 1245.54 663.174C1245.19 662.827 1244.67 662.307 1244.33 661.96C1243.98 661.613 1243.46 661.092 1243.11 660.745C1242.24 660.051 1241.38 659.183 1240.34 658.489C1239.99 658.315 1239.64 657.968 1239.47 657.795C1239.29 657.621 1239.12 657.621 1238.95 657.447C1237.91 656.753 1236.86 656.059 1235.82 655.365C1235.65 655.365 1235.65 655.191 1235.48 655.191C1234.96 654.844 1234.61 654.671 1234.09 654.324C1229.23 651.373 1223.67 648.77 1217.95 646.688C1217.6 646.514 1217.43 646.514 1217.08 646.341C1215.34 645.646 1213.44 645.126 1211.53 644.605C1210.83 644.432 1210.14 644.258 1209.44 644.084C1209.27 644.084 1209.27 644.084 1209.1 644.084L1208.75 644.084L1207.19 643.737L1205.97 643.39C1205.28 643.217 1204.76 643.043 1204.06 643.043L1202.85 642.87L1202.68 642.87L1202.5 642.87C1201.98 642.696 1201.46 642.696 1200.94 642.696C1200.77 642.696 1200.77 642.696 1200.59 642.696L750.241 575.36L750.241 573.104C750.241 572.062 749.373 571.195 748.332 571.195L748.158 571.195L748.158 341.419L748.332 341.419C749.373 341.419 750.241 340.552 750.241 339.51L750.241 312.958L816.535 183.319L817.75 184.013C818.271 184.186 818.791 184.36 819.312 184.186C819.833 184.013 820.18 183.666 820.527 183.145L859.228 106.611C859.748 105.57 859.401 104.355 858.36 103.834L857.492 103.487L916.324 -11.5738C917.019 -13.1358 917.192 -14.6977 916.845 -16.2596C916.498 -17.4744 915.63 -18.3421 914.589 -18.8628C910.424 -20.9453 905.738 -21.466 900.532 -20.5982L900.358 -20.5982C900.011 -20.5982 899.49 -20.4247 899.143 -20.4247C898.97 -20.4247 898.97 -20.4247 898.623 -20.2512C897.755 -20.0776 896.887 -19.7305 896.019 -19.557C895.499 -19.3834 895.152 -19.2099 894.631 -19.0363C894.458 -19.0363 894.458 -18.8628 894.111 -18.8628C893.763 -18.6892 893.416 -18.5157 893.069 -18.5157C893.069 -18.5157 892.896 -18.5157 892.896 -18.3421C892.375 -18.1686 891.854 -17.9951 891.334 -17.648C890.987 -17.4744 890.64 -17.3009 890.119 -17.1273L889.772 -16.9538C889.251 -16.6067 888.731 -16.4331 888.21 -16.086C886.648 -15.2183 885.086 -14.3506 883.698 -13.3093C882.309 -12.268 880.921 -11.4003 879.706 -10.359L878.665 -9.49128C878.144 -9.14419 877.624 -8.62355 877.276 -8.27646C876.929 -7.92937 876.582 -7.58227 876.235 -7.40873C875.715 -7.06164 875.367 -6.541 874.847 -6.19391C874.326 -5.67327 873.806 -5.32617 873.458 -4.80553C872.938 -4.2849 872.591 -3.9378 872.07 -3.41716C871.549 -2.89652 871.202 -2.37589 870.682 -1.85525C868.773 0.227303 867.037 2.30987 865.475 4.39243C865.128 4.91306 864.608 5.4337 864.261 6.12789C863.393 7.34271 862.699 8.38399 861.831 9.59881C861.484 10.1195 860.963 10.8136 860.616 11.3343C860.269 12.0285 859.922 12.5491 859.575 13.2433C859.575 13.4168 859.401 13.4168 859.401 13.5904C859.054 14.111 858.881 14.6317 858.534 15.1523C857.839 16.1936 857.319 17.4084 856.451 18.9703L743.993 244.581C743.125 244.233 742.258 244.06 741.39 244.06C737.572 244.06 734.448 247.184 734.448 251.002L734.448 263.671L726.465 279.81C725.597 279.463 724.903 279.29 724.035 279.29C720.217 279.29 717.093 282.414 717.093 286.232L717.093 298.727L710.672 311.569L708.589 311.569L708.589 311.049C708.589 310.702 708.589 310.181 708.589 309.834L708.589 309.487C708.589 309.14 708.589 308.793 708.589 308.446L708.416 304.454C708.416 303.586 708.416 302.719 708.242 302.198L708.242 302.024L708.242 301.851C708.242 301.677 708.242 301.677 708.242 301.504C708.242 300.81 708.242 300.289 708.242 300.289C708.242 300.289 708.242 299.595 708.242 298.553L708.242 298.206C708.242 298.033 708.242 297.859 708.242 297.686C708.242 297.165 708.242 296.471 708.242 295.603L708.242 295.43C708.242 295.256 708.242 295.083 708.242 294.909C708.069 287.794 707.375 273.216 705.466 254.82C705.292 252.911 705.119 251.002 704.771 249.093L704.598 247.531L704.424 246.142C704.424 245.622 704.251 245.101 704.251 244.581L704.251 244.233C704.077 243.192 703.904 241.977 703.73 240.936C702.862 234.168 701.821 227.573 700.78 221.325C700.78 221.325 700.78 221.325 700.78 221.152C700.433 219.243 700.086 217.334 699.739 215.425C698.177 207.094 696.441 199.458 694.532 192.517C694.532 192.517 694.532 192.517 694.532 192.343L693.664 189.566C693.664 189.393 693.664 189.393 693.491 189.219C693.317 188.525 693.144 188.004 692.97 187.31L692.797 186.79L692.797 186.616L692.276 184.881L692.103 184.533L692.103 184.36C692.103 184.186 691.929 183.839 691.929 183.666L691.061 181.063C690.367 179.154 689.846 177.418 689.152 175.683C685.681 165.964 681.69 157.46 677.178 150.518C658.955 121.71 634.485 113.206 617.13 111.123C606.718 109.909 592.661 109.909 582.248 111.123C564.893 113.206 540.597 121.71 522.201 150.518C517.862 157.46 513.697 165.964 510.226 175.683L508.317 181.063L507.97 181.93L507.449 183.666L507.102 184.707C506.929 185.228 506.755 185.575 506.755 186.095L506.755 186.442C506.408 187.31 506.234 188.351 505.887 189.219L505.02 191.996C504.846 192.864 504.499 193.731 504.325 194.599L504.325 194.773L503.458 198.07C503.458 198.07 503.458 198.07 503.458 198.244L503.458 198.417C503.111 199.979 502.764 201.367 502.416 202.929L502.243 203.45C502.069 204.318 501.896 205.359 501.549 206.227C501.375 207.094 501.202 207.789 501.028 208.656C500.16 212.301 499.466 216.119 498.598 220.978C497.557 227.052 496.516 233.473 495.648 240.589C495.475 241.63 495.301 242.845 495.127 243.886L495.127 244.233L495.127 244.407C495.127 245.101 494.954 245.795 494.954 246.489C494.78 247.184 494.78 247.704 494.78 248.398L494.78 248.919C494.78 249.093 494.78 249.44 494.78 249.613C494.78 249.787 494.78 249.96 494.78 250.134C494.607 251.002 494.607 251.696 494.607 252.39C494.607 252.564 494.607 252.911 494.607 252.911C492.351 272.869 491.83 288.661 491.657 294.562C491.657 294.735 491.657 294.909 491.657 294.909L491.657 295.082C491.657 295.95 491.657 296.644 491.657 297.165C491.657 297.339 491.657 297.512 491.657 297.686L491.657 298.033C491.657 299.248 491.657 299.768 491.657 299.768L491.657 301.157C491.657 301.157 491.657 301.33 491.657 301.504L491.657 301.677C491.657 301.677 491.657 301.677 491.657 301.851L491.657 304.28L491.657 304.627L491.657 307.057C491.657 307.404 491.657 307.751 491.657 308.098L491.657 309.14L491.657 309.487L491.657 311.049L491.657 311.222L483.153 311.222L483.153 285.885C483.153 282.066 480.029 278.943 476.037 278.943C472.219 278.943 469.096 282.066 469.096 285.885L469.096 309.487L467.36 309.487L467.36 297.686C467.36 296.644 466.666 295.95 465.625 295.777L465.625 251.175C465.625 247.357 462.501 244.233 458.683 244.233C454.865 244.233 451.741 247.357 451.741 251.175L451.741 296.471L451.567 296.471C450.526 296.471 449.658 297.339 449.658 298.38L449.658 339.684C449.658 340.725 450.526 341.593 451.567 341.593L451.741 341.593L451.741 392.615L302.144 242.498L303.185 241.457C304.053 240.589 303.879 239.374 303.185 238.506L242.27 178.112C241.923 177.765 241.403 177.418 240.882 177.418C240.361 177.418 239.841 177.592 239.494 178.112L238.799 178.806L147.688 87.3474C145.432 85.0913 142.134 84.9178 140.225 86.8268C136.928 90.1241 135.019 94.4628 134.151 99.8427C134.151 100.19 133.978 100.537 133.978 101.058C133.804 102.272 133.804 103.314 133.804 104.528C133.804 107.305 134.151 110.256 134.672 113.379L134.672 113.553C135.019 115.635 135.713 117.718 136.407 119.801C136.754 120.668 136.928 121.362 137.275 122.23C141.44 133.511 148.902 144.965 158.1 153.989L451.741 442.423L451.741 571.368L451.567 571.368C450.526 571.368 449.658 572.236 449.658 573.277L449.658 614.581C449.658 615.623 450.526 616.49 451.567 616.49L451.741 616.49L451.741 623.259L198.884 751.509L198.19 750.294C197.669 749.253 196.454 748.906 195.413 749.427L119.226 788.648C118.705 788.822 118.358 789.342 118.185 789.863C118.185 790.037 118.011 790.21 118.011 790.557C118.011 790.904 118.011 791.251 118.185 791.425L118.532 792.293L3.29711 850.778C1.73522 851.472 0.693841 852.86 0.173211 854.249C-0.000372888 854.769 -0.000250821 855.29 -0.000250824 855.637C-0.000250829 856.331 0.173211 857.026 0.520379 857.546C2.6029 861.711 6.07385 865.009 10.9331 867.265C11.6273 867.612 12.495 867.959 13.1892 868.306C13.7098 868.479 14.404 868.827 15.0983 869C15.9661 869.347 17.0072 869.521 17.875 869.868C18.5692 870.041 19.0898 870.215 19.7841 870.215C19.9576 870.215 19.9575 870.215 20.1311 870.215L20.3047 870.215C20.9989 870.389 21.5194 870.389 22.2136 870.562L22.9078 870.736C23.7756 870.909 24.6433 870.909 25.3374 871.083C26.0316 871.083 26.5524 871.256 27.2466 871.256L28.2877 871.256C41.6509 871.777 56.7494 868.132 70.1125 861.191L451.22 662.133L451.22 663.868C451.22 667.686 454.344 670.81 458.162 670.81C461.98 670.81 465.104 667.686 465.104 663.868L465.104 654.671L490.789 641.307L490.789 641.655C490.962 645.993 491.31 650.505 491.483 654.671L491.657 657.968L492.351 667.339C492.524 669.422 492.698 671.505 492.698 673.587L492.871 676.364C493.045 677.579 493.045 678.967 493.219 680.182C493.566 683.826 493.739 687.297 494.086 690.768L494.086 691.462C494.78 698.404 495.301 704.652 495.995 710.726C496.516 714.718 497.036 718.709 497.557 723.048L497.904 725.998C498.078 727.039 498.251 728.081 498.425 728.948C498.598 730.51 498.945 732.072 499.119 733.461C499.119 733.634 499.119 733.981 499.293 734.155L499.293 734.675C499.293 735.196 499.466 735.717 499.466 736.237L500.507 742.485L500.507 742.659L500.507 742.832C502.59 753.418 504.846 763.484 507.276 772.856L507.276 773.029C507.623 774.244 507.97 775.632 508.317 776.847C508.317 777.715 508.143 778.583 508.143 779.45C508.143 779.797 508.143 780.145 508.143 780.318C507.97 781.359 507.97 782.574 507.97 783.789C507.97 785.698 508.143 787.607 508.491 789.342C509.011 791.599 509.532 794.028 510.226 796.458C510.747 798.02 511.094 799.755 511.788 801.664L511.961 802.358C514.044 809.127 516.821 815.721 519.945 821.449C519.945 821.622 520.118 821.796 520.118 821.796C523.242 827.523 528.969 836.894 534.523 837.415C534.523 837.588 534.696 837.588 534.696 837.762L534.87 837.935C540.25 845.919 545.456 852.166 550.489 858.067C555.001 863.447 559.166 868.48 562.984 874.033C566.629 879.587 566.976 888.958 566.976 897.115C566.976 897.983 567.323 898.85 567.843 899.371C568.364 899.892 568.885 900.065 569.579 900.239L571.661 1120.3L440.46 1120.3L436.816 1120.3C435.601 1120.3 434.56 1121.34 434.56 1122.55L434.56 1140.43L432.651 1140.43C431.609 1140.43 430.742 1141.29 430.742 1142.34L430.742 1154.31L430.742 1155.18L430.742 1176.7C430.742 1177.74 431.609 1178.61 432.651 1178.61L434.56 1178.61L434.56 1217.65C434.56 1218.87 435.601 1219.74 436.642 1219.74L440.634 1219.74C441.849 1219.74 442.716 1218.7 442.716 1217.65L442.716 1190.93L572.356 1190.93L573.57 1333.76L574.091 1395.54L575.306 1436.5C575.306 1440.84 575.653 1445.35 576.347 1449.69L579.297 1469.99C579.818 1473.81 583.115 1476.76 587.107 1476.76L613.486 1476.76C617.304 1476.76 620.601 1473.81 621.122 1469.99ZM747.464 616.143L747.464 664.042C747.464 666.992 745.034 669.248 742.084 669.248C739.134 669.248 736.878 666.819 736.878 664.042L736.878 616.143L747.464 616.143ZM452.956 296.471L452.956 251.175C452.956 248.225 455.385 245.969 458.162 245.969C461.112 245.969 463.369 248.398 463.369 251.175L463.369 296.471L452.956 296.471ZM624.246 1333.93L623.725 1396.06C623.725 1400.23 622.858 1404.22 621.296 1408.04L615.916 1420.88C615.048 1422.96 613.139 1424.18 610.883 1424.18L607.759 1424.18C608.106 1419.84 608.28 1415.67 608.453 1411.16L607.585 1410.99L607.238 1410.99L607.585 1410.99L608.453 1410.99L608.627 1408.56C608.974 1401.79 609.321 1394.15 610.015 1384.78C610.362 1380.27 610.362 1376.1 610.362 1372.11L611.403 1294.19L616.957 1299.92C619.387 1302.52 620.949 1305.82 621.469 1309.29L624.072 1329.59C624.072 1331.15 624.246 1332.54 624.246 1333.93ZM594.917 1351.11C593.528 1353.02 592.487 1355.62 591.793 1358.92L589.71 1203.77L610.883 1203.77L608.8 1358.92C607.933 1355.62 606.891 1353.02 605.677 1351.11C604.462 1349.38 602.553 1348.34 600.297 1348.34C598.041 1348.16 596.131 1349.2 594.917 1351.11ZM596.305 1351.98C597.173 1350.59 598.735 1349.9 600.297 1349.9C601.859 1349.9 603.247 1350.59 604.288 1351.98C606.891 1355.8 608.453 1362.22 608.627 1371.24C608.627 1372.46 608.627 1373.5 608.627 1374.71C608.627 1377.84 608.453 1381.14 608.28 1384.43C607.585 1393.8 607.238 1401.44 606.891 1408.21L606.891 1408.56C606.024 1405.78 603.42 1403.7 600.297 1403.7C597.173 1403.7 594.57 1405.78 593.702 1408.56L593.702 1408.21C593.355 1401.44 593.008 1393.8 592.313 1384.43C591.966 1379.57 591.966 1375.06 591.966 1371.07C592.14 1362.39 593.702 1355.8 596.305 1351.98ZM600.123 1405.61C603.073 1405.61 605.329 1408.04 605.329 1410.81C605.329 1413.76 602.9 1416.02 600.123 1416.02C597.173 1416.02 594.917 1413.59 594.917 1410.81C594.917 1408.04 597.346 1405.61 600.123 1405.61ZM600.123 1417.93C602.9 1417.93 605.329 1416.19 606.544 1413.76C606.371 1417.58 606.197 1421.22 605.85 1424.87C605.156 1434.93 604.462 1444.31 603.247 1455.41C602.9 1458.36 601.511 1459.58 600.123 1459.58C598.735 1459.58 597.346 1458.19 596.999 1455.41C595.611 1441.88 594.917 1432.33 594.396 1424.87C594.222 1421.22 593.875 1417.58 593.702 1413.76C594.917 1416.19 597.346 1417.93 600.123 1417.93ZM624.419 1319.18L623.205 1309.29C622.684 1305.47 620.949 1301.65 618.172 1298.87L611.403 1291.76L612.618 1202.73L625.461 1202.73L624.419 1319.18ZM625.461 1200.65L609.321 1200.65L609.321 1191.28L625.461 1191.28L625.461 1200.65ZM698.524 1222.17C695.747 1224.25 692.797 1225.64 689.673 1226.16C688.979 1226.33 688.285 1226.16 687.59 1225.64C686.723 1224.94 686.028 1223.9 685.855 1222.69L665.897 1095.13L669.715 1094.44C670.236 1094.26 670.756 1094.09 671.104 1093.57C671.451 1093.05 671.624 1092.53 671.451 1092.01L657.74 1007.32C657.567 1006.8 657.393 1006.28 656.873 1005.93C656.352 1005.58 655.831 1005.41 655.311 1005.58L651.84 1006.1L594.917 641.828L592.834 628.986C600.123 629.853 607.238 629.333 614.527 627.597L615.916 627.25L620.428 653.803L705.119 1159.86C708.242 1178.95 705.119 1199.26 696.962 1211.75C696.962 1211.75 696.094 1212.97 695.747 1213.49C694.359 1215.92 694.185 1218.35 695.4 1220.26C696.268 1221.3 697.309 1221.99 698.524 1222.17ZM627.89 1122.38L668.5 1122.38L679.087 1189.54L627.37 1189.54L627.89 1122.38ZM625.634 1189.54L609.495 1189.54L609.495 1122.38L626.329 1122.38L625.634 1189.54ZM663.12 1093.92C662.947 1093.92 662.947 1093.92 662.947 1093.92L662.773 1093.74L649.063 1009.05C649.063 1008.88 649.237 1008.71 649.237 1008.71L651.493 1008.36L655.831 1007.66C656.005 1007.66 656.005 1007.66 656.005 1007.66L656.178 1007.84L669.889 1092.53C669.889 1092.7 669.889 1092.7 669.889 1092.7L669.715 1092.88L663.12 1093.92ZM601.164 898.85L601.164 743.526L609.321 743.526L631.535 885.487C631.014 889.479 631.014 893.817 631.014 897.462C631.014 897.809 630.841 898.156 630.494 898.503C630.147 898.85 629.799 898.85 629.452 898.85L601.164 898.85ZM595.437 674.108C595.09 673.934 594.57 673.761 594.222 673.587C594.049 673.587 593.875 673.414 593.875 673.414C593.528 673.24 593.355 673.066 593.008 672.893C592.834 672.719 592.487 672.546 592.313 672.372C592.14 672.199 591.966 672.199 591.793 672.025C591.446 671.852 591.099 671.505 590.925 671.157L590.752 670.984C590.057 670.29 589.363 669.422 588.842 668.554C586.586 664.91 584.157 660.571 581.38 655.885C575.132 644.605 568.364 631.068 562.811 616.837C564.199 617.879 565.414 618.746 566.802 619.614C566.976 619.614 566.976 619.788 567.149 619.788C568.364 620.655 569.579 621.35 570.967 622.044C571.314 622.217 571.488 622.391 571.835 622.564C574.612 623.953 577.388 625.168 580.165 626.209C580.339 626.209 580.512 626.383 580.686 626.383C582.248 626.903 583.636 627.25 585.198 627.771C587.975 635.06 591.099 642.696 594.396 650.332C594.396 650.505 594.57 650.505 594.57 650.679L598.388 674.802C597.346 674.628 596.479 674.455 595.437 674.108ZM501.722 597.227L491.136 602.607L490.962 599.656C490.789 596.185 490.789 592.888 490.615 589.417L490.615 587.335C490.615 585.599 490.442 583.864 490.442 582.128C492.177 581.955 493.913 581.607 495.301 580.74C498.425 579.004 500.681 575.36 500.854 571.368L503.284 525.378C503.631 518.263 498.251 511.842 491.136 511.148L489.574 510.974L489.574 510.28L489.574 509.586L489.574 508.718C489.574 507.85 489.574 507.156 489.574 506.288C494.607 502.123 498.598 497.09 501.375 491.537L513.003 502.991C508.838 529.023 505.367 557.485 502.59 587.335C502.243 590.632 502.069 593.929 501.722 597.227ZM473.608 600.698L481.07 600.698L481.07 607.813L470.484 613.193L470.484 602.607C471.352 602.433 472.567 602.086 473.608 600.698ZM470.484 600.698C470.31 600.698 470.137 600.698 469.963 600.524C469.616 600.351 469.096 600.003 468.748 599.309C468.922 599.483 468.922 599.483 469.096 599.656C469.79 600.177 470.484 600.351 471.178 600.351C471.005 600.698 470.831 600.698 470.484 600.698ZM482.806 600.698L489.227 600.698L489.4 603.648L482.806 606.945L482.806 600.698ZM489.227 598.962L473.087 598.962C471.525 598.962 470.657 598.789 470.137 598.442C469.616 597.921 468.922 597.053 468.922 593.756C468.922 590.285 469.616 589.417 470.137 589.07C470.657 588.723 471.525 588.549 473.261 588.549L489.053 588.549L489.053 589.764C489.053 592.714 489.227 595.838 489.227 598.962ZM490.615 499.867L489.574 500.908C489.574 493.967 489.574 487.025 489.574 480.256L498.078 488.587C496.342 492.578 493.913 496.396 490.615 499.867ZM499.466 489.802L499.987 490.322C497.557 495.528 494.086 500.041 489.574 504.206L489.574 503.338L491.83 501.082C495.127 497.611 497.557 493.967 499.466 489.802ZM487.838 502.991L487.838 506.115L487.838 509.759L487.838 511.842L487.838 512.015L487.838 512.883L487.838 514.619C487.838 515.486 487.838 516.354 487.838 517.222C487.838 518.61 487.838 519.999 487.838 521.56C487.838 522.255 487.838 523.122 487.838 523.817L487.838 524.511C487.838 525.378 487.838 526.073 487.838 526.94L487.838 529.544L487.838 530.064C487.838 530.411 487.838 530.932 487.838 531.279L487.838 536.833L487.838 537.7L487.838 537.874L487.838 541.692C487.838 542.212 487.838 542.56 487.838 543.08C487.838 544.122 487.838 545.336 487.838 546.378L487.838 547.419L488.012 555.402L488.012 555.576L488.012 555.923L488.012 557.311L488.012 558.699C488.012 559.046 488.012 559.567 488.012 560.088C488.012 563.038 488.012 565.815 488.186 568.765L488.186 571.889C488.186 572.41 488.186 572.757 488.186 573.277L488.359 577.963C488.359 578.484 488.359 579.178 488.359 579.698L489.227 579.698L488.359 579.698C488.359 580.219 488.359 580.74 488.359 581.26C488.359 581.434 488.359 581.607 488.359 581.607C488.359 583.343 488.359 585.078 488.533 586.814L482.459 586.814L482.459 473.315L487.665 478.347C488.012 486.504 487.838 494.661 487.838 502.991ZM490.095 559.394C490.095 558.699 490.095 558.005 490.095 557.311L489.921 540.477C489.921 539.436 489.921 538.394 489.921 537.353L489.921 536.312L489.921 530.238C489.921 529.891 489.921 529.37 489.921 529.023L489.921 523.296C489.921 522.602 489.921 521.734 489.921 521.04C489.921 519.651 489.921 518.263 489.921 516.701C489.921 516.181 489.921 515.66 489.921 515.139L491.309 515.313C495.822 516.007 499.293 520.172 499.293 524.684C499.293 524.858 499.293 524.858 499.293 525.031L496.863 571.021C496.689 573.624 495.475 575.88 493.392 577.095C493.045 577.269 492.524 577.616 491.83 577.789L490.442 578.137C490.442 577.963 490.442 577.616 490.442 577.442L490.268 572.757C490.268 572.236 490.268 571.715 490.268 571.368L490.268 568.418C490.268 565.641 490.095 562.691 490.095 559.741L490.095 559.394ZM498.425 571.368L500.854 525.378C500.854 525.205 500.854 525.031 500.854 524.858C500.854 519.478 496.689 514.619 491.309 513.751L489.748 513.577C489.748 513.23 489.748 513.057 489.748 512.71L491.136 512.883C497.21 513.577 502.069 519.131 501.722 525.205L499.293 571.195C499.119 574.666 497.384 577.616 494.607 579.178C493.392 579.872 492.004 580.219 490.615 580.393C490.615 580.219 490.615 580.046 490.615 579.872L492.351 579.351C493.045 579.178 493.739 578.831 494.26 578.484C496.689 577.269 498.251 574.492 498.425 571.368ZM481.07 586.64L473.608 586.64C472.74 585.426 471.699 584.731 470.484 584.731L470.484 461.166L481.07 471.579L481.07 586.64ZM471.178 586.64C470.484 586.814 469.616 586.987 469.096 587.335C468.922 587.335 468.922 587.508 468.748 587.508C469.096 586.987 469.443 586.64 469.963 586.467C470.137 586.467 470.31 586.293 470.484 586.293C470.831 586.467 471.005 586.64 471.178 586.64ZM504.325 587.508C506.929 558.005 510.4 530.064 514.565 504.379L536.605 525.899L537.82 527.114L547.191 536.312C541.464 545.857 538.514 556.617 538.514 567.724C538.514 571.195 538.861 574.666 539.382 578.137L537.82 579.004L537.82 527.288L536.605 526.073L536.084 525.552L536.084 580.046L503.805 596.359C503.805 593.409 504.152 590.458 504.325 587.508ZM541.117 578.484C538.514 564.079 541.291 549.154 548.927 536.659C549.1 536.312 549.274 535.965 549.621 535.618C550.662 533.882 551.877 532.32 553.092 530.758C554.654 528.676 556.389 526.94 557.951 525.205C557.951 525.205 557.951 525.205 558.125 525.031C561.422 521.734 565.067 518.957 569.058 516.528C569.926 516.007 570.794 515.486 571.835 514.966C584.851 508.024 599.776 505.941 614.007 509.412C616.263 509.933 618.692 510.627 620.949 511.495C624.593 512.883 628.064 514.619 631.535 516.528C631.882 516.701 632.056 516.875 632.403 517.048C635.7 519.131 638.824 521.561 641.774 524.337C641.948 524.511 642.295 524.858 642.642 525.031C652.708 535.097 658.955 548.46 660.17 562.691C660.344 565.121 660.517 567.377 660.344 569.98C659.997 578.31 658.087 586.293 654.443 593.756C653.402 595.838 652.36 597.921 650.972 599.83C647.675 605.036 643.683 609.548 638.997 613.54C636.741 615.449 634.312 617.185 631.708 618.746C631.361 618.92 631.014 619.094 630.667 619.267C629.799 619.788 628.932 620.308 627.89 620.829C627.196 621.176 626.502 621.523 625.808 621.87C625.114 622.217 624.419 622.564 623.552 622.912L623.378 622.912C621.122 623.779 618.866 624.647 616.436 625.341L614.18 625.862C606.891 627.597 599.602 627.944 592.313 627.077L591.793 627.077C590.752 626.903 589.71 626.73 588.669 626.556C588.495 626.556 588.322 626.556 588.148 626.383C587.454 626.209 586.586 626.035 585.892 625.862C584.504 625.515 583.115 625.168 581.727 624.647C581.38 624.474 581.206 624.473 580.859 624.3C579.471 623.779 578.256 623.432 576.868 622.738L576.694 622.738C575.306 622.217 574.091 621.523 572.703 620.829C572.356 620.655 572.008 620.482 571.835 620.308C570.62 619.614 569.405 618.92 568.191 618.226C568.191 618.226 568.19 618.226 568.017 618.226C565.761 616.837 563.505 615.102 561.422 613.367L561.249 613.193C558.993 611.284 556.736 609.028 554.654 606.772C553.092 605.036 551.53 602.954 550.142 601.045C545.803 594.45 542.506 586.64 541.117 578.484ZM574.438 440.167C574.612 439.994 574.612 439.647 574.612 439.473C568.19 412.747 570.099 348.361 570.099 347.667C570.099 306.537 588.495 287.099 596.479 280.678C597.52 279.81 598.908 279.29 600.123 279.29C601.511 279.29 602.726 279.81 603.768 280.678C611.751 287.099 630.146 306.537 630.146 347.667C630.146 348.361 632.056 412.747 625.634 439.473C625.634 439.647 625.634 439.994 625.808 440.167C625.981 440.341 626.155 440.514 626.502 440.514L646.981 440.514L623.899 486.678C616.61 479.215 608.453 475.224 600.123 475.224C586.239 475.224 573.05 486.157 563.678 505.247L522.027 463.422C523.242 457.522 524.63 451.795 525.845 446.588C526.713 442.77 530.184 440.167 534.002 440.167L573.57 440.167C573.918 440.514 574.265 440.341 574.438 440.167ZM600.123 476.959C608.106 476.959 616.089 480.951 623.205 488.24L619.734 495.355C616.263 492.231 612.618 489.802 608.453 488.24C603.247 486.157 597.346 486.157 592.14 488.24C585.198 491.016 575.827 497.264 569.579 511.148L565.067 506.636C574.091 487.719 586.933 476.959 600.123 476.959ZM592.661 489.975C597.52 488.066 602.9 488.066 607.759 489.975C611.751 491.537 615.569 493.967 618.866 497.09L613.66 507.677C599.429 504.553 584.504 506.462 571.488 513.23L570.794 512.536C576.868 498.652 586.066 492.578 592.661 489.975ZM717.614 570.327L711.887 569.459C711.887 569.286 711.887 569.286 711.887 569.112L712.06 559.567C712.06 556.617 712.06 553.84 712.234 550.89C712.234 550.196 712.234 549.501 712.234 548.634L712.234 542.56C712.234 541.865 712.234 541.171 712.234 540.477L712.234 538.221L712.234 530.758C712.234 527.461 712.234 524.337 712.234 521.04L712.234 515.139C712.234 514.272 712.234 513.404 712.234 512.363L712.234 511.668L712.234 508.545C712.234 508.371 712.234 508.197 712.234 508.197C712.234 505.421 712.234 502.47 712.234 499.694C712.234 486.504 712.234 472.794 712.06 456.134C712.06 455.613 712.06 455.266 712.06 454.745C712.06 446.068 711.887 437.391 711.713 429.234L711.713 428.713C711.713 428.54 711.713 428.193 711.713 428.019L711.713 427.845L711.54 421.077L711.366 415.524C711.366 414.135 711.366 412.747 711.366 411.532L711.193 404.764L711.193 404.59L711.193 402.855L711.193 401.293C711.193 400.078 711.193 398.69 711.193 397.475L711.193 395.739C711.193 395.566 711.193 395.219 711.193 395.045L711.193 393.657L711.193 391.921C711.193 391.574 711.193 391.227 711.193 391.054L717.44 378.732L717.44 570.327L717.614 570.327ZM719.349 375.087L729.936 354.435L729.936 572.062L719.349 570.501L719.349 375.087ZM701.301 525.205L701.301 524.684C701.301 520.172 704.771 516.007 709.284 515.313L710.846 515.139C710.846 516.875 710.846 518.437 710.846 520.172L710.846 521.734C710.846 521.908 710.846 522.081 710.846 522.255L710.846 525.552C710.846 527.114 710.846 528.849 710.846 530.411L710.846 530.585C710.846 533.015 710.846 535.444 710.846 537.874L710.846 538.568C710.846 539.089 710.846 539.783 710.846 540.304C710.846 540.998 710.846 541.692 710.846 542.386L710.846 546.725C710.846 547.419 710.846 547.94 710.846 548.634C710.846 549.328 710.846 550.022 710.846 550.89C710.846 556.27 710.672 561.476 710.672 566.683C710.672 567.03 710.672 567.377 710.672 567.724L710.672 569.112L704.077 568.071L701.301 525.205ZM701.648 567.897L700.953 567.724L698.697 525.205C698.35 518.957 703.036 513.404 709.284 512.883L710.672 512.71C710.672 513.057 710.672 513.23 710.672 513.577L708.937 513.751C703.557 514.619 699.392 519.478 699.392 524.858L701.648 567.897ZM709.631 395.045C709.631 395.219 709.631 395.392 709.631 395.739L709.631 397.475C709.631 398.69 709.631 400.078 709.631 401.293L710.151 428.019L710.151 429.407C710.325 436.87 710.325 444.332 710.325 452.142L710.325 455.092C710.325 455.613 710.325 455.96 710.325 456.481L710.325 457.695C710.498 472.1 710.498 486.678 710.498 500.908L709.631 499.867C699.392 489.107 698.177 476.438 698.177 467.935L698.177 416.391L709.457 394.177L709.631 395.045ZM696.441 467.935C696.441 476.786 697.656 489.802 708.416 501.082L710.672 503.338L710.672 504.206C697.309 492.405 695.747 477.827 695.747 467.935L695.747 421.251L696.441 419.862L696.441 467.935ZM694.012 467.935C694.012 478.521 695.747 493.967 710.672 506.462C710.672 507.156 710.672 507.677 710.672 508.371C710.672 508.892 710.672 509.586 710.672 510.106L710.672 510.974L709.11 511.148C702.342 511.842 696.962 517.916 696.962 524.684C696.962 524.858 696.962 525.205 696.962 525.379L699.218 567.55L695.747 567.03C690.194 513.751 683.078 476.959 678.219 455.266L694.012 424.375L694.012 467.935ZM690.367 565.641L690.367 548.634C690.367 545.683 689.673 542.733 688.285 540.304C688.111 539.956 687.764 539.783 687.243 539.956C686.896 540.13 686.549 540.477 686.549 540.824L686.549 565.815L686.549 538.568C686.549 538.395 686.376 538.047 686.376 538.047C685.681 537.353 684.814 536.659 683.772 536.312C683.425 536.138 683.252 536.138 682.905 536.312C682.731 536.486 682.557 536.833 682.557 537.006L682.557 565.294L682.557 536.312C682.557 535.965 682.211 535.618 681.863 535.444L681.69 535.444C681.343 535.444 680.996 535.271 680.475 535.271C680.128 535.271 679.781 535.271 679.434 535.444L679.26 535.444C678.913 535.444 678.566 535.791 678.566 536.312L678.566 564.6L678.566 536.833C678.566 536.486 678.392 536.312 678.219 536.138C678.045 535.965 677.698 535.965 677.351 536.138C676.31 536.659 675.442 537.18 674.748 537.874C674.574 538.047 674.574 538.221 674.574 538.395L674.574 563.906L674.574 540.824C674.574 540.477 674.227 540.13 673.88 539.956C673.533 539.783 673.186 539.956 672.839 540.304C671.451 542.733 670.756 545.51 670.756 548.634L670.756 563.385L664.509 562.517L664.509 496.223C664.509 494.834 665.724 493.62 667.112 493.62L684.119 493.62C687.417 513.23 691.061 537.527 694.185 567.03L690.541 566.509C690.367 565.988 690.367 565.815 690.367 565.641ZM688.632 565.988L688.285 565.988L688.285 545.51C688.458 546.551 688.632 547.592 688.632 548.634L688.632 565.641C688.632 565.815 688.632 565.815 688.632 565.988ZM684.987 565.468L684.467 565.468L684.467 538.395C684.64 538.568 684.814 538.742 684.987 538.915L684.987 565.468ZM680.822 564.774L680.301 564.6L680.301 536.833C680.475 536.833 680.475 536.833 680.649 536.833C680.822 536.833 680.822 536.833 680.996 536.833L680.996 564.774L680.822 564.774ZM676.831 564.253L676.31 564.253L676.31 538.915C676.483 538.742 676.657 538.568 676.831 538.395L676.831 564.253ZM672.665 563.559L672.318 563.559L672.318 548.634C672.318 547.592 672.492 546.551 672.665 545.51L672.665 563.559ZM683.772 491.537L667.112 491.537C664.682 491.537 662.6 493.62 662.6 496.049L662.6 562.17L661.558 561.997C660.17 547.766 653.922 534.403 643.683 524.164C643.51 523.817 643.51 523.47 643.336 523.122L677.004 457.695C679.087 466.546 681.343 477.827 683.772 491.537ZM666.938 597.053C666.765 597.053 666.418 597.053 666.244 596.88L666.938 597.053ZM663.12 596.359C663.294 596.533 663.294 596.88 663.467 597.053L654.617 597.053C654.964 596.359 655.311 595.838 655.658 595.144L663.12 596.359ZM625.461 624.126C629.799 622.217 633.791 619.788 637.435 617.011C634.659 624.126 631.535 631.415 627.89 638.878L625.634 624.3L625.461 624.126ZM593.528 643.737C591.272 638.531 589.19 633.324 587.107 628.118C588.322 628.465 589.537 628.639 590.752 628.812L593.181 642.349L593.528 643.737ZM768.289 1178.95L768.289 1218C768.289 1218.18 768.116 1218.35 767.942 1218.35L763.951 1218.35C763.777 1218.35 763.604 1218.18 763.604 1218L763.604 1161.6L768.463 1161.6L768.463 1178.09L768.463 1178.95L768.289 1178.95ZM772.107 1156.39L772.107 1177.05L770.198 1177.05L770.198 1156.39L772.107 1156.39ZM772.107 1142.68L772.107 1154.66L770.025 1154.66L770.025 1142.51L772.107 1142.68ZM767.769 1122.38C768.116 1122.38 768.289 1122.55 768.289 1122.9L768.289 1140.77L768.289 1141.64L768.289 1154.66L768.289 1155.53L768.289 1159.69L763.43 1159.69L763.43 1122.9C763.43 1122.55 763.604 1122.38 763.951 1122.38L767.769 1122.38ZM761.868 1122.38C761.868 1122.55 761.695 1122.73 761.695 1122.9L761.695 1159.69L761.695 1160.56L761.695 1189.37L715.358 1189.37C715.358 1188.85 715.531 1188.15 715.531 1187.63C715.531 1187.11 715.705 1186.59 715.705 1186.07C715.705 1185.72 715.878 1185.2 715.878 1184.85C716.052 1183.47 716.052 1181.9 716.052 1180.34C716.226 1174.44 715.878 1168.54 714.837 1162.81L708.069 1122.38L761.868 1122.38ZM660.864 838.109C661.385 838.283 661.906 838.456 662.426 838.63C661.906 839.324 661.385 840.018 660.864 840.712L660.344 837.935C660.691 837.935 660.691 837.936 660.864 838.109ZM713.102 1163.16C714.143 1168.89 714.49 1174.62 714.317 1180.34C714.317 1181.9 714.143 1183.47 714.143 1184.85C714.143 1185.2 714.143 1185.55 713.969 1186.07C713.969 1186.59 713.969 1187.11 713.796 1187.63C713.622 1188.67 713.622 1189.71 713.449 1190.76C713.449 1191.28 713.275 1191.62 713.275 1192.14C713.102 1193.53 712.755 1195.09 712.407 1196.66C712.234 1197.52 711.887 1198.56 711.713 1199.43C711.713 1199.78 711.54 1200.13 711.366 1200.47L710.846 1202.21C710.498 1203.08 710.325 1204.12 709.978 1204.99C709.804 1205.33 709.804 1205.68 709.631 1206.03C709.631 1206.2 709.631 1206.2 709.457 1206.37C709.284 1206.72 709.11 1207.24 708.937 1207.59C708.589 1208.46 708.242 1209.32 707.722 1210.19C707.548 1210.54 707.375 1210.89 707.201 1211.23C706.854 1211.93 706.507 1212.45 706.16 1213.14C705.813 1213.66 705.466 1214.18 705.119 1214.88C704.945 1215.23 704.771 1215.4 704.598 1215.75C704.077 1216.44 703.73 1217.13 703.21 1217.83C703.036 1218.18 702.862 1218.35 702.515 1218.7C701.995 1219.22 701.474 1219.91 700.953 1220.43C700.433 1220.95 699.565 1221.3 698.697 1221.3C697.83 1221.13 697.135 1220.78 696.788 1220.08C695.921 1218.7 695.921 1216.96 696.962 1215.05C697.309 1214.53 698.177 1213.32 698.177 1213.32C706.507 1200.65 709.978 1179.82 706.68 1160.21L655.137 850.604L617.651 627.077C619.387 626.556 621.296 625.862 623.031 625.168L657.914 834.118L658.261 836.2L713.102 1163.16ZM689.499 778.062C689.499 778.062 689.499 778.236 689.499 778.062C689.673 778.93 689.846 779.624 690.02 780.492C690.367 783.095 690.367 786.045 689.673 788.995C689.152 791.425 688.632 793.681 687.937 796.111C687.59 797.673 687.07 799.408 686.376 801.144C686.376 801.317 686.202 801.664 686.202 801.838C683.946 808.606 681.343 815.027 678.219 820.754C678.219 820.928 678.045 820.928 678.045 821.102C673.013 830.3 668.153 835.853 664.682 835.853C664.335 835.853 663.988 835.853 663.641 835.679C663.467 835.679 663.467 835.506 663.294 835.506C657.567 832.035 657.74 808.086 663.815 786.219C664.509 783.442 665.376 780.665 666.418 778.236C668.674 772.335 672.839 768.17 676.83 767.996C678.392 767.823 680.128 768.17 681.69 768.864C684.119 769.732 686.028 771.467 687.59 773.723C688.285 774.938 688.979 776.5 689.499 778.062ZM689.499 773.897C689.326 773.55 689.152 773.203 688.805 772.856C687.07 770.252 684.814 768.517 682.037 767.302C680.301 766.608 678.392 766.261 676.483 766.434C671.798 766.782 667.112 771.294 664.682 777.888C663.815 780.492 662.773 783.268 662.079 786.045C659.129 796.805 657.22 809.127 657.22 819.019L657.22 819.192L655.311 808.086C655.658 800.276 656.873 792.119 658.782 784.83C662.253 771.814 667.285 762.963 673.36 760.187C675.963 758.972 678.566 758.972 680.996 760.013C685.508 761.749 688.458 766.608 689.499 773.897ZM672.665 758.278C672.145 758.451 671.624 758.798 671.277 759.145C674.748 756.716 678.392 756.022 681.863 757.584C685.508 759.145 688.111 762.616 689.673 767.302C688.111 762.79 685.334 759.666 681.863 758.104C678.913 756.889 675.789 756.889 672.665 758.278ZM682.557 756.022C674.748 752.551 666.591 757.931 660.864 770.426C659.129 774.07 657.74 778.409 656.526 783.095C655.311 787.607 654.443 792.466 653.749 797.499L644.724 743.526L697.482 743.526C695.747 752.377 693.838 760.707 691.929 768.691C690.194 762.443 687.07 758.104 682.557 756.022ZM707.028 654.844L706.854 657.968C706.854 658.141 706.854 658.489 706.854 658.662L706.68 661.092C706.68 661.265 706.68 661.612 706.68 661.786C706.68 662.133 706.68 662.307 706.68 662.654C706.507 664.042 706.507 665.43 706.333 666.819L706.333 667.513C705.986 671.852 705.813 676.19 705.466 680.355C705.119 684 704.945 687.471 704.598 690.942L704.598 691.636C704.251 695.454 703.904 699.272 703.557 702.916C703.21 705.52 703.036 708.123 702.689 710.726L702.168 714.718C701.995 716.106 701.821 717.321 701.648 718.709C701.474 720.445 701.127 722.18 700.953 723.916C700.78 725.477 700.606 727.039 700.259 728.428C699.565 733.461 698.697 737.799 698.003 741.791L644.551 741.791L632.229 667.687L631.882 665.43L628.238 643.217L628.758 642.175C629.279 640.96 629.973 639.746 630.494 638.531C631.014 637.489 631.535 636.448 631.882 635.58C632.576 634.019 633.27 632.63 633.965 631.068C634.312 630.201 634.832 629.333 635.179 628.465C636.047 626.556 636.741 624.821 637.435 622.912C637.609 622.391 637.783 622.044 637.956 621.523C638.824 619.267 639.692 617.185 640.559 614.928L640.559 614.755C641.427 614.061 642.121 613.366 642.815 612.672C643.857 611.631 644.898 610.59 645.939 609.548C648.369 606.945 650.625 603.995 652.534 600.871C652.881 600.177 653.402 599.483 653.749 598.789L678.913 598.789L697.482 601.739C698.003 607.987 698.524 614.928 699.044 623.606C699.044 623.953 699.044 624.3 699.218 624.647C699.565 628.292 700.259 632.283 701.301 636.448C702.515 642.869 704.771 649.117 707.028 654.844ZM708.763 617.879C708.416 624.821 708.242 631.762 707.895 638.531L707.201 650.505C705.466 645.82 703.904 640.96 702.689 636.101C701.648 631.068 700.953 627.25 700.606 624.473C700.606 624.126 700.606 623.779 700.606 623.432C700.086 614.928 699.565 608.16 699.044 601.913L709.284 603.474L708.763 617.879ZM729.936 622.912C729.936 625.862 727.506 628.118 724.729 628.118C721.779 628.118 719.523 625.688 719.523 622.912L719.523 605.383L730.109 607.119L730.109 622.912L729.936 622.912ZM749.373 614.234C749.373 614.234 749.373 614.408 749.373 614.234L735.316 614.408C735.316 614.408 735.142 614.408 735.142 614.234L735.142 607.987L749.373 610.243L749.373 614.234ZM1119.89 670.463C1119.89 670.637 1119.72 670.81 1119.55 670.81L1034.86 657.621C1034.68 657.621 1034.51 657.447 1034.51 657.274L1034.86 655.018L1035.55 650.679C1035.55 650.506 1035.72 650.332 1035.9 650.332L1120.59 663.522C1120.76 663.522 1120.94 663.695 1120.94 663.869L1119.89 670.463ZM1254.05 686.083C1253.7 687.818 1251.79 688.859 1249.71 688.512L1122.15 668.034L1122.67 664.216C1122.84 663.174 1121.98 662.133 1120.94 661.96L1036.24 648.77C1035.72 648.597 1035.2 648.77 1034.68 649.117C1034.16 649.464 1033.99 649.985 1033.82 650.506L1033.29 653.977L750.414 608.681L710.325 602.26L710.151 602.26L656.178 593.582C659.476 586.467 661.385 579.004 661.732 571.195L701.474 577.095L1195.73 650.853C1214.82 653.629 1233.22 663.001 1242.42 674.629C1242.42 674.629 1243.29 675.67 1243.63 676.19C1245.02 677.579 1247.1 679.314 1250.05 678.62C1251.27 678.273 1252.31 677.579 1252.83 676.538C1254.22 679.835 1254.57 682.959 1254.05 686.083ZM750.241 576.922L1201.46 644.258C1202.16 644.431 1202.68 644.432 1203.37 644.605L1204.58 644.779L1204.76 644.779C1205.45 644.952 1205.97 644.952 1206.49 645.126L1209.79 645.82C1210.49 645.993 1211.18 646.167 1211.7 646.341C1213.44 646.861 1215.34 647.382 1217.08 648.076C1217.43 648.076 1217.6 648.25 1217.95 648.423C1223.67 650.506 1229.05 652.935 1233.74 655.886C1234.26 656.233 1234.78 656.58 1235.3 656.927C1236.34 657.621 1237.39 658.315 1238.43 659.009C1238.95 659.356 1239.29 659.704 1239.81 660.051C1240.68 660.745 1241.72 661.439 1242.59 662.307C1242.94 662.654 1243.46 663.001 1243.81 663.522C1244.15 663.869 1244.67 664.216 1245.02 664.736C1245.37 665.083 1245.72 665.431 1246.06 665.778L1246.58 666.298C1246.93 666.645 1247.1 666.993 1247.45 667.166L1248.32 668.207C1248.67 668.554 1249.01 669.075 1249.19 669.422C1249.71 670.116 1250.05 670.637 1250.57 671.331C1250.75 671.678 1250.92 671.852 1251.1 672.199C1251.27 672.546 1251.44 672.893 1251.62 673.24C1251.96 673.934 1251.96 674.802 1251.62 675.496C1251.27 676.19 1250.57 676.711 1249.88 676.885C1247.8 677.405 1246.06 676.19 1245.19 675.149C1244.85 674.629 1243.98 673.587 1243.98 673.587C1234.43 661.613 1215.69 652.067 1196.08 649.117L661.906 569.286C661.906 567.377 661.906 565.468 661.732 563.559L730.63 573.798L750.241 576.922ZM748.332 572.93L749.546 573.104L749.546 575.186L735.489 573.104L748.332 573.104L748.332 572.93ZM735.142 571.195C734.274 571.195 733.754 571.889 733.58 572.757L731.671 572.41L731.671 351.138L735.142 344.37L735.142 571.195ZM747.464 341.419L747.464 571.195L736.878 571.195L736.878 341.419L747.464 341.419ZM749.373 339.684L737.572 339.684L749.546 316.429L749.373 339.684ZM858.534 105.223C858.707 105.223 858.707 105.396 858.707 105.57L858.707 105.743L820.006 182.277C820.006 182.451 819.833 182.451 819.833 182.451L819.659 182.451L813.759 179.501C813.585 179.501 813.585 179.154 813.585 179.154L852.286 102.62C852.286 102.446 852.633 102.446 852.806 102.446L858.534 105.223ZM905.217 -19.3834C908.688 -19.557 911.812 -18.8628 914.763 -17.4744C915.457 -17.1273 915.804 -16.6067 916.151 -15.7389C916.498 -14.6977 916.324 -13.4828 915.804 -12.4416L856.972 102.62L853.501 100.884C852.459 100.364 851.245 100.711 850.724 101.752L812.023 178.286C811.85 178.633 811.85 178.806 811.85 179.154C811.85 179.327 811.85 179.674 812.023 179.848C812.197 180.368 812.544 180.716 813.064 181.063L816.188 182.625L735.489 340.205C735.489 340.205 735.489 340.378 735.316 340.378L709.804 390.359L642.121 522.428C639.518 519.999 636.568 517.742 633.444 515.66C633.097 515.486 632.75 515.313 632.403 515.139C629.279 513.23 625.981 511.495 622.51 510.28L709.804 335.172C709.804 335.172 709.804 334.998 709.978 334.998L863.393 27.127C872.07 9.77236 886.648 -4.80553 900.532 -10.0119C900.532 -10.0119 901.92 -10.5326 902.441 -10.7061C905.044 -11.7474 906.432 -13.6564 906.606 -16.086C906.606 -17.3009 906.085 -18.5157 905.217 -19.3834ZM736.878 251.175C736.878 248.225 739.307 245.969 742.084 245.969C742.605 245.969 743.299 246.142 743.819 246.316L736.878 260.373L736.878 251.175ZM719.349 286.405C719.349 283.455 721.779 281.199 724.556 281.199C725.076 281.199 725.771 281.372 726.291 281.546L719.349 295.603L719.349 286.405ZM719.176 299.595C719.176 299.595 719.176 299.421 719.176 299.595L728.2 281.372C728.2 281.372 728.2 281.372 728.2 281.199L736.704 264.191C736.704 264.191 736.704 264.191 736.704 264.018L858.534 19.491C859.228 18.1026 859.922 16.8878 860.442 15.6729C860.79 14.9788 861.137 14.4581 861.484 13.7639C861.831 13.2433 862.178 12.5491 862.525 12.0285C862.872 11.5078 863.219 10.8136 863.74 10.293C864.434 9.07817 865.302 8.03689 866.17 6.82206C866.517 6.47497 866.69 6.12788 867.037 5.60724C867.211 5.4337 867.211 5.26015 867.384 5.0866C868.946 3.00404 870.682 0.921493 872.591 -1.16106C872.938 -1.6817 873.458 -2.20233 873.979 -2.54943C874.5 -3.07006 874.847 -3.41716 875.367 -3.9378C875.888 -4.45844 876.235 -4.80554 876.756 -5.32618C877.103 -5.67327 877.624 -6.1939 877.971 -6.541C878.318 -6.88809 878.665 -7.23518 879.012 -7.40873C879.533 -7.75582 879.88 -8.27645 880.4 -8.62355L881.442 -9.49128C882.656 -10.359 883.871 -11.4003 885.26 -12.268C886.648 -13.3093 888.036 -14.0035 889.251 -14.6977C889.425 -14.6977 889.425 -14.8712 889.598 -14.8712C890.119 -15.2183 890.64 -15.3919 890.987 -15.5654C891.507 -15.7389 891.854 -16.086 892.375 -16.2596C892.896 -16.4331 893.243 -16.7802 893.763 -16.9538C894.111 -17.1273 894.631 -17.3009 894.978 -17.4744L895.152 -17.4744C895.325 -17.4744 895.325 -17.4744 895.499 -17.648C896.714 -18.1686 898.102 -18.5157 899.49 -18.8628C899.49 -18.8628 899.664 -18.8628 899.838 -18.8628C900.358 -19.0363 900.705 -19.0363 901.226 -19.2099C902.094 -19.2099 902.788 -19.0363 903.308 -18.5157C903.829 -17.9951 904.176 -17.1273 904.176 -16.4331C904.003 -14.3506 902.267 -13.1358 901.052 -12.6151C900.532 -12.4416 899.143 -11.9209 899.143 -11.9209C884.913 -6.54099 869.988 8.38399 861.137 26.0857L707.722 333.957C707.722 333.957 707.722 333.957 707.722 334.13L620.254 509.586C618.519 508.892 616.61 508.371 614.874 508.024L695.921 345.411L697.656 341.766C697.656 341.766 697.656 341.593 697.83 341.593L708.763 319.553L708.763 319.379L711.713 313.305C711.713 313.305 711.713 313.131 711.887 313.131L719.176 299.595ZM709.284 315.735C709.284 315.387 709.284 315.214 709.284 314.867C709.284 314.52 709.284 314.173 709.284 313.652L710.325 313.652L709.284 315.735ZM703.383 249.613C703.557 251.522 703.73 253.431 704.077 255.167C705.986 273.563 706.68 287.967 706.854 295.083L706.854 295.256C706.854 295.43 706.854 295.43 706.854 295.603L706.854 295.777C706.854 296.644 706.854 297.339 706.854 298.033C706.854 298.206 706.854 298.38 706.854 298.38L706.854 298.727C706.854 299.942 706.854 300.462 706.854 300.462C706.854 300.462 706.854 300.81 706.854 301.677C706.854 301.677 706.854 301.851 706.854 302.024L706.854 302.545C706.854 303.239 706.854 303.933 707.028 304.975L707.201 308.966C707.201 309.313 707.201 309.66 707.201 310.007C707.201 310.181 707.201 310.355 707.201 310.355C707.201 310.702 707.201 311.222 707.201 311.743L707.201 312.784C707.201 312.958 707.201 313.131 707.201 312.958C707.201 313.131 707.201 313.305 707.201 313.478C707.201 313.999 707.201 314.52 707.201 315.04C707.201 315.387 707.201 315.561 707.201 315.908L707.375 318.858L707.375 319.205L698.003 337.948L698.003 282.24C698.003 265.927 700.433 255.514 702.342 249.787C702.342 249.787 702.515 249.093 703.036 248.051L703.383 249.613ZM702.862 244.928C701.648 246.663 700.953 248.919 700.953 249.093C698.871 254.993 696.441 265.58 696.441 282.067L696.441 338.469C696.441 339.337 696.441 340.205 696.615 340.899L696.094 342.114C695.921 340.899 695.921 339.684 695.921 338.469L695.921 282.067C695.921 264.191 698.697 253.258 700.953 247.01C701.474 245.795 701.995 244.754 702.689 243.539C702.689 244.06 702.862 244.407 702.862 244.928ZM687.937 177.071C688.632 178.806 689.152 180.715 689.846 182.451L690.888 185.575L690.888 185.748L691.582 188.004C691.755 188.872 692.103 189.74 692.276 190.434L692.97 193.211C694.879 200.153 696.615 207.789 698.177 215.772L698.177 215.945C698.524 217.854 698.871 219.763 699.218 221.672C699.218 222.887 699.044 232.432 694.879 240.242C690.541 248.399 688.979 258.291 688.979 264.365L688.979 339.163C688.979 343.155 685.681 346.452 681.69 346.452L645.592 346.452C641.774 346.452 638.65 343.502 638.303 339.857C637.262 326.668 633.27 302.198 619.387 285.017C617.651 282.761 613.486 277.728 610.709 274.43C608.8 272.174 607.933 269.398 607.933 266.447L607.933 170.129C607.933 166.832 609.321 163.881 611.751 161.799C616.263 157.981 622.337 151.386 625.634 141.668C631.014 126.222 634.485 126.222 640.212 126.222C647.328 126.395 670.583 140.973 687.937 177.071ZM582.942 113.553C593.181 112.338 607.065 112.338 617.478 113.553C618.866 113.727 620.254 113.9 621.643 114.074C621.99 116.677 622.163 119.974 622.163 124.139C622.163 138.891 611.924 157.46 600.297 157.46C588.669 157.46 578.43 138.891 578.43 124.139C578.43 119.974 578.603 116.677 578.95 114.074C580.339 113.9 581.554 113.727 582.942 113.553ZM503.284 209.698C503.458 208.656 503.805 207.442 503.978 206.4C504.152 205.88 504.152 205.185 504.325 204.665L504.499 204.144C504.846 202.582 505.193 201.02 505.714 199.458L506.582 195.987C506.755 195.12 507.102 194.252 507.276 193.558L508.838 188.004L509.011 187.657C509.185 187.137 509.185 186.79 509.358 186.269L512.309 177.244C529.663 141.147 552.918 126.569 559.687 126.569C565.414 126.569 569.058 126.569 574.265 142.015C577.562 151.733 583.636 158.328 588.148 162.146C590.578 164.229 591.966 167.179 591.966 170.476L591.966 266.794C591.966 269.745 590.925 272.521 589.19 274.778C586.413 278.248 582.248 283.281 580.512 285.364C566.629 302.545 562.81 327.015 561.596 340.205C561.249 344.023 558.125 346.799 554.307 346.799L518.209 346.799C514.218 346.799 510.92 343.502 510.92 339.51L510.92 264.712C510.92 258.638 509.358 248.746 505.02 240.589C500.507 232.259 500.681 222.019 500.681 222.019C501.896 217.334 502.59 213.342 503.284 209.698ZM498.078 241.11C498.598 236.771 499.293 232.779 499.813 228.788C500.334 232.432 501.549 237.118 503.805 241.283C507.97 249.266 509.532 258.811 509.532 264.538L509.532 339.337C509.532 344.37 513.523 348.361 518.556 348.361L554.654 348.361C559.34 348.361 563.158 344.89 563.678 340.031C564.72 327.189 568.711 302.892 582.248 286.058C583.983 283.802 588.148 278.943 590.925 275.472C593.008 272.869 594.222 269.745 594.222 266.447L594.222 170.129C594.222 166.485 592.661 162.84 589.71 160.411C585.372 156.766 579.471 150.345 576.347 141.147C571.141 126.048 567.496 124.486 560.034 124.486C553.092 124.486 535.043 135.767 519.077 161.452C520.812 157.981 522.548 154.857 524.283 151.907C540.25 126.916 560.728 117.545 577.041 114.247C576.868 116.85 576.521 119.974 576.521 123.966C576.521 139.758 587.454 159.196 600.123 159.196C612.792 159.196 623.725 139.932 623.725 123.966C623.725 120.148 623.552 116.85 623.205 114.247C639.518 117.371 659.997 126.743 675.963 151.907C677.872 154.857 679.607 157.981 681.343 161.452C665.376 135.767 647.328 124.486 640.386 124.486C632.923 124.486 629.279 126.048 624.072 141.147C620.775 150.518 615.048 156.766 610.709 160.411C607.933 162.84 606.197 166.311 606.197 170.129L606.197 266.447C606.197 269.745 607.412 272.869 609.495 275.472C612.271 278.943 616.436 283.976 618.172 286.058C631.708 302.892 635.526 327.015 636.568 340.031C636.915 344.717 640.906 348.361 645.592 348.361L681.69 348.361C686.723 348.361 690.714 344.37 690.714 339.337L690.714 264.538C690.714 259.853 691.929 249.787 696.441 241.283C698.697 237.118 699.739 232.432 700.433 228.788C701.127 232.779 701.648 236.944 702.168 241.11C700.78 242.845 699.739 244.581 699.044 246.49C696.615 252.737 693.838 264.018 693.838 282.067L693.838 338.469C693.838 340.899 694.012 342.981 694.532 344.89L647.848 438.779L627.717 438.779C633.791 411.359 632.056 348.361 632.056 347.667C632.056 305.842 613.139 285.885 604.982 279.29C603.594 278.248 601.858 277.554 600.123 277.554C598.388 277.554 596.652 278.075 595.264 279.29C587.107 285.885 568.191 305.842 568.191 347.667C568.191 348.361 566.282 411.359 572.529 438.779L534.002 438.779C529.316 438.779 525.325 441.903 524.11 446.415C522.895 451.274 521.68 456.481 520.465 462.208L506.234 447.803L506.234 386.889C506.234 383.418 505.193 366.584 491.309 365.716C491.309 362.766 491.483 359.989 491.483 357.212C493.219 357.212 497.384 356.691 500.854 353.568C504.325 350.444 506.234 345.411 506.234 338.643L506.234 282.24C506.234 264.191 503.458 252.911 501.028 246.663C500.334 244.58 499.293 242.845 498.078 241.11ZM473.608 325.974L481.07 325.974L481.07 422.466L470.484 411.879L470.484 327.883C471.352 327.709 472.567 327.362 473.608 325.974ZM470.484 325.974C470.31 325.974 470.137 325.974 469.963 325.8C469.616 325.627 469.096 325.279 468.748 324.585C468.922 324.759 468.922 324.759 469.096 324.932C469.79 325.453 470.484 325.627 471.178 325.8C471.005 325.974 470.831 325.974 470.484 325.974ZM482.806 325.974L490.789 325.974C490.789 326.147 490.789 326.494 490.789 326.668C490.789 326.841 490.789 327.015 490.789 327.188L490.789 327.709C490.789 327.883 490.789 327.883 490.789 328.056L490.789 329.445L490.789 329.965C490.789 330.139 490.789 330.312 490.789 330.486C490.789 331.701 490.789 332.916 490.615 334.304L490.442 339.51C490.442 340.031 490.442 340.552 490.442 341.072L490.268 349.576C490.268 350.097 490.268 350.617 490.268 350.964L490.268 354.088L490.268 356.171C490.268 359.468 490.095 362.939 490.095 366.41C490.095 366.41 490.095 366.41 490.095 366.584C489.921 373.352 489.747 380.467 489.574 388.103C489.574 388.797 489.574 389.492 489.574 390.012C489.574 392.095 489.574 394.004 489.4 396.086C489.4 397.128 489.4 397.995 489.4 399.037C489.4 399.21 489.4 399.384 489.4 399.731C489.227 403.722 489.227 407.714 489.227 411.706L489.053 424.201C489.053 424.375 489.053 424.722 489.053 424.895L489.053 430.102L483.5 424.375L483.5 325.974L482.806 325.974ZM490.095 429.581L490.095 425.242C490.095 424.895 490.095 424.375 490.095 424.027L490.268 411.706L490.268 411.532C490.268 408.061 490.442 404.764 490.442 401.293C490.442 400.599 490.442 399.904 490.442 399.21C490.442 399.21 490.442 399.21 490.442 399.037C490.442 396.434 490.615 393.83 490.615 391.227L490.615 390.88C490.615 390.707 490.615 390.359 490.615 390.186C490.615 390.012 490.615 389.839 490.615 389.839L490.615 387.236C490.789 381.335 490.962 375.608 490.962 370.228L492.351 370.575C500.855 372.311 501.722 383.938 501.722 387.409L501.722 443.985L489.748 432.011C490.095 430.796 490.095 430.102 490.095 429.581ZM503.805 386.889C503.805 383.07 502.763 370.402 493.045 368.493L491.309 368.145C491.309 367.972 491.309 367.798 491.309 367.625C503.284 368.319 504.499 382.55 504.499 387.062L504.499 446.241L503.805 445.547L503.805 386.889ZM497.557 244.928C497.557 244.407 497.731 244.06 497.731 243.713C498.425 244.754 499.119 245.969 499.466 247.184C501.722 253.258 504.499 264.365 504.499 282.24L504.499 338.643C504.499 344.89 502.937 349.402 499.813 352.353C496.863 355.129 493.218 355.477 491.657 355.477L491.657 354.956C492.524 354.782 493.392 354.609 493.392 354.609C495.822 354.262 497.731 353.22 499.293 351.832C502.243 349.055 503.805 344.717 503.805 338.816L503.805 282.414C503.805 265.927 501.375 255.34 499.293 249.44C499.466 248.919 498.598 246.663 497.557 244.928ZM493.045 310.355C493.045 310.181 493.045 310.007 493.045 310.007L493.219 305.495L493.219 303.413L493.219 302.719C493.219 302.545 493.219 302.371 493.219 302.371L493.219 302.198L493.219 300.636C493.219 300.636 493.219 299.942 493.219 298.9L493.219 298.553C493.219 298.38 493.219 298.38 493.219 298.033C493.219 297.512 493.219 296.818 493.219 295.95L493.219 295.777C493.219 295.603 493.219 295.603 493.219 295.43C493.219 295.43 493.219 295.43 493.219 295.256C493.392 289.355 493.913 273.563 496.169 253.778C496.169 253.778 496.169 253.605 496.169 253.431C496.169 252.737 496.342 251.869 496.342 251.002C496.342 250.828 496.342 250.655 496.342 250.481C496.342 250.308 496.342 250.134 496.342 249.96L496.342 249.44C496.342 248.919 496.516 248.572 496.516 248.051C496.863 248.919 497.21 249.787 497.21 249.787C499.119 255.514 501.549 265.927 501.549 282.24L501.549 338.643C501.549 344.196 500.16 348.014 497.731 350.444C496.342 351.659 494.78 352.526 492.524 352.873C492.524 352.873 491.83 353.047 491.136 353.22L491.136 351.138C491.136 350.617 491.136 350.27 491.136 349.75L491.309 341.246C491.309 340.725 491.309 340.205 491.309 339.684L491.483 334.477C491.483 333.263 491.483 331.874 491.657 330.659C491.657 330.486 491.657 330.312 491.657 329.965C491.657 329.792 491.657 329.618 491.657 329.445L491.657 327.015C491.657 326.841 491.657 326.841 491.657 326.668C491.657 326.321 491.657 325.974 491.657 325.627C491.657 325.453 491.657 325.28 491.657 325.106C491.657 323.544 491.657 322.156 491.83 320.767L491.83 320.42L491.83 319.9C491.83 319.726 491.83 319.552 491.83 319.552L491.83 319.379L491.83 318.858C491.83 318.511 491.83 317.991 491.83 317.643C491.83 316.949 491.83 316.429 491.83 315.734C491.83 315.561 491.83 315.387 491.83 315.04L493.045 310.355ZM490.789 324.238L472.914 324.238C471.525 324.238 470.484 324.065 469.963 323.718C469.443 323.371 468.748 322.329 468.748 319.032C468.748 315.561 469.443 314.693 469.963 314.346C470.484 313.999 471.352 313.825 473.087 313.825L491.136 313.825L491.136 315.04C491.136 315.214 491.136 315.387 491.136 315.734C491.136 316.429 491.136 316.949 491.136 317.643L491.136 318.858L491.136 319.032L491.136 319.205L491.136 320.594L491.136 320.767C490.962 321.809 490.789 323.023 490.789 324.238ZM471.178 312.09C470.484 312.264 469.616 312.437 469.096 312.784C468.922 312.784 468.922 312.958 468.748 313.131C469.096 312.611 469.616 312.09 469.963 311.916C470.137 311.916 470.31 311.743 470.484 311.743C470.831 311.743 471.005 311.916 471.178 312.09ZM470.484 286.405C470.484 283.455 472.914 281.199 475.69 281.199C478.641 281.199 481.07 283.628 481.07 286.405L481.07 311.916L473.608 311.916C472.74 310.702 471.699 310.007 470.484 310.007L470.484 286.405ZM451.047 339.684C451.047 339.684 450.873 339.51 451.047 339.684L450.873 298.38C450.873 298.38 450.873 298.206 451.047 298.206L465.104 298.206C465.104 298.206 465.277 298.206 465.277 298.38L465.277 311.049C465.277 311.569 465.625 311.916 466.145 311.916L467.707 311.916C466.492 313.478 465.625 316.082 465.625 319.032C465.625 321.982 466.319 324.585 467.534 326.147L465.972 326.147C465.451 326.147 465.104 326.494 465.104 327.015L465.104 339.684C465.104 339.684 465.104 339.857 464.93 339.857L451.047 339.857L451.047 339.684ZM465.277 341.419C466.145 341.246 467.013 340.552 467.013 339.684L467.013 327.883L468.748 327.883L468.748 410.144L465.277 406.673L465.277 341.419ZM452.956 341.419L463.542 341.419L463.542 404.764L452.956 394.177L452.956 341.419ZM240.535 179.153L301.45 239.548L301.623 239.721L301.623 239.895L300.061 241.457L296.937 244.58C296.937 244.58 296.764 244.58 296.764 244.754L296.59 244.754L235.676 184.36L235.676 184.186C235.676 184.186 235.676 184.013 235.849 184.013L240.535 179.327L240.708 179.327C240.361 179.153 240.361 179.153 240.535 179.153ZM140.746 87.6945C141.961 86.4797 144.217 86.6532 145.779 88.2151L236.891 179.674L234.114 182.451C233.767 182.798 233.593 183.319 233.593 183.839C233.593 184.36 233.767 184.88 234.114 185.228L295.029 245.622C295.376 245.969 295.896 246.142 296.417 246.142C296.937 246.142 297.458 245.969 297.805 245.448L300.235 243.018L563.158 506.983L569.752 513.577C569.058 513.924 568.538 514.271 567.843 514.619C563.678 517.222 559.86 520.172 556.389 523.469C556.389 523.469 556.389 523.469 556.389 523.643C554.827 525.031 553.439 526.767 552.051 528.502L469.963 447.977L167.125 150.518C153.241 136.982 143.87 118.586 143.349 103.834C143.349 103.834 143.349 102.446 143.349 101.752C143.002 98.975 141.787 97.066 139.531 96.0247C138.316 95.5041 137.101 95.6776 136.06 96.1983C136.928 92.9009 138.49 89.9506 140.746 87.6945ZM452.609 441.382L158.795 152.601C149.597 143.576 142.308 132.469 138.316 121.362C137.969 120.495 137.796 119.801 137.448 118.933C136.754 116.85 136.234 114.768 135.886 112.859C135.019 108.867 134.845 105.049 135.019 101.578C135.019 101.405 135.019 101.058 135.019 100.884C135.019 100.537 135.192 100.19 135.192 99.8427C135.366 98.975 135.886 98.2808 136.581 97.9337C137.275 97.5866 138.143 97.4131 138.837 97.7602C140.746 98.6279 141.44 100.537 141.614 101.925C141.614 102.446 141.614 104.008 141.614 104.008C142.308 119.28 151.853 138.023 165.91 151.907L451.394 432.531L551.009 530.585C549.968 531.973 548.927 533.535 547.886 535.097C547.886 535.097 547.886 535.271 547.712 535.271L452.609 441.382ZM452.956 571.195L452.956 443.985L463.542 454.398L463.542 571.195L452.956 571.195ZM465.277 571.195L465.277 456.133L468.748 459.604L468.748 584.905L467.013 584.905L467.013 573.104C466.839 572.062 466.145 571.368 465.277 571.195ZM451.047 614.408C451.047 614.408 450.873 614.234 451.047 614.408L450.873 573.104C450.873 573.104 450.873 572.93 451.047 572.93L465.104 572.93C465.104 572.93 465.277 572.93 465.277 573.104L465.277 585.773C465.277 586.293 465.625 586.64 466.145 586.64L467.707 586.64C466.492 588.202 465.798 590.805 465.798 593.756C465.798 596.706 466.492 599.309 467.707 600.871L466.145 600.871C465.625 600.871 465.277 601.218 465.277 601.739L465.277 614.408C465.277 614.408 465.278 614.581 465.104 614.581L451.047 614.581L451.047 614.408ZM466.839 614.234L466.839 602.433L468.575 602.433L468.575 613.887L466.492 614.928C466.839 614.755 466.839 614.581 466.839 614.234ZM452.956 616.143L463.542 616.143L463.542 616.664L452.956 622.044L452.956 616.143ZM119.226 790.21L119.226 790.037C119.226 790.037 119.226 789.863 119.4 789.863L195.586 750.642C195.76 750.642 195.934 750.642 196.107 750.815L197.148 752.724L199.057 756.542L199.057 756.716C199.057 756.716 199.057 756.716 199.057 756.889C199.057 756.889 199.057 757.063 198.884 757.063L122.697 796.284C122.523 796.284 122.523 796.284 122.523 796.284C122.523 796.284 122.35 796.284 122.35 796.111L119.226 790.21ZM1.56164 856.331C1.21459 855.464 1.21447 854.769 1.38805 854.249C1.73522 853.207 2.6029 852.34 3.64416 851.819L118.879 793.334L120.614 796.805C120.788 797.326 121.309 797.673 121.829 797.846C122.35 798.02 122.87 798.02 123.391 797.673L199.578 758.451C200.099 758.278 200.446 757.757 200.619 757.236C200.793 756.716 200.793 756.195 200.446 755.674L198.884 752.551L539.382 579.872C540.944 587.508 543.894 594.797 548.059 601.218L69.2447 850.604C52.0637 859.629 31.7587 862.752 17.3544 858.761C17.3544 858.761 15.9661 858.414 15.4454 858.24C12.6687 857.72 10.4125 858.24 8.85058 860.149C8.15637 861.017 7.80932 861.885 7.80932 862.926C7.80932 863.1 7.80932 863.273 7.80932 863.447C5.20617 861.538 3.12365 859.282 1.56164 856.331ZM463.542 663.868C463.542 666.819 461.112 669.075 458.336 669.075C455.385 669.075 453.129 666.645 453.129 663.868L453.129 661.092L463.716 655.538L463.716 663.868L463.542 663.868ZM464.063 653.456L68.8977 859.108C55.8817 865.876 40.9567 869.521 27.9407 869L26.8994 869C26.2052 869 25.6846 869 24.9905 868.827C24.1227 868.827 23.4285 868.653 22.5608 868.48L21.8666 868.306C21.3459 868.306 20.6517 868.132 20.1311 867.959L19.9575 867.959C19.2634 867.785 18.5692 867.612 17.875 867.438C17.0072 867.265 15.9661 866.918 15.0983 866.57C14.5776 866.397 14.057 866.223 13.3628 865.876C12.6686 865.529 11.8009 865.356 11.1067 865.009C10.4126 864.661 9.89184 863.967 9.71825 863.1C9.54467 862.232 9.71838 861.538 10.239 861.017C11.6273 859.455 13.71 859.455 15.0983 859.629C15.6189 859.802 17.0072 860.149 17.0072 860.149C31.7587 864.141 52.5843 861.017 70.1125 851.819L549.274 602.78C550.315 604.342 551.53 605.904 552.745 607.292L498.251 635.754C498.251 635.754 498.251 635.754 498.078 635.754L491.309 639.225C491.309 639.225 491.309 639.225 491.136 639.225L464.063 653.456ZM492.698 641.655L492.698 640.613L497.21 638.184C495.995 642.349 494.607 646.687 493.219 650.505C493.045 647.555 492.871 644.605 492.698 641.655ZM501.549 735.89C501.549 735.37 501.375 734.849 501.375 734.328L501.375 733.808C501.375 733.634 501.375 733.461 501.202 733.114C501.028 731.725 500.681 730.163 500.507 728.601C500.334 727.56 500.16 726.692 499.987 725.651L499.64 722.874C499.119 718.536 498.598 714.544 498.078 710.726C497.384 704.305 496.689 697.884 496.169 691.636L496.169 690.942C495.822 687.471 495.648 684 495.301 680.355C495.127 679.141 495.127 677.752 494.954 676.537L493.739 658.141C493.739 657.621 493.739 657.1 493.566 656.406L493.392 654.844C495.475 649.464 497.731 643.216 499.293 637.142L553.96 608.681C554.133 609.028 554.48 609.201 554.827 609.548C555.869 610.59 556.91 611.631 557.951 612.672C558.645 613.366 559.513 614.061 560.207 614.755C560.728 616.143 561.249 617.358 561.769 618.746L561.769 618.92C562.29 620.135 562.81 621.35 563.331 622.564C563.505 623.085 563.852 623.606 564.025 624.126C564.372 624.821 564.72 625.688 564.893 626.383C565.24 627.077 565.414 627.771 565.761 628.465C566.108 629.159 566.281 629.68 566.629 630.374C566.802 630.895 567.149 631.415 567.323 632.11C567.67 632.804 568.017 633.498 568.364 634.192C568.538 634.366 568.538 634.713 568.711 634.886C571.661 641.308 574.785 647.382 577.909 653.109C581.206 659.356 584.504 664.91 587.454 669.596C587.801 670.116 588.148 670.637 588.495 671.157C588.669 671.331 588.843 671.505 589.016 671.852C589.19 672.025 589.363 672.372 589.537 672.546C589.884 672.893 590.231 673.24 590.578 673.414L590.752 673.587C593.008 675.323 595.784 676.364 598.908 676.711L609.147 741.791L502.764 741.791L501.549 735.89ZM519.25 759.84C521.854 758.625 524.457 758.798 526.886 760.013C532.787 762.79 537.993 771.641 541.464 784.657C546.497 803.92 546.15 825.093 541.291 832.729C541.464 832.035 541.811 831.341 541.985 830.647C543.547 824.572 543.547 814.854 541.985 803.747C541.985 803.226 541.811 802.706 541.811 802.185L541.811 802.011C541.638 800.276 541.291 798.714 540.944 796.979C540.597 795.417 540.25 793.855 539.902 792.293L539.382 790.21L539.382 790.037C539.035 788.648 538.688 787.434 538.341 786.045C537.473 783.095 536.605 780.318 535.737 777.888C533.308 771.294 528.622 766.781 523.936 766.434C522.027 766.261 520.118 766.608 518.383 767.302C515.78 768.343 513.35 770.252 511.614 772.856C511.441 773.203 511.267 773.55 510.92 773.897C511.962 766.608 514.738 761.749 519.25 759.84ZM518.556 758.104C515.085 759.666 512.482 762.616 510.92 766.781C512.482 762.269 515.085 758.972 518.556 757.583C522.027 756.022 525.672 756.542 529.143 759.145C528.622 758.798 528.275 758.625 527.754 758.278C524.63 756.889 521.507 756.889 518.556 758.104ZM522.374 821.102C522.374 820.928 522.201 820.928 522.201 820.754C519.25 815.201 516.474 808.606 514.218 802.011L514.044 801.317C513.523 799.408 513.003 797.846 512.482 796.284C511.788 793.855 511.267 791.425 510.747 789.169C510.226 786.219 510.052 783.268 510.4 780.665C510.4 780.318 510.573 779.797 510.573 779.45C510.573 779.103 510.747 778.756 510.747 778.409C510.747 778.236 510.92 777.888 510.92 777.715C510.92 777.541 511.094 777.368 511.094 777.021C511.267 776.674 511.267 776.5 511.441 776.326C511.788 775.459 512.309 774.765 512.656 774.07C514.218 771.814 516.3 770.079 518.556 769.211C520.118 768.517 521.68 768.343 523.415 768.343C527.407 768.69 531.572 772.682 533.828 778.583C534.696 781.012 535.564 783.789 536.431 786.566C536.779 787.954 537.126 789.169 537.473 790.557L537.993 792.813C538.341 794.375 538.688 795.937 538.861 797.499C539.208 799.235 539.382 800.797 539.729 802.532L539.729 802.706C539.729 803.226 539.902 803.747 539.902 804.268C541.464 815.027 541.291 824.572 539.902 830.473C539.208 833.25 538.167 835.159 536.779 836.026C536.605 836.026 536.605 836.2 536.431 836.2C536.084 836.374 535.737 836.374 535.39 836.374C532.44 836.026 527.407 830.473 522.374 821.102ZM569.926 898.677C569.579 898.33 569.579 897.983 569.579 897.635C569.579 888.611 569.232 879.413 565.24 873.512C561.422 867.785 557.257 862.753 552.745 857.373C548.059 851.819 543.026 845.919 537.993 838.63C538.514 838.456 539.035 838.456 539.555 838.109C549.448 833.77 549.795 805.656 544.068 783.268C542.853 778.583 541.291 774.244 539.729 770.599C534.002 758.104 525.845 752.724 518.036 756.195C513.523 758.278 510.4 762.616 508.664 768.864C506.581 760.881 504.846 752.551 503.111 743.7L599.429 743.7L599.429 899.024L571.141 899.197C570.62 899.024 570.273 898.85 569.926 898.677ZM632.576 897.635C632.576 896.247 632.576 894.859 632.576 893.47L650.278 1006.8L648.89 1006.97C647.848 1007.14 647.154 1008.01 647.154 1009.05C647.154 1009.23 647.154 1009.23 647.154 1009.4L660.864 1094.09C660.864 1094.61 661.211 1095.13 661.732 1095.48C662.253 1095.83 662.773 1096 663.294 1095.83L664.162 1095.65L668.153 1120.82L627.89 1120.82L630.146 900.759C631.535 900.239 632.576 899.024 632.576 897.635ZM626.155 1120.64L609.321 1120.64L609.321 900.586L628.411 900.759L626.155 1120.64ZM574.265 1120.64L572.182 900.759L590.925 900.586L590.925 1120.64L574.265 1120.64ZM433.171 1154.66L433.345 1142.51L435.254 1142.51L435.254 1154.66L433.171 1154.66ZM436.989 1154.66L436.989 1141.64L436.989 1140.77L436.989 1122.9C436.989 1122.55 437.163 1122.38 437.51 1122.38L441.155 1122.38C441.502 1122.38 441.675 1122.55 441.675 1122.9L441.675 1159.69L436.816 1159.69L436.816 1155.53L436.816 1154.66L436.989 1154.66ZM573.05 1189.54L443.411 1189.54L443.411 1160.73L443.411 1159.86L443.411 1123.07C443.411 1122.9 443.411 1122.73 443.237 1122.55L572.356 1122.55L573.05 1189.54ZM574.265 1122.38L590.925 1122.38L590.925 1189.54L574.785 1189.54L574.265 1122.38ZM433.171 1177.05L433.171 1156.39L435.254 1156.39L435.254 1177.05L433.171 1177.05ZM441.675 1218C441.675 1218.18 441.502 1218.35 441.328 1218.35L437.337 1218.35C437.163 1218.35 436.989 1218.18 436.989 1218L436.989 1178.95L436.989 1178.09L436.989 1161.6L441.675 1161.6L441.675 1218ZM592.661 900.759L607.585 900.759L607.585 1200.65L592.661 1200.65L592.661 900.759ZM574.785 1191.28L590.925 1191.28L590.925 1200.65L574.785 1200.65L574.785 1191.28ZM574.959 1202.9L587.801 1202.9L589.016 1291.93L582.248 1299.05C579.471 1301.82 577.735 1305.47 577.215 1309.46L576 1319.35L574.959 1202.9ZM576.694 1396.06L576.174 1334.1C576.174 1332.54 576.174 1331.15 576.347 1329.59L578.95 1309.29C579.471 1305.82 581.033 1302.52 583.463 1299.92L589.016 1294.19L590.057 1371.24L590.057 1371.76C590.057 1372.81 590.057 1373.67 590.057 1374.71C590.057 1377.84 590.231 1381.14 590.404 1384.61C591.099 1393.98 591.446 1401.61 591.793 1408.38L591.966 1411.85C592.14 1416.02 592.487 1419.84 592.661 1423.83L589.537 1423.83C587.281 1423.83 585.372 1422.61 584.504 1420.53L579.124 1407.69C577.562 1404.22 576.694 1400.23 576.694 1396.06ZM586.934 1475.02C583.81 1475.02 581.206 1472.77 580.859 1469.82L577.909 1449.51C577.215 1445.17 577.041 1440.84 576.868 1436.67L576.521 1406.65C576.694 1407.34 577.041 1408.04 577.388 1408.73L582.768 1421.57C583.81 1424.18 586.413 1425.91 589.363 1425.91L592.661 1425.91C593.181 1433.2 593.875 1442.57 595.264 1455.76C595.784 1459.75 598.04 1461.49 600.123 1461.49C602.206 1461.49 604.462 1459.75 604.982 1455.76C606.197 1444.83 606.891 1435.63 607.585 1425.91L610.883 1425.91C613.833 1425.91 616.263 1424.18 617.478 1421.57L622.858 1408.73C623.205 1408.04 623.378 1407.34 623.552 1406.65L623.205 1436.67C623.205 1441.01 622.858 1445.35 622.163 1449.51L619.213 1469.82C618.866 1472.77 616.263 1475.02 613.139 1475.02L586.934 1475.02Z" fill="#012FEA"/>
<path d="M511.961 339.51C511.961 343.155 514.912 346.105 518.556 346.105L554.654 346.105C558.125 346.105 560.901 343.502 561.249 340.031C562.29 326.841 566.281 302.024 580.339 284.843C582.074 282.587 586.239 277.554 589.016 274.257C590.751 272.174 591.619 269.571 591.619 266.794L591.619 170.476C591.619 167.526 590.231 164.575 587.975 162.666C583.462 158.848 577.215 152.08 573.744 142.188C568.711 127.784 565.934 127.089 559.687 127.089C554.654 127.089 531.399 139.064 512.829 177.418C508.317 189.913 504.499 204.838 501.375 221.846L501.375 222.019C501.375 223.06 501.549 232.432 505.54 240.068C510.052 248.398 511.614 258.464 511.614 264.538L511.614 339.51L511.961 339.51ZM507.449 239.374C503.631 232.258 503.458 223.408 503.458 222.193C506.581 205.185 510.226 190.434 514.738 178.112C532.787 140.626 555.174 128.998 559.86 128.998C565.066 128.998 567.323 128.998 572.182 142.882C575.653 153.121 582.074 160.063 586.933 164.055C588.842 165.617 589.884 168.046 589.884 170.476L589.884 266.794C589.884 269.05 589.016 271.306 587.627 273.215C584.677 276.686 580.686 281.719 578.777 283.975C564.546 301.677 560.554 326.668 559.339 340.204C559.166 342.807 557.083 344.543 554.48 344.543L518.383 344.543C515.779 344.543 513.523 342.46 513.523 339.684L513.523 264.885C513.697 258.29 512.135 247.878 507.449 239.374Z" fill="#012FEA"/>
<path d="M640.385 127.089C634.311 127.089 631.361 127.784 626.328 142.188C622.857 151.906 616.783 158.675 612.097 162.666C609.841 164.575 608.453 167.352 608.453 170.476L608.453 266.794C608.453 269.571 609.32 272.174 611.056 274.257C613.833 277.728 617.998 282.76 619.733 284.843C633.617 302.024 637.608 326.841 638.823 340.031C639.17 343.502 641.947 346.105 645.418 346.105L681.516 346.105C685.16 346.105 688.11 343.155 688.11 339.51L688.11 264.712C688.11 258.637 689.672 248.572 694.185 240.242C698.003 233.126 698.35 224.622 698.35 222.019C695.399 205.012 691.581 190.087 686.896 177.418C668.847 139.064 645.418 127.089 640.385 127.089ZM685.681 177.938C690.193 190.434 694.011 205.359 696.961 222.019C696.961 224.449 696.614 232.606 692.97 239.374C688.457 247.878 686.722 258.29 686.722 264.712L686.722 339.51C686.722 342.113 684.639 344.369 681.863 344.369L645.765 344.369C643.162 344.369 641.253 342.46 640.906 340.031C639.691 326.668 635.699 301.503 621.469 283.802C619.733 281.546 615.568 276.513 612.618 273.042C611.229 271.306 610.362 269.05 610.362 266.621L610.362 170.302C610.362 167.873 611.403 165.443 613.312 163.881C617.998 159.89 624.419 152.948 628.063 142.709C632.923 128.825 635.179 128.825 640.385 128.825C645.244 128.825 667.632 140.626 685.681 177.938Z" fill="#012FEA"/>
<path d="M602.9 366.41C602.9 366.41 602.9 366.236 602.9 366.41C602.9 366.236 602.9 366.236 602.9 366.236L602.9 345.931C602.9 345.411 603.073 345.064 603.247 344.89C605.85 344.022 607.412 342.113 607.412 340.204C607.412 340.031 607.412 340.031 607.412 339.857C607.065 337.081 603.941 334.998 600.297 334.998C596.479 334.998 593.528 337.081 593.181 339.857C593.181 340.031 593.181 340.031 593.181 340.204L593.181 340.378C593.181 342.461 594.743 344.196 597.173 345.064C597.346 345.064 597.694 345.584 597.694 346.105L597.694 366.41C597.694 366.41 597.694 366.41 597.694 366.583C597.694 366.583 597.694 366.584 597.694 366.757C597.694 368.319 598.908 369.534 600.47 369.534C601.685 369.013 602.9 367.798 602.9 366.41ZM599.255 366.41C599.255 366.236 599.255 366.063 599.255 365.889L599.255 345.758C599.255 344.543 598.561 343.502 597.694 343.155C595.958 342.461 594.743 341.246 594.743 340.204L594.743 340.031C594.917 338.122 597.346 336.56 600.297 336.56C603.247 336.56 605.677 338.122 605.677 340.031L605.677 340.204C605.677 341.419 604.462 342.634 602.726 343.328C601.859 343.675 601.164 344.717 601.164 345.931L601.164 366.063C601.164 366.236 601.164 366.41 601.164 366.584C601.164 367.104 600.644 367.451 600.123 367.451C599.603 367.278 599.255 366.931 599.255 366.41Z" fill="#012FEA"/>
<path d="M517.688 577.442L517.688 536.659C517.688 536.312 517.515 536.138 517.341 535.965C517.168 535.791 516.821 535.791 516.474 535.965C515.432 536.486 514.738 537.006 513.87 537.7C513.697 537.874 513.697 538.047 513.697 538.395L513.697 575.881C513.697 576.054 513.87 576.401 513.87 576.575C514.565 577.269 515.432 577.963 516.474 578.31C516.821 578.484 516.994 578.484 517.341 578.31C517.515 578.137 517.688 577.79 517.688 577.442ZM515.432 575.533L515.432 538.742C515.606 538.568 515.779 538.395 515.953 538.221L515.953 575.881C515.779 575.881 515.606 575.707 515.432 575.533Z" fill="#012FEA"/>
<path d="M521.159 579.004C521.506 579.004 521.854 578.484 521.854 578.136L521.854 536.312C521.854 535.965 521.506 535.618 521.159 535.444L520.986 535.444C520.639 535.444 520.292 535.271 519.771 535.271C519.424 535.271 519.077 535.27 518.73 535.444L518.556 535.444C518.209 535.444 517.862 535.791 517.862 536.312L517.862 578.136C517.862 578.484 518.209 578.831 518.556 579.004L518.903 579.004C519.25 579.004 519.597 579.178 519.944 579.178C520.292 579.178 520.639 579.178 520.986 579.004L521.159 579.004ZM519.597 577.442L519.597 537.006C519.771 537.006 519.771 537.006 519.944 537.006C520.118 537.006 520.118 537.006 520.292 537.006L520.292 577.442C520.118 577.442 520.118 577.442 519.944 577.442C519.771 577.442 519.597 577.442 519.597 577.442Z" fill="#012FEA"/>
<path d="M521.853 536.659L521.853 577.442C521.853 577.789 522.027 577.963 522.2 578.136C522.374 578.31 522.721 578.31 523.068 578.136C524.109 577.616 524.977 577.095 525.671 576.401C525.845 576.227 525.845 576.054 525.845 575.88L525.845 538.394C525.845 538.221 525.671 537.873 525.671 537.873C524.977 537.179 524.109 536.485 523.068 536.138C522.721 535.964 522.547 535.964 522.2 536.138C522.027 536.138 521.853 536.485 521.853 536.659ZM524.109 538.741L524.109 575.533C523.936 575.707 523.762 575.88 523.589 576.054L523.589 538.394C523.762 538.394 523.936 538.568 524.109 538.741Z" fill="#012FEA"/>
<path d="M513.697 573.45L513.697 540.65C513.697 540.303 513.35 539.956 513.003 539.782C512.656 539.609 512.309 539.782 511.962 540.13C510.573 542.559 509.879 545.509 509.879 548.46L509.879 565.467C509.879 568.418 510.573 571.368 511.962 573.798C512.135 574.145 512.482 574.318 513.003 574.145C513.35 574.318 513.697 573.971 513.697 573.45ZM511.615 565.641L511.615 548.633C511.615 547.592 511.788 546.551 511.962 545.509L511.962 568.765C511.788 567.723 511.615 566.682 511.615 565.641Z" fill="#012FEA"/>
<path d="M525.845 540.65L525.845 573.451C525.845 573.798 526.192 574.145 526.539 574.318C526.886 574.492 527.233 574.318 527.581 573.971C528.969 571.542 529.663 568.591 529.663 565.641L529.663 548.634C529.663 545.683 528.969 542.733 527.581 540.303C527.407 539.956 527.06 539.783 526.539 539.956C526.192 539.956 525.845 540.303 525.845 540.65ZM527.928 548.634L527.928 565.641C527.928 566.682 527.754 567.724 527.581 568.765L527.581 545.51C527.928 546.551 527.928 547.592 527.928 548.634Z" fill="#012FEA"/>
<path d="M537.819 527.287L536.604 526.073L537.819 527.287Z" fill="#012FEA"/>
</svg>
